<svg xmlns="http://www.w3.org/2000/svg" xmlns:xlink="http://www.w3.org/1999/xlink" version="1.1" x="0px" y="0px" width="100px" height="100px" viewBox="0 0 100 100" enable-background="new 0 0 100 100" xml:space="preserve">
<g id="Captions">
	<rect x="-192" width="185" height="99"/>
	<rect y="-36" width="100" height="30"/>
	<text transform="matrix(1 0 0 1 66 -19.5)" fill="#000000" font-family="'Helvetica'" font-size="2.4">http://thenounproject.com</text>
	<text transform="matrix(1 0 0 1 7.166 -24.5)"><tspan x="0" y="0" fill="#000000" font-family="'Helvetica-Bold'" font-size="6.1578">The Noun Project</tspan><tspan x="1.12" y="4.8" fill="#000000" font-family="'Helvetica-Bold'" font-size="4">Icon Template</tspan></text>
	<text transform="matrix(1 0 0 1 -178.5 10.5)" fill="#000000" font-family="'Helvetica-Bold'" font-size="6.1578">Reminders</text>
	<line fill="#000000" stroke="#FFFFFF" stroke-miterlimit="10" x1="8" y1="-14.5" x2="18" y2="-14.5"/>
	<line fill="#000000" stroke="#FFFFFF" stroke-miterlimit="10" x1="-179" y1="16.5" x2="-162" y2="16.5"/>
	<g>
		<g>
			<g>
				<rect x="-170.802" y="31.318" fill="#000000" width="8.721" height="8.642"/>
				<path fill="#000000" d="M-164.455,42.312h4.747v-4.703h-4.747V42.312z M-159.266,42.749h-5.63V37.17h5.63V42.749      L-159.266,42.749z M-166.221,44.062h8.279v-8.203h-8.279V44.062L-166.221,44.062z M-157.5,44.5h-9.163v-9.079h9.163V44.5      L-157.5,44.5z"/>
				<polygon fill="#000000" points="-166.149,44.133 -166.292,43.991 -158.013,35.787 -157.871,35.929     "/>
			</g>
		</g>
	</g>
	<rect x="-179" y="58" fill="none" width="35" height="32.5"/>
	<text transform="matrix(1 0 0 1 -179 60.1572)"><tspan x="0" y="0" fill="#000000" font-family="'Helvetica-Bold'" font-size="3">Strokes</tspan><tspan x="0" y="5" fill="#000000" font-family="'Helvetica'" font-size="2.4">Try to keep strokes at 4px</tspan><tspan x="0" y="10" fill="#000000" font-family="'Helvetica'" font-size="2.4">Minimum stroke weight is 2px</tspan><tspan x="0" y="14.5" fill="#000000" font-family="'Helvetica'" font-size="2.4">For thicker strokes use even </tspan><tspan x="0" y="17.5" fill="#000000" font-family="'Helvetica'" font-size="2.4">numbers: 6px, 8px etc.</tspan><tspan x="0" y="22" fill="#000000" font-family="'Helvetica-Bold'" font-size="2.4">Remember to expand strokes </tspan><tspan x="0" y="25" fill="#000000" font-family="'Helvetica-Bold'" font-size="2.4">before saving as an SVG </tspan></text>
	<rect x="-136.5" y="58" fill="none" width="35" height="32.5"/>
	<text transform="matrix(1 0 0 1 -136.5 60.1572)"><tspan x="0" y="0" fill="#000000" font-family="'Helvetica-Bold'" font-size="3">Size</tspan><tspan x="0" y="5" fill="#000000" font-family="'Helvetica'" font-size="2.4">Cannot be wider or taller than </tspan><tspan x="0" y="8.5" fill="#000000" font-family="'Helvetica'" font-size="2.4">100px (artboard size)</tspan><tspan x="0" y="13.5" fill="#000000" font-family="'Helvetica'" font-size="2.4">Scale your icon to fill as much of </tspan><tspan x="0" y="16.5" fill="#000000" font-family="'Helvetica'" font-size="2.4">the artboard as possible</tspan></text>
	<rect x="-94" y="58" fill="none" width="35" height="32.5"/>
	<text transform="matrix(1 0 0 1 -94 60.1572)"><tspan x="0" y="0" fill="#000000" font-family="'Helvetica-Bold'" font-size="3">Ungroup</tspan><tspan x="0" y="5" fill="#000000" font-family="'Helvetica'" font-size="2.4">If your design has more than one </tspan><tspan x="0" y="8" fill="#000000" font-family="'Helvetica'" font-size="2.4">shape, make sure to ungroup</tspan></text>
	<rect x="-50" y="58" fill="none" width="35" height="32.5"/>
	<text transform="matrix(1 0 0 1 -50 60.1572)"><tspan x="0" y="0" fill="#000000" font-family="'Helvetica-Bold'" font-size="3">Save as</tspan><tspan x="0" y="5" fill="#000000" font-family="'Helvetica'" font-size="2.4">Save as .SVG and make sure </tspan><tspan x="0" y="8" fill="#000000" font-family="'Helvetica'" font-size="2.4">&#8220;Use Artboards&#8221; is checked</tspan></text>
	<text transform="matrix(1.0074 0 0 1 -125.542 30.5933)" fill="#000000" font-family="'Helvetica'" font-size="2.5731">100px</text>
	<text transform="matrix(1.0074 0 0 1 -41 39)" fill="#000000" font-family="'Helvetica-Bold'" font-size="5.1462">.SVG</text>
	<rect x="-126.514" y="34.815" fill="#000000" width="10.261" height="10.185"/>
	<rect x="-126.477" y="31.766" fill="#000000" width="0.522" height="2.337"/>
	<rect x="-116.812" y="31.766" fill="#000000" width="0.523" height="2.337"/>
	<rect x="-127" y="32.337" fill="#000000" width="11.233" height="0.572"/>
	<g>
		<rect x="-83.805" y="33.844" fill="#000000" width="10.305" height="10.156"/>
		<rect x="-76.809" y="28.707" fill="#000000" width="3.308" height="3.261"/>
	</g>
	<rect x="-178.5" y="22.5" fill="#000000" stroke="#FFFFFF" stroke-miterlimit="10" width="30" height="30"/>
	<rect x="-136.5" y="22.5" fill="#000000" stroke="#FFFFFF" stroke-miterlimit="10" width="30" height="30"/>
	<rect x="-93.5" y="22.5" fill="#000000" stroke="#FFFFFF" stroke-miterlimit="10" width="30" height="30"/>
	<rect x="-49.5" y="22.5" fill="#000000" stroke="#FFFFFF" stroke-miterlimit="10" width="30" height="30"/>
</g>
<g id="Your_Icon">
	<path d="M29,38c0,0-2-14,18-10c0,0,2,2-2,3c0,0-9-3-12,2C33,33,32,39,29,38z"/>
	<path d="M55,30c0,0-5-2,1-5c0,0,10-6,12,1C68,26,65,23,55,30z"/>
	<g>
		<path fill="none" stroke="#000000" stroke-miterlimit="10" d="M54,45c0,0,3.5,5-0.5,5c0,0-2.75,3-9.75,6c0,0-3.875,3,4.125,10    c0,0,7.062-2,8.062-4c0,0,2.031-4-0.969-5c0,0-4.984-1,0.016-4c0,0,9.008-3,7.008,2c0,0,2.254,9,7.254,6c0,0,1.254-1-1.746-9    c0,0,0-1,0-2c0,0-1,2-9-1c0,0-2.75-4-1.75-4c0,0,5.125-2,14.125,2c0,0,1.062,3,1.062,9c0,0,2.031-9,3.031-11c0,0,1.016-7-2.984-11    c0,0-2.992-8-2.992-9c0,0,1.004,0-0.996-4c0,0-8.998-12-15.998-12C51.998,9,32,20,25,34l3.25,18l8.25,6v1C36.5,59,36.5,48,54,45z"/>
		<path fill="none" stroke="#000000" stroke-miterlimit="10" d="M22.75,21.75c0,0-5.875,5.625-6.875,8.625l4.062-4.188    c0,0-6.969,14.906-3.969,17.906c0,0,0.016-6.297,2.016-6.297c0,0,1.016,11.703-3.984,13.703h1.5V50c0,0-1,7,0,8    c0,0-6.75,11-4.75,12c0,0,0.125,3,6.125,0c0,0,0.062,4-5.938,5c0,0,5.031,5,8.031,3c0,0-0.859,13,3.016,17    c0,0,10.008-15,11.008-16c0,0,6.004,12,30.004,8c0,0,9.002-2,14.002-12c0,0,6.002,6,12.002,3l-2-2c0,0-9,0-8-4c0,0,6,3.375,7,0.75    c0,0,0-8.25-3-8.25s1,0,1,0s0-5-2-7s-1-1.25-1-1.25l6,0.375l-3-3.562c0,0,7-1.031,6-2.031s0,0.984,0,0.984s-9-2.258-8-3.258    c0,0,4-0.258,4-4.258s-1,0-1,0s-4,3-5,2s-1-1.25-1-1.25s4-3.125,2-5.125s-1-0.062-1-0.062s-5-8.031-3-11.031    c0,0-3-14.016-10-15.016c0,0-8-8.008-8-9.008c0,0-5-5.004-26-1.004C33,4.004,21.5,17.5,22.75,21.75z"/>
	</g>
	<path d="M87.945,77.268c-0.116-0.03-0.229-0.037-0.343-0.055c-0.028-0.186-0.14-0.353-0.345-0.383   c-0.023-0.004-0.045-0.012-0.067-0.015c0.215-0.29,0.092-0.818-0.378-0.815c-2.798,0.016-5.711-0.971-7.982-2.598   c0.022-0.145,0.018-0.302-0.054-0.48c-0.148-0.297-0.224-0.614-0.254-0.944c0.099-0.036,0.198-0.068,0.294-0.109   c0.035,0.005,0.07,0.008,0.105,0.014c0.723,0.113,1.365,0.309,2.011,0.644c1.307,0.68,3.698,1.918,4.842,0.316   c1.082-1.514-0.062-3.833-0.392-5.441c-0.256-1.245-1.058-2.02-2.065-2.442c0.674-1.144,0.329-3.05-0.257-4.286   c0.158-0.219,0.238-0.498,0.153-0.812c-0.22-0.814-0.67-1.393-1.25-1.869c-0.281-0.548-0.518-1.133-0.753-1.698   c0.187-0.019,0.368-0.075,0.521-0.167c1.274,0.117,2.547,0.27,3.83,0.25c0.466-0.007,0.622-0.526,0.354-0.854   c-0.72-0.879-1.703-1.491-2.432-2.352c0.089-0.011,0.177-0.02,0.266-0.03c1.182-0.141,2.264-0.618,3.438-0.765   c0.152-0.02,0.267-0.094,0.347-0.192c0.605-0.001,0.594-0.956-0.034-0.995c-2.011-0.125-3.928-1.03-5.655-2.054   c0.146-0.233,0.221-0.499,0.222-0.771c0.075,0.021,0.157,0.027,0.254-0.006c0.222-0.076,0.427-0.184,0.63-0.29   c0.315,0.13,0.646,0.146,0.995,0.04c0.299-0.091,0.388-0.364,0.332-0.602c0.103,0,0.201,0.001,0.285-0.006   c0.37-0.029,0.521-0.375,0.462-0.653c0.12-0.059,0.233-0.129,0.358-0.177c0.433-0.167,0.411-0.718,0.138-0.921   c0.007-0.008,0.015-0.013,0.021-0.021c0.143-0.173,0.144-0.372,0.073-0.537c0.05-0.025,0.092-0.062,0.144-0.084   c0.585-0.247,0.328-1.215-0.266-0.965c-0.652,0.275-1.123,0.724-1.648,1.187c-0.707,0.623-1.746,0.829-2.656,0.921   c-0.258,0.025-0.406,0.206-0.456,0.406c-0.604-0.383-1.222-0.765-1.862-1.068c0.185-0.117,0.354-0.284,0.488-0.519   c0.363-0.63,0.691-1.309,1.141-1.884c0.386-0.493,0.716-0.913,0.905-1.521c0.463-1.492-0.952-2.641-2.316-2.577   c0.012-0.097-0.003-0.201-0.062-0.309c-0.212-0.391-0.469-0.75-0.728-1.107c0.134-0.145,0.2-0.356,0.103-0.58   c-0.281-0.642-0.731-1.195-1.198-1.713c-0.005-0.096-0.008-0.191-0.015-0.285c-0.028-0.365-0.215-0.619-0.459-0.775   c0.153-0.229,0.226-0.525,0.173-0.834c-0.133-0.785-0.375-1.545-0.436-2.342c-0.062-0.841,0.2-1.718,0.235-2.56   c0.031-0.744-0.205-1.209-0.571-1.567c0.128-0.262,0.14-0.58-0.048-0.896c-0.4-0.676-0.75-1.265-0.983-2.018   c-0.091-0.292-0.216-0.546-0.359-0.784c0.017-0.095,0.05-0.178,0.05-0.283c0-0.776-0.564-1.641-0.866-2.329   c-0.413-0.945-0.889-1.851-1.509-2.678c-0.334-0.445-0.763-0.807-1.244-1.081c0.076-0.289,0.024-0.605-0.275-0.873   c-1.077-0.963-2.496-1.334-3.763-1.987c-0.495-0.256-0.97-0.565-1.451-0.857c0.094-0.307,0.059-0.658-0.192-0.968   c-1.223-1.51-2.796-2.746-4.062-4.25c-1.186-1.408-2.321-2.913-4.046-3.656C57.23,4.291,57.084,4.27,56.94,4.268   c-0.427-0.2-0.869-0.352-1.324-0.438c-0.106-0.269-0.312-0.496-0.632-0.574c-0.961-0.236-1.922-0.682-2.922-0.724   c-1.562-0.065-3.1,0.062-4.641-0.276c-0.387-0.085-0.693,0.05-0.912,0.271c-0.025,0.001-0.052,0.003-0.078,0.004   c-0.16-0.165-0.383-0.279-0.682-0.279c-3.892,0.002-8.414,0.383-12.07,1.771c-1.509,0.572-2.245,2.392-3.391,3.389   c-1.463,1.271-2.13,2.59-2.678,4.385c-0.109,0.077-0.217,0.156-0.318,0.248c-0.018,0.016-0.021,0.035-0.038,0.051   c-2.39,1.652-3.852,4.205-4.25,7.086c-0.098,0.708-0.167,1.699-0.123,2.702c-0.004,0.002-0.008,0.003-0.012,0.005   c-1.379,0.883-3.795,2.705-3.459,4.535c0.043,0.235,0.264,0.469,0.545,0.694c-0.36,0.833-0.844,1.568-1.146,2.409   c-0.744-0.066-1.524,0.672-0.985,1.448c0.047,0.067,0.155,0.186,0.256,0.309c-0.245,0.272-0.521,0.515-0.609,0.931   c-0.176,0.823-0.27,1.667-0.41,2.498c-0.012,0.068-0.019,0.126-0.029,0.191c-0.168-0.023-0.338,0.042-0.432,0.252   c-0.377,0.839-0.673,1.695-0.662,2.627c0.001,0.065,0.018,0.133,0.046,0.196c-0.548,0.673-0.741,1.691-0.796,2.522   c-0.042,0.645,0.958,0.64,1,0c0.04-0.606,0.164-1.503,0.604-1.959c0.125-0.13,0.153-0.277,0.13-0.414   c0.238-0.12,0.453-0.293,0.631-0.504c0.083,0.108,0.17,0.218,0.272,0.334c0.199,0.226,0.428,0.311,0.651,0.313   c-0.006,0.071,0.007,0.15,0.005,0.224c-0.368,0.322-0.611,0.803-0.605,1.443c0.015,1.565,0.092,3.086-0.271,4.622   c-0.358,1.518-0.948,2.982-1.408,4.472c-0.141,0.455-0.122,0.862,0.003,1.208c-0.392,0.232-0.701,0.625-0.762,1.198   c-0.063,0.601,0.043,1.626,0.142,2.702c-0.647,0.479-0.981,1.329-0.758,2.142c0.069,0.252,0.188,0.478,0.34,0.674   c-0.012,0.057-0.028,0.109-0.036,0.17c-0.492,4.031-6.545,8.742-4.216,12.981c0.591,1.075,2.052,1.177,3.107,1.074   c0.643-0.062,1.272-0.244,1.897-0.398c0.807-0.198-1.324,2.796-2.06,3.842c-0.057-0.006-0.107-0.023-0.168-0.02   c-0.236,0.014-0.448,0.108-0.66,0.205c-0.17,0.077-0.239,0.137-0.337,0.071c-0.439-0.299-0.9,0.269-0.684,0.684   c0.156,0.3,0.516,0.51,0.78,0.699c0.355,0.256,0.732,0.5,1.144,0.656c0.105,0.04,0.195,0.034,0.277,0.011   c0.073,0.039,0.15,0.071,0.229,0.099c0.34,0.794,1.063,1.408,2.189,1.408c0.643,0,1.062-0.198,1.447-0.516   c0.074,0.032,0.169,0.061,0.27,0.086c0.127,0.145,0.241,0.267,0.327,0.343c0.005,0.073,0.073,0.304,0.099,0.777   c0.106,2.019,0.355,3.96,0.295,5.997c-0.015,0.497,0.102,0.908,0.293,1.252c-0.224,2.299,0.514,4.641,0.948,6.896   c0.269,1.396,2.063,1.315,2.741,0.358c3.395-4.792,6.161-10.678,10.088-15.167c0.824,1.833,2.288,3.295,4.263,4.638   c1.789,1.217,3.462,1.943,5.165,2.46c0.807,0.938,2.016,1.562,3.627,1.562c0.062,0,0.119-0.007,0.18-0.009   c0.536,0.2,1.139,0.321,1.82,0.321c0.33,0,0.639-0.032,0.935-0.082c0.354,0.08,0.725,0.138,1.128,0.145   c1.506,0.025,2.922-0.011,4.363-0.121c0.513,0.188,1.06,0.305,1.637,0.309c1.747,0.011,3.317-0.288,4.856-0.71   c0.303,0.052,0.618,0.085,0.956,0.085c1.542,0,2.712-0.576,3.517-1.446c0.062-0.019,0.123-0.023,0.188-0.045   c0.577-0.192,1.159-0.432,1.667-0.776c4.066-2.35,8.007-5.604,9.539-10.199c0.007,0.003,0.013,0.009,0.02,0.012   c0.179,0.069,0.355,0.137,0.529,0.208c-0.052,0.16-0.029,0.339,0.125,0.476c0.206,0.183,0.417,0.352,0.63,0.514   c-0.001,0.196,0.1,0.397,0.341,0.49c0.223,0.085,0.445,0.133,0.669,0.183c0.632,0.374,1.294,0.67,1.982,0.912   c-0.087,0.247-0.014,0.566,0.307,0.677c0.802,0.275,1.636,0.359,2.475,0.434c0.085,0.01,0.17,0.027,0.257,0.026   c0.006,0,0.013-0.002,0.019-0.002c0.095,0.009,0.19,0.017,0.285,0.025c0.779,0.073,1.467,0.179,2.189-0.078   c0.396-0.033,0.756-0.081,1.146-0.239C88.372,78.059,88.468,77.403,87.945,77.268z M73.804,49.769   c-0.058,0.181-0.061,0.36-0.039,0.537c-0.367,0.393-0.479,0.987-0.341,1.509c-0.256,0.691-0.473,1.39-0.587,2.146   c-0.208,0.063-0.42,0.111-0.626,0.183c-0.383,0.134-0.418,0.567-0.238,0.815c-0.021,0.024-0.047,0.044-0.061,0.071   c-0.179,0.372-0.159,0.72-0.013,1.007c0.014,0.843,0.128,1.655-0.118,2.469c0.009-1.502-0.059-3.003-0.084-4.507   c0.201-0.043,0.372-0.196,0.365-0.467c-0.054-1.983-0.304-4.174-1.325-5.719c0.242-0.281,0.121-0.844-0.362-0.844   c-0.106,0-0.188,0.033-0.26,0.079c-0.688-0.671-1.613-1.125-2.865-1.235c-0.155-0.014-0.27,0.036-0.35,0.117   c-1.135-0.691-2.785-0.958-4.018-1.256c-1.361-0.329-3.213-0.316-4.592-0.041c-0.185,0.037-0.31,0.12-0.411,0.22   c-0.208,0.04-0.412,0.091-0.606,0.165c-0.373,0.144-0.466,0.527-0.221,0.836c0.281,0.354,0.463,0.835,0.651,1.318   c-0.019,0.161,0.038,0.315,0.17,0.419c0.271,0.634,0.612,1.203,1.286,1.403c1.328,0.393,2.604,0.84,3.963,1.12   c1.092,0.226,3.315,0.603,4.397-0.274c-0.018,0.615,0.003,1.229,0.157,1.833c0.151,0.593,0.559,1.127,0.736,1.725   c0.008,0.025,0.019,0.047,0.026,0.072c-0.237,0.155-0.376,0.507-0.138,0.79c1.337,1.595,1.45,4.277,1.632,6.329   c-1.959,0.385-4.302,1.225-5.458-0.349c-0.246-0.335-0.546-0.553-0.866-0.689c-0.564-1.596-1.18-2.96-1.446-3.561   c-0.099-0.224-0.23-0.404-0.384-0.549c0.649-1.155,0.135-2.981-1.551-3.058c-0.216-0.081-0.455-0.134-0.729-0.134   c-0.477,0-0.863,0.138-1.164,0.36c-0.029-0.003-0.056-0.017-0.086-0.017c-0.413,0-0.753,0.063-1.033,0.236   c-0.328-0.176-0.731-0.307-1.217-0.307c-0.455,0-0.802,0.201-1.05,0.522c-0.1,0.03-0.189,0.065-0.278,0.109   c-0.207,0.05-0.406,0.122-0.619,0.246c-0.939,0.548-1.268,1.794-0.717,2.735c0.498,0.85,1.557,1.181,2.451,0.834   c0.526,0.854,0.963,1.642,1.332,2.48c-0.345,0.32-0.587,0.77-0.619,1.361c-0.158,2.923-5.495,4.259-8.318,5.23   c-0.149-0.25-0.349-0.474-0.609-0.645c-0.396-0.26-0.795-0.482-1.192-0.696c0.032-0.259-0.03-0.535-0.235-0.784   c-1.199-1.457-2.505-3.086-2.645-5.043c-0.023-0.328-0.041-1.229,0.089-1.909c0.115-0.026,0.234-0.077,0.354-0.165   c1.378-1.007,2.997-1.646,4.327-2.719c1.532-1.237,3.103-2.55,4.735-3.656c1.035-0.701,1.93-0.626,2.18-2.061   c0.16-0.926-0.303-1.742-0.996-2.285c0.037-0.529-0.267-1.042-0.938-0.955c-6.693,0.87-15.59,5.245-16.661,12.687   c-1.492-1.298-3.298-2.133-4.783-3.442c-1.195-1.053-2.116-1.909-3.559-2.479c-0.09-0.061-0.184-0.114-0.276-0.169   c-0.532-2.696-1.021-5.39-1.221-8.097c-0.049-0.653-0.348-1.139-0.761-1.46c0.042-2.384-0.075-4.84-0.981-6.675   c-0.019-0.037-0.054-0.067-0.076-0.104c0.168-1.002,0.393-1.989,0.807-2.944c0.13-0.3,0.194-0.618,0.19-0.925   c0.644-0.543,1.014-1.313,1.514-2.022c0.294-0.277,0.558-0.582,0.796-0.959c0.098-0.154,0.133-0.304,0.139-0.449   c0.572-0.106,0.822-0.632,0.751-1.125c0.948-0.917,1.972-1.772,2.798-2.786c0.156-0.192,0.221-0.422,0.224-0.65   c1.053-0.999,2.183-1.928,3.324-2.787c0.277-0.209,0.401-0.491,0.419-0.774c1.257-0.623,2.428-1.637,3.55-2.288   c0.414-0.24,0.533-0.63,0.465-0.991c0.892-0.517,1.722-1.179,2.702-1.502c0.546-0.18,0.729-0.665,0.669-1.11   c0.597-0.317,1.214-0.593,1.82-0.896c0.94-0.471,1.696-1.271,2.667-1.681c0.295-0.124,0.482-0.339,0.579-0.584l0.015-0.006   c0.805-0.336,1.522-0.768,2.239-1.261c1.179-0.812,2.287-0.718,3.62-0.551c0.007,0.001,0.012-0.002,0.019-0.002   c1.167,0.537,2.393,0.936,3.516,1.62c0.789,0.481,1.47,1.216,2.211,1.776c0.691,0.523,1.417,0.942,2.052,1.525   c0.037,0.15,0.104,0.292,0.215,0.412c0.748,0.806,1.645,1.449,2.458,2.186c0.431,0.39,0.785,0.812,1.184,1.196   c0.027,0.115,0.082,0.234,0.171,0.354c0.831,1.118,1.759,2.167,2.553,3.305c-0.084,0.143-0.142,0.299-0.127,0.472   c0.019,0.225,0.043,0.433,0.13,0.641c0.15,0.361,0.426,0.638,0.779,0.71c0.003,0.024-0.003,0.046,0.002,0.071   c0.135,0.777-0.018,1.437-0.067,2.203c-0.066,1.021,0.457,2.147,0.807,3.073c0.38,1.004,0.59,2.318,1.386,3.104   c-0.003,0.114,0.014,0.236,0.062,0.369c0.252,0.685,0.36,1.429,0.692,2.083c0.37,0.729,0.812,1.405,1.252,2.094   c0.199,0.312,0.484,0.446,0.773,0.46c0.2,0.664,0.531,1.27,0.738,1.958c0.226,0.748,0.079,1.49,0.36,2.204   c-0.119,0.202-0.214,0.422-0.271,0.659c-0.256,1.08-0.087,2.557,0.315,3.581c0.007,0.019,0.02,0.031,0.026,0.05   C73.871,45.883,74.222,48.46,73.804,49.769z"/>
</g>
</svg>