<svg xmlns:x="http://ns.adobe.com/Extensibility/1.0/" xmlns:i="http://ns.adobe.com/AdobeIllustrator/10.0/" xmlns:graph="http://ns.adobe.com/Graphs/1.0/" xmlns="http://www.w3.org/2000/svg" xmlns:xlink="http://www.w3.org/1999/xlink" xmlns:a="http://ns.adobe.com/AdobeSVGViewerExtensions/3.0/" version="1.1" baseProfile="basic" id="Calque_1" x="0px" y="0px" width="100px" height="100px" viewBox="0 0 100 100" xml:space="preserve">
<g>
	<path fill="none" d="M17.636,48.791C17.595,48.697,17.558,48.799,17.636,48.791L17.636,48.791z"/>
	<path fill="none" d="M24.53,52.068c-2.203-1.016-5.403,0.975-7.279-1.473c-1.214-1.583,0.555-4.773,0.385-1.805   c0.441,2.701,8.47,3.893,5.409-0.394c-0.276-1.42-1.314-1.388-2.578-1.606c-1.174-0.202-5.796-1.332-5.606-2.505   c0.038-0.234,0.422-0.434,0.515-0.452c2.071-0.383,5.872,3.66,7.473,1.859c0.531-0.598,0.276-1.98,0.577-2.834   c0.329-0.932,1.701-1.823,1.865-2.579c0.427-1.975-3.968-4.852-4.837-5.855c-2.514-2.816-8.593-7.366-13.663-8.035   c-1.127-0.148-1.82-0.289-0.708,0.259c4.11,2.023,9.245,4.872,12.761,7.52c2.125,1.6,4.58,4.29,3.357,7.016   c-1.334,2.977-6.67,1.889-8.437,0.203c-1.726-1.558-2.356-3.883-2.97-6.501c-0.391-1.67,1.203-1.114,1.353-0.259   c0.16,0.913,2.95,2.773,4.189,2.829c5.086,0.231,0.415-2.587-0.261-3.22c-3.409-3.191-8.683-5.879-13.985-7.776   c-0.922-0.33,0.21,7.721,0.332,8.372c0.601,3.205,3.278,4.198,5.096,6.563c1.467,1.909,3.474,4.789,5.481,5.983   c0.396,0.854,1.396,1.589,1.935,2.51c1.312,3.237,4.567,3.11,7.733,4.048C24.513,54.486,26.456,52.955,24.53,52.068z    M21.849,36.545C22.173,36.779,21.617,36.787,21.849,36.545L21.849,36.545z M17.229,43.52C17.3,43.861,17.034,43.595,17.229,43.52   L17.229,43.52z"/>
	<path fill="none" d="M72.826,55.865c0.233,0.268,0.38,0.391,0.475,0.432c-0.133-0.229-0.237-0.453-0.319-0.672   C72.701,55.562,72.61,55.617,72.826,55.865z"/>
	<path fill="none" d="M14.932,49.89C14.838,49.931,14.938,49.968,14.932,49.89L14.932,49.89z"/>
	<path fill="none" d="M12.997,47.38C12.903,47.419,13.003,47.458,12.997,47.38L12.997,47.38z"/>
	<path fill="none" d="M85.569,52.596C85.575,52.518,85.475,52.555,85.569,52.596L85.569,52.596z"/>
	<path fill="none" d="M72.835,55.189c0.026,0.139,0.093,0.289,0.146,0.436c0.09,0.02,0.199,0.051,0.325,0.096   C73.097,55.168,72.708,54.525,72.835,55.189z"/>
	<path fill="none" d="M23.045,48.397C23.237,48.384,22.983,48.13,23.045,48.397L23.045,48.397z"/>
	<path fill="none" d="M37.33,93.207C37.29,93.113,37.252,93.213,37.33,93.207L37.33,93.207z"/>
	<path fill="none" d="M43.582,41.999C43.542,41.905,43.504,42.005,43.582,41.999L43.582,41.999z"/>
	<path fill="none" d="M65.278,53.637c-0.501-0.654-2.967-2.488-3.119-2.355c-1.156,1.006-1.065,3.312-0.588,5.322   c0.584-1.754,1.957-2.984,3.56-2.984C65.181,53.619,65.229,53.635,65.278,53.637z"/>
	<path fill="none" d="M62.046,93.207C62.124,93.213,62.086,93.113,62.046,93.207L62.046,93.207z"/>
	<path fill="none" d="M55.805,41.999C55.883,42.005,55.844,41.905,55.805,41.999L55.805,41.999z"/>
	<path fill="none" d="M64.973,12.659c0.022,0.003,0.02,0.014,0.024,0.022C67.57,8.179,64.973,12.681,64.973,12.659z"/>
	<path fill="none" d="M34.059,53.68c1.774,0.287,3.158,2.078,3.334,4.336c0.771-2.199,1.269-5.48-0.176-6.734   C37.061,51.145,34.481,53.064,34.059,53.68z"/>
	<path fill="none" d="M34.398,12.659c0,0.021-2.602-4.48-0.024,0.022C34.379,12.673,34.376,12.663,34.398,12.659z"/>
	<path fill="none" d="M0.339,33.431c0.005,0.036,0.013,0.082,0.019,0.117C0.489,33.485,0.398,33.429,0.339,33.431z"/>
	<path fill="none" d="M32.402,6.614c0.036,0.052-0.006,0.029-0.079-0.025C33.214,7.871,33.629,8.388,32.402,6.614z"/>
	<path fill="none" d="M31.437,8.544c0.083,0.089-0.085-0.041-0.398-0.293C32.678,9.965,33.487,10.727,31.437,8.544z"/>
	<path fill="none" d="M51.473,82.246c0.019,0.004,0.034,0.01,0.052,0.012C51.526,82.229,51.492,82.211,51.473,82.246z"/>
	<path fill="none" d="M67.93,8.544c-2.047,2.182-1.239,1.421,0.397-0.292C68.016,8.503,67.847,8.634,67.93,8.544z"/>
	<path fill="none" d="M66.967,6.614c-1.226,1.773-0.812,1.256,0.077-0.024C66.972,6.644,66.931,6.666,66.967,6.614z"/>
	<path fill="none" d="M13.776,52.596C13.869,52.555,13.769,52.518,13.776,52.596L13.776,52.596z"/>
	<path fill="none" d="M26.523,55.189c0.126-0.664-0.263-0.021-0.473,0.531c0.127-0.045,0.236-0.076,0.325-0.096   C26.43,55.479,26.497,55.328,26.523,55.189z"/>
	<path fill="none" d="M68.12,55.441c0.536,0.838,0.872,1.889,0.872,3.051c0,2.338-1.307,4.289-3.049,4.76   c0.965,0.713,2.077,1.17,3.272,0.916c1.273-0.68,1.627-2.266,1.74-3.924c-0.285-0.625-0.099-1.619,0.001-2.57   c-0.081-0.215-0.158-0.428-0.232-0.637C69.934,56.191,68.927,55.842,68.12,55.441z"/>
	<path fill="none" d="M28.374,57.344c-0.41,0.539-0.74,1.246-0.911,2.227c0,0.002,0,0.002,0,0.002   c0.005,0.057,0.011,0.115,0.017,0.172c0.114-0.068,0.536-1.043,0.924-2.07C28.392,57.562,28.382,57.453,28.374,57.344z"/>
	<path fill="none" d="M70.319,55.283c-0.197-0.113,0.051,0.754,0.405,1.754c0.09,0.096,0.179,0.195,0.262,0.307   C71.054,56.465,70.987,55.666,70.319,55.283z"/>
	<path fill="none" d="M26.531,55.865c0.217-0.248,0.125-0.303-0.156-0.24c-0.081,0.219-0.186,0.443-0.318,0.672   C26.151,56.256,26.298,56.133,26.531,55.865z"/>
	<path fill="none" d="M28.404,60.244c0.115,1.658,0.468,3.244,1.743,3.924c1.154,0.246,2.229-0.17,3.17-0.836   c-2.012-0.166-3.607-2.258-3.607-4.84c0-0.965,0.229-1.855,0.611-2.613c-0.577,0.279-1.175,0.615-1.685,1.158   c-0.074,0.209-0.152,0.422-0.233,0.637C28.503,58.625,28.691,59.619,28.404,60.244z"/>
	<path fill="none" d="M70.986,57.344c-0.008,0.109-0.018,0.219-0.029,0.33c0.388,1.027,0.809,2.002,0.923,2.07   c0.006-0.057,0.011-0.117,0.018-0.172c0,0,0,0,0-0.002C71.727,58.59,71.396,57.881,70.986,57.344z"/>
	<path fill="none" d="M29.042,55.283c-0.669,0.383-0.735,1.182-0.669,2.061c0.084-0.111,0.173-0.211,0.263-0.307   C28.992,56.037,29.241,55.17,29.042,55.283z"/>
	<path fill="none" d="M98.094,33.547c0.005-0.035,0.012-0.081,0.019-0.117C98.053,33.429,97.961,33.484,98.094,33.547z"/>
	<path fill="none" d="M57.032,36.268C56.64,36.322,57.354,36.224,57.032,36.268L57.032,36.268z"/>
	<path fill="none" d="M86.349,47.38C86.342,47.458,86.441,47.419,86.349,47.38L86.349,47.38z"/>
	<path fill="none" d="M42.352,36.268C42.031,36.224,42.746,36.322,42.352,36.268L42.352,36.268z"/>
	<path fill="none" d="M81.709,48.79C81.787,48.799,81.749,48.697,81.709,48.79L81.709,48.79z"/>
	<path fill="none" d="M40.879,91.152C40.957,91.158,40.919,91.059,40.879,91.152L40.879,91.152z"/>
	<path fill="none" d="M59.683,80.58l-2.19,2.574c-0.322,0.592-0.37,1.592-0.772,1.738c-1.225,0.443-1.406-2.053-0.384-2.061   c0.346-0.744,1.007-1.568,1.61-2.254c0.572-1.307,2.399-2.314,2.512-3.924c0.164-2.355-4.432-2.627-4.11-3.871   c0.237-0.92,1.212,0.053,1.543-0.125c0.133-0.072,0.142-3.484,0.197-4.059c0.491-4.926-1.387-9.525,0.081-15.07   c-0.1-4.482-2.856-6.808-2.364-11.531c-1.12-3.913,2.028-12.267-2.104-14.815c-0.133-0.082-2.552-0.84-2.183-1.612   c0.262-0.547,0.984-0.981-0.125-1.675c-0.165-0.102-1.16-0.899,0.193-1.095c5.914-0.855,8.082,6.992,10.723,10.124   c1.64,1.943-4.361-8.629-3.894-9.955c2.308-6.55,7.555-4.446,6.558-10.247c-1.828,3.473-4.424,4.958-8.562,5.51   c-0.361,0.049-3.162,1.404-4.229,1.062l0.001,0.003h-4.978c-1.075,0.333-3.868-1.017-4.229-1.065   c-4.146-0.552-6.745-2.038-8.577-5.51c-0.998,5.801,4.336,4.679,6.649,11.229c0.468,1.326-5.622,10.916-3.98,8.973   c2.646-3.132,4.817-10.979,10.744-10.124c1.355,0.196,0.358,0.993,0.195,1.095c-1.113,0.694-0.389,1.127-0.127,1.675   c0.37,0.772-2.056,1.531-2.188,1.612c-4.139,2.548-0.985,10.903-2.108,14.815c0.494,4.723-2.269,7.049-2.369,11.531   c1.472,5.545-0.41,10.145,0.082,15.07c0.057,0.574,0.066,3.986,0.198,4.059c0.331,0.178,1.308-0.795,1.545,0.125   c0.321,1.244-4.282,1.516-4.117,3.871c0.113,1.609,1.942,2.617,2.516,3.924c0.604,0.686,1.267,1.51,1.612,2.254   c1.024,0.008,0.843,2.504-0.384,2.061c-0.403-0.146-0.452-1.146-0.775-1.738l-2.193-2.574c-2.53-1.373-6.119,4.668-4.114,6.576   c0.365,0.895,0.826,1.883,1.549,2.574c-0.299,0.006,0.079,0.383,0.064,0.064c1.34,0.635,0.028,1.602,0.068,2.703   c-0.212-0.045-0.099,0.129,0,0.129c-0.014,0.189,0.255,0.426,0.065,0.58c2.22,3.027,6.056,4.215,9.355,4.457h6.022   c3.294-0.242,7.123-1.43,9.339-4.457c-0.189-0.154,0.079-0.391,0.065-0.58c0.099,0,0.21-0.174,0-0.129   c0.041-1.102-1.271-2.068,0.067-2.703c-0.015,0.318,0.363-0.059,0.063-0.064c0.722-0.691,1.184-1.68,1.548-2.574   C65.79,85.248,62.208,79.207,59.683,80.58z M53.781,76.594c-0.22,0.631-0.673,0.779-1.031,1.352c0.193,0.014-0.061,0.268,0,0   c-0.218,0.072,0.021,0.25-0.127,0.322c-0.548,0.686-0.428,1.811-0.636,2.842c0.003,0.004,0.033,0.033,0.054,0.055   c0.01,0.012,0.018,0.018,0.02,0.02c-0.002-0.002-0.01-0.008-0.02-0.02c-0.021-0.021-0.051-0.051-0.054-0.055   c-0.082,0.41-0.213,0.805-0.463,1.148c-0.02,0-0.042,0-0.063,0c0.002-0.01,0.008-0.006,0.012-0.012   C48.388,81.783,53.521,68.83,53.781,76.594z M47.923,85.525c0.003,0.006,0.009,0.002,0.012,0.014c-0.022,0-0.043,0-0.064,0   c-0.251-0.346-0.38-0.74-0.462-1.148c-0.002,0.002-0.015,0.014-0.054,0.053c-0.065,0.066,0.048-0.049,0.054-0.053   c-0.208-1.031-0.087-2.158-0.637-2.844c-0.149-0.072,0.09-0.25-0.129-0.322c0.062,0.268-0.193,0.014,0,0   c-0.358-0.572-0.812-0.721-1.032-1.352C45.87,72.111,51.007,85.059,47.923,85.525z M41.636,96.43   C41.8,96.266,41.546,96.52,41.636,96.43L41.636,96.43z M46.878,94.717C46.885,94.795,46.785,94.756,46.878,94.717L46.878,94.717z    M52.798,94.715C52.893,94.756,52.791,94.793,52.798,94.715L52.798,94.715z M57.748,96.43C57.837,96.52,57.583,96.266,57.748,96.43   L57.748,96.43z"/>
	<path fill="none" d="M58.634,41.551C59.009,41.397,58.319,41.68,58.634,41.551L58.634,41.551z"/>
	<path fill="none" d="M76.307,48.397C76.368,48.13,76.114,48.385,76.307,48.397L76.307,48.397z"/>
	<path fill="none" d="M58.798,89.957C58.758,89.863,58.72,89.963,58.798,89.957L58.798,89.957z"/>
	<path fill="none" d="M84.413,49.89C84.405,49.968,84.507,49.931,84.413,49.89L84.413,49.89z"/>
	<path fill="none" d="M96.362,26.461c-5.303,1.897-9.683,4.585-13.091,7.776c-0.675,0.633-5.343,3.452-0.261,3.22   c1.238-0.056,4.029-1.917,4.189-2.829c0.15-0.855,1.743-1.411,1.353,0.259c-0.614,2.618-1.245,4.944-2.971,6.501   c-1.767,1.686-7.099,2.773-8.432-0.203c-1.219-2.727,1.23-5.417,3.353-7.016c3.517-2.648,7.756-5.497,11.866-7.52   c1.111-0.548,0.418-0.407-0.708-0.259c-5.069,0.668-10.255,5.218-12.766,8.035c-0.868,1.003-5.256,3.88-4.829,5.855   c0.162,0.756,1.533,1.646,1.862,2.579c0.3,0.854,0.044,2.237,0.574,2.834c1.598,1.8,5.396-2.243,7.467-1.859   c0.092,0.018,0.478,0.218,0.514,0.452c0.189,1.173-4.431,2.303-5.603,2.505c-1.263,0.219-2.299,0.186-2.574,1.606   c-3.055,4.286,4.961,3.095,5.402,0.393c-0.17-2.968,1.599,0.223,0.385,1.806c-1.876,2.447-5.07,0.457-7.27,1.473   c-1.922,0.887,0.018,2.418,1.861,1.869C79.848,53,83.1,53.127,84.413,49.89c0.538-0.921,1.539-1.656,1.936-2.51   c2.007-1.195,3.119-4.074,4.586-5.983c1.818-2.365,4.495-3.358,5.097-6.563C96.152,34.182,97.284,26.131,96.362,26.461z    M77.501,36.545C77.732,36.787,77.177,36.779,77.501,36.545L77.501,36.545z M82.115,43.52   C82.311,43.595,82.045,43.861,82.115,43.52L82.115,43.52z"/>
	<path fill="none" d="M47.871,85.539c0.019-0.004,0.035-0.012,0.053-0.014C47.904,85.49,47.87,85.508,47.871,85.539z"/>
	<path d="M27.479,59.744c-0.006-0.057-0.012-0.115-0.017-0.172C27.437,59.719,27.447,59.764,27.479,59.744z"/>
	<path d="M0.357,33.547c-0.005-0.035-0.013-0.081-0.019-0.117C0.296,33.433,0.269,33.463,0.357,33.547z"/>
	<path d="M28.637,57.037c-0.09,0.096-0.179,0.195-0.263,0.307c0.009,0.109,0.018,0.219,0.03,0.33   C28.484,57.459,28.562,57.246,28.637,57.037z"/>
	<path d="M26.05,55.721c-0.134,0.354-0.189,0.66,0.007,0.576c0.132-0.229,0.237-0.453,0.318-0.672   C26.286,55.645,26.177,55.676,26.05,55.721z"/>
	<path d="M17.229,43.52C17.034,43.595,17.3,43.861,17.229,43.52L17.229,43.52z"/>
	<path d="M28.428,36.422C28.388,36.329,28.35,36.429,28.428,36.422L28.428,36.422z"/>
	<path d="M28.492,36.486c0.012-0.055-0.025-0.061-0.064-0.064c0,0.021,0,0.043,0,0.064C28.449,36.486,28.471,36.486,28.492,36.486z"/>
	<path d="M39.318,96.885C39.357,96.977,39.396,96.877,39.318,96.885L39.318,96.885z"/>
	<path d="M41.636,96.43C41.546,96.52,41.8,96.266,41.636,96.43L41.636,96.43z"/>
	<path d="M47.935,85.539c-0.002-0.012-0.008-0.008-0.012-0.014c-0.018,0.002-0.034,0.01-0.053,0.014   C47.892,85.539,47.913,85.539,47.935,85.539z"/>
	<path d="M54.527,78.311c-0.096,0.875-0.978,1.584-1.558,2.463c-0.231,0.348-0.419,0.719-0.484,1.139   c0.021-0.021,0.058-0.01,0.046,0.029c2.514,1.85,8.023-10.947,2.355-5.635c-0.29,0.602-0.074,1.027-0.225,1.684   C54.768,78.197,54.473,78.154,54.527,78.311z"/>
	<path d="M46.642,81.225C46.449,81.238,46.704,81.492,46.642,81.225L46.642,81.225z"/>
	<path d="M47.354,84.443c0.039-0.039,0.052-0.051,0.054-0.053C47.402,84.395,47.289,84.51,47.354,84.443z"/>
	<path d="M46.878,94.717C46.785,94.756,46.885,94.795,46.878,94.717L46.878,94.717z"/>
	<path d="M21.849,36.545C21.617,36.787,22.173,36.779,21.849,36.545L21.849,36.545z"/>
	<path d="M71.897,59.572c-0.007,0.055-0.012,0.115-0.018,0.172C71.912,59.764,71.923,59.719,71.897,59.572z"/>
	<path d="M98.094,33.547c0.087-0.084,0.061-0.115,0.019-0.117C98.105,33.467,98.099,33.512,98.094,33.547z"/>
	<path d="M37.489,94.434c2.18,1.854,5.931,4.305,8.537,3.85l-0.008,0.008l8.874,0.027l-0.006-0.006   c2.593,0.316,6.22-2.068,8.346-3.879c-0.097-0.084,0.946-0.246,0.965-0.191c1.029-0.576,1.429-1.371,2.124-2.447   c0.917-2.012,2.671-3.803,3.415-5.92c1.486-4.238-1.653-8.271,0.144-13.074c0.638-1.703-0.181-4.084,0.586-5.924   c-0.346-1.105,0.097-2.297,0.666-2.611c0.003,0.016,0.023,0.021,0.044-0.029c1.081-0.873,1.2-3.242,1.377-5.006   c-0.113-0.07-0.534-1.045-0.921-2.07c-0.101,0.949-0.288,1.943-0.002,2.568c-0.113,1.66-0.467,3.246-1.739,3.926   c-1.197,0.254-2.31-0.205-3.273-0.916c1.741-0.471,3.049-2.422,3.049-4.76c0-1.162-0.335-2.213-0.872-3.051   c0.807,0.4,1.813,0.75,2.604,1.596c-0.354-1-0.603-1.867-0.405-1.754c0.669,0.383,0.736,1.182,0.669,2.061   c0.409,0.537,0.739,1.246,0.91,2.227c0,0.002,0,0.002,0,0.002c0.085-0.797,0.188-1.449,0.411-1.748   c0.338-0.449,6.481,3.686,4.765,2.455c-0.818-0.586-2.84-2.365-3.773-3.982c-0.095-0.041-0.24-0.164-0.473-0.432   c-0.216-0.248-0.126-0.303,0.154-0.24c-0.054-0.146-0.119-0.297-0.146-0.436c-0.127-0.664,0.262-0.021,0.472,0.529   c1.49,0.508,5.305,2.465,5.991,2.455c0.787-0.012,0.45,0.279,0.368-0.525c-0.048-0.465-3.327-1.277-2.981-2.166   c0.129-0.33,2.654-0.438,3.086-0.512c2.371-0.398,4.456-1.055,5.799-2.375c-0.095-0.041,0.006-0.078,0,0   c3.19-4.174,6.055-7.805,9.616-11.903c0.076-0.096,0.08-0.263,0.193-0.322c1.877-1.575,2.504-4.814,2.714-6.823   c-0.132-0.063-0.041-0.119,0.019-0.117c0.405-2.665,1.337-7.543,0.895-10.573c-0.212-1.462-1.09-0.597-1.801-0.454   c-8.369,1.686-17.319,6.707-22.812,11.952c-0.012,0.073-0.063,0.035-0.063,0c0.309,1.237-1.235,1.38-1.867,1.865   c-0.267,0.206-0.279,1.535-0.966,1.673c-1.629,0.331-6.076-3.255-5.976-3.356c2.741-2.717,6.333-7.132,4.772-13.069   c-1.349-5.14-1.477-5.277,0.337-9.642c1.067-2.566,6.428-4.698,6.631-6.948c0.078-0.877-6.631,3.749-6.688,3.137   c-0.043-0.459,5.5-4.672,5.47-5.199c-0.054-0.911-6.084,4.119-7.717,5.433c-1.637,1.713-2.442,2.475-0.396,0.292   c-0.083,0.089,0.086-0.041,0.396-0.292c2.438-2.55,6.718-7.211,6.177-7.432c-0.77-0.313-6.714,5.227-7.46,5.771   c-0.888,1.28-1.302,1.796-0.076,0.023c-0.037,0.052,0.004,0.029,0.076-0.023c1.493-2.15,4.326-6.455,2.994-5.707   c-4.231,2.374-7.071,6.111-8.278,11.707c-0.51,2.362-0.152,1.515-1.667,2.965c-0.905,0.864-4.625,3.509-7.925,2.416   c-0.162-0.054-0.212-0.082-0.238-0.042l-0.004-0.02l0.614,1.976l-0.372-1.196c-0.033-0.012-1.865,1.942-1.996,1.986   c-3.304,1.093-9.321-5.244-10.228-6.109c-1.519-1.45-1.814,0.386-2.326-1.976c-1.21-5.596-4.054-9.333-8.293-11.707   c-1.335-0.748,1.502,3.556,2.998,5.705c0.073,0.054,0.115,0.077,0.079,0.025c1.228,1.773,0.812,1.256-0.079-0.025   c-0.751-0.549-6.701-6.083-7.47-5.77c-0.542,0.221,3.744,4.881,6.186,7.432c0.313,0.252,0.482,0.382,0.398,0.293   c2.051,2.183,1.242,1.421-0.398-0.293c-1.636-1.315-7.675-6.344-7.729-5.433c-0.031,0.527,5.521,4.74,5.479,5.199   c-0.058,0.612-6.779-4.014-6.7-3.137c0.203,2.25,5.573,4.382,6.642,6.948c1.817,4.365,1.69,4.501,0.338,9.642   c-1.562,5.937,2.035,10.352,4.781,13.069c0.102,0.101-4.353,3.687-5.986,3.356c-0.688-0.139-0.699-1.467-0.968-1.673   c-0.632-0.485-2.179-0.628-1.87-1.865c0,0.035-0.052,0.073-0.064,0c-5.5-5.246-15.348-10.266-23.714-11.952   c-0.712-0.143-1.59-1.009-1.803,0.454c-0.44,3.03,0.491,7.909,0.896,10.573c0.06-0.002,0.15,0.054,0.019,0.117   c0.21,2.009,0.837,5.249,2.713,6.823c0.113,0.059,0.118,0.226,0.193,0.322c3.562,4.099,7.321,7.729,10.512,11.903   c-0.007-0.078,0.093-0.041,0,0c1.342,1.32,3.427,1.977,5.799,2.375c0.432,0.074,2.963,0.182,3.092,0.512   c0.347,0.889-2.938,1.701-2.986,2.166c-0.082,0.805-0.42,0.514,0.368,0.525c0.688,0.01,4.509-1.947,6.002-2.455   c0.21-0.551,0.6-1.193,0.473-0.529c-0.027,0.139-0.093,0.289-0.148,0.436c0.281-0.062,0.373-0.008,0.156,0.24   c-0.233,0.268-0.38,0.391-0.474,0.432c-0.935,1.617-2.959,3.396-3.78,3.982c-1.719,1.23,4.435-2.904,4.773-2.455   c0.224,0.299,0.328,0.951,0.412,1.748c0,0,0,0,0-0.002c0.171-0.98,0.501-1.689,0.911-2.227c-0.066-0.879,0-1.678,0.669-2.061   c0.198-0.113-0.051,0.754-0.406,1.754c0.509-0.543,1.107-0.879,1.685-1.158c-0.382,0.756-0.611,1.648-0.611,2.613   c0,2.582,1.595,4.672,3.607,4.84c-0.941,0.666-2.017,1.08-3.17,0.836c-1.275-0.68-1.628-2.266-1.743-3.926   c0.287-0.625,0.099-1.617-0.001-2.568c-0.388,1.027-0.81,2-0.924,2.07c0.178,1.764,0.298,4.133,1.38,5.006   c0.022,0.051,0.042,0.045,0.043,0.029c0.569,0.314,1.013,1.506,0.668,2.611c0.769,1.84,3.389,6.062,4.026,7.766   c1.8,4.803-2.368,8.133-0.879,12.369c0.745,2.119,1.378,2.389,2.297,4.398 M23.337,53.424c-3.167-0.938-6.421-0.811-7.733-4.049   c0.007,0.078-0.093,0.041,0,0c-0.539-0.92-1.539-1.656-1.935-2.509c0.006,0.078-0.094,0.04,0,0   c-2.007-1.195-4.014-4.074-5.481-5.983c-1.817-2.365-4.495-3.358-5.096-6.563c-0.122-0.651-1.253-8.702-0.332-8.372   c5.302,1.896,10.576,4.585,13.985,7.776c0.676,0.633,5.348,3.452,0.261,3.22c-1.239-0.056-4.029-1.917-4.189-2.829   c-0.15-0.855-1.744-1.411-1.353,0.259c0.614,2.618,1.245,4.944,2.97,6.501c1.767,1.686,7.103,2.773,8.437-0.203   c1.222-2.726-1.233-5.416-3.357-7.016c-3.516-2.648-8.65-5.498-12.761-7.521c-1.111-0.547-0.418-0.407,0.708-0.259   c5.07,0.668,11.149,5.218,13.663,8.035c0.869,1.003,5.264,3.88,4.837,5.855c-0.164,0.755-1.536,1.646-1.865,2.578   c-0.301,0.854-0.045,2.237-0.577,2.834c-1.601,1.801-5.402-2.243-7.473-1.859c-0.092,0.018-0.477,0.218-0.515,0.452   c-0.19,1.172,4.432,2.302,5.606,2.505c1.264,0.218,2.302,0.186,2.578,1.606c-0.062-0.267,0.192-0.013,0,0   c3.061,4.287-4.968,3.095-5.409,0.393c-0.078,0.007-0.041-0.094,0,0c0.17-2.968-1.599,0.22-0.385,1.806   c1.876,2.447,5.076,0.457,7.279,1.473C27.128,52.439,25.185,53.973,23.337,53.424z M62.244,56.09   c-0.477-2.01-1.49-0.953-0.333-1.959c0.152-0.133,3.539-1.662,4.041-1.008c-0.052-0.002-0.099-0.018-0.148-0.018   C64.202,53.105,62.828,54.336,62.244,56.09z M65.67,12.167c-0.004-0.008-0.002-0.019-0.024-0.022   C65.646,12.167,68.242,7.665,65.67,12.167z M35.071,12.145c-0.022,0.004-0.019,0.014-0.024,0.022   C32.469,7.665,35.071,12.167,35.071,12.145z M38.813,55.617c1.445,1.256,0.024-0.314-0.748,1.885   c-0.176-2.26-1.561-4.051-3.334-4.336C35.154,52.551,38.657,55.482,38.813,55.617z M64.463,86.643   c-0.363,0.895-0.826,1.883-1.548,2.574c0.3,0.006-0.078,0.383-0.063,0.064c-1.339,0.635-0.027,1.602-0.068,2.703   c0.212-0.045,0.099,0.129,0,0.129c0.015,0.189-0.255,0.426-0.063,0.58c0.039-0.094,0.078,0.006,0,0   c-2.217,3.027-6.045,4.215-9.339,4.455h-6.024c-5.765-0.42-4.669,1.934-9.354-4.455c-0.078,0.006-0.04-0.094,0,0   c0.19-0.154-0.079-0.391-0.065-0.58c-0.099,0-0.212-0.174,0-0.129c-0.04-1.102,1.272-2.068-0.068-2.703   c0.014,0.318-0.363-0.059-0.064-0.064c-0.723-0.691-1.184-1.68-1.549-2.574c-2.004-1.908,1.584-7.949,4.114-6.576l2.193,2.574   c0.323,0.59,0.372,1.592,0.775,1.738c1.227,0.443,1.408-2.053,0.384-2.061c-0.346-0.744-1.008-1.568-1.612-2.254   c-0.574-1.307-2.403-2.314-2.516-3.926c-0.166-2.354,4.438-2.625,4.117-3.869c-0.238-0.92-1.214,0.051-1.545-0.125   c-0.132-0.072-0.141-3.484-0.198-4.059c-0.491-4.928,6.156-8.955,4.684-14.498c0.1-4.483-1.903-7.381-2.396-12.104   c-0.078,0.006-0.04-0.094,0,0c1.123-3.913-2.031-12.267,2.108-14.815c0.132-0.082,2.559-0.841,2.188-1.613   c-0.262-0.547-0.985-0.98,0.128-1.675c0.165-0.102,1.163-0.899-0.196-1.095c-5.927-0.855-8.098,6.992-10.744,10.124   c-1.642,1.943,4.448-7.647,3.98-8.973c-2.312-6.55-7.647-5.428-6.649-11.229c1.832,3.473,4.431,4.959,8.577,5.51   c0.362,0.048,6.121,4.09,7.196,3.758l2.011-2.692v-0.004c1.066,0.342,3.867-1.013,4.229-1.062c4.139-0.551,6.733-2.038,8.562-5.51   c0.997,5.801-4.25,3.697-6.557,10.247c-0.47,1.326,5.532,11.897,3.892,9.955c-2.64-3.132-4.807-10.979-10.724-10.124   c-1.351,0.196-0.357,0.993-0.193,1.095c1.109,0.694,0.388,1.127,0.126,1.675c-0.368,0.772,2.051,1.531,2.185,1.613   c4.133,2.548,0.982,10.902,2.104,14.815c0.039-0.094,0.078,0.006,0,0c-0.492,4.723-2.049,8.679-1.949,13.16   c-1.469,5.543,4.725,8.514,4.233,13.441c-0.056,0.574-0.066,3.986-0.197,4.059c-0.331,0.176-1.306-0.795-1.545,0.125   c-0.32,1.244,4.275,1.516,4.11,3.869c-0.11,1.611-1.938,2.619-2.511,3.926c-0.604,0.686-1.264,1.51-1.609,2.254   c-1.024,0.008-0.841,2.504,0.383,2.061c0.402-0.146,0.45-1.148,0.772-1.738l2.19-2.574C62.88,78.693,66.464,84.734,64.463,86.643z    M43.024,35.754C43.418,35.808,42.704,35.71,43.024,35.754L43.024,35.754z M59.307,41.037   C58.992,41.166,59.683,40.883,59.307,41.037L59.307,41.037z M57.705,35.754C58.025,35.71,57.312,35.808,57.705,35.754   L57.705,35.754z M96.703,34.319c-0.6,3.205-3.277,4.198-5.095,6.563c-1.468,1.909-2.58,4.789-4.587,5.983   c0.092,0.04-0.007,0.078,0,0c-0.397,0.854-1.396,1.589-1.936,2.509c0.093,0.041-0.008,0.078,0,0   c-1.313,3.238-4.566,3.111-7.727,4.049c-1.845,0.549-3.783-0.984-1.863-1.869c2.2-1.016,5.394,0.975,7.271-1.473   c1.214-1.584-0.555-4.774-0.384-1.807c0.039-0.093,0.078,0.008,0,0c-0.442,2.703-8.457,3.895-5.404-0.392   c-0.19-0.012,0.062-0.267,0,0c0.276-1.42,1.312-1.388,2.574-1.606c1.173-0.203,5.793-1.333,5.604-2.505   c-0.037-0.234-0.422-0.435-0.514-0.452c-2.071-0.383-5.868,3.66-7.466,1.859c-0.531-0.597-0.276-1.98-0.576-2.834   c-0.329-0.932-1.698-1.823-1.86-2.578c-0.428-1.976,3.96-4.852,4.827-5.855c2.511-2.816,7.696-7.366,12.767-8.035   c1.127-0.148,1.82-0.289,0.708,0.259c-4.11,2.023-8.351,4.872-11.866,7.521c-2.122,1.6-4.571,4.29-3.352,7.016   c1.332,2.977,6.664,1.889,8.43,0.203c1.728-1.558,2.356-3.883,2.972-6.501c0.391-1.67-1.203-1.114-1.354-0.259   c-0.16,0.912-2.95,2.772-4.188,2.829c-5.082,0.232-0.415-2.587,0.262-3.22c3.407-3.191,7.786-5.879,13.089-7.776   C97.958,25.617,96.825,33.668,96.703,34.319z"/>
	<path d="M70.725,57.037c0.074,0.209,0.151,0.422,0.232,0.637c0.012-0.111,0.021-0.221,0.029-0.33   C70.903,57.232,70.814,57.133,70.725,57.037z"/>
	<path d="M73.301,56.297c0.194,0.084,0.14-0.223,0.006-0.576c-0.126-0.045-0.235-0.076-0.325-0.096   C73.063,55.844,73.168,56.068,73.301,56.297z"/>
	<path d="M82.115,43.52C82.045,43.861,82.311,43.595,82.115,43.52L82.115,43.52z"/>
	<path d="M70.933,36.422C71.011,36.429,70.973,36.329,70.933,36.422L70.933,36.422z"/>
	<path d="M70.869,36.486c0.021,0,0.042,0,0.063,0c0-0.021,0-0.043,0-0.064C70.894,36.426,70.857,36.431,70.869,36.486z"/>
	<path d="M60.062,96.885C59.983,96.877,60.021,96.977,60.062,96.885L60.062,96.885z"/>
	<path d="M57.748,96.43C57.583,96.266,57.837,96.52,57.748,96.43L57.748,96.43z"/>
	<path d="M48.315,81.711c-0.015-0.037,0.021-0.051,0.043-0.031c-0.104-0.414-0.324-0.768-0.585-1.092   c-0.658-0.82-1.599-1.451-1.774-2.311c0.039-0.16-0.25-0.09-0.166-0.305c-0.21-0.641-0.033-1.084-0.376-1.658   C39.332,71.537,45.98,83.781,48.315,81.711z"/>
	<path d="M51.461,82.258c0.021,0,0.044,0,0.063,0c-0.018-0.002-0.033-0.008-0.052-0.012C51.469,82.252,51.463,82.248,51.461,82.258z   "/>
	<path d="M52.75,77.945C52.689,78.213,52.943,77.959,52.75,77.945L52.75,77.945z"/>
	<path fill="none" stroke="#000000" stroke-width="0" stroke-linecap="round" stroke-linejoin="round" d="M52.061,81.184   c-0.002-0.002-0.01-0.008-0.02-0.02c-0.021-0.021-0.051-0.051-0.054-0.055"/>
	<path d="M77.501,36.545C77.177,36.779,77.732,36.787,77.501,36.545L77.501,36.545z"/>
	<path d="M52.798,94.715C52.791,94.793,52.893,94.756,52.798,94.715L52.798,94.715z"/>
</g>
<path d="M60.811,89.225c0,0-8.614,5.979-16.864,2.02S54.11,98.508,60.811,89.225z"/>
</svg>