<?xml version="1.0" encoding="utf-8"?>
<!-- Generator: Adobe Illustrator 17.0.0, SVG Export Plug-In . SVG Version: 6.00 Build 0)  -->
<!DOCTYPE svg PUBLIC "-//W3C//DTD SVG 1.1//EN" "http://www.w3.org/Graphics/SVG/1.1/DTD/svg11.dtd">
<svg version="1.1" id="Calque_1" xmlns="http://www.w3.org/2000/svg" xmlns:xlink="http://www.w3.org/1999/xlink" x="0px" y="0px"
	 width="64px" height="64px" viewBox="18 18 64 64" enable-background="new 18 18 64 64" xml:space="preserve">
<g>
	<path fill="none" d="M29.307,49.665C29.281,49.605,29.257,49.671,29.307,49.665L29.307,49.665z"/>
	<path fill="none" d="M33.728,51.767c-1.413-0.652-3.465,0.625-4.668-0.945c-0.779-1.015,0.356-3.061,0.247-1.158
		c0.283,1.732,5.432,2.497,3.469-0.253c-0.177-0.911-0.843-0.89-1.653-1.03c-0.753-0.13-3.717-0.854-3.595-1.607
		c0.024-0.15,0.271-0.278,0.33-0.29c1.328-0.246,3.766,2.347,4.793,1.192c0.341-0.384,0.177-1.27,0.37-1.818
		c0.211-0.598,1.091-1.169,1.196-1.654c0.274-1.267-2.545-3.112-3.102-3.755c-1.612-1.806-5.511-4.724-8.762-5.153
		c-0.723-0.095-1.167-0.185-0.454,0.166c2.636,1.297,5.929,3.125,8.184,4.823c1.363,1.026,2.937,2.751,2.153,4.5
		c-0.856,1.909-4.278,1.211-5.411,0.13c-1.107-0.999-1.511-2.49-1.905-4.169c-0.251-1.071,0.772-0.714,0.868-0.166
		c0.103,0.586,1.892,1.778,2.687,1.814c3.262,0.148,0.266-1.659-0.167-2.065c-2.186-2.046-5.569-3.77-8.969-4.987
		c-0.591-0.212,0.135,4.952,0.213,5.369c0.385,2.055,2.102,2.692,3.268,4.209c0.941,1.224,2.228,3.071,3.515,3.837
		c0.254,0.548,0.895,1.019,1.241,1.61c0.841,2.076,2.929,1.995,4.959,2.596C33.717,53.318,34.963,52.336,33.728,51.767z
		 M32.009,41.812C32.217,41.962,31.86,41.967,32.009,41.812L32.009,41.812z M29.046,46.285
		C29.091,46.504,28.921,46.333,29.046,46.285L29.046,46.285z"/>
	<path fill="none" d="M64.701,54.202c0.149,0.172,0.244,0.251,0.305,0.277c-0.085-0.147-0.152-0.291-0.205-0.431
		C64.621,54.008,64.563,54.043,64.701,54.202z"/>
	<path fill="none" d="M27.573,50.37C27.512,50.397,27.577,50.42,27.573,50.37L27.573,50.37z"/>
	<path fill="none" d="M26.332,48.761C26.271,48.786,26.336,48.811,26.332,48.761L26.332,48.761z"/>
	<path fill="none" d="M72.874,52.106C72.878,52.056,72.814,52.079,72.874,52.106L72.874,52.106z"/>
	<path fill="none" d="M64.707,53.769c0.017,0.089,0.06,0.185,0.094,0.28c0.058,0.013,0.128,0.033,0.208,0.062
		C64.875,53.755,64.626,53.343,64.707,53.769z"/>
	<path fill="none" d="M32.776,49.413C32.899,49.404,32.736,49.242,32.776,49.413L32.776,49.413z"/>
	<path fill="none" d="M41.937,78.15C41.911,78.09,41.887,78.154,41.937,78.15L41.937,78.15z"/>
	<path fill="none" d="M45.947,45.31C45.921,45.249,45.897,45.313,45.947,45.31L45.947,45.31z"/>
	<path fill="none" d="M59.861,52.773c-0.321-0.419-1.903-1.596-2-1.51c-0.741,0.645-0.683,2.124-0.377,3.413
		c0.375-1.125,1.255-1.914,2.283-1.914C59.799,52.762,59.829,52.772,59.861,52.773z"/>
	<path fill="none" d="M57.788,78.15C57.838,78.154,57.814,78.09,57.788,78.15L57.788,78.15z"/>
	<path fill="none" d="M53.785,45.31C53.836,45.313,53.81,45.249,53.785,45.31L53.785,45.31z"/>
	<path fill="none" d="M59.665,26.493c0.014,0.002,0.013,0.009,0.015,0.014C61.331,23.62,59.665,26.507,59.665,26.493z"/>
	<path fill="none" d="M39.839,52.801c1.138,0.184,2.025,1.333,2.138,2.781c0.494-1.41,0.814-3.514-0.113-4.319
		C41.765,51.175,40.11,52.406,39.839,52.801z"/>
	<path fill="none" d="M40.057,26.493c0,0.013-1.669-2.873-0.015,0.014C40.044,26.502,40.043,26.496,40.057,26.493z"/>
	<path fill="none" d="M18.214,39.815c0.003,0.023,0.008,0.053,0.012,0.075C18.31,39.849,18.252,39.813,18.214,39.815z"/>
	<path fill="none" d="M38.777,22.616c0.023,0.033-0.004,0.019-0.051-0.016C39.297,23.423,39.564,23.754,38.777,22.616z"/>
	<path fill="none" d="M38.158,23.854c0.053,0.057-0.055-0.026-0.255-0.188C38.954,24.765,39.472,25.254,38.158,23.854z"/>
	<path fill="none" d="M51.007,71.121c0.012,0.003,0.022,0.006,0.033,0.008C51.041,71.11,51.019,71.098,51.007,71.121z"/>
	<path fill="none" d="M61.562,23.854c-1.313,1.399-0.795,0.911,0.255-0.187C61.617,23.828,61.508,23.912,61.562,23.854z"/>
	<path fill="none" d="M60.944,22.616c-0.786,1.137-0.521,0.806,0.049-0.015C60.947,22.636,60.921,22.65,60.944,22.616z"/>
	<path fill="none" d="M26.831,52.106C26.891,52.079,26.827,52.056,26.831,52.106L26.831,52.106z"/>
	<path fill="none" d="M35.006,53.769c0.081-0.426-0.169-0.013-0.303,0.341c0.081-0.029,0.151-0.049,0.208-0.062
		C34.947,53.955,34.99,53.858,35.006,53.769z"/>
	<path fill="none" d="M61.683,53.93c0.344,0.537,0.559,1.211,0.559,1.957c0,1.499-0.838,2.751-1.955,3.053
		c0.619,0.457,1.332,0.75,2.098,0.587c0.816-0.436,1.043-1.453,1.116-2.517c-0.183-0.401-0.063-1.038,0.001-1.648
		c-0.052-0.138-0.101-0.274-0.149-0.409C62.847,54.411,62.201,54.187,61.683,53.93z"/>
	<path fill="none" d="M36.193,55.151c-0.263,0.346-0.475,0.799-0.584,1.428c0,0.001,0,0.001,0,0.001
		c0.003,0.037,0.007,0.074,0.011,0.11c0.073-0.044,0.344-0.669,0.593-1.328C36.205,55.291,36.198,55.221,36.193,55.151z"/>
	<path fill="none" d="M63.094,53.829c-0.126-0.072,0.033,0.484,0.26,1.125c0.058,0.062,0.115,0.125,0.168,0.197
		C63.565,54.587,63.522,54.075,63.094,53.829z"/>
	<path fill="none" d="M35.011,54.202c0.139-0.159,0.08-0.194-0.1-0.154c-0.052,0.14-0.119,0.284-0.204,0.431
		C34.768,54.453,34.862,54.374,35.011,54.202z"/>
	<path fill="none" d="M36.213,57.011c0.074,1.063,0.3,2.08,1.118,2.517c0.74,0.158,1.43-0.109,2.033-0.536
		c-1.29-0.106-2.313-1.448-2.313-3.104c0-0.619,0.147-1.19,0.392-1.676c-0.37,0.179-0.754,0.394-1.081,0.743
		c-0.047,0.134-0.097,0.271-0.149,0.409C36.276,55.972,36.397,56.61,36.213,57.011z"/>
	<path fill="none" d="M63.521,55.151c-0.005,0.07-0.012,0.14-0.019,0.212c0.249,0.659,0.519,1.284,0.592,1.328
		c0.004-0.037,0.007-0.075,0.012-0.11c0,0,0,0,0-0.001C63.997,55.95,63.784,55.495,63.521,55.151z"/>
	<path fill="none" d="M36.622,53.829c-0.429,0.246-0.471,0.758-0.429,1.322c0.054-0.071,0.111-0.135,0.169-0.197
		C36.59,54.313,36.749,53.756,36.622,53.829z"/>
	<path fill="none" d="M80.906,39.889c0.003-0.022,0.008-0.052,0.012-0.075C80.88,39.813,80.821,39.849,80.906,39.889z"/>
	<path fill="none" d="M54.572,41.634C54.321,41.669,54.779,41.606,54.572,41.634L54.572,41.634z"/>
	<path fill="none" d="M73.374,48.761C73.37,48.811,73.433,48.786,73.374,48.761L73.374,48.761z"/>
	<path fill="none" d="M45.158,41.634C44.952,41.606,45.41,41.669,45.158,41.634L45.158,41.634z"/>
	<path fill="none" d="M70.398,49.665C70.448,49.671,70.424,49.605,70.398,49.665L70.398,49.665z"/>
	<path fill="none" d="M44.213,76.833C44.263,76.836,44.239,76.773,44.213,76.833L44.213,76.833z"/>
	<path fill="none" d="M56.273,70.052l-1.404,1.651c-0.207,0.38-0.237,1.021-0.495,1.115c-0.786,0.284-0.902-1.317-0.246-1.322
		c0.222-0.477,0.646-1.006,1.033-1.446c0.367-0.838,1.539-1.484,1.611-2.517c0.105-1.51-2.842-1.685-2.636-2.483
		c0.152-0.59,0.777,0.034,0.99-0.08c0.085-0.046,0.091-2.234,0.126-2.603c0.315-3.159-0.89-6.109,0.052-9.665
		c-0.064-2.874-1.832-4.366-1.516-7.395c-0.718-2.509,1.301-7.867-1.349-9.501c-0.085-0.053-1.637-0.539-1.4-1.034
		c0.168-0.351,0.631-0.629-0.08-1.074c-0.106-0.065-0.744-0.577,0.124-0.702c3.793-0.548,5.183,4.484,6.877,6.493
		c1.052,1.246-2.797-5.534-2.497-6.384c1.48-4.201,4.845-2.851,4.206-6.572c-1.172,2.227-2.837,3.18-5.491,3.534
		c-0.232,0.031-2.028,0.9-2.712,0.681l0.001,0.002h-3.193c-0.689,0.214-2.481-0.652-2.712-0.683
		c-2.659-0.354-4.326-1.307-5.501-3.534c-0.64,3.72,2.781,3.001,4.264,7.201c0.3,0.85-3.606,7.001-2.552,5.755
		c1.697-2.009,3.089-7.041,6.89-6.493c0.869,0.126,0.23,0.637,0.125,0.702c-0.714,0.445-0.249,0.723-0.081,1.074
		c0.237,0.495-1.319,0.982-1.403,1.034c-2.654,1.634-0.632,6.992-1.352,9.501c0.317,3.029-1.455,4.521-1.519,7.395
		c0.944,3.556-0.263,6.506,0.053,9.665c0.037,0.368,0.042,2.556,0.127,2.603c0.212,0.114,0.839-0.51,0.991,0.08
		c0.206,0.798-2.746,0.972-2.64,2.483c0.072,1.032,1.245,1.678,1.614,2.517c0.387,0.44,0.813,0.968,1.034,1.446
		c0.657,0.005,0.541,1.606-0.246,1.322c-0.258-0.094-0.29-0.735-0.497-1.115l-1.406-1.651c-1.623-0.881-3.924,2.994-2.638,4.217
		c0.234,0.574,0.53,1.208,0.993,1.651c-0.192,0.004,0.051,0.246,0.041,0.041c0.859,0.407,0.018,1.027,0.044,1.733
		c-0.136-0.029-0.063,0.083,0,0.083c-0.009,0.121,0.164,0.273,0.042,0.372c1.424,1.941,3.884,2.703,6,2.858H51.8
		c2.113-0.155,4.568-0.917,5.989-2.858c-0.121-0.099,0.051-0.251,0.042-0.372c0.063,0,0.135-0.112,0-0.083
		c0.026-0.707-0.815-1.326,0.043-1.733c-0.01,0.204,0.233-0.038,0.04-0.041c0.463-0.443,0.759-1.077,0.993-1.651
		C60.189,73.046,57.892,69.172,56.273,70.052z M52.487,67.496c-0.141,0.405-0.432,0.5-0.661,0.867c0.124,0.009-0.039,0.172,0,0
		c-0.14,0.046,0.013,0.16-0.081,0.207c-0.351,0.44-0.274,1.161-0.408,1.823c0.002,0.003,0.021,0.021,0.035,0.035
		c0.006,0.008,0.012,0.012,0.013,0.013c-0.001-0.001-0.006-0.005-0.013-0.013c-0.013-0.013-0.033-0.033-0.035-0.035
		c-0.053,0.263-0.137,0.516-0.297,0.736c-0.013,0-0.027,0-0.04,0c0.001-0.006,0.005-0.004,0.008-0.008
		C49.029,70.824,52.321,62.517,52.487,67.496z M48.731,73.224c0.002,0.004,0.006,0.001,0.008,0.009c-0.014,0-0.028,0-0.041,0
		c-0.161-0.222-0.244-0.475-0.296-0.736c-0.001,0.001-0.01,0.009-0.035,0.034c-0.042,0.042,0.031-0.031,0.035-0.034
		c-0.133-0.661-0.056-1.384-0.409-1.824c-0.096-0.046,0.058-0.16-0.083-0.207c0.04,0.172-0.124,0.009,0,0
		c-0.23-0.367-0.521-0.462-0.662-0.867C47.414,64.621,50.708,72.925,48.731,73.224z M44.699,80.217
		C44.804,80.112,44.641,80.275,44.699,80.217L44.699,80.217z M48.06,79.119C48.065,79.169,48.001,79.144,48.06,79.119L48.06,79.119z
		 M51.857,79.118C51.918,79.144,51.853,79.168,51.857,79.118L51.857,79.118z M55.032,80.217
		C55.089,80.275,54.926,80.112,55.032,80.217L55.032,80.217z"/>
	<path fill="none" d="M55.6,45.022C55.84,44.924,55.398,45.105,55.6,45.022L55.6,45.022z"/>
	<path fill="none" d="M66.934,49.413C66.973,49.242,66.81,49.405,66.934,49.413L66.934,49.413z"/>
	<path fill="none" d="M55.705,76.066C55.679,76.006,55.655,76.07,55.705,76.066L55.705,76.066z"/>
	<path fill="none" d="M72.132,50.37C72.127,50.42,72.193,50.397,72.132,50.37L72.132,50.37z"/>
	<path fill="none" d="M79.796,35.345c-3.401,1.217-6.21,2.94-8.396,4.987c-0.433,0.406-3.427,2.214-0.167,2.065
		c0.794-0.036,2.584-1.229,2.687-1.814c0.096-0.548,1.118-0.905,0.868,0.166c-0.394,1.679-0.798,3.171-1.905,4.169
		c-1.133,1.081-4.553,1.778-5.408-0.13c-0.782-1.749,0.789-3.474,2.15-4.5c2.256-1.698,4.974-3.525,7.61-4.823
		c0.713-0.351,0.268-0.261-0.454-0.166c-3.251,0.428-6.577,3.346-8.187,5.153c-0.557,0.643-3.371,2.488-3.097,3.755
		c0.104,0.485,0.983,1.056,1.194,1.654c0.192,0.548,0.028,1.435,0.368,1.818c1.025,1.154,3.461-1.438,4.789-1.192
		c0.059,0.012,0.307,0.14,0.33,0.29c0.121,0.752-2.842,1.477-3.593,1.607c-0.81,0.14-1.474,0.119-1.651,1.03
		c-1.959,2.749,3.182,1.985,3.464,0.252c-0.109-1.903,1.025,0.143,0.247,1.158c-1.203,1.569-3.252,0.293-4.662,0.945
		c-1.233,0.569,0.012,1.551,1.194,1.199c2.03-0.602,4.115-0.52,4.957-2.596c0.345-0.591,0.987-1.062,1.242-1.61
		c1.287-0.766,2-2.613,2.941-3.837c1.166-1.517,2.883-2.154,3.269-4.209C79.661,40.296,80.387,35.133,79.796,35.345z M67.7,41.812
		C67.848,41.967,67.492,41.962,67.7,41.812L67.7,41.812z M70.659,46.285C70.784,46.333,70.614,46.504,70.659,46.285L70.659,46.285z"
		/>
	<path fill="none" d="M48.697,73.233c0.012-0.003,0.022-0.008,0.034-0.009C48.718,73.201,48.697,73.213,48.697,73.233z"/>
	<path d="M35.619,56.69c-0.004-0.037-0.008-0.074-0.011-0.11C35.592,56.674,35.599,56.703,35.619,56.69z"/>
	<path d="M18.225,39.889c-0.003-0.022-0.008-0.052-0.012-0.075C18.186,39.816,18.169,39.835,18.225,39.889z"/>
	<path d="M36.362,54.954c-0.058,0.062-0.115,0.125-0.169,0.197c0.006,0.07,0.012,0.14,0.019,0.212
		C36.264,55.224,36.314,55.088,36.362,54.954z"/>
	<path d="M34.703,54.11c-0.086,0.227-0.121,0.423,0.004,0.369c0.085-0.147,0.152-0.291,0.204-0.431
		C34.854,54.061,34.784,54.081,34.703,54.11z"/>
	<path d="M29.046,46.285C28.921,46.333,29.091,46.504,29.046,46.285L29.046,46.285z"/>
	<path d="M36.228,41.733C36.202,41.673,36.178,41.737,36.228,41.733L36.228,41.733z"/>
	<path d="M36.269,41.774c0.008-0.035-0.016-0.039-0.041-0.041c0,0.013,0,0.028,0,0.041C36.241,41.774,36.256,41.774,36.269,41.774z"
		/>
	<path d="M43.212,80.509C43.237,80.568,43.262,80.504,43.212,80.509L43.212,80.509z"/>
	<path d="M44.699,80.217C44.641,80.275,44.804,80.112,44.699,80.217L44.699,80.217z"/>
	<path d="M48.738,73.233c-0.001-0.008-0.005-0.005-0.008-0.009c-0.012,0.001-0.022,0.006-0.034,0.009
		C48.711,73.233,48.724,73.233,48.738,73.233z"/>
	<path d="M52.966,68.597c-0.062,0.561-0.627,1.016-0.999,1.58c-0.148,0.223-0.269,0.461-0.31,0.73
		c0.013-0.013,0.037-0.006,0.029,0.019c1.612,1.186,5.145-7.021,1.51-3.614c-0.186,0.386-0.047,0.659-0.144,1.08
		C53.12,68.524,52.931,68.497,52.966,68.597z"/>
	<path d="M47.909,70.466C47.785,70.474,47.949,70.637,47.909,70.466L47.909,70.466z"/>
	<path d="M48.366,72.53c0.025-0.025,0.033-0.033,0.035-0.034C48.396,72.499,48.324,72.573,48.366,72.53z"/>
	<path d="M48.06,79.119C48.001,79.144,48.065,79.169,48.06,79.119L48.06,79.119z"/>
	<path d="M32.009,41.812C31.86,41.967,32.217,41.962,32.009,41.812L32.009,41.812z"/>
	<path d="M64.106,56.58c-0.004,0.035-0.008,0.074-0.012,0.11C64.115,56.703,64.122,56.674,64.106,56.58z"/>
	<path d="M80.906,39.889c0.056-0.054,0.039-0.074,0.012-0.075C80.913,39.838,80.91,39.867,80.906,39.889z"/>
	<path d="M42.039,78.937c1.398,1.189,3.804,2.761,5.475,2.469l-0.005,0.005l5.691,0.017l-0.004-0.004
		c1.663,0.203,3.989-1.326,5.352-2.488c-0.062-0.054,0.607-0.158,0.619-0.122c0.66-0.369,0.916-0.879,1.362-1.569
		c0.588-1.29,1.713-2.439,2.19-3.797c0.953-2.718-1.06-5.304,0.092-8.385c0.409-1.092-0.116-2.619,0.376-3.799
		c-0.222-0.709,0.062-1.473,0.427-1.674c0.002,0.01,0.015,0.013,0.028-0.019c0.693-0.56,0.77-2.079,0.883-3.21
		c-0.072-0.045-0.342-0.67-0.591-1.328c-0.065,0.609-0.185,1.246-0.001,1.647c-0.072,1.065-0.299,2.082-1.115,2.518
		c-0.768,0.163-1.481-0.131-2.099-0.587c1.117-0.302,1.955-1.553,1.955-3.053c0-0.745-0.215-1.419-0.559-1.957
		c0.518,0.257,1.163,0.481,1.67,1.024c-0.227-0.641-0.387-1.197-0.26-1.125c0.429,0.246,0.472,0.758,0.429,1.322
		c0.262,0.344,0.474,0.799,0.584,1.428c0,0.001,0,0.001,0,0.001c0.055-0.511,0.121-0.929,0.264-1.121
		c0.217-0.288,4.156,2.364,3.056,1.574c-0.525-0.376-1.821-1.517-2.42-2.554c-0.061-0.026-0.154-0.105-0.303-0.277
		c-0.139-0.159-0.081-0.194,0.099-0.154c-0.035-0.094-0.076-0.19-0.094-0.28c-0.081-0.426,0.168-0.013,0.303,0.339
		c0.956,0.326,3.402,1.581,3.842,1.574c0.505-0.008,0.289,0.179,0.236-0.337c-0.031-0.298-2.134-0.819-1.912-1.389
		c0.083-0.212,1.702-0.281,1.979-0.328c1.521-0.255,2.858-0.677,3.719-1.523c-0.061-0.026,0.004-0.05,0,0
		c2.046-2.677,3.883-5.006,6.167-7.634c0.049-0.062,0.051-0.169,0.124-0.207c1.204-1.01,1.606-3.087,1.741-4.376
		c-0.085-0.04-0.026-0.076,0.012-0.075c0.26-1.709,0.857-4.837,0.574-6.781c-0.136-0.938-0.699-0.383-1.155-0.291
		c-5.367,1.081-11.107,4.301-14.63,7.665c-0.008,0.047-0.04,0.022-0.04,0c0.198,0.793-0.792,0.885-1.197,1.196
		c-0.171,0.132-0.179,0.984-0.62,1.073c-1.045,0.212-3.897-2.088-3.833-2.152c1.758-1.742,4.062-4.574,3.06-8.381
		c-0.865-3.296-0.947-3.384,0.216-6.184c0.684-1.646,4.122-3.013,4.253-4.456c0.05-0.562-4.253,2.404-4.289,2.012
		c-0.028-0.294,3.527-2.996,3.508-3.334c-0.035-0.584-3.902,2.642-4.949,3.484c-1.05,1.099-1.566,1.587-0.254,0.187
		c-0.053,0.057,0.055-0.026,0.254-0.187c1.564-1.635,4.308-4.625,3.961-4.766c-0.494-0.201-4.306,3.352-4.784,3.701
		c-0.569,0.821-0.835,1.152-0.049,0.015c-0.024,0.033,0.003,0.019,0.049-0.015c0.957-1.379,2.774-4.14,1.92-3.66
		c-2.713,1.523-4.535,3.919-5.309,7.508c-0.327,1.515-0.097,0.972-1.069,1.902c-0.58,0.554-2.966,2.25-5.082,1.549
		c-0.104-0.035-0.136-0.053-0.153-0.027l-0.003-0.013l0.394,1.267l-0.239-0.767c-0.021-0.008-1.196,1.245-1.28,1.274
		c-2.119,0.701-5.978-3.363-6.559-3.918c-0.974-0.93-1.163,0.248-1.492-1.267c-0.776-3.589-2.6-5.985-5.318-7.508
		c-0.856-0.48,0.963,2.281,1.923,3.659c0.047,0.035,0.074,0.049,0.051,0.016c0.788,1.137,0.521,0.806-0.051-0.016
		c-0.482-0.352-4.298-3.901-4.791-3.7c-0.348,0.142,2.401,3.13,3.967,4.766c0.201,0.162,0.309,0.245,0.255,0.188
		c1.315,1.4,0.797,0.911-0.255-0.188c-1.049-0.843-4.922-4.069-4.957-3.484c-0.02,0.338,3.541,3.04,3.514,3.334
		c-0.037,0.392-4.348-2.574-4.297-2.012c0.13,1.443,3.574,2.81,4.26,4.456c1.165,2.799,1.084,2.887,0.217,6.184
		c-1.002,3.808,1.305,6.639,3.066,8.381c0.065,0.065-2.792,2.365-3.839,2.152c-0.441-0.089-0.448-0.941-0.621-1.073
		c-0.405-0.311-1.397-0.403-1.199-1.196c0,0.022-0.033,0.047-0.041,0c-3.527-3.364-9.843-6.584-15.208-7.665
		c-0.457-0.092-1.02-0.647-1.156,0.291c-0.282,1.943,0.315,5.072,0.575,6.781c0.038-0.001,0.096,0.035,0.012,0.075
		c0.135,1.288,0.537,3.366,1.74,4.376c0.072,0.038,0.076,0.145,0.124,0.207c2.284,2.629,4.695,4.957,6.742,7.634
		c-0.004-0.05,0.06-0.026,0,0c0.861,0.847,2.198,1.268,3.719,1.523c0.277,0.047,1.9,0.117,1.983,0.328
		c0.223,0.57-1.884,1.091-1.915,1.389c-0.053,0.516-0.269,0.33,0.236,0.337c0.441,0.006,2.892-1.249,3.849-1.574
		c0.135-0.353,0.385-0.765,0.303-0.339c-0.017,0.089-0.06,0.185-0.095,0.28c0.18-0.04,0.239-0.005,0.1,0.154
		c-0.149,0.172-0.244,0.251-0.304,0.277c-0.6,1.037-1.898,2.178-2.424,2.554c-1.102,0.789,2.844-1.862,3.061-1.574
		c0.144,0.192,0.21,0.61,0.264,1.121c0,0,0,0,0-0.001c0.11-0.628,0.321-1.083,0.584-1.428c-0.042-0.564,0-1.076,0.429-1.322
		c0.127-0.072-0.033,0.484-0.26,1.125c0.326-0.348,0.71-0.564,1.081-0.743c-0.245,0.485-0.392,1.057-0.392,1.676
		c0,1.656,1.023,2.996,2.313,3.104c-0.603,0.427-1.294,0.693-2.033,0.536c-0.818-0.436-1.044-1.453-1.118-2.518
		c0.184-0.401,0.063-1.037-0.001-1.647c-0.249,0.659-0.519,1.283-0.593,1.328c0.114,1.131,0.191,2.651,0.885,3.21
		c0.014,0.033,0.027,0.029,0.028,0.019c0.365,0.201,0.65,0.966,0.428,1.674c0.493,1.18,2.173,3.888,2.582,4.981
		c1.154,3.08-1.519,5.216-0.564,7.933c0.478,1.359,0.884,1.532,1.473,2.821 M32.963,52.637c-2.031-0.602-4.118-0.52-4.959-2.597
		c0.004,0.05-0.06,0.026,0,0c-0.346-0.59-0.987-1.062-1.241-1.609c0.004,0.05-0.06,0.026,0,0c-1.287-0.766-2.574-2.613-3.515-3.837
		c-1.165-1.517-2.883-2.154-3.268-4.209c-0.078-0.418-0.804-5.581-0.213-5.369c3.4,1.216,6.783,2.94,8.969,4.987
		c0.434,0.406,3.43,2.214,0.167,2.065c-0.795-0.036-2.584-1.229-2.687-1.814c-0.096-0.548-1.118-0.905-0.868,0.166
		c0.394,1.679,0.798,3.171,1.905,4.169c1.133,1.081,4.555,1.778,5.411-0.13c0.784-1.748-0.791-3.473-2.153-4.5
		c-2.255-1.698-5.547-3.526-8.184-4.823c-0.713-0.351-0.268-0.261,0.454-0.166c3.252,0.428,7.15,3.346,8.762,5.153
		c0.557,0.643,3.376,2.488,3.102,3.755c-0.105,0.484-0.985,1.056-1.196,1.653c-0.193,0.548-0.029,1.435-0.37,1.818
		c-1.027,1.155-3.464-1.438-4.793-1.192c-0.059,0.012-0.306,0.14-0.33,0.29c-0.122,0.752,2.842,1.476,3.595,1.607
		c0.811,0.14,1.476,0.119,1.653,1.03c-0.04-0.171,0.123-0.008,0,0c1.963,2.749-3.186,1.985-3.469,0.252c-0.05,0.004-0.026-0.06,0,0
		c0.109-1.903-1.025,0.141-0.247,1.158c1.203,1.569,3.255,0.293,4.668,0.945C35.394,52.005,34.148,52.989,32.963,52.637z
		 M57.915,54.347c-0.306-1.289-0.956-0.611-0.214-1.256c0.097-0.085,2.27-1.066,2.592-0.646c-0.033-0.001-0.063-0.012-0.095-0.012
		C59.171,52.432,58.289,53.222,57.915,54.347z M60.112,26.178c-0.003-0.005-0.001-0.012-0.015-0.014
		C60.097,26.178,61.762,23.29,60.112,26.178z M40.488,26.164c-0.014,0.003-0.012,0.009-0.015,0.014
		C38.82,23.29,40.488,26.178,40.488,26.164z M42.888,54.043c0.927,0.806,0.015-0.201-0.48,1.209
		c-0.113-1.449-1.001-2.598-2.138-2.781C40.542,52.077,42.788,53.957,42.888,54.043z M59.338,73.941
		c-0.233,0.574-0.53,1.208-0.993,1.651c0.192,0.004-0.05,0.246-0.04,0.041c-0.859,0.407-0.017,1.027-0.044,1.733
		c0.136-0.029,0.063,0.083,0,0.083c0.01,0.121-0.164,0.273-0.04,0.372c0.025-0.06,0.05,0.004,0,0
		c-1.422,1.941-3.877,2.703-5.989,2.857h-3.863c-3.697-0.269-2.994,1.24-5.999-2.857c-0.05,0.004-0.026-0.06,0,0
		c0.122-0.099-0.051-0.251-0.042-0.372c-0.063,0-0.136-0.112,0-0.083c-0.026-0.707,0.816-1.326-0.044-1.733
		c0.009,0.204-0.233-0.038-0.041-0.041c-0.464-0.443-0.759-1.077-0.993-1.651c-1.285-1.224,1.016-5.098,2.638-4.217l1.406,1.651
		c0.207,0.378,0.239,1.021,0.497,1.115c0.787,0.284,0.903-1.317,0.246-1.322c-0.222-0.477-0.646-1.006-1.034-1.446
		c-0.368-0.838-1.541-1.484-1.614-2.518c-0.106-1.51,2.846-1.683,2.64-2.481c-0.153-0.59-0.779,0.033-0.991-0.08
		c-0.085-0.046-0.09-2.234-0.127-2.603c-0.315-3.16,3.948-5.743,3.004-9.298c0.064-2.875-1.22-4.734-1.537-7.763
		c-0.05,0.004-0.026-0.06,0,0c0.72-2.509-1.303-7.867,1.352-9.501c0.085-0.053,1.641-0.539,1.403-1.034
		c-0.168-0.351-0.632-0.628,0.082-1.074c0.106-0.065,0.746-0.577-0.126-0.702c-3.801-0.548-5.193,4.484-6.89,6.493
		c-1.053,1.246,2.853-4.904,2.552-5.755c-1.483-4.201-4.904-3.481-4.264-7.201c1.175,2.227,2.842,3.18,5.501,3.534
		c0.232,0.031,3.926,2.623,4.615,2.41l1.29-1.726v-0.003c0.684,0.219,2.48-0.65,2.712-0.681c2.654-0.353,4.318-1.307,5.491-3.534
		c0.639,3.72-2.726,2.371-4.205,6.572c-0.301,0.85,3.548,7.63,2.496,6.384c-1.693-2.009-3.083-7.041-6.878-6.493
		c-0.866,0.126-0.229,0.637-0.124,0.702c0.711,0.445,0.249,0.723,0.081,1.074c-0.236,0.495,1.315,0.982,1.401,1.034
		c2.651,1.634,0.63,6.992,1.349,9.501c0.025-0.06,0.05,0.004,0,0c-0.316,3.029-1.314,5.566-1.25,8.44
		c-0.942,3.555,3.03,5.46,2.715,8.62c-0.036,0.368-0.042,2.556-0.126,2.603c-0.212,0.113-0.838-0.51-0.991,0.08
		c-0.205,0.798,2.742,0.972,2.636,2.481c-0.071,1.033-1.243,1.68-1.61,2.518c-0.387,0.44-0.811,0.968-1.032,1.446
		c-0.657,0.005-0.539,1.606,0.246,1.322c0.258-0.094,0.289-0.736,0.495-1.115l1.404-1.651
		C58.323,68.842,60.621,72.717,59.338,73.941z M45.589,41.305C45.841,41.339,45.384,41.276,45.589,41.305L45.589,41.305z
		 M56.031,44.693C55.829,44.775,56.273,44.594,56.031,44.693L56.031,44.693z M55.004,41.305
		C55.209,41.276,54.752,41.339,55.004,41.305L55.004,41.305z M80.014,40.384c-0.385,2.055-2.102,2.692-3.268,4.209
		c-0.941,1.224-1.655,3.071-2.942,3.837c0.059,0.026-0.004,0.05,0,0c-0.255,0.548-0.895,1.019-1.242,1.609
		c0.06,0.026-0.005,0.05,0,0c-0.842,2.077-2.928,1.995-4.955,2.597c-1.183,0.352-2.426-0.631-1.195-1.199
		c1.411-0.652,3.459,0.625,4.663-0.945c0.779-1.016-0.356-3.062-0.246-1.159c0.025-0.06,0.05,0.005,0,0
		c-0.283,1.733-5.424,2.498-3.466-0.251c-0.122-0.008,0.04-0.171,0,0c0.177-0.911,0.841-0.89,1.651-1.03
		c0.752-0.13,3.715-0.855,3.594-1.607c-0.024-0.15-0.271-0.279-0.33-0.29c-1.328-0.246-3.763,2.347-4.788,1.192
		c-0.341-0.383-0.177-1.27-0.369-1.818c-0.211-0.598-1.089-1.169-1.193-1.653c-0.274-1.267,2.54-3.112,3.096-3.755
		c1.61-1.806,4.936-4.724,8.188-5.153c0.723-0.095,1.167-0.185,0.454,0.166c-2.636,1.297-5.356,3.125-7.61,4.823
		c-1.361,1.026-2.931,2.751-2.15,4.5c0.854,1.909,4.274,1.211,5.406,0.13c1.108-0.999,1.511-2.49,1.906-4.169
		c0.251-1.071-0.772-0.714-0.868-0.166c-0.103,0.585-1.892,1.778-2.686,1.814c-3.259,0.149-0.266-1.659,0.168-2.065
		c2.185-2.046,4.993-3.77,8.394-4.987C80.819,34.803,80.093,39.967,80.014,40.384z"/>
	<path d="M63.354,54.954c0.047,0.134,0.097,0.271,0.149,0.409c0.008-0.071,0.013-0.142,0.019-0.212
		C63.468,55.079,63.411,55.015,63.354,54.954z"/>
	<path d="M65.006,54.479c0.124,0.054,0.09-0.143,0.004-0.369c-0.081-0.029-0.151-0.049-0.208-0.062
		C64.853,54.189,64.921,54.332,65.006,54.479z"/>
	<path d="M70.659,46.285C70.614,46.504,70.784,46.333,70.659,46.285L70.659,46.285z"/>
	<path d="M63.487,41.733C63.537,41.737,63.513,41.673,63.487,41.733L63.487,41.733z"/>
	<path d="M63.446,41.774c0.013,0,0.027,0,0.04,0c0-0.013,0-0.028,0-0.041C63.462,41.736,63.439,41.739,63.446,41.774z"/>
	<path d="M56.516,80.509C56.465,80.504,56.489,80.568,56.516,80.509L56.516,80.509z"/>
	<path d="M55.032,80.217C54.926,80.112,55.089,80.275,55.032,80.217L55.032,80.217z"/>
	<path d="M48.982,70.778c-0.01-0.024,0.013-0.033,0.028-0.02c-0.067-0.266-0.208-0.493-0.375-0.7
		c-0.422-0.526-1.025-0.931-1.138-1.482c0.025-0.103-0.16-0.058-0.106-0.196c-0.135-0.411-0.021-0.695-0.241-1.063
		C43.221,64.253,47.484,72.105,48.982,70.778z"/>
	<path d="M51,71.129c0.013,0,0.028,0,0.04,0c-0.012-0.001-0.021-0.005-0.033-0.008C51.005,71.125,51.001,71.122,51,71.129z"/>
	<path d="M51.826,68.363C51.787,68.534,51.95,68.372,51.826,68.363L51.826,68.363z"/>
	<path fill="none" d="M51.384,70.44c-0.001-0.001-0.006-0.005-0.013-0.013c-0.013-0.013-0.033-0.033-0.035-0.035"/>
	<path d="M67.7,41.812C67.492,41.962,67.848,41.967,67.7,41.812L67.7,41.812z"/>
	<path d="M51.857,79.118C51.853,79.168,51.918,79.144,51.857,79.118L51.857,79.118z"/>
</g>
<path d="M56.077,48.786c0,0-5.524,3.834-10.815,1.295S51.78,54.74,56.077,48.786z"/>
</svg>
