<?xml version="1.0" encoding="utf-8"?>
<!-- Generator: Adobe Illustrator 18.1.1, SVG Export Plug-In . SVG Version: 6.00 Build 0)  -->
<svg version="1.1" id="Layer_1" xmlns="http://www.w3.org/2000/svg" xmlns:xlink="http://www.w3.org/1999/xlink" x="0px" y="0px"
	 width="64px" height="64px" viewBox="0 0 64 64" enable-background="new 0 0 64 64" xml:space="preserve">
<g>
	<g display="none">
		<g display="inline">
			<line fill="none" x1="29.1" y1="5.3" x2="29.1" y2="5.2"/>
			<line fill="none" x1="7.6" y1="5.2" x2="7.6" y2="5.3"/>
		</g>
	</g>
	<g>
		<g>
			<g>
				<circle fill="#231F20" cx="56" cy="23.9" r="3.1"/>
			</g>
		</g>
	</g>
</g>
<path d="M56,16c-4.4,0-7.9,3.6-7.9,7.9c0,3.4,2.2,6.4,5.3,7.5v11.2c0,9-7.3,16.2-16.2,16.2c-7.2,0-13.4-4.7-15.5-11.3
	c8.4-1.5,15-9.4,15-18.5V9.1l-2.8-2.8C33.9,5.9,34,5.4,34,4.9C34,2.2,31.8,0,29.1,0c-2.7,0-4.9,2.2-4.9,4.9c0,2.7,2.2,4.9,4.9,4.9
	c0.3,0,0.6,0,0.8-0.1l1.6,1.5v17.8c0,7.3-5.9,13.6-12.9,13.6c-7,0-13.5-6.5-13.5-13.7V11.3l1.5-1.5c0.3,0,0.5,0.1,0.8,0.1
	c2.7,0,4.9-2.2,4.9-4.9c0-2.7-2.2-4.9-4.9-4.9C4.8,0,2.6,2.2,2.6,4.9c0,0.5,0.1,1,0.2,1.4L0,9.1V29c0,9.2,7.4,17.4,16.3,18.6h0
	C18.6,57,27,64,37.1,64c11.8,0,21.4-9.7,21.4-21.4V31.4c3.1-1.1,5.4-4,5.4-7.5C63.9,19.6,60.3,16,56,16z M56,29.3
	c-2.9,0-5.4-2.4-5.4-5.4s2.4-5.4,5.4-5.4s5.4,2.4,5.4,5.4S59,29.3,56,29.3z"/>
</svg>
