<?xml version="1.0" encoding="utf-8"?>
<!-- Generator: Adobe Illustrator 18.0.0, SVG Export Plug-In . SVG Version: 6.00 Build 0)  -->
<!DOCTYPE svg PUBLIC "-//W3C//DTD SVG 1.1//EN" "http://www.w3.org/Graphics/SVG/1.1/DTD/svg11.dtd">
<svg version="1.1" id="Layer_1" xmlns="http://www.w3.org/2000/svg" xmlns:xlink="http://www.w3.org/1999/xlink" x="0px" y="0px"
	 width="64px" height="64px" viewBox="0 0 64 64" enable-background="new 0 0 64 64" xml:space="preserve">
<path id="favorite-9-icon" d="M41.7,53.1c-2.9,2.9-6.1,6.1-9.7,9.6C8.3,39.7,1.7,31.2,0.2,22.5C-1.5,11.9,6.4,1.3,18.7,1.3
	c5.3,0,10.1,2,13.3,5.4c3.2-3.4,8-5.4,13.3-5.4c12.3,0,20.2,10.5,18.5,21.2c-0.3,2-0.9,3.9-1.9,6l-4.8-4.8
	c2.7-8.3-2.9-16.2-11.8-16.2c-8,0-11.4,6.3-13.3,9.3c-1.7-2.8-4.9-9.3-13.3-9.3c-5,0-9.2,2.5-11.2,6.7C2.2,25,14.1,35.9,32,53.9
	c1.8-1.8,3.6-3.6,5.3-5.3L41.7,53.1z M61.7,36.1h-8.2v-8.2h-6.3v8.2h-8.2v6.3h8.2v8.2h6.3v-8.2h8.2L61.7,36.1L61.7,36.1z"/>
</svg>
