<?xml version="1.0" encoding="utf-8"?>
<!-- Generator: Adobe Illustrator 18.0.0, SVG Export Plug-In . SVG Version: 6.00 Build 0)  -->
<!DOCTYPE svg PUBLIC "-//W3C//DTD SVG 1.1//EN" "http://www.w3.org/Graphics/SVG/1.1/DTD/svg11.dtd">
<svg version="1.1" id="Layer_1" xmlns="http://www.w3.org/2000/svg" xmlns:xlink="http://www.w3.org/1999/xlink" x="0px" y="0px"
	 width="64px" height="64px" viewBox="0 0 64 64" enable-background="new 0 0 64 64" xml:space="preserve">
<path fill="#010101" d="M31.9,34.7c5.2,0,7.6,3.6,8.1,8.8c0.1,1.2,0,3-0.2,5.1C39.3,55.5,38.6,64,43.6,64c4.3,0,6.4-7.5,7.6-16
	c1.2-8.4-0.1-12.7,0.6-16.4c1.2-7.1,7.9-13.5,5.9-22.5c-1.1-5.1-4.2-7.4-7.1-8.4c-6.8-2.3-11.2,2.1-18.5,2.1s-11.9-4.4-18.6-2
	c-2.9,1-6,3.3-7.1,8.4c-2,9,4.7,15.4,5.9,22.5c0.6,3.7-0.6,7.9,0.6,16.4c1.1,8.4,3.3,15.9,7.5,15.9c5,0,4.4-8.5,3.7-15.4
	c-0.2-2.1-0.3-3.9-0.2-5.1C24.4,38.4,26.8,34.7,31.9,34.7z"/>
</svg>
