<?xml version="1.0" encoding="utf-8"?>
<!-- Generator: Adobe Illustrator 21.0.2, SVG Export Plug-In . SVG Version: 6.00 Build 0)  -->
<svg version="1.1" id="Layer_1" xmlns="http://www.w3.org/2000/svg" xmlns:xlink="http://www.w3.org/1999/xlink" x="0px" y="0px"
	 viewBox="0 0 64 64" style="enable-background:new 0 0 64 64;" xml:space="preserve">
<title>Travel icon</title>
<desc>Created with Sketch.</desc>
<g id="Page-1">
	<g id="Travel-icon">
		<g id="Travel" transform="translate(2.000000, 7.000000)">
			<path id="icn" d="M-2,12.8C-2,8,2.9,8,2.9,8h4.9v43.8H2.9C-2,51.8-2,46.9-2,46.9V12.8L-2,12.8L-2,12.8z M17.7,8
				c0-9.7,9.8-9.7,9.8-9.7h4.9c0,0,9.8,0,9.8,9.7h4.9v43.8H12.8V8H17.7L17.7,8L17.7,8z M37.4,8c0-4.9-4.9-4.9-4.9-4.9s0,0-4.9,0
				c-4.9,0-4.9,4.9-4.9,4.9H37.4L37.4,8L37.4,8z M52.2,8h4.9C62,8,62,12.8,62,12.8v34c0,4.9-4.9,4.9-4.9,4.9h-4.9L52.2,8L52.2,8z"/>
		</g>
	</g>
</g>
</svg>
