<?xml version="1.0" encoding="utf-8"?>
<!-- Generator: Adobe Illustrator 20.1.0, SVG Export Plug-In . SVG Version: 6.00 Build 0)  -->
<svg version="1.1" id="Layer_1" xmlns="http://www.w3.org/2000/svg" xmlns:xlink="http://www.w3.org/1999/xlink" x="0px" y="0px"
	 width="64px" height="64px" viewBox="0 0 64 64" enable-background="new 0 0 64 64" xml:space="preserve">
<title>search icon_black</title>
<path d="M57.6,6.5C53.4,2.3,47.7-0.1,41.8,0C29.6,0.1,19.7,10,19.6,22.2c0,4.8,1.5,9.6,4.5,13.4L0,59.6L4.2,64l14.5-14.5l9.6-9.6
	c3.8,2.9,8.6,4.5,13.4,4.5c12.3,0,22.2-9.9,22.3-22.2C64,16.3,61.7,10.7,57.6,6.5z M58.5,22.2c0,9.2-7.5,16.7-16.7,16.7
	s-16.7-7.5-16.7-16.7S32.6,5.5,41.8,5.5S58.5,13,58.5,22.2L58.5,22.2z"/>
</svg>
