<?xml version="1.0" encoding="utf-8"?>
<!-- Generator: Adobe Illustrator 22.0.1, SVG Export Plug-In . SVG Version: 6.00 Build 0)  -->
<svg version="1.1" id="Layer_1" xmlns="http://www.w3.org/2000/svg" xmlns:xlink="http://www.w3.org/1999/xlink" x="0px" y="0px"
	 width="64px" height="64px" viewBox="0 0 57 64" style="enable-background:new 0 0 57 64;" xml:space="preserve">
<style type="text/css">
	.st0{fill:#231F20;}
</style>
<title>Group 5</title>
<desc>Created with Sketch.</desc>
<g>
	<rect x="11.5" y="30.3" class="st0" width="26" height="4.2"/>
	<rect x="11.5" y="23.2" class="st0" width="26" height="4.2"/>
	<path class="st0" d="M48.9,39.8V14.6L34.1,0H0v60.2h35.6c2.3,2.3,5.4,3.8,8.9,3.8C51.4,64,57,58.4,57,51.5
		C57,46.2,53.7,41.6,48.9,39.8z M5.8,54.4V5.8h24.8v12.5h12.6v20.7c-2.1,0.2-4,0.9-5.6,2.1v-3.9h-26v4.2H37c-1.1,0.8-2,1.7-2.7,2.8
		H11.5v4.2h20.8c-0.2,0.9-0.4,1.9-0.4,2.9c0,1,0.1,2,0.4,2.9H5.8z M51.8,53.8h-5.4v5.4h-4.1v0v-5.4h-5.4v-4.2h5.4v-5.4h4.2v5.4h5.4
		V53.8z"/>
</g>
</svg>
