<?xml version="1.0" encoding="utf-8"?>
<!-- Generator: Adobe Illustrator 22.1.0, SVG Export Plug-In . SVG Version: 6.00 Build 0)  -->
<svg version="1.1" id="Layer_1" xmlns="http://www.w3.org/2000/svg" xmlns:xlink="http://www.w3.org/1999/xlink" x="0px" y="0px"
	 width="64px" height="64px" viewBox="0 0 64 64" enable-background="new 0 0 64 64" xml:space="preserve">
<g display="none">
	<defs>
		<rect id="SVGID_1_" x="-26" y="13.9" width="116.5" height="47.5"/>
	</defs>
	<clipPath id="SVGID_2_" display="inline">
		<use xlink:href="#SVGID_1_"  display="none" overflow="visible"/>
	</clipPath>
</g>
<g display="none">
	<defs>
		<rect id="SVGID_3_" y="21" width="64" height="26.1"/>
	</defs>
	<clipPath id="SVGID_4_" display="inline">
		<use xlink:href="#SVGID_3_"  display="none" overflow="visible"/>
	</clipPath>
</g>
<g>
	<path d="M63.4,24.4C58.2,22,45.2,17.3,34.7,26c-0.2,0-0.4-0.1-0.6-0.1c-0.6-0.1-1.2-0.2-2.1-0.2c-0.9,0-1.5,0.1-2.1,0.2
		c-0.2,0-0.4,0.1-0.6,0.1c-7.3-6.1-17.7-6.7-28.6-1.6L0,24.7v4.7l0.5,0.1c0.5,0.1,0.8,1,0.8,1.7l0,0.2C1.9,36,4.2,46.5,14.8,47
		c0.2,0,0.3,0,0.5,0c8.2,0,13.5-5.7,14.8-15.6l0.1-0.5l-0.2-0.2c-0.3-0.4-0.3-0.6-0.3-0.8c0-0.1,0-0.1,0-0.2
		c0.1-0.2,1.1-0.5,2.3-0.5c1.2,0,2.2,0.3,2.3,0.5c0,0.1,0,0.1,0,0.2c0,0.2,0,0.3-0.3,0.8l-0.2,0.2l0.1,0.5
		c1.3,10,6.6,15.6,14.8,15.6c0.2,0,0.3,0,0.5,0C59.7,46.5,62.1,36,62.6,31.5l0-0.3c0-0.6,0.3-1.5,0.8-1.6l0.5-0.1v-4.7L63.4,24.4z
		 M26.1,31.7c-0.8,10.8-8.5,11.5-10.9,11.5C5.7,43.1,5.4,32,5.4,31.9c-0.1-2,0.5-3.5,1.6-4.7c1.6-1.6,4.4-2.5,8-2.5h0.2l0.1,0
		c4.7,0.2,7.9,1.2,9.5,3C26,28.9,26.1,30.5,26.1,31.7z M58.6,31.9L58.6,31.9c0,0.1-0.4,11.2-9.8,11.3c-2.4,0-10.1-0.6-10.9-11.5
		c0-2-0.2-6.6,10.8-7.1l0.1,0H49c3.6,0,6.4,0.9,8,2.5C58.1,28.3,58.7,29.9,58.6,31.9z"/>
</g>
</svg>
