<?xml version="1.0" encoding="utf-8"?>
<svg version="1.1" id="Layer_1" xmlns="http://www.w3.org/2000/svg" xmlns:xlink="http://www.w3.org/1999/xlink" x="0px" y="0px"
	 width="64px" height="64px" viewBox="0 0 64 64" enable-background="new 0 0 64 64" xml:space="preserve">
<path d="M43.7,11.4V0H20.9v11.4H5.7V64h21.1V50.5h11.1V64h20.4V11.4H43.7z M20.9,58h-8.5v-7.4h8.5V58z M20.9,47.1h-8.5v-7.4h8.5
	V47.1z M20.9,36h-8.5v-7.4h8.5V36z M20.9,25.4h-8.5v-7.4h8.5V25.4z M36.2,47.1h-8.5v-7.4h8.5V47.1z M36.2,36h-8.5v-7.4h8.5V36z
	 M39.9,15.3h-4.6v4.6h-5.9v-4.6h-4.6V9.4h4.6V4.7h5.9v4.6h4.6V15.3z M52.2,58h-8.5v-7.4h8.5V58z M52.2,47.1h-8.5v-7.4h8.5V47.1z
	 M52.2,36h-8.5v-7.4h8.5V36z M52.2,25.4h-8.5v-7.4h8.5V25.4z"/>
</svg>
