<?xml version="1.0" encoding="UTF-8"?>
<svg width="64px" height="64px" viewBox="0 0 64 64" version="1.1" xmlns="http://www.w3.org/2000/svg" xmlns:xlink="http://www.w3.org/1999/xlink">
    <!-- Generator: Sketch 48.2 (47327) - http://www.bohemiancoding.com/sketch -->
    <title>Checklist</title>
    <desc>Created with Sketch.</desc>
    <defs>
        <polygon id="path-1" points="0 0.0461217391 51.6324174 0.0461217391 51.6324174 54.9122087 0 54.9122087"></polygon>
        <polygon id="path-3" points="7.80772174 -7.60841739 43.8244174 -7.60841739 43.8244174 8.0130087 7.80772174 8.0130087"></polygon>
    </defs>
    <g id="Page-1" stroke="none" stroke-width="1" fill="none" fill-rule="evenodd">
        <g id="Checklist">
            <g id="Group" transform="translate(6.000000, 8.000000)">
                <polygon id="Fill-1" fill="#000000" points="11.1276522 20.2454957 15.8622609 20.2454957 15.8622609 15.5094957 11.1276522 15.5094957"></polygon>
                <polygon id="Fill-2" fill="#000000" points="19.4156522 19.3926261 39.6674783 19.3926261 39.6674783 16.4124522 19.4156522 16.4124522"></polygon>
                <polygon id="Fill-3" fill="#000000" points="11.1276522 32.0117565 15.8622609 32.0117565 15.8622609 27.2757565 11.1276522 27.2757565"></polygon>
                <polygon id="Fill-4" fill="#000000" points="19.4156522 31.1616696 39.6674783 31.1616696 39.6674783 28.1801043 19.4156522 28.1801043"></polygon>
                <polygon id="Fill-5" fill="#000000" points="11.1248696 43.5734957 15.8594783 43.5734957 15.8594783 38.8361043 11.1248696 38.8361043"></polygon>
                <polygon id="Fill-6" fill="#000000" points="19.4142609 42.7220174 39.666087 42.7220174 39.666087 39.7418435 19.4142609 39.7418435"></polygon>
                <mask id="mask-2" fill="white">
                    <use xlink:href="#path-1"></use>
                </mask>
                <g id="Clip-8"></g>
                <path d="M5.38824348,3.45064348 L5.38824348,0.0461217391 L3.41815652,0.0461217391 C1.53293913,0.0461217391 -0.00027826087,1.57794783 -0.00027826087,3.46316522 L-0.00027826087,51.4951652 C-0.00027826087,53.3789913 1.53293913,54.9122087 3.41815652,54.9122087 L48.2153739,54.9122087 C50.0992,54.9122087 51.6324174,53.3789913 51.6324174,51.4951652 L51.6324174,3.46316522 C51.6324174,1.57794783 50.0992,0.0461217391 48.2153739,0.0461217391 L46.1353739,0.0461217391 L46.1353739,3.45064348 L48.2265043,3.46316522 L48.2153739,51.5062957 L3.40563478,51.4951652 L3.41815652,3.45064348 L5.38824348,3.45064348 Z" id="Fill-7" fill="#000000" mask="url(#mask-2)"></path>
                <mask id="mask-4" fill="white">
                    <use xlink:href="#path-3"></use>
                </mask>
                <g id="Clip-11"></g>
                <path d="M17.5287652,-0.791165217 L9.5218087,-0.791165217 C8.2738087,-0.791165217 7.80772174,0.373356522 7.80772174,0.921530435 L7.80772174,8.0130087 L43.8244174,8.0130087 L43.8244174,0.921530435 C43.8244174,0.106226087 43.1816348,-0.791165217 42.1103304,-0.791165217 L34.0936348,-0.791165217 C34.0936348,-0.791165217 31.9120696,-0.748034783 31.3666783,-2.92681739 C30.9117217,-5.58281739 28.6035478,-7.60855652 25.8167652,-7.60855652 C23.0299826,-7.60855652 20.7204174,-5.59812174 20.2626783,-2.94351304 C19.7242435,-0.748034783 17.5287652,-0.791165217 17.5287652,-0.791165217 M25.8139826,-4.44612174 C27.2066783,-4.44612174 28.3392,-3.31777391 28.3392,-1.92786087 C28.3392,-0.535165217 27.2066783,0.595965217 25.8139826,0.595965217 C24.4240696,0.595965217 23.2943304,-0.535165217 23.2943304,-1.92786087 C23.2943304,-3.31777391 24.4240696,-4.44612174 25.8139826,-4.44612174" id="Fill-10" fill="#000000" mask="url(#mask-4)"></path>
            </g>
        </g>
    </g>
</svg>