<?xml version="1.0" encoding="utf-8"?>
<!-- Generator: Adobe Illustrator 20.1.0, SVG Export Plug-In . SVG Version: 6.00 Build 0)  -->
<svg version="1.1" id="Layer_1" xmlns="http://www.w3.org/2000/svg" xmlns:xlink="http://www.w3.org/1999/xlink" x="0px" y="0px"
	 width="64px" height="64px" viewBox="0 0 64 64" enable-background="new 0 0 64 64" xml:space="preserve">
<title>search icon_black</title>
<path d="M7.3,23.9h47.9c0,0.5,0.1,1,0.1,1.5c0,10.9,0,21.8,0,32.7c0,3.9-2.1,5.9-6.3,5.9c-11.8,0-23.7,0-35.5,0
	c-4.2,0-6.3-1.9-6.3-5.9c0-10.9,0-21.8,0-32.7C7.2,24.9,7.3,24.4,7.3,23.9z M19.3,55.4V32.5h-3.6v22.9H19.3z M33.1,55.4V32.5h-3.7
	v22.9H33.1L33.1,55.4z M43.2,32.5v22.9h3.6V32.5H43.2L43.2,32.5z"/>
<path d="M6.8,17.1L7.9,5.9L20.8,7l0.7-7l22,1.9l-0.7,6.9l13,1.1l-1.1,11.3L6.8,17.1z"/>
</svg>
