<?xml version="1.0" encoding="utf-8"?>
<!-- Generator: Adobe Illustrator 22.1.0, SVG Export Plug-In . SVG Version: 6.00 Build 0)  -->
<svg version="1.1" id="Layer_1" xmlns="http://www.w3.org/2000/svg" xmlns:xlink="http://www.w3.org/1999/xlink" x="0px" y="0px"
	 width="64px" height="64px" viewBox="0 0 64 64" enable-background="new 0 0 64 64" xml:space="preserve">
<g>
	<path fill="#011520" d="M33.3,56.4h19.3l0.7-10.6L56,56.4h8c0,0-2-13.3-4.1-19.6c0,0-2.9,4.8-25.4,5.3L33.3,56.4z"/>
	<path fill="#011520" d="M20.5,7.6c-5,0-9.1,4.1-9.1,9.1c0,5,4.1,9.1,9.1,9.1c5,0,9.1-4.1,9.1-9.1C29.6,11.7,25.5,7.6,20.5,7.6z"/>
	<path fill="#011520" d="M43.3,14.7c-4.6,0-8.2,3.7-8.2,8.2c0,1.3,0.3,2.5,0.8,3.6c3.1,0.6,11.3,1,14.7,0.3c0.6-1.1,1-2.4,1-3.8
		C51.6,18.4,47.9,14.7,43.3,14.7z"/>
	<path fill="#011520" d="M10.7,43.6l0.7,12.7h18.9l1.4-17.2c0,0,5.2-0.2,11-0.6c7.2-0.5,10.2-1.4,12.3-2.3c2.1-0.9,3.6-1.8,3.6-3.5
		c-0.1-2.3-1.8-3.8-4.1-3.5c-6.3,0.9-9.8,0.9-12.5,0.9c-7.6-0.1-12.4-2-20.6-2c-10.8,0-13.8,1.6-16.1,5.4C2.9,37.6,0,56.4,0,56.4h8
		L10.7,43.6z"/>
</g>
</svg>
