<?xml version="1.0" encoding="utf-8"?>
<!-- Generator: Adobe Illustrator 19.1.0, SVG Export Plug-In . SVG Version: 6.00 Build 0)  -->
<svg version="1.1" id="Layer_1" xmlns="http://www.w3.org/2000/svg" xmlns:xlink="http://www.w3.org/1999/xlink" x="0px" y="0px"
	 width="64px" height="64px" viewBox="0 0 64 64" style="enable-background:new 0 0 64 64;" xml:space="preserve">
<path d="M31.9,0c-17.7,0-32,14.3-32,32c0,17.7,14.3,32,32,32s32-14.3,32-32C63.9,14.3,49.5,0,31.9,0z M44.2,21.6
	c0.9-0.9,2-1.4,3.4-1.4c1.4,0,2.5,0.5,3.4,1.4c0.9,0.9,1.4,2,1.4,3.4c0,1.4-0.5,2.5-1.4,3.4c-0.9,0.9-2,1.4-3.4,1.4
	c-1.4,0-2.5-0.5-3.4-1.4c-0.9-0.9-1.4-2-1.4-3.4C42.8,23.6,43.3,22.5,44.2,21.6z M28.5,21.6c0.9-0.9,2-1.4,3.4-1.4
	c1.4,0,2.5,0.5,3.4,1.4c0.9,0.9,1.4,2,1.4,3.4c0,1.4-0.5,2.5-1.4,3.4c-0.9,0.9-2,1.4-3.4,1.4c-1.4,0-2.5-0.5-3.4-1.4
	c-0.9-0.9-1.4-2-1.4-3.4C27.1,23.6,27.6,22.5,28.5,21.6z M12.8,21.6c0.9-0.9,2-1.4,3.4-1.4c1.4,0,2.5,0.5,3.4,1.4
	c0.9,0.9,1.4,2,1.4,3.4c0,1.4-0.5,2.5-1.4,3.4c-0.9,0.9-2,1.4-3.4,1.4c-1.4,0-2.5-0.5-3.4-1.4c-0.9-0.9-1.4-2-1.4-3.4
	C11.4,23.6,11.9,22.5,12.8,21.6z M23,42.8h-2.8H9.3v-9.7c0-0.5,0.2-1,0.6-1.3c0.4-0.4,0.8-0.5,1.4-0.6h9.8c0.6,0,1,0.2,1.4,0.6
	c0.4,0.4,0.5,0.8,0.6,1.3V42.8z M38.7,42.8h-2.8H25v-9.7c0-0.5,0.2-1,0.6-1.3c0.4-0.4,0.8-0.5,1.4-0.6h9.8c0.6,0,1,0.2,1.4,0.6
	c0.4,0.4,0.5,0.8,0.6,1.3V42.8z M54.4,42.8h-2.8H40.7v-9.7c0-0.5,0.2-1,0.6-1.3c0.4-0.4,0.8-0.5,1.4-0.6h9.8c0.6,0,1,0.2,1.4,0.6
	c0.4,0.4,0.5,0.8,0.6,1.3V42.8z"/>
</svg>
