<?xml version="1.0" encoding="utf-8"?>
<!-- Generator: Adobe Illustrator 20.1.0, SVG Export Plug-In . SVG Version: 6.00 Build 0)  -->
<svg version="1.1" id="Layer_1" xmlns="http://www.w3.org/2000/svg" xmlns:xlink="http://www.w3.org/1999/xlink" x="0px" y="0px"
	 width="64px" height="64px" viewBox="0 0 64 64" enable-background="new 0 0 64 64" xml:space="preserve">
<title>search icon_black</title>
<g>
	<path fill="none" d="M19.2,44.3c0.3-0.6,0.9-0.8,1.5-0.8l1.2,0.2l1,0.5l0.8-2.2c-1-0.5-2.1-0.7-3.3-0.7c-0.9,0-1.7,0.2-2.6,0.6
		c-0.7,0.5-1.3,1.2-1.7,1.9c-0.5,0.8-0.6,1.9-0.6,2.8c-0.1,1.4,0.3,2.8,1.2,3.9c0.9,0.9,2.3,1.4,3.6,1.3c1,0,2-0.2,2.9-0.6v-2.3
		L22,49.2l-1.3,0.2c-1.4,0-2.2-1.2-2.1-3C18.6,45.6,18.7,45,19.2,44.3z"/>
	<polygon fill="none" points="25.2,51.3 31.2,51.3 31.2,49 28,49 28,47.2 31.1,47.2 31.1,45.1 27.9,45.2 27.9,43.6 31.2,43.6 
		31.2,41.4 25.2,41.4 	"/>
	<path fill="none" d="M33.1,41.4v10.2h2.8v-3.7h0.8l2.2,3.7h3l-3-4.5c1-0.6,1.7-1.6,1.7-2.8c0.1-2-1.3-2.9-4.2-2.9H33.1z M37.9,44.3
		c0,0.9-0.5,1.3-1.5,1.3h-0.5v-2.3h0.6C37.4,43.2,37.9,43.3,37.9,44.3z"/>
	<rect x="5.9" y="15.7" fill="none" width="0.1" height="18.5"/>
	<polygon fill="none" points="44.7,43.7 44.7,51.7 47.5,51.7 47.5,43.7 49.8,43.7 49.8,41.4 42,41.4 42.2,43.7 	"/>
	<polygon fill="none" points="42.3,0 37.1,0 37.1,21 58,21 58,15.6 42.3,15.6 	"/>
	<polygon fill="none" points="42.3,0 58,15.6 58,0 	"/>
	<path d="M35.9,43.2v2.3h0.5c1,0,1.5-0.3,1.5-1.3c0-0.9-0.5-1-1.4-1H35.9z"/>
	<polygon points="42.3,15.6 58,15.6 42.3,0 	"/>
	<path d="M37.1,0H5.9v9.5v6.2H6v18.5H5.9v4.5v3v4.5v2.9v4.5v3v4.5V64h32.3H58V21H37.1V0z M20.7,49.5l1.3-0.2l1.3-0.5v2.3
		c-0.9,0.3-1.9,0.6-2.9,0.6c-1.3,0.1-2.7-0.3-3.6-1.3c-0.8-1.2-1.3-2.6-1.2-3.9c0-0.9,0.1-2,0.6-2.8c0.5-0.7,1-1.4,1.7-1.9
		c0.8-0.3,1.6-0.6,2.6-0.6c1.2,0,2.2,0.2,3.3,0.7l-0.8,2.2l-1-0.5l-1.2-0.2c-0.6,0-1.2,0.2-1.5,0.8c-0.5,0.7-0.6,1.4-0.6,2.2
		C18.5,48.3,19.3,49.5,20.7,49.5z M31.2,43.6h-3.4v1.6l3.3-0.1v2.1H28V49h3.3v2.3h-6v-10h6V43.6z M49.8,41.4v2.3h-2.3v8h-2.8v-8
		h-2.6L42,41.4H49.8z M40.7,44.3c0,1.2-0.7,2.2-1.7,2.8l3,4.5h-3l-2.2-3.7h-0.8v3.7h-2.8V41.4h3.4C39.4,41.4,40.8,42.3,40.7,44.3z"
		/>
</g>
</svg>
