<?xml version="1.0" encoding="utf-8"?>
<!-- Generator: Adobe Illustrator 22.0.1, SVG Export Plug-In . SVG Version: 6.00 Build 0)  -->
<svg version="1.1" id="Layer_1" xmlns="http://www.w3.org/2000/svg" xmlns:xlink="http://www.w3.org/1999/xlink" x="0px" y="0px"
	 width="64px" height="64px" viewBox="0 0 56.5 64" style="enable-background:new 0 0 56.5 64;" xml:space="preserve">
<style type="text/css">
	.st0{fill:#231F20;}
</style>
<title>Group 17</title>
<desc>Created with Sketch.</desc>
<g>
	<rect x="11.5" y="23.2" class="st0" width="26" height="4.2"/>
	<rect x="11.5" y="30.3" class="st0" width="26" height="4.2"/>
	<polygon class="st0" points="48.9,46.1 41.9,53.1 38.8,50.1 36.5,52.4 41.9,57.7 51.2,48.4 	"/>
	<path class="st0" d="M48.9,39.9V14.6L34.1,0H0v60.2h35c2.3,2.3,5.4,3.8,9,3.8c6.9,0,12.5-5.6,12.5-12.5
		C56.5,46.3,53.4,41.9,48.9,39.9z M5.8,54.4V5.8h24.8v12.5h12.6v20.6c-2,0.1-4,0.7-5.6,1.7v-3.4h-26v4.2h24.7
		c-1,0.8-1.9,1.7-2.7,2.8H11.5v4.2h20.2c-0.2,0.9-0.3,1.9-0.3,2.9c0,1,0.1,2,0.4,2.9H5.8z M43.9,61.6c-5.6,0-10.1-4.5-10.1-10.1
		s4.5-10.1,10.1-10.1S54,45.8,54,51.5S49.5,61.6,43.9,61.6z"/>
</g>
</svg>
