<?xml version="1.0" encoding="utf-8"?>
<!-- Generator: Adobe Illustrator 22.0.1, SVG Export Plug-In . SVG Version: 6.00 Build 0)  -->
<svg version="1.1" id="Layer_1" xmlns="http://www.w3.org/2000/svg" xmlns:xlink="http://www.w3.org/1999/xlink" x="0px" y="0px"
	 viewBox="0 0 52.9 64" style="enable-background:new 0 0 52.9 64;" xml:space="preserve">
<style type="text/css">
	.st0{fill:#231F20;}
</style>
<title>Checklist</title>
<desc>Created with Sketch.</desc>
<g id="Page-1">
	<g id="Checklist">
	</g>
</g>
<g id="Group" transform="translate(6.000000, 8.000000)">
	<polygon id="Fill-1" class="st0" points="5.4,20.5 10.2,20.5 10.2,15.7 5.4,15.7 	"/>
	<polygon id="Fill-2" class="st0" points="13.9,19.6 34.6,19.6 34.6,16.6 13.9,16.6 	"/>
	<polygon id="Fill-3" class="st0" points="5.4,32.6 10.2,32.6 10.2,27.7 5.4,27.7 	"/>
	<polygon id="Fill-4" class="st0" points="13.9,31.7 34.6,31.7 34.6,28.6 13.9,28.6 	"/>
	<polygon id="Fill-5" class="st0" points="5.4,44.4 10.2,44.4 10.2,39.5 5.4,39.5 	"/>
	<polygon id="Fill-6" class="st0" points="13.9,43.5 34.6,43.5 34.6,40.5 13.9,40.5 	"/>
	<g id="Clip-8">
	</g>
	<path id="Fill-7" class="st0" d="M-0.5,3.3v-3.5h-2C-4.4-0.2-6,1.4-6,3.3v49.2c0,1.9,1.6,3.5,3.5,3.5h45.9c1.9,0,3.5-1.6,3.5-3.5
		V3.3c0-1.9-1.6-3.5-3.5-3.5h-2.1v3.5h2.1v49.2H-2.5V3.3C-2.5,3.3-0.5,3.3-0.5,3.3z"/>
	<g id="Clip-11">
	</g>
	<path id="Fill-10" class="st0" d="M11.9-1H3.7C2.5-1,2,0.2,2,0.7V8h36.9V0.7c0-0.8-0.7-1.8-1.8-1.8h-8.2c0,0-2.2,0-2.8-2.2
		C25.6-5.9,23.3-8,20.4-8s-5.2,2.1-5.7,4.8C14.2-1,11.9-1,11.9-1 M20.4-4.8c1.4,0,2.6,1.2,2.6,2.6s-1.2,2.6-2.6,2.6
		s-2.6-1.2-2.6-2.6S19-4.8,20.4-4.8"/>
</g>
</svg>
