<?xml version="1.0" encoding="utf-8"?>
<!-- Generator: Adobe Illustrator 20.1.0, SVG Export Plug-In . SVG Version: 6.00 Build 0)  -->
<svg version="1.1" id="Layer_1" xmlns="http://www.w3.org/2000/svg" xmlns:xlink="http://www.w3.org/1999/xlink" x="0px" y="0px"
	 width="64px" height="64px" viewBox="0 0 64 64" style="enable-background:new 0 0 64 64;" xml:space="preserve">
<title>search icon_black</title>
<path d="M44,37.6L44,37.6v2h0.4c0.9,0,1.3-0.3,1.3-1.1s-0.4-0.9-1.2-0.9H44z"/>
<polygon points="49.5,0.4 49.5,13.8 63,13.8 "/>
<path d="M45,0.4H18.2v8.2H1v55.1h45v-8.2h17v-37H45V0.4z M39.9,39.2V41h-2.7v1.6H40v2h-5.2V36H40v1.9h-2.9v1.4L39.9,39.2z M30.9,43
	l1.1-0.2l1.1-0.4v2c-0.8,0.3-1.6,0.5-2.5,0.5c-1.1,0.1-2.3-0.3-3.1-1.1c-0.7-1-1.1-2.2-1-3.4c0-0.8,0.1-1.7,0.5-2.4
	c0.4-0.6,0.9-1.2,1.5-1.6c0.7-0.3,1.4-0.5,2.2-0.5c1,0,1.9,0.2,2.8,0.6l-0.7,1.9L31.9,38l-1-0.2c-0.5,0-1,0.2-1.3,0.7
	c-0.4,0.6-0.5,1.2-0.5,1.9C29,42,29.7,43,30.9,43L30.9,43z M40.6,58.4H6.4V13.9h11.9v15.9h-6.7v3.9h6.6v2.6h-6.6v3.9h6.6v2.5h-6.6
	v3.9h6.6v2.6h-6.6v3.9h6.6v2.5h22.5L40.6,58.4z M49.3,36H56v2h-2v6.9h-2.4V38h-2.2L49.3,36z M48.1,38.5c0,1-0.6,1.9-1.5,2.4l2.6,3.9
	h-2.6l-1.9-3.2H44v3.2h-2.4V36h2.9C47,36,48.2,36.8,48.1,38.5L48.1,38.5z"/>
</svg>
