<?xml version="1.0" encoding="utf-8"?>
<!-- Generator: Adobe Illustrator 22.1.0, SVG Export Plug-In . SVG Version: 6.00 Build 0)  -->
<svg version="1.1" id="Layer_1" xmlns="http://www.w3.org/2000/svg" xmlns:xlink="http://www.w3.org/1999/xlink" x="0px" y="0px"
	 width="64px" height="64px" viewBox="0 0 64 64" enable-background="new 0 0 64 64" xml:space="preserve">
<g>
	<g display="none">
		<defs>
			<rect id="SVGID_1_" width="64" height="64"/>
		</defs>
		<clipPath id="SVGID_2_" display="inline">
			<use xlink:href="#SVGID_1_"  display="none" overflow="visible"/>
		</clipPath>
	</g>
	<path d="M32,51.2c-8.4,0-15.4-5.4-18-12.8h36C47.4,45.8,40.4,51.2,32,51.2 M20.8,19.2c2.6,0,4.8,2.2,4.8,4.8s-2.2,4.8-4.8,4.8
		S16,26.6,16,24S18.2,19.2,20.8,19.2 M43.2,19.2c2.6,0,4.8,2.2,4.8,4.8s-2.2,4.8-4.8,4.8s-4.8-2.2-4.8-4.8S40.6,19.2,43.2,19.2
		 M32,0C14.4,0,0,14.4,0,32s14.4,32,32,32s32-14.4,32-32S49.6,0,32,0"/>
</g>
</svg>
