<?xml version="1.0" encoding="utf-8"?>
<!-- Generator: Adobe Illustrator 18.1.0, SVG Export Plug-In . SVG Version: 6.00 Build 0)  -->
<svg version="1.1" id="Layer_1" xmlns="http://www.w3.org/2000/svg" xmlns:xlink="http://www.w3.org/1999/xlink" x="0px" y="0px"
	 viewBox="0 0 64 64" enable-background="new 0 0 64 64" xml:space="preserve">
<path id="arrow-28-icon" d="M6.2,32c0,14.3,11.5,25.8,25.8,25.8c14.3,0,25.8-11.5,25.8-25.8C57.8,17.7,46.3,6.2,32,6.2
	C17.7,6.2,6.2,17.7,6.2,32z M64,32c0,17.7-14.3,32-32,32C14.3,64,0,49.7,0,32S14.3,0,32,0C49.7,0,64,14.3,64,32z M23.3,18.4l5-5
	l18.6,18.7L28.3,50.9l-5-5L37,32.2L23.3,18.4z"/>
</svg>
