<?xml version="1.0" encoding="utf-8"?>
<!-- Generator: Adobe Illustrator 17.0.0, SVG Export Plug-In . SVG Version: 6.00 Build 0)  -->
<!DOCTYPE svg PUBLIC "-//W3C//DTD SVG 1.1//EN" "http://www.w3.org/Graphics/SVG/1.1/DTD/svg11.dtd">
<svg version="1.1" id="Layer_1" xmlns="http://www.w3.org/2000/svg" xmlns:xlink="http://www.w3.org/1999/xlink" x="0px" y="0px"
	 width="64px" height="64px" viewBox="224 224 64 64" enable-background="new 224 224 64 64" xml:space="preserve">
<path id="arrow-28-icon" d="M235.25,256c0,11.469,9.282,20.75,20.75,20.75c11.469,0,20.75-9.282,20.75-20.75
	c0-11.469-9.282-20.75-20.75-20.75C244.531,235.25,235.25,244.532,235.25,256z M281.75,256c0,14.221-11.529,25.75-25.75,25.75
	c-14.221,0-25.75-11.529-25.75-25.75s11.529-25.75,25.75-25.75C270.221,230.25,281.75,241.779,281.75,256z M248.994,245.075
	l4.033-4.013l14.992,15.064l-14.992,15.064l-4.033-4.013l10.998-11.05L248.994,245.075z"/>
</svg>
