<?xml version="1.0" encoding="utf-8"?>
<!-- Generator: Adobe Illustrator 18.1.0, SVG Export Plug-In . SVG Version: 6.00 Build 0)  -->
<svg version="1.1" id="Layer_1" xmlns="http://www.w3.org/2000/svg" xmlns:xlink="http://www.w3.org/1999/xlink" x="0px" y="0px"
	 width="64px" height="64px" viewBox="0 0 64 64" enable-background="new 0 0 64 64" xml:space="preserve">
<path id="x-mark-4-icon" d="M64,32c0,17.7-14.3,32-32,32S0,49.7,0,32S14.3,0,32,0S64,14.3,64,32z M57.8,32
	C57.8,17.7,46.2,6.2,32,6.2C17.7,6.2,6.2,17.8,6.2,32c0,14.3,11.5,25.8,25.8,25.8S57.8,46.2,57.8,32z M42.8,48.5L32.3,38.1
	L21.9,48.5l-5.6-5.6l10.5-10.5L16.2,22l5.6-5.6l10.5,10.5l10.5-10.5l5.6,5.6L37.9,32.5L48.4,43L42.8,48.5z"/>
</svg>
