<?xml version="1.0" encoding="utf-8"?>
<!-- Generator: Adobe Illustrator 18.1.1, SVG Export Plug-In . SVG Version: 6.00 Build 0)  -->
<svg version="1.1" id="Layer_1" xmlns="http://www.w3.org/2000/svg" xmlns:xlink="http://www.w3.org/1999/xlink" x="0px" y="0px"
	 width="64px" height="64px" viewBox="0 0 64 64" enable-background="new 0 0 64 64" xml:space="preserve">
<g>
	<path d="M49.3,15.4L49.3,15.4c-1.2,0-2.3,0.9-2.9,2c-2,4-5.7,7.6-10.2,8.6h-8.8c-4.4-1-7.8-4.6-9.8-8.6c-0.5-1.1-1.6-2-2.6-2v0
		c-3,0-4.2,2.6-3.1,4.7c2.9,5.5,8.4,9.7,14.5,11.4l0,0L26,43.8c0,2.6-4.4,20.2-0.2,20.2h2.7c1.4,0,2.6-0.8,2.6-2.2v-9.4
		c0-0.6,0.4-1.1,1-1.1c0.6,0,1,0.5,1,1.1v9.4c0,1.4,1.2,2.2,2.5,2.2H38c4,0,0-17.5,0-20.2l-0.5-12.3l0,0c6.2-1.7,11.5-5.8,14.4-11.4
		C53,18,51.7,15.4,49.3,15.4z"/>
</g>
<g>
	<path d="M30.3,24.6c8,1,14.7-5.7,13.7-13.7c-0.7-5.5-5.1-9.8-10.5-10.5c-8-1-14.7,5.7-13.7,13.7C20.5,19.6,24.8,23.9,30.3,24.6z"/>
</g>
</svg>
