<?xml version="1.0" encoding="utf-8"?>
<!-- Generator: Adobe Illustrator 18.1.1, SVG Export Plug-In . SVG Version: 6.00 Build 0)  -->
<svg version="1.1" id="Layer_1" xmlns="http://www.w3.org/2000/svg" xmlns:xlink="http://www.w3.org/1999/xlink" x="0px" y="0px"
	 width="64px" height="64px" viewBox="0 0 64 64" enable-background="new 0 0 64 64" xml:space="preserve">
<path d="M28.6,25.6H16.5c-4.1,0-7.4,3.3-7.4,7.4v13.7c0,1.5,1.2,2.7,2.7,2.7h0c1.4,0,2.5-1.1,2.5-2.5V35.1c0-1.2,1-2.1,2.1-2.1h0
	v10.8c0,2.6-4,20.3,0.1,20.3h2.6c1.4,0,2.5-1.1,2.5-2.5v-9.3c0-0.6,0.5-1.1,1.1-1.1h0c0.6,0,1.1,0.5,1.1,1.1v9.3
	c0,1.4,1.1,2.5,2.5,2.5h2.5c4,0-0.1-17.7-0.1-20.4V33h0c1.2,0,2.1,1,2.1,2.1v11.8c0,1.4,1.2,2.6,2.6,2.6h0c1.4,0,2.6-1.2,2.6-2.6
	V33.1C36,29,32.7,25.6,28.6,25.6z"/>
<path d="M41.4,34.5c5.4,0.7,9.9-3.8,9.2-9.2c-0.5-3.7-3.4-6.6-7.1-7.1c-5.4-0.7-9.9,3.8-9.2,9.2C34.8,31.1,37.7,34,41.4,34.5z"/>
<path d="M47,36H36.9c-4.1,0-2.6,9.2-2.6,9.2c0-1.2,2.8-2.5,2.8-2.5v4.5c0,2.6-2.8,16.7,1.3,16.7l2.1,0c1.4,0,1.7-0.6,1.7-1.9v-6.3
	c0-0.6,0.4-1.1,1-1.1s1,0.5,1,1.1v6.3c0,1.4,0.3,1.9,1.6,1.9h2.4c4,0-0.1-14.2-0.1-16.8v-4.5c1,0,3.2,1.3,3.2,2.5
	C51.2,45.2,51.1,36,47,36z"/>
<g>
	<path d="M47,36v6.2c1,0.3,2,0.9,2,1.7v4.4c0,1.2,1.3,2.2,2.5,2.2c1.2,0,2.5-1,2.5-2.2v-6.2C54,39,50,36,47,36z"/>
</g>
<g>
	<path d="M20.9,24.2c8,1,14.7-5.7,13.7-13.7C34,5,29.6,0.7,24.2,0c-8-1-14.7,5.7-13.7,13.7C11.1,19.2,15.5,23.5,20.9,24.2z"/>
</g>
</svg>
