<?xml version="1.0" encoding="utf-8"?>
<!-- Generator: Adobe Illustrator 18.1.1, SVG Export Plug-In . SVG Version: 6.00 Build 0)  -->
<svg version="1.1" id="Layer_1" xmlns="http://www.w3.org/2000/svg" xmlns:xlink="http://www.w3.org/1999/xlink" x="0px" y="0px"
	 width="64px" height="64px" viewBox="0 0 64 64" enable-background="new 0 0 64 64" xml:space="preserve">
<g>
	<path d="M30.5,22.7c7.5,1,13.8-5.3,12.8-12.8c-0.6-5.1-4.7-9.2-9.8-9.8c-7.5-1-13.8,5.3-12.8,12.8C21.3,18,25.4,22.1,30.5,22.7z"/>
	<path d="M38.2,23.7H25.6c-4.3,0-7.7,3.5-7.7,7.7v14.4c0,1.6,1.3,2.8,2.8,2.8h0c1.4,0,2.6-1.2,2.6-2.6V33.6c0-1.2,1-2.2,2.2-2.2h0
		v11.4c0,2.7-4.2,21.3,0.1,21.3h2.8c1.4,0,2.6-1.2,2.6-2.6v-9.7c0-0.6,0.5-1.1,1.1-1.1h0c0.6,0,1.1,0.5,1.1,1.1v9.7
		c0,1.4,1.2,2.6,2.6,2.6h2.6c4.2,0-0.1-18.6-0.1-21.3V31.4l0,0c1.2,0,2.2,1,2.2,2.2v12.3c0,1.5,1.2,2.7,2.7,2.7h0
		c1.5,0,2.7-1.2,2.7-2.7V31.4C46,27.2,42.5,23.7,38.2,23.7z"/>
</g>
</svg>
