<?xml version="1.0" encoding="utf-8"?>
<!-- Generator: Adobe Illustrator 18.1.0, SVG Export Plug-In . SVG Version: 6.00 Build 0)  -->
<svg version="1.1" id="Layer_1" xmlns="http://www.w3.org/2000/svg" xmlns:xlink="http://www.w3.org/1999/xlink" x="0px" y="0px"
	 width="64px" height="64px" viewBox="0 0 64 64" enable-background="new 0 0 64 64" xml:space="preserve">
<g>
	<path d="M33.7,14.9v-1.3h1.7v-0.8c0-1.5,1.3-2.6,2.8-2.6c1.6,0,2.8,1.2,2.8,2.6v0.8h1.7v1.3C42.7,14.9,33.7,14.9,33.7,14.9z"/>
	<path d="M48.7,41.8c-3.3,0-6,2.7-6,6s2.7,6,6,6s6-2.7,6-6S52,41.8,48.7,41.8z M48.7,50.8c-1.6,0-2.9-1.3-2.9-2.9
		c0-1.6,1.3-2.9,2.9-2.9s2.9,1.3,2.9,2.9S50.3,50.8,48.7,50.8z"/>
	<path d="M13.9,41.8c-3.3,0-6,2.7-6,6s2.7,6,6,6s6-2.7,6-6C20,44.4,17.3,41.8,13.9,41.8z M13.9,50.8c-1.6,0-2.9-1.3-2.9-2.9
		c0-1.6,1.3-2.9,2.9-2.9s2.9,1.3,2.9,2.9C16.8,49.4,15.5,50.8,13.9,50.8z"/>
	<path d="M58.9,30.6c1.8,0.4,2.9,1.1,3.7,5.6l1.3,8.1c0.5,2.6-1,3.6-2.9,3.6h-4.4c0-4.3-3.5-8-7.8-8s-7.8,3.5-7.8,8H21.7
		c0-4.3-3.5-8-7.8-8S6,43.4,6,47.9H2.3c-1.3,0-2.3-1-2.3-2.2V19c0-1.4,1.1-2.6,2.5-2.6h41.1h6.7c1.8,0,3.1,0.9,3.8,2.5L58.9,30.6z
		 M43,19.1v11.1h12.8l-4.4-11.1C51.2,19.1,43,19.1,43,19.1z M31.6,28.8V22h-6.7v6.7H18v6.7h6.7v6.7h6.7v-6.7h6.7v-6.7H31.6z"/>
</g>
</svg>
