<?xml version="1.0" encoding="utf-8"?>
<!-- Generator: Adobe Illustrator 17.0.0, SVG Export Plug-In . SVG Version: 6.00 Build 0)  -->
<!DOCTYPE svg PUBLIC "-//W3C//DTD SVG 1.1//EN" "http://www.w3.org/Graphics/SVG/1.1/DTD/svg11.dtd">
<svg version="1.1" id="Layer_1" xmlns="http://www.w3.org/2000/svg" xmlns:xlink="http://www.w3.org/1999/xlink" x="0px" y="0px"
	 width="64px" height="64px" viewBox="0 0 64 64" enable-background="new 0 0 64 64" xml:space="preserve">
<path fill="#444444" d="M33.958,13.812V12.5h1.714v-0.83c0-1.476,1.29-2.67,2.886-2.67c1.593,0,2.882,1.194,2.882,2.67v0.83h1.677
	v1.312H33.958z"/>
<path fill="#444444" d="M49.08,40.862c-3.382,0-6.124,2.741-6.124,6.123c0,3.382,2.742,6.124,6.124,6.124
	c3.38,0,6.118-2.742,6.118-6.124C55.199,43.603,52.46,40.862,49.08,40.862z M49.079,49.915c-1.618,0-2.93-1.311-2.93-2.93
	c0-1.618,1.311-2.928,2.93-2.928c1.616,0,2.926,1.309,2.926,2.928C52.005,48.604,50.695,49.915,49.079,49.915z"/>
<path fill="#444444" d="M14.021,40.803c-3.38,0-6.122,2.744-6.122,6.124c0,3.382,2.741,6.122,6.122,6.122
	c3.382,0,6.124-2.739,6.124-6.122C20.145,43.547,17.403,40.803,14.021,40.803z M14.034,49.862c-1.618,0-2.93-1.31-2.93-2.93
	c0-1.618,1.312-2.928,2.93-2.928s2.929,1.31,2.929,2.928C16.963,48.553,15.652,49.862,14.034,49.862z"/>
<path fill="#444444" d="M59.357,29.573c1.829,0.356,2.924,1.146,3.749,5.659l1.305,8.146c0.47,2.651-1.028,3.618-2.895,3.618h-4.486
	c0-4.392-3.558-7.966-7.95-7.966c-4.392,0-7.955,3.574-7.955,7.966H21.954c0-4.392-3.56-7.966-7.953-7.966
	c-4.394,0-7.955,3.574-7.955,7.966H2.329C1.02,46.996,0,46.005,0,44.726V17.941c0-1.46,1.152-2.632,2.564-2.632h41.374h6.76
	c1.829,0,3.166,0.908,3.827,2.499L59.357,29.573z M43.312,18.039v11.127h12.866l-4.513-11.127H43.312z M31.803,27.738v-6.827h-6.827
	v6.827h-6.829v6.829h6.829v6.827h6.827v-6.827h6.827v-6.829H31.803z"/>
</svg>
