<?xml version="1.0" encoding="utf-8"?>
<!-- Generator: Adobe Illustrator 18.1.0, SVG Export Plug-In . SVG Version: 6.00 Build 0)  -->
<svg version="1.1" id="Layer_1" xmlns="http://www.w3.org/2000/svg" xmlns:xlink="http://www.w3.org/1999/xlink" x="0px" y="0px"
	 width="64px" height="64px" viewBox="0 0 64 64" enable-background="new 0 0 64 64" xml:space="preserve">
<g>
	<path d="M33.7,25.1v-1.3h1.7V23c0-1.5,1.3-2.6,2.8-2.6c1.6,0,2.8,1.2,2.8,2.6v0.8h1.7v1.3H33.7z"/>
	<path d="M48.7,51.9c-3.3,0-6,2.7-6,6s2.7,6,6,6s6-2.7,6-6S52,51.9,48.7,51.9z M48.7,60.9c-1.6,0-2.9-1.3-2.9-2.9
		c0-1.6,1.3-2.9,2.9-2.9s2.9,1.3,2.9,2.9S50.3,60.9,48.7,60.9z"/>
	<path d="M13.9,51.9c-3.3,0-6,2.7-6,6s2.7,6,6,6s6-2.7,6-6C20,54.6,17.3,51.9,13.9,51.9z M13.9,60.9c-1.6,0-2.9-1.3-2.9-2.9
		c0-1.6,1.3-2.9,2.9-2.9s2.9,1.3,2.9,2.9C16.8,59.6,15.5,60.9,13.9,60.9z"/>
	<path d="M58.9,40.8c1.8,0.4,2.9,1.1,3.7,5.6l1.3,8.1c0.5,2.6-1,3.6-2.9,3.6h-4.4c0-4.3-3.5-8-7.8-8s-7.8,3.5-7.8,8H21.7
		c0-4.3-3.5-8-7.8-8S6,53.6,6,58.1H2.3c-1.3,0-2.3-1-2.3-2.2V29.2c0-1.4,1.1-2.6,2.5-2.6h41.1h6.7c1.8,0,3.1,0.9,3.8,2.5L58.9,40.8z
		 M43,29.3v11.1h12.8l-4.4-11.1C51.2,29.3,43,29.3,43,29.3z M31.6,38.9v-6.7h-6.7v6.7H18v6.7h6.7v6.7h6.7v-6.7h6.7v-6.7H31.6z"/>
</g>
</svg>
