<?xml version="1.0" encoding="utf-8"?>
<!-- Generator: Adobe Illustrator 17.0.0, SVG Export Plug-In . SVG Version: 6.00 Build 0)  -->
<!DOCTYPE svg PUBLIC "-//W3C//DTD SVG 1.1//EN" "http://www.w3.org/Graphics/SVG/1.1/DTD/svg11.dtd">
<svg version="1.1" id="Layer_1" xmlns="http://www.w3.org/2000/svg" xmlns:xlink="http://www.w3.org/1999/xlink" x="0px" y="0px"
	 width="64px" height="64px" viewBox="0 0 64 64" enable-background="new 0 0 64 64" xml:space="preserve">
<g>
	<path d="M33.711,14.892v-1.308h1.711v-0.805c0-1.509,1.308-2.616,2.818-2.616c1.61,0,2.818,1.208,2.818,2.616v0.805h1.711v1.308
		H33.711z"/>
	<path d="M48.706,41.761c-3.321,0-6.038,2.717-6.038,6.038c0,3.321,2.717,6.038,6.038,6.038c3.321,0,6.038-2.717,6.038-6.038
		S52.027,41.761,48.706,41.761z M48.706,50.718c-1.61,0-2.918-1.308-2.918-2.918c0-1.61,1.308-2.918,2.918-2.918
		s2.918,1.308,2.918,2.918S50.316,50.718,48.706,50.718z"/>
	<path d="M13.886,41.761c-3.321,0-6.038,2.717-6.038,6.038c0,3.321,2.717,6.038,6.038,6.038s6.038-2.717,6.038-6.038
		C20.025,44.479,17.308,41.761,13.886,41.761z M13.886,50.718c-1.61,0-2.918-1.308-2.918-2.918c0-1.61,1.308-2.918,2.918-2.918
		s2.918,1.308,2.918,2.918C16.805,49.41,15.497,50.718,13.886,50.718z"/>
	<path d="M58.87,30.591c1.811,0.403,2.918,1.107,3.723,5.635l1.308,8.051c0.503,2.616-1.006,3.623-2.918,3.623h-4.428
		c0-4.327-3.522-7.95-7.849-7.95s-7.849,3.522-7.849,7.95h-19.12c0-4.327-3.522-7.95-7.849-7.95s-7.849,3.522-7.849,7.95H2.316
		c-1.308,0-2.315-1.006-2.315-2.214V19.018c0-1.409,1.107-2.617,2.516-2.617h41.058h6.742c1.811,0,3.12,0.906,3.824,2.516
		L58.87,30.591z M42.969,19.119v11.07h12.78l-4.428-11.07C51.221,19.119,42.969,19.119,42.969,19.119z M31.598,28.78v-6.742h-6.742
		v6.742h-6.843v6.742h6.742v6.742h6.742v-6.742h6.742V28.78H31.598z"/>
</g>
</svg>
