<?xml version="1.0" encoding="utf-8"?>
<!-- Generator: Adobe Illustrator 18.0.0, SVG Export Plug-In . SVG Version: 6.00 Build 0)  -->
<!DOCTYPE svg PUBLIC "-//W3C//DTD SVG 1.1//EN" "http://www.w3.org/Graphics/SVG/1.1/DTD/svg11.dtd">
<svg version="1.1" id="Layer_1" xmlns="http://www.w3.org/2000/svg" xmlns:xlink="http://www.w3.org/1999/xlink" x="0px" y="0px"
	 viewBox="-8 10 64 64" enable-background="new -8 10 64 64" xml:space="preserve">
<path fill="#444444" d="M25.5,24.7v-1.3h1.7v-0.8c0-1.5,1.3-2.6,2.8-2.6c1.6,0,2.8,1.2,2.8,2.6v0.8h1.7v1.3H25.5z"/>
<path fill="#444444" d="M40.4,51.4c-3.3,0-6,2.7-6,6s2.7,6,6,6c3.3,0,6-2.7,6-6C46.4,54.1,43.7,51.4,40.4,51.4z M40.4,60.3
	c-1.6,0-2.9-1.3-2.9-2.9c0-1.6,1.3-2.9,2.9-2.9c1.6,0,2.9,1.3,2.9,2.9C43.3,59,42,60.3,40.4,60.3z"/>
<path fill="#444444" d="M5.8,51.4c-3.3,0-6,2.7-6,6c0,3.3,2.7,6,6,6c3.3,0,6-2.7,6-6C11.9,54.1,9.2,51.4,5.8,51.4z M5.8,60.3
	c-1.6,0-2.9-1.3-2.9-2.9c0-1.6,1.3-2.9,2.9-2.9s2.9,1.3,2.9,2.9C8.7,59,7.4,60.3,5.8,60.3z"/>
<path fill="#444444" d="M50.5,40.3c1.8,0.4,2.9,1.1,3.7,5.6l1.3,8c0.5,2.6-1,3.6-2.9,3.6h-4.4c0-4.3-3.5-7.9-7.8-7.9
	s-7.8,3.5-7.8,7.9H13.6c0-4.3-3.5-7.9-7.8-7.9c-4.3,0-7.8,3.5-7.8,7.9h-3.7c-1.3,0-2.3-1-2.3-2.2V28.8c0-1.4,1.1-2.6,2.5-2.6h40.8
	H42c1.8,0,3.1,0.9,3.8,2.5L50.5,40.3z M34.7,28.9v11h12.7l-4.4-11C42.9,28.9,34.7,28.9,34.7,28.9z M23.4,38.5v-6.7h-6.7v6.7H9.9v6.7
	h6.7v6.7h6.7v-6.7h6.7v-6.7H23.4z"/>
</svg>
