<?xml version="1.0" encoding="utf-8"?>
<!-- Generator: Adobe Illustrator 17.0.0, SVG Export Plug-In . SVG Version: 6.00 Build 0)  -->
<!DOCTYPE svg PUBLIC "-//W3C//DTD SVG 1.1//EN" "http://www.w3.org/Graphics/SVG/1.1/DTD/svg11.dtd">
<svg version="1.1" id="Layer_1" xmlns="http://www.w3.org/2000/svg" xmlns:xlink="http://www.w3.org/1999/xlink" x="0px" y="0px"
	 width="64px" height="64px" viewBox="0 0 64 64" enable-background="new 0 0 64 64" xml:space="preserve">
<path id="coin-icon" d="M32,6.2C17.751,6.2,6.2,17.751,6.2,32c0,14.249,11.551,25.8,25.8,25.8c14.249,0,25.8-11.551,25.8-25.8
	S46.249,6.2,32,6.2z M34.365,44.087v3.008h-4.304v-2.69c-2.066-0.177-4.793-0.926-6.803-2.033l1.424-4.96
	c2.276,0.888,5.596,2.004,8.052,1.468c2.148-0.468,2.689-2.397,0.161-3.486c-2.135-0.959-9.483-1.961-9.483-8.106
	c0-2.546,1.908-6.044,6.649-7.079v-3.053h4.304v2.801c1.844,0.127,3.726,0.467,5.898,1.147c-0.217,0.949-1.156,5.069-1.156,5.069
	c-1.5-0.51-3.953-1.403-6.307-1.271c-2.909,0.164-3.117,2.288-1.156,3.269c4.023,1.819,9.849,3.366,9.849,8.792
	C41.499,41.155,38.232,43.543,34.365,44.087z"/>
</svg>
