<?xml version="1.0" encoding="utf-8"?>
<!-- Generator: Adobe Illustrator 17.0.0, SVG Export Plug-In . SVG Version: 6.00 Build 0)  -->
<!DOCTYPE svg PUBLIC "-//W3C//DTD SVG 1.1//EN" "http://www.w3.org/Graphics/SVG/1.1/DTD/svg11.dtd">
<svg version="1.1" id="Layer_1" xmlns="http://www.w3.org/2000/svg" xmlns:xlink="http://www.w3.org/1999/xlink" x="0px" y="0px"
	 width="64px" height="64px" viewBox="0 0 64 64" enable-background="new 0 0 64 64" xml:space="preserve">
<path id="currency-dollar-icon" d="M31.034,27.312c-2.317-1.158-2.041-3.64,1.379-3.861c2.758-0.165,5.681,0.883,7.446,1.489
	c0,0,1.103-4.854,1.379-5.957c-2.537-0.827-4.799-1.213-6.95-1.379V14.35h-5.074v3.585c-5.571,1.213-7.832,5.35-7.832,8.329
	c0,7.225,8.66,8.439,11.197,9.542c2.978,1.269,2.317,3.585-0.165,4.137c-2.868,0.607-6.784-0.662-9.487-1.71l-1.655,5.847
	c2.372,1.324,5.571,2.206,7.998,2.372v3.199h5.074v-3.53c4.578-0.662,8.384-3.475,8.384-8.384
	C42.672,31.283,35.777,29.463,31.034,27.312z"/>
</svg>
