<?xml version="1.0" encoding="utf-8"?>
<!-- Generator: Adobe Illustrator 18.1.0, SVG Export Plug-In . SVG Version: 6.00 Build 0)  -->
<svg version="1.1" id="Layer_1" xmlns="http://www.w3.org/2000/svg" xmlns:xlink="http://www.w3.org/1999/xlink" x="0px" y="0px"
	 viewBox="448 0 64 64" enable-background="new 448 0 64 64" xml:space="preserve">
<path id="coin-2-icon" fill="#444444" d="M480,6.2c14.3,0,25.8,11.5,25.8,25.8c0,14.3-11.5,25.8-25.8,25.8
	c-14.3,0-25.8-11.5-25.8-25.8C454.2,17.7,465.7,6.2,480,6.2 M480,0c-17.7,0-32,14.3-32,32s14.3,32,32,32s32-14.3,32-32
	S497.7,0,480,0L480,0z M482.8,46.2v3.5h-5.1v-3.2c-2.4-0.2-5.6-1.1-8-2.4l1.7-5.8c2.7,1,6.6,2.4,9.5,1.7c2.5-0.6,3.2-2.8,0.2-4.1
	c-2.5-1.1-11.2-2.3-11.2-9.6c0-3,2.2-7.1,7.8-8.3v-3.6h5.1v3.3c2.2,0.1,4.4,0.6,7,1.4c-0.3,1.1-1.4,6-1.4,6
	c-1.8-0.6-4.7-1.7-7.4-1.5c-3.4,0.2-3.7,2.7-1.4,3.9c4.7,2.1,11.6,4,11.6,10.4C491.2,42.8,487.4,45.6,482.8,46.2z"/>
</svg>
