<?xml version="1.0" encoding="utf-8"?>
<!-- Generator: Adobe Illustrator 18.1.0, SVG Export Plug-In . SVG Version: 6.00 Build 0)  -->
<svg version="1.1" id="Layer_1" xmlns="http://www.w3.org/2000/svg" xmlns:xlink="http://www.w3.org/1999/xlink" x="0px" y="0px"
	 viewBox="448 0 64 64" enable-background="new 448 0 64 64" xml:space="preserve">
<path id="currency-dollar-icon" fill="#444444" d="M478.4,23.5c-4.2-2.1-3.7-6.6,2.5-7c5-0.3,10.3,1.6,13.5,2.7c0,0,2-8.8,2.5-10.8
	c-4.6-1.5-8.7-2.2-12.6-2.5V0h-9.2v6.5c-10.1,2.2-14.2,9.7-14.2,15.1c0,13.1,15.7,15.3,20.3,17.3c5.4,2.3,4.2,6.5-0.3,7.5
	c-5.2,1.1-12.3-1.2-17.2-3.1l-3,10.6c4.3,2.4,10.1,4,14.5,4.3V64h9.2v-6.4c8.3-1.2,15.2-6.3,15.2-15.2
	C499.5,30.7,487,27.4,478.4,23.5z"/>
</svg>
