<?xml version="1.0" encoding="utf-8"?>
<!-- Generator: Adobe Illustrator 18.1.0, SVG Export Plug-In . SVG Version: 6.00 Build 0)  -->
<svg version="1.1" id="Layer_1" xmlns="http://www.w3.org/2000/svg" xmlns:xlink="http://www.w3.org/1999/xlink" x="0px" y="0px"
	 viewBox="0 0 64 64" enable-background="new 0 0 64 64" xml:space="preserve">
<path id="coin-icon" d="M32,0C14.3,0,0,14.3,0,32c0,17.7,14.3,32,32,32c17.7,0,32-14.3,32-32S49.7,0,32,0z M34.9,47v3.7h-5.3v-3.3
	c-2.6-0.2-5.9-1.1-8.4-2.5l1.8-6.2c2.8,1.1,6.9,2.5,10,1.8c2.7-0.6,3.3-3,0.2-4.3c-2.6-1.2-11.8-2.4-11.8-10.1
	c0-3.2,2.4-7.5,8.2-8.8v-3.8h5.3v3.5c2.3,0.2,4.6,0.6,7.3,1.4c-0.3,1.2-1.4,6.3-1.4,6.3C39,24.1,35.9,23,33,23.2
	c-3.6,0.2-3.9,2.8-1.4,4.1c5,2.3,12.2,4.2,12.2,10.9C43.8,43.4,39.7,46.3,34.9,47z"/>
</svg>
