<?xml version="1.0" encoding="utf-8"?>
<!-- Generator: Adobe Illustrator 17.0.0, SVG Export Plug-In . SVG Version: 6.00 Build 0)  -->
<!DOCTYPE svg PUBLIC "-//W3C//DTD SVG 1.1//EN" "http://www.w3.org/Graphics/SVG/1.1/DTD/svg11.dtd">
<svg version="1.1" id="Layer_1" xmlns="http://www.w3.org/2000/svg" xmlns:xlink="http://www.w3.org/1999/xlink" x="0px" y="0px"
	 width="64px" height="64px" viewBox="0 0 64 64" enable-background="new 0 0 64 64" xml:space="preserve">
<path id="coin-2-icon" d="M32,11.239c11.507,0,20.761,9.254,20.761,20.761S43.507,52.761,32,52.761S11.239,43.507,11.239,32
	S20.493,11.239,32,11.239 M32,6.25C17.757,6.25,6.25,17.757,6.25,32S17.757,57.75,32,57.75S57.75,46.243,57.75,32
	S46.243,6.25,32,6.25L32,6.25z M34.253,43.427v2.816h-4.104v-2.575c-1.931-0.161-4.506-0.885-6.438-1.931l1.368-4.667
	c2.173,0.805,5.311,1.931,7.645,1.368c2.012-0.483,2.575-2.253,0.161-3.299c-2.012-0.885-9.013-1.851-9.013-7.725
	c0-2.414,1.77-5.713,6.277-6.679v-2.897h4.104v2.655c1.77,0.08,3.541,0.483,5.633,1.127c-0.241,0.885-1.127,4.828-1.127,4.828
	c-1.448-0.483-3.782-1.368-5.955-1.207c-2.736,0.161-2.977,2.173-1.127,3.138c3.782,1.69,9.334,3.219,9.334,8.369
	C41.012,40.691,37.955,42.944,34.253,43.427z"/>
</svg>
