<?xml version="1.0" encoding="utf-8"?>
<!-- Generator: Adobe Illustrator 17.0.0, SVG Export Plug-In . SVG Version: 6.00 Build 0)  -->
<!DOCTYPE svg PUBLIC "-//W3C//DTD SVG 1.1//EN" "http://www.w3.org/Graphics/SVG/1.1/DTD/svg11.dtd">
<svg version="1.1" id="Layer_1" xmlns="http://www.w3.org/2000/svg" xmlns:xlink="http://www.w3.org/1999/xlink" x="0px" y="0px"
	 width="64px" height="64px" viewBox="388.945 563.275 64 64" enable-background="new 388.945 563.275 64 64" xml:space="preserve">
<path id="coin-2-icon" d="M420.945,569.475c14.3,0,25.8,11.5,25.8,25.8s-11.5,25.8-25.8,25.8s-25.8-11.5-25.8-25.8
	S406.645,569.475,420.945,569.475 M420.945,563.275c-17.7,0-32,14.3-32,32s14.3,32,32,32s32-14.3,32-32
	S438.645,563.275,420.945,563.275L420.945,563.275z M423.745,609.475v3.5h-5.1v-3.2c-2.4-0.2-5.6-1.1-8-2.4l1.7-5.8
	c2.7,1,6.6,2.4,9.5,1.7c2.5-0.6,3.2-2.8,0.2-4.1c-2.5-1.1-11.2-2.3-11.2-9.6c0-3,2.2-7.1,7.8-8.3v-3.6h5.1v3.3
	c2.2,0.1,4.4,0.6,7,1.4c-0.3,1.1-1.4,6-1.4,6c-1.8-0.6-4.7-1.7-7.4-1.5c-3.4,0.2-3.7,2.7-1.4,3.9c4.7,2.1,11.6,4,11.6,10.4
	C432.145,606.075,428.345,608.875,423.745,609.475z"/>
</svg>
