<?xml version="1.0" encoding="utf-8"?>
<!-- Generator: Adobe Illustrator 17.0.0, SVG Export Plug-In . SVG Version: 6.00 Build 0)  -->
<!DOCTYPE svg PUBLIC "-//W3C//DTD SVG 1.1//EN" "http://www.w3.org/Graphics/SVG/1.1/DTD/svg11.dtd">
<svg version="1.1" id="Layer_1" xmlns="http://www.w3.org/2000/svg" xmlns:xlink="http://www.w3.org/1999/xlink" x="0px" y="0px"
	 width="64px" height="64px" viewBox="-20 -20 64 64" enable-background="new -20 -20 64 64" xml:space="preserve">
<path fill="#545454" d="M32.146-20.003H-8.146C-14.69-20.003-20-14.682-20-8.149v40.3c0,6.536,5.31,11.851,11.854,11.851h40.292
	C38.685,44.003,44,38.688,44,32.152v-40.3C44-14.682,38.685-20.003,32.146-20.003z M18.082,41.245H5.913V31.074
	c0-5.211,1.405-6.886,6.088-6.886c4.678,0,6.08,1.675,6.08,6.886V41.245z M40.451,32.149c0,3.584-2.307,6.624-5.507,7.779V21.799
	c0-9.982-2.699-13.158-11.654-13.158c-6.507,0-9.659,1.76-10.923,6.526c1.981,0.283,3.504,1.891,3.504,3.958
	c0,2.275-1.811,4.086-4.067,4.086c-2.253,0-4.083-1.811-4.083-4.086c0-2.205,1.728-3.925,3.891-4.024
	C10.34,10.388,7.18,8.644,0.702,8.644c-8.952,0-11.648,3.176-11.648,13.158v18.131c-3.205-1.16-5.512-4.198-5.512-7.784v-40.3
	c0-4.566,3.723-8.302,8.307-8.302h40.292c4.587,0,8.304,3.736,8.304,8.302L40.451,32.149L40.451,32.149z M0.302-7.792
	c-3.741,0-6.742,2.984-6.742,6.731c0,3.752,3.003,6.75,6.742,6.75c3.747,0,6.744-2.997,6.744-6.75
	C7.046-4.807,4.046-7.792,0.302-7.792z M22.927-7.792c-3.747,0-6.744,2.984-6.744,6.731c0,3.752,2.997,6.75,6.744,6.75
	s6.744-2.997,6.744-6.75C29.671-4.807,26.674-7.792,22.927-7.792z"/>
</svg>
