<?xml version="1.0" encoding="utf-8"?>
<!-- Generator: Adobe Illustrator 18.1.0, SVG Export Plug-In . SVG Version: 6.00 Build 0)  -->
<svg version="1.1" id="Layer_1" xmlns="http://www.w3.org/2000/svg" xmlns:xlink="http://www.w3.org/1999/xlink" x="0px" y="0px"
	 viewBox="0 0 64 64" enable-background="new 0 0 64 64" xml:space="preserve">
<path fill="#545454" d="M52.1,0H11.9C5.3,0,0,5.3,0,11.8v40.3C0,58.7,5.3,64,11.9,64h40.3C58.7,64,64,58.7,64,52.2V11.9
	C64,5.3,58.7,0,52.1,0z M38.1,61.2H25.9V51.1c0-5.2,1.4-6.9,6.1-6.9c4.7,0,6.1,1.7,6.1,6.9L38.1,61.2L38.1,61.2z M60.5,52.1
	c0,3.6-2.3,6.6-5.5,7.8V41.8c0-10-2.7-13.2-11.7-13.2c-6.5,0-9.7,1.8-10.9,6.5c2,0.3,3.5,1.9,3.5,4c0,2.3-1.8,4.1-4.1,4.1
	c-2.3,0-4.1-1.8-4.1-4.1c0-2.2,1.7-3.9,3.9-4c-1.3-4.7-4.4-6.5-10.9-6.5c-9,0-11.6,3.2-11.6,13.2v18.1c-3.2-1.2-5.5-4.2-5.5-7.8
	V11.8c0-4.6,3.7-8.3,8.3-8.3h40.3c4.6,0,8.3,3.7,8.3,8.3L60.5,52.1L60.5,52.1z M20.3,12.2c-3.7,0-6.7,3-6.7,6.7c0,3.8,3,6.8,6.7,6.8
	c3.7,0,6.7-3,6.7-6.8C27,15.2,24,12.2,20.3,12.2z M42.9,12.2c-3.7,0-6.7,3-6.7,6.7c0,3.8,3,6.8,6.7,6.8c3.7,0,6.7-3,6.7-6.8
	C49.7,15.2,46.7,12.2,42.9,12.2z"/>
</svg>
