<?xml version="1.0" encoding="utf-8"?>
<!-- Generator: Adobe Illustrator 17.0.0, SVG Export Plug-In . SVG Version: 6.00 Build 0)  -->
<!DOCTYPE svg PUBLIC "-//W3C//DTD SVG 1.1//EN" "http://www.w3.org/Graphics/SVG/1.1/DTD/svg11.dtd">
<svg version="1.1" id="Layer_1" xmlns="http://www.w3.org/2000/svg" xmlns:xlink="http://www.w3.org/1999/xlink" x="0px" y="0px"
	 width="64px" height="64px" viewBox="224 224 64 64" enable-background="new 224 224 64 64" xml:space="preserve">
<path id="flag-3-icon" d="M239.025,281.75h-5.765v-51.5h5.765C239.025,230.25,239.025,281.75,239.025,281.75z M278.739,234.093
	c0,0-3.635,3.205-8.415,3.205c-7.534,0-7.703-6.49-16.449-6.49c-4.729,0-9.138,2.197-11.006,3.798c0,1.58,0,27.095,0,27.095
	c2.65-1.837,6.678-3.768,11.036-3.768c8.26,0,9.418,6.173,16.78,6.173c4.755,0,8.055-3.046,8.055-3.046L278.739,234.093
	L278.739,234.093z"/>
</svg>
