<?xml version="1.0" encoding="utf-8"?>
<!-- Generator: Adobe Illustrator 17.0.0, SVG Export Plug-In . SVG Version: 6.00 Build 0)  -->
<!DOCTYPE svg PUBLIC "-//W3C//DTD SVG 1.1//EN" "http://www.w3.org/Graphics/SVG/1.1/DTD/svg11.dtd">
<svg version="1.1" id="Layer_1" xmlns="http://www.w3.org/2000/svg" xmlns:xlink="http://www.w3.org/1999/xlink" x="0px" y="0px"
	 width="64px" height="64px" viewBox="0 0 64 64" enable-background="new 0 0 64 64" xml:space="preserve">
<path id="monitoring-icon" fill="#444444" d="M26.011,58.559l6.353-38.718l6.49,27.867c0.645,2.854,4.61,3.179,5.688,0.429
	l5.88-15.028c0,0,2.842,6.598,3.383,7.724c0.537,1.126,1.102,1.852,2.934,1.852h7.215v-5.973H58.68l-5.648-12.635
	c-1.05-2.449-4.546-2.397-5.52,0.088L42.53,36.906l-7.68-34.02c-0.726-3.219-5.331-3.038-5.852,0.176l-6.369,39.303l-6.514-24.199
	c-0.73-2.89-4.806-3.054-5.732-0.188L5.536,36.721H0v5.965h7.885c1.078,0,2.245-0.87,2.549-1.904l2.746-9.825l6.999,27.847
	C20.968,61.955,25.494,61.746,26.011,58.559z"/>
</svg>
