<?xml version="1.0" encoding="utf-8"?>
<!-- Generator: Adobe Illustrator 18.1.0, SVG Export Plug-In . SVG Version: 6.00 Build 0)  -->
<svg version="1.1" id="Layer_1" xmlns="http://www.w3.org/2000/svg" xmlns:xlink="http://www.w3.org/1999/xlink" x="0px" y="0px"
	 width="64px" height="64px" viewBox="0 0 64 64" enable-background="new 0 0 64 64" xml:space="preserve">
<path id="monitoring-icon" d="M26,61.5l6.4-38.7l6.5,27.9c0.6,2.9,4.6,3.2,5.7,0.4l5.9-15c0,0,2.8,6.6,3.4,7.7
	c0.5,1.1,1.1,1.9,2.9,1.9H64v-6h-5.3L53.1,27c-1.1-2.5-4.5-2.4-5.5,0.1l-5,12.8l-7.7-34c-0.7-3.2-5.3-3-5.9,0.2l-6.4,39.3l-6.5-24.2
	c-0.7-2.9-4.8-3.1-5.7-0.2L5.5,39.6H0v6h7.9c1.1,0,2.2-0.9,2.6-1.9l2.7-9.8l7,27.9C21,64.9,25.5,64.7,26,61.5z"/>
</svg>
