<?xml version="1.0" encoding="utf-8"?>
<!-- Generator: Adobe Illustrator 17.0.0, SVG Export Plug-In . SVG Version: 6.00 Build 0)  -->
<!DOCTYPE svg PUBLIC "-//W3C//DTD SVG 1.1//EN" "http://www.w3.org/Graphics/SVG/1.1/DTD/svg11.dtd">
<svg version="1.1" id="Layer_1" xmlns="http://www.w3.org/2000/svg" xmlns:xlink="http://www.w3.org/1999/xlink" x="0px" y="0px"
	 width="64px" height="64px" viewBox="0 0 64 64" enable-background="new 0 0 64 64" xml:space="preserve">
<g id="Layer_3">
	<path id="megaphone-3-icon" d="M60.691,20.698l-7.339,3.887l-1.826-3.444l7.339-3.887L60.691,20.698z M49.208,17.336l-3.448-1.818
		L49.724,8l3.448,1.818L49.208,17.336z M63.22,33.429l-8.449-0.911l0.419-3.875l8.466,0.911L63.22,33.429z M31.248,48.576
		l4.461-0.878l-1.744,5.705c-0.317,1.037-1.179,1.818-2.244,2.029l-8.299,1.696c-1.029,0.203-2.09-0.155-2.785-0.939l-4.115-4.664
		l4.485-0.882l1.704,1.927c0.459,0.52,1.163,0.756,1.842,0.622l4.493-0.931c0.708-0.138,1.277-0.655,1.488-1.346L31.248,48.576z
		 M7.282,40.875c-1.35,1.342-3.135,2.163-5.034,2.314L0,43.367L5.965,54.59l1.403-1.765c1.187-1.492,2.863-2.513,4.733-2.879
		l43.268-8.531L38.551,9.773L7.282,40.875z"/>
</g>
</svg>
