<?xml version="1.0" encoding="utf-8"?>
<!-- Generator: Adobe Illustrator 17.0.0, SVG Export Plug-In . SVG Version: 6.00 Build 0)  -->
<!DOCTYPE svg PUBLIC "-//W3C//DTD SVG 1.1//EN" "http://www.w3.org/Graphics/SVG/1.1/DTD/svg11.dtd">
<svg version="1.1" id="Layer_1" xmlns="http://www.w3.org/2000/svg" xmlns:xlink="http://www.w3.org/1999/xlink" x="0px" y="0px"
	 width="64px" height="64px" viewBox="224 224 64 64" enable-background="new 224 224 64 64" xml:space="preserve">
<path id="gear-icon" d="M281.75,259.468v-6.936l-3.748-1.333c-1.429-0.508-2.578-1.599-3.159-3c0-0.001,0-0.001-0.001-0.002
	c-0.582-1.404-0.542-2.99,0.111-4.363l1.707-3.59l-4.904-4.904l-3.59,1.706c-1.372,0.652-2.96,0.693-4.363,0.111
	c-0.001,0-0.001,0-0.002-0.001c-1.402-0.581-2.492-1.729-3-3.159l-1.333-3.748h-6.936l-1.333,3.748
	c-0.508,1.429-1.599,2.578-3,3.159c-0.001,0-0.001,0.001-0.002,0.001c-1.404,0.583-2.99,0.542-4.363-0.111l-3.59-1.707l-4.904,4.904
	l1.707,3.59c0.652,1.372,0.693,2.96,0.111,4.364c0,0.001-0.001,0.001-0.001,0.002c-0.581,1.402-1.729,2.491-3.159,3l-3.748,1.333
	v6.936l3.747,1.333c1.429,0.508,2.578,1.599,3.159,3c0,0.001,0,0.001,0.001,0.002c0.582,1.405,0.542,2.99-0.111,4.363l-1.707,3.59
	l4.904,4.904l3.59-1.707c1.372-0.652,2.96-0.693,4.364-0.111c0.001,0,0.001,0,0.002,0.001c1.402,0.581,2.491,1.729,3,3.159
	l1.333,3.748h6.936l1.324-3.724c0.513-1.442,1.613-2.603,3.027-3.191c0.001,0,0.001-0.001,0.002-0.001
	c1.391-0.578,2.962-0.539,4.322,0.108l3.613,1.717l4.904-4.904l-1.708-3.592c-0.652-1.371-0.692-2.957-0.111-4.36
	c0-0.001,0.001-0.001,0.001-0.002c0.582-1.403,1.731-2.494,3.162-3.003L281.75,259.468z M256,265.443
	c-5.215,0-9.443-4.228-9.443-9.443c0-5.215,4.228-9.443,9.443-9.443c5.215,0,9.443,4.228,9.443,9.443
	C265.443,261.215,261.215,265.443,256,265.443z"/>
</svg>
