<?xml version="1.0" encoding="utf-8"?>
<!-- Generator: Adobe Illustrator 18.1.0, SVG Export Plug-In . SVG Version: 6.00 Build 0)  -->
<svg version="1.1" id="Layer_1" xmlns="http://www.w3.org/2000/svg" xmlns:xlink="http://www.w3.org/1999/xlink" x="0px" y="0px"
	 viewBox="0 0 64 64" enable-background="new 0 0 64 64" xml:space="preserve">
<path id="gear-icon" d="M64,36.3v-8.6L59.3,26c-1.8-0.6-3.2-2-3.9-3.7c0,0,0,0,0,0c-0.7-1.7-0.7-3.7,0.1-5.4l2.1-4.5l-6.1-6.1
	l-4.5,2.1c-1.7,0.8-3.7,0.9-5.4,0.1c0,0,0,0,0,0C40,7.9,38.6,6.4,38,4.7L36.3,0h-8.6L26,4.7c-0.6,1.8-2,3.2-3.7,3.9c0,0,0,0,0,0
	c-1.7,0.7-3.7,0.7-5.4-0.1l-4.5-2.1l-6.1,6.1l2.1,4.5c0.8,1.7,0.9,3.7,0.1,5.4c0,0,0,0,0,0C7.9,24,6.4,25.4,4.7,26L0,27.7v8.6
	L4.7,38c1.8,0.6,3.2,2,3.9,3.7c0,0,0,0,0,0c0.7,1.7,0.7,3.7-0.1,5.4l-2.1,4.5l6.1,6.1l4.5-2.1c1.7-0.8,3.7-0.9,5.4-0.1c0,0,0,0,0,0
	c1.7,0.7,3.1,2.1,3.7,3.9l1.7,4.7h8.6l1.6-4.6c0.6-1.8,2-3.2,3.8-4c0,0,0,0,0,0c1.7-0.7,3.7-0.7,5.4,0.1l4.5,2.1l6.1-6.1l-2.1-4.5
	c-0.8-1.7-0.9-3.7-0.1-5.4c0,0,0,0,0,0c0.7-1.7,2.2-3.1,3.9-3.7L64,36.3z M32,43.7c-6.5,0-11.7-5.3-11.7-11.7S25.5,20.3,32,20.3
	S43.7,25.5,43.7,32S38.5,43.7,32,43.7z"/>
</svg>
