<?xml version="1.0" encoding="utf-8"?>
<!-- Generator: Adobe Illustrator 17.0.0, SVG Export Plug-In . SVG Version: 6.00 Build 0)  -->
<!DOCTYPE svg PUBLIC "-//W3C//DTD SVG 1.1//EN" "http://www.w3.org/Graphics/SVG/1.1/DTD/svg11.dtd">
<svg version="1.1" id="Layer_1" xmlns="http://www.w3.org/2000/svg" xmlns:xlink="http://www.w3.org/1999/xlink" x="0px" y="0px"
	 width="64px" height="64px" viewBox="-20 -20 64 64" enable-background="new -20 -20 64 64" xml:space="preserve">
<path d="M32.136-20H-8.16C-14.691-20-20-14.68-20-8.149v40.301C-20,38.688-14.691,44-8.16,44h40.296C38.688,44,44,38.685,44,32.152
	V-8.149C44-14.68,38.691-20,32.136-20z M40.459,32.152c0,4.571-3.723,8.301-8.323,8.301h-8.485V21.803
	c0-9.981-2.701-13.16-11.651-13.16c-8.947,0-11.653,3.176-11.653,13.16v18.651H-8.16c-4.576,0-8.301-3.733-8.301-8.301V-8.149
	c0-4.568,3.725-8.301,8.301-8.301h40.296c4.6,0,8.323,3.733,8.323,8.301V32.152z M11.597-7.792c-3.744,0-6.744,2.984-6.744,6.731
	c0,3.749,3.003,6.747,6.744,6.747c3.747,0,6.744-2.997,6.744-6.747C18.341-4.805,15.341-7.792,11.597-7.792z"/>
</svg>
