<?xml version="1.0" encoding="utf-8"?>
<!-- Generator: Adobe Illustrator 18.1.0, SVG Export Plug-In . SVG Version: 6.00 Build 0)  -->
<svg version="1.1" id="Layer_1" xmlns="http://www.w3.org/2000/svg" xmlns:xlink="http://www.w3.org/1999/xlink" x="0px" y="0px"
	 width="64px" height="64px" viewBox="0 0 64 64" enable-background="new 0 0 64 64" xml:space="preserve">
<path fill="#545454" d="M52.1,0H11.8C5.3,0,0,5.3,0,11.9v40.3C0,58.7,5.3,64,11.8,64h40.3C58.7,64,64,58.7,64,52.2V11.9
	C64,5.3,58.7,0,52.1,0z M60.5,52.2c0,4.6-3.7,8.3-8.3,8.3h-8.5V41.8c0-10-2.7-13.2-11.7-13.2c-8.9,0-11.7,3.2-11.7,13.2v18.7h-8.5
	c-4.6,0-8.3-3.7-8.3-8.3V11.9c0-4.6,3.7-8.3,8.3-8.3h40.3c4.6,0,8.3,3.7,8.3,8.3v40.3H60.5z M31.6,12.2c-3.7,0-6.7,3-6.7,6.7
	s3,6.7,6.7,6.7s6.7-3,6.7-6.7C38.3,15.2,35.3,12.2,31.6,12.2z"/>
</svg>
