<?xml version="1.0" encoding="utf-8"?>
<!-- Generator: Adobe Illustrator 17.0.0, SVG Export Plug-In . SVG Version: 6.00 Build 0)  -->
<!DOCTYPE svg PUBLIC "-//W3C//DTD SVG 1.1//EN" "http://www.w3.org/Graphics/SVG/1.1/DTD/svg11.dtd">
<svg version="1.1" id="Layer_1" xmlns="http://www.w3.org/2000/svg" xmlns:xlink="http://www.w3.org/1999/xlink" x="0px" y="0px"
	 width="64px" height="64px" viewBox="0 0 64 64" enable-background="new 0 0 64 64" xml:space="preserve">
<path id="time-9-icon" d="M43.707,14.782l2.623-3.818l4.115,2.841l-2.611,3.8C46.562,16.531,45.18,15.583,43.707,14.782z
	 M28.215,6.14v5.963c1.234-0.192,2.498-0.291,3.785-0.291c1.263,0,2.503,0.096,3.715,0.28V6.14H28.215z M53.462,36.398
	c0,11.853-9.608,21.462-21.462,21.462c-11.853,0-21.462-9.609-21.462-21.462S20.146,14.936,32,14.936
	C43.853,14.936,53.462,24.545,53.462,36.398z M47.837,36.398c0-8.754-7.085-15.837-15.837-15.837
	c-8.754,0-15.837,7.085-15.837,15.837c0,8.754,7.085,15.837,15.837,15.837C40.754,52.235,47.837,45.151,47.837,36.398z
	 M36.158,37.528c0,2.174-1.763,3.938-3.938,3.938c-2.175,0-3.938-1.763-3.938-3.938c0-1.413,0.744-2.651,1.862-3.346l1.441-10.826
	c0.03-0.244,0.234-0.428,0.479-0.434c0.245-0.005,0.457,0.17,0.497,0.413l1.666,10.806C35.383,34.828,36.158,36.087,36.158,37.528z"
	/>
</svg>
