<?xml version="1.0" encoding="utf-8"?>
<!-- Generator: Adobe Illustrator 18.1.0, SVG Export Plug-In . SVG Version: 6.00 Build 0)  -->
<svg version="1.1" id="Layer_1" xmlns="http://www.w3.org/2000/svg" xmlns:xlink="http://www.w3.org/1999/xlink" x="0px" y="0px"
	 width="64px" height="64px" viewBox="0 0 64 64" enable-background="new 0 0 64 64" xml:space="preserve">
<path id="time-9-icon" fill="#444444" d="M46.5,10.8l3.2-4.7l5.1,3.5l-3.2,4.7C50,13,48.3,11.8,46.5,10.8z M27.3,0.1v7.4
	c1.5-0.2,3.1-0.4,4.7-0.4c1.6,0,3.1,0.1,4.6,0.3V0L27.3,0.1L27.3,0.1z M58.6,37.4C58.6,52.1,46.7,64,32,64
	C17.3,64,5.4,52.1,5.4,37.4c0-14.7,11.9-26.6,26.6-26.6C46.7,11,58.6,22.9,58.6,37.4z M51.6,37.4c0-10.8-8.8-19.6-19.6-19.6
	c-10.8,0-19.6,8.8-19.6,19.6S21.2,57,32,57C42.8,57,51.6,48.3,51.6,37.4z M37.1,38.8c0,2.7-2.2,4.9-4.9,4.9c-2.7,0-4.9-2.2-4.9-4.9
	c0-1.7,0.9-3.3,2.3-4.1l1.8-13.4c0-0.3,0.3-0.5,0.6-0.5c0.3,0,0.6,0.2,0.6,0.5l2.1,13.4C36.2,35.5,37.1,37.1,37.1,38.8z"/>
</svg>
