<?xml version="1.0" encoding="utf-8"?>
<!-- Generator: Adobe Illustrator 17.0.0, SVG Export Plug-In . SVG Version: 6.00 Build 0)  -->
<!DOCTYPE svg PUBLIC "-//W3C//DTD SVG 1.1//EN" "http://www.w3.org/Graphics/SVG/1.1/DTD/svg11.dtd">
<svg version="1.1" id="Layer_1" xmlns="http://www.w3.org/2000/svg" xmlns:xlink="http://www.w3.org/1999/xlink" x="0px" y="0px"
	 width="64px" height="64px" viewBox="224 224 64 64" enable-background="new 224 224 64 64" xml:space="preserve">
<path id="time-9-icon" fill="#444444" d="M267.707,238.782l2.623-3.818l4.115,2.841l-2.611,3.8
	C270.562,240.531,269.18,239.583,267.707,238.782z M252.215,230.14v5.963c1.234-0.192,2.498-0.291,3.785-0.291
	c1.263,0,2.503,0.096,3.715,0.28v-5.952H252.215z M277.462,260.398c0,11.853-9.608,21.462-21.462,21.462
	c-11.853,0-21.462-9.609-21.462-21.462c0-11.853,9.608-21.462,21.462-21.462C267.853,238.936,277.462,248.545,277.462,260.398z
	 M271.837,260.398c0-8.754-7.085-15.837-15.837-15.837c-8.754,0-15.837,7.085-15.837,15.837c0,8.754,7.085,15.837,15.837,15.837
	C264.754,276.235,271.837,269.151,271.837,260.398z M260.158,261.528c0,2.174-1.763,3.938-3.938,3.938
	c-2.175,0-3.938-1.763-3.938-3.938c0-1.413,0.744-2.651,1.862-3.346l1.441-10.826c0.03-0.244,0.234-0.428,0.479-0.434
	c0.245-0.005,0.457,0.17,0.497,0.413l1.666,10.806C259.383,258.828,260.158,260.087,260.158,261.528z"/>
</svg>
