<?xml version="1.0" encoding="utf-8"?>
<!-- Generator: Adobe Illustrator 18.1.0, SVG Export Plug-In . SVG Version: 6.00 Build 0)  -->
<svg version="1.1" id="Layer_1" xmlns="http://www.w3.org/2000/svg" xmlns:xlink="http://www.w3.org/1999/xlink" x="0px" y="0px"
	 viewBox="224 -224 64 64" enable-background="new 224 -224 64 64" xml:space="preserve">
<path id="time-9-icon" fill="#444444" d="M270.5-213.3l3.2-4.7l5.1,3.5l-3.2,4.7C274-211.1,272.3-212.3,270.5-213.3z M251.3-224v7.4
	c1.5-0.2,3.1-0.4,4.7-0.4c1.6,0,3.1,0.1,4.6,0.3v-7.4H251.3z M282.6-186.6c0,14.7-11.9,26.6-26.6,26.6c-14.7,0-26.6-11.9-26.6-26.6
	c0-14.7,11.9-26.6,26.6-26.6C270.7-213.1,282.6-201.2,282.6-186.6z M275.6-186.6c0-10.8-8.8-19.6-19.6-19.6
	c-10.8,0-19.6,8.8-19.6,19.6c0,10.8,8.8,19.6,19.6,19.6C266.8-167,275.6-175.7,275.6-186.6z M261.1-185.2c0,2.7-2.2,4.9-4.9,4.9
	c-2.7,0-4.9-2.2-4.9-4.9c0-1.7,0.9-3.3,2.3-4.1l1.8-13.4c0-0.3,0.3-0.5,0.6-0.5c0.3,0,0.6,0.2,0.6,0.5l2.1,13.4
	C260.2-188.5,261.1-186.9,261.1-185.2z"/>
</svg>
