<?xml version="1.0" encoding="utf-8"?>
<!-- Generator: Adobe Illustrator 18.1.0, SVG Export Plug-In . SVG Version: 6.00 Build 0)  -->
<svg version="1.1" id="Layer_1" xmlns="http://www.w3.org/2000/svg" xmlns:xlink="http://www.w3.org/1999/xlink" x="0px" y="0px"
	 width="64px" height="64px" viewBox="0 0 64 64" enable-background="new 0 0 64 64" xml:space="preserve">
<path id="refresh-3-icon" d="M50.2,14.3l-5.8,5.8C41.3,17,36.9,15,32.1,15c-9.6,0-17.4,7.8-17.4,17.4l0,0h6.7L10.8,43.1L0,32.3h6.6
	l0,0C6.6,18.2,18,6.8,32.1,6.8C39.2,6.8,45.6,9.7,50.2,14.3z M64,31.5L53.2,20.7L42.5,31.5h6.7l0,0c0,9.6-7.8,17.4-17.4,17.4
	c-4.8,0-9.1-1.9-12.3-5.1l-5.8,5.8c4.6,4.6,11,7.5,18.1,7.5C46,57,57.4,45.6,57.4,31.5l0,0H64L64,31.5z"/>
</svg>
