<?xml version="1.0" encoding="utf-8"?>
<!-- Generator: Adobe Illustrator 17.0.0, SVG Export Plug-In . SVG Version: 6.00 Build 0)  -->
<!DOCTYPE svg PUBLIC "-//W3C//DTD SVG 1.1//EN" "http://www.w3.org/Graphics/SVG/1.1/DTD/svg11.dtd">
<svg version="1.1" id="Layer_1" xmlns="http://www.w3.org/2000/svg" xmlns:xlink="http://www.w3.org/1999/xlink" x="0px" y="0px"
	 width="64px" height="64px" viewBox="224 224 64 64" enable-background="new 224 224 64 64" xml:space="preserve">
<path id="refresh-3-icon" d="M270.653,241.822l-4.656,4.657c-2.528-2.528-6.02-4.091-9.878-4.091
	c-7.715,0-13.969,6.257-13.969,13.972c0,0.002,0-0.002,0,0h5.426l-8.668,8.664l-8.659-8.664h5.314c0-0.001,0,0.001,0,0
	c0-11.352,9.203-20.558,20.555-20.558C261.795,235.801,266.933,238.102,270.653,241.822z M281.75,255.641l-8.659-8.665l-8.668,8.665
	h5.426c0,0.002,0-0.002,0,0c0,7.715-6.254,13.972-13.969,13.972c-3.857,0-7.35-1.564-9.878-4.091l-4.656,4.657
	c3.72,3.72,8.858,6.02,14.534,6.02c11.352,0,20.555-9.206,20.555-20.557c0-0.001,0,0.001,0,0L281.75,255.641L281.75,255.641z"/>
</svg>
