<?xml version="1.0" encoding="utf-8"?>
<!-- Generator: Adobe Illustrator 18.1.0, SVG Export Plug-In . SVG Version: 6.00 Build 0)  -->
<svg version="1.1" id="Layer_1" xmlns="http://www.w3.org/2000/svg" xmlns:xlink="http://www.w3.org/1999/xlink" x="0px" y="0px"
	 viewBox="0 0 64 64" enable-background="new 0 0 64 64" xml:space="preserve">
<path id="refresh-3-icon" d="M50.2,21.3l-5.8,5.8c-3.1-3.1-7.5-5.1-12.3-5.1c-9.6,0-17.4,7.8-17.4,17.4c0,0,0,0,0,0h6.7L10.8,50.1
	L0,39.3h6.6c0,0,0,0,0,0c0-14.1,11.4-25.5,25.5-25.5C39.2,13.8,45.6,16.7,50.2,21.3z M64,38.5L53.2,27.7L42.5,38.5h6.7c0,0,0,0,0,0
	c0,9.6-7.8,17.4-17.4,17.4c-4.8,0-9.1-1.9-12.3-5.1l-5.8,5.8c4.6,4.6,11,7.5,18.1,7.5C46,64,57.4,52.6,57.4,38.5c0,0,0,0,0,0
	L64,38.5L64,38.5z"/>
</svg>
