<?xml version="1.0" encoding="utf-8"?>
<!-- Generator: Adobe Illustrator 18.1.0, SVG Export Plug-In . SVG Version: 6.00 Build 0)  -->
<svg version="1.1" id="Layer_1" xmlns="http://www.w3.org/2000/svg" xmlns:xlink="http://www.w3.org/1999/xlink" x="0px" y="0px"
	 viewBox="0 0 64 64" enable-background="new 0 0 64 64" xml:space="preserve">
<path id="thumb-6-icon" d="M58.6,41.6c2.3-3.6,1.2-8.6-0.5-10.2c0.7-2,1.3-5.9-0.4-8.7c0,0-12.6,0-12.8,0c2-8.8,2.9-22.7-6-22.7
	c-4.9,0-6.1,4.4-7.5,8.8C25.7,26.9,12.2,27.1,4.1,28c0,6.4,0,20.7,0,27.9c12.4,0,18.6,1,29.3,5.6C44.6,66.3,58.5,64.8,57,52
	C59.9,49,59.8,44.4,58.6,41.6z M54.4,27c0.4,2.7-0.9,5.7-3.8,5.7h-5.3c-2,0-2.7-1.7-2.7-3c0-1.1,1-2.7,2.8-2.7H54.4z M8.9,51.4
	c0-6.5,0-11.4,0-19.1C24.5,31,32.3,21.5,35.5,11.4c1-3.1,1.3-7.4,4-6.6c2.9,0.9,2.8,9.2,0.6,17.3c-0.9,3.4-3.4,6.3-1.3,10.5
	c-3.8,1.3-5,7.8-1.8,10.5c-2.5,2.5-2.4,7.4,0.6,9.8c-1.2,1.4-1.6,2.9-1.5,4.6C30.9,55.7,21.9,51.4,8.9,51.4z M47.4,59.4h-4
	c-1.9,0-2.8-1.3-2.8-2.6c0-1.5,1-2.9,2.8-2.9h8.8C52.1,56,51.2,59.4,47.4,59.4z M50.4,50.6h-8c-1.9,0-2.8-1.7-2.8-2.9
	c0-1.2,0.9-2.9,2.8-2.9h12.2C55,47.7,53.6,50.6,50.4,50.6z M51.4,41.5h-9c-1.9,0-2.8-1.7-2.8-2.9c0-1.2,0.9-2.8,2.8-2.8h12.8
	C55.5,38.5,54.3,41.5,51.4,41.5z"/>
</svg>
