<?xml version="1.0" encoding="utf-8"?>
<!-- Generator: Adobe Illustrator 17.0.0, SVG Export Plug-In . SVG Version: 6.00 Build 0)  -->
<!DOCTYPE svg PUBLIC "-//W3C//DTD SVG 1.1//EN" "http://www.w3.org/Graphics/SVG/1.1/DTD/svg11.dtd">
<svg version="1.1" id="Layer_1" xmlns="http://www.w3.org/2000/svg" xmlns:xlink="http://www.w3.org/1999/xlink" x="0px" y="0px"
	 width="64px" height="64px" viewBox="224 224 64 64" enable-background="new 224 224 64 64" xml:space="preserve">
<path id="tools-2-icon" d="M277.289,271.49l-23.758-23.758c-1.142-1.142-1.731-2.731-1.606-4.341
	c0.236-3.051-0.813-6.183-3.146-8.516c-3.038-3.038-7.427-3.898-11.231-2.582l6.907,6.907c0.159,2.695-4.008,6.861-6.702,6.702
	l-6.907-6.907c-1.316,3.804-0.455,8.194,2.582,11.231c2.333,2.334,5.465,3.382,8.516,3.146c1.612-0.125,3.198,0.463,4.341,1.606
	l23.758,23.758c2.001,2.001,5.244,2.001,7.245,0C279.29,276.734,279.29,273.491,277.289,271.49z M273.417,276.911
	c-1.166,0-2.112-0.945-2.112-2.112c0-1.166,0.945-2.111,2.112-2.111c1.166,0,2.112,0.945,2.112,2.111
	C275.529,275.966,274.583,276.911,273.417,276.911z M258.55,247.502l12.25-12.25c2.505-2.505,6.566-2.505,9.071,0
	c2.505,2.505,2.505,6.566,0,9.071l-12.25,12.25l-2.221-2.221l11.694-11.694c0.361-0.361,0.361-0.946,0-1.307
	c-0.361-0.361-0.946-0.361-1.307,0l-11.694,11.694l-1.901-1.901l11.694-11.694c0.361-0.361,0.361-0.946,0-1.307
	c-0.361-0.361-0.946-0.361-1.307,0l-11.694,11.694L258.55,247.502z M252.114,266.054l-9.04,9.041
	c-0.49,0.49-0.903,1.052-1.224,1.666l-0.65,1.244l-4.503,2.3l-1.782-1.782l2.203-4.601l1.244-0.65
	c0.614-0.321,1.176-0.733,1.666-1.224l9.041-9.041L252.114,266.054z"/>
</svg>
