<?xml version="1.0" encoding="utf-8"?>
<!-- Generator: Adobe Illustrator 18.1.0, SVG Export Plug-In . SVG Version: 6.00 Build 0)  -->
<svg version="1.1" id="Layer_1" xmlns="http://www.w3.org/2000/svg" xmlns:xlink="http://www.w3.org/1999/xlink" x="0px" y="0px"
	 width="64px" height="64px" viewBox="0 0 64 64" enable-background="new 0 0 64 64" xml:space="preserve">
<g>
	<path d="M36.3,60.8c-2,2-4.8,3.2-7.8,3.2l0,0c-3,0-5.8-1.2-7.8-3.2l0,0c-1.9-1.9-3-4.4-3-7.3l0,0v-0.7V13.7c0-3.7,1.5-7.1,4-9.6
		l0,0C24.3,1.6,28,0,32,0l0,0c4,0,7.7,1.6,10.3,4.2l0,0c2.5,2.5,4,5.8,4,9.6l0,0v32.8V49h-4.9V13.8c0-2.4-1-4.5-2.6-6.1l0,0
		C37.2,6,34.7,4.9,32,4.9l0,0c-2.7,0-5.2,1.1-6.9,2.8l0,0c-1.6,1.6-2.6,3.8-2.6,6.1l0,0v39.1v0.7c0,1.5,0.6,2.8,1.6,3.8l0,0
		c1.1,1.1,2.6,1.8,4.4,1.8l0,0c1.7,0,3.3-0.7,4.4-1.8l0,0c1-1,1.6-2.3,1.6-3.8l0,0V26v-2.3c0-0.6-0.2-1-0.6-1.5l0,0
		c-0.4-0.4-1-0.7-1.8-0.7l0,0c-0.7,0-1.3,0.3-1.8,0.7l0,0c-0.4,0.4-0.6,0.9-0.6,1.5l0,0V49h-4.9V23.6c0-1.9,0.8-3.7,2.1-4.9l0,0
		c1.3-1.3,3.2-2.1,5.2-2.1l0,0c2,0,3.9,0.8,5.2,2.1l0,0c1.3,1.2,2.1,3,2.1,4.9l0,0v2.3v27.6C39.4,56.3,38.2,58.9,36.3,60.8
		L36.3,60.8L36.3,60.8L36.3,60.8z"/>
</g>
</svg>
