<?xml version="1.0" encoding="utf-8"?>
<!-- Generator: Adobe Illustrator 17.0.0, SVG Export Plug-In . SVG Version: 6.00 Build 0)  -->
<!DOCTYPE svg PUBLIC "-//W3C//DTD SVG 1.1//EN" "http://www.w3.org/Graphics/SVG/1.1/DTD/svg11.dtd">
<svg version="1.1" id="Layer_1" xmlns="http://www.w3.org/2000/svg" xmlns:xlink="http://www.w3.org/1999/xlink" x="0px" y="0px"
	 width="64px" height="64px" viewBox="388.945 563.275 64 64" enable-background="new 388.945 563.275 64 64" xml:space="preserve">
<g>
	<path d="M422.657,578.167v-1.308h1.711v-0.805c0-1.509,1.308-2.616,2.818-2.616c1.61,0,2.818,1.208,2.818,2.616v0.805h1.711v1.308
		H422.657z"/>
	<path d="M437.652,605.036c-3.321,0-6.038,2.717-6.038,6.038c0,3.321,2.717,6.038,6.038,6.038c3.321,0,6.038-2.717,6.038-6.038
		S440.973,605.036,437.652,605.036z M437.652,613.993c-1.61,0-2.918-1.308-2.918-2.918c0-1.61,1.308-2.918,2.918-2.918
		s2.918,1.308,2.918,2.918C440.57,612.685,439.262,613.993,437.652,613.993z"/>
	<path d="M402.832,605.036c-3.321,0-6.038,2.717-6.038,6.038c0,3.321,2.717,6.038,6.038,6.038s6.038-2.717,6.038-6.038
		C408.971,607.754,406.254,605.036,402.832,605.036z M402.832,613.993c-1.61,0-2.918-1.308-2.918-2.918
		c0-1.61,1.308-2.918,2.918-2.918s2.918,1.308,2.918,2.918C405.751,612.685,404.443,613.993,402.832,613.993z"/>
	<path d="M447.816,593.866c1.811,0.403,2.918,1.107,3.723,5.635l1.308,8.051c0.503,2.616-1.006,3.623-2.918,3.623h-4.428
		c0-4.327-3.522-7.95-7.849-7.95s-7.849,3.522-7.849,7.95h-19.12c0-4.327-3.522-7.95-7.849-7.95s-7.849,3.522-7.849,7.95h-3.723
		c-1.308,0-2.315-1.006-2.315-2.214v-26.668c0-1.409,1.107-2.617,2.516-2.617h41.058h6.742c1.811,0,3.12,0.906,3.824,2.516
		L447.816,593.866z M431.915,582.394v11.07h12.78l-4.428-11.07C440.167,582.394,431.915,582.394,431.915,582.394z M420.544,592.055
		v-6.742h-6.742v6.742h-6.843v6.742h6.742v6.742h6.742v-6.742h6.742v-6.742H420.544z"/>
</g>
</svg>
