<?xml version="1.0" encoding="utf-8"?>
<!-- Generator: Adobe Illustrator 17.0.0, SVG Export Plug-In . SVG Version: 6.00 Build 0)  -->
<!DOCTYPE svg PUBLIC "-//W3C//DTD SVG 1.1//EN" "http://www.w3.org/Graphics/SVG/1.1/DTD/svg11.dtd">
<svg version="1.1" id="Layer_1" xmlns="http://www.w3.org/2000/svg" xmlns:xlink="http://www.w3.org/1999/xlink" x="0px" y="0px"
	 width="64px" height="64px" viewBox="-20 -20 64 64" enable-background="new -20 -20 64 64" xml:space="preserve">
<path fill="#545454" d="M32.153-20H-8.134C-14.68-20-20-14.683-20-8.147v40.3C-20,38.686-14.683,44-8.134,44h40.289
	C38.686,44,44,38.688,44,32.153v-40.3C43.997-14.683,38.683-20,32.153-20z M40.443,32.15c0,3.581-2.312,6.632-5.504,7.781v-18.13
	c0-9.984-2.704-13.159-11.65-13.159c-7.237,0-10.349,2.155-11.29,8.216c-0.944-6.064-4.05-8.216-11.282-8.216
	c-8.96,0-11.658,3.179-11.658,13.159v18.127c-3.205-1.155-5.504-4.197-5.504-7.778v-40.3c0-4.568,3.723-8.301,8.312-8.301h40.289
	c4.568,0,8.29,3.733,8.29,8.301v40.3H40.443z M0.306-7.795c-3.741,0-6.738,2.987-6.738,6.736s2.997,6.746,6.738,6.746
	c3.744,0,6.741-2.997,6.741-6.746S4.05-7.795,0.306-7.795z M22.929-7.795c-3.747,0-6.744,2.987-6.744,6.736s2.997,6.746,6.744,6.746
	c3.741,0,6.738-2.997,6.738-6.746S26.67-7.795,22.929-7.795z"/>
</svg>
