<?xml version="1.0" encoding="utf-8"?>
<!-- Generator: Adobe Illustrator 18.1.0, SVG Export Plug-In . SVG Version: 6.00 Build 0)  -->
<svg version="1.1" id="Layer_1" xmlns="http://www.w3.org/2000/svg" xmlns:xlink="http://www.w3.org/1999/xlink" x="0px" y="0px"
	 width="64px" height="64px" viewBox="0 0 64 64" enable-background="new 0 0 64 64" xml:space="preserve">
<path fill="#545454" d="M52.2,0H11.9C5.3,0,0,5.3,0,11.9v40.3C0,58.7,5.3,64,11.9,64h40.3C58.7,64,64,58.7,64,52.2V11.9
	C64,5.3,58.7,0,52.2,0z M60.4,52.2c0,3.6-2.3,6.6-5.5,7.8V41.8c0-10-2.7-13.2-11.6-13.2c-7.2,0-10.3,2.2-11.3,8.2
	c-0.9-6.1-4.1-8.2-11.3-8.2c-9,0-11.7,3.2-11.7,13.2v18.1c-3.2-1.2-5.5-4.2-5.5-7.8V11.9c0-4.6,3.7-8.3,8.3-8.3h40.3
	c4.6,0,8.3,3.7,8.3,8.3L60.4,52.2L60.4,52.2z M20.3,12.2c-3.7,0-6.7,3-6.7,6.7s3,6.7,6.7,6.7s6.7-3,6.7-6.7S24,12.2,20.3,12.2z
	 M42.9,12.2c-3.7,0-6.7,3-6.7,6.7s3,6.7,6.7,6.7s6.7-3,6.7-6.7S46.7,12.2,42.9,12.2z"/>
</svg>
