<?xml version="1.0" encoding="utf-8"?>
<!-- Generator: Adobe Illustrator 17.0.0, SVG Export Plug-In . SVG Version: 6.00 Build 0)  -->
<!DOCTYPE svg PUBLIC "-//W3C//DTD SVG 1.1//EN" "http://www.w3.org/Graphics/SVG/1.1/DTD/svg11.dtd">
<svg version="1.1" id="Layer_1" xmlns="http://www.w3.org/2000/svg" xmlns:xlink="http://www.w3.org/1999/xlink" x="0px" y="0px"
	 width="64px" height="64px" viewBox="224 224 64 64" enable-background="new 224 224 64 64" xml:space="preserve">
<path id="thumb-6-icon" d="M277.318,263.707c1.877-2.93,0.925-6.938-0.401-8.214c0.532-1.623,1.006-4.717-0.345-6.949
	c0,0-10.141-0.007-10.273,0c1.638-7.039,2.358-18.237-4.803-18.237c-3.963,0-4.934,3.572-6.03,7.087
	c-4.534,14.535-15.329,14.68-21.837,15.407c0,5.157,0,16.635,0,22.419c9.951,0,14.952,0.822,23.505,4.46
	c8.99,3.823,20.126,2.675,18.897-7.642C278.424,269.677,278.354,265.927,277.318,263.707z M273.952,251.962
	c0.288,2.172-0.744,4.603-3.084,4.603h-4.245c-1.622,0-2.188-1.326-2.188-2.4c0-0.915,0.796-2.203,2.263-2.203H273.952z
	 M237.438,271.578c0-5.224,0-9.147,0-15.304c12.564-1.075,18.789-8.707,21.382-16.776c0.803-2.501,1.043-5.943,3.182-5.296
	c2.32,0.701,2.25,7.423,0.475,13.895c-0.758,2.763-2.769,5.084-1.06,8.403c-3.04,1.044-4.031,6.242-1.477,8.407
	c-2.027,1.982-1.965,5.943,0.499,7.839c-0.925,1.096-1.311,2.344-1.179,3.69C255.13,274.995,247.913,271.578,237.438,271.578z
	 M268.387,278.003h-3.178c-1.562,0-2.261-1.025-2.261-2.072c0-1.227,0.793-2.321,2.261-2.321h7.086
	C272.164,275.289,271.416,278.003,268.387,278.003z M270.744,270.93h-6.403c-1.562,0-2.261-1.35-2.261-2.32
	c0-0.971,0.699-2.322,2.261-2.322h9.81C274.427,268.604,273.317,270.93,270.744,270.93z M271.581,263.65h-7.24
	c-1.555,0-2.263-1.383-2.263-2.322c0-0.951,0.7-2.281,2.263-2.281h10.271C274.902,261.188,273.919,263.65,271.581,263.65z"/>
</svg>
