<?xml version="1.0" encoding="utf-8"?>
<!-- Generator: Adobe Illustrator 18.1.0, SVG Export Plug-In . SVG Version: 6.00 Build 0)  -->
<svg version="1.1" id="Layer_1" xmlns="http://www.w3.org/2000/svg" xmlns:xlink="http://www.w3.org/1999/xlink" x="0px" y="0px"
	 width="64px" height="64px" viewBox="0 0 64 64" enable-background="new 0 0 64 64" xml:space="preserve">
<path id="tools-2-icon" d="M58.5,51.2L28.9,21.7c-1.4-1.4-2.2-3.4-2-5.4c0.3-3.8-1-7.7-3.9-10.6c-3.8-3.8-9.2-4.8-14-3.2l8.6,8.6
	c0.2,3.3-5,8.5-8.3,8.3l-8.6-8.6c-1.6,4.7-0.6,10.2,3.2,14c2.9,2.9,6.8,4.2,10.6,3.9c2-0.2,4,0.6,5.4,2l29.5,29.5
	c2.5,2.5,6.5,2.5,9,0C60.9,57.8,60.9,53.7,58.5,51.2z M53.6,58c-1.4,0-2.6-1.2-2.6-2.6c0-1.4,1.2-2.6,2.6-2.6c1.4,0,2.6,1.2,2.6,2.6
	C56.3,56.8,55.1,58,53.6,58z M35.2,21.4L50.4,6.2c3.1-3.1,8.2-3.1,11.3,0c3.1,3.1,3.1,8.2,0,11.3L46.4,32.7l-2.8-2.8l14.5-14.5
	c0.4-0.4,0.4-1.2,0-1.6c-0.4-0.4-1.2-0.4-1.6,0L42.1,28.3l-2.4-2.4l14.5-14.5c0.4-0.4,0.4-1.2,0-1.6c-0.4-0.4-1.2-0.4-1.6,0
	L38.1,24.3L35.2,21.4z M27.2,44.5L15.9,55.7c-0.6,0.6-1.1,1.3-1.5,2.1l-0.8,1.5L8,62.2L5.8,60l2.7-5.7l1.5-0.8
	c0.8-0.4,1.5-0.9,2.1-1.5l11.2-11.2L27.2,44.5z"/>
</svg>
