<?xml version="1.0" encoding="utf-8"?>
<!-- Generator: Adobe Illustrator 18.1.0, SVG Export Plug-In . SVG Version: 6.00 Build 0)  -->
<svg version="1.1" id="Layer_1" xmlns="http://www.w3.org/2000/svg" xmlns:xlink="http://www.w3.org/1999/xlink" x="0px" y="0px"
	 viewBox="0 0 64 64" enable-background="new 0 0 64 64" xml:space="preserve">
<path id="umbrella-icon" d="M34.7,5.5V2.7C34.7,1.2,33.5,0,32,0c-1.5,0-2.7,1.2-2.7,2.7v2.8C10.9,6.9,1.7,20.4,0,31.9
	c5-7.1,16.4-7.1,21.3,0c4.9-7,16.1-7.2,21.1,0c5-7.1,16.6-7.1,21.6,0C62.3,20.4,53,7,34.7,5.5z M34.7,32.4V56c0,4.4-3.6,8-8,8
	s-8-3.6-8-8v-2.7H24V56c0,1.5,1.2,2.7,2.7,2.7s2.7-1.2,2.7-2.7V32.4C31.1,31.8,32.7,31.7,34.7,32.4z"/>
</svg>
