<?xml version="1.0" encoding="utf-8"?>
<!-- Generator: Adobe Illustrator 17.0.0, SVG Export Plug-In . SVG Version: 6.00 Build 0)  -->
<!DOCTYPE svg PUBLIC "-//W3C//DTD SVG 1.1//EN" "http://www.w3.org/Graphics/SVG/1.1/DTD/svg11.dtd">
<svg version="1.1" id="Layer_1" xmlns="http://www.w3.org/2000/svg" xmlns:xlink="http://www.w3.org/1999/xlink" x="0px" y="0px"
	 width="64px" height="64px" viewBox="224 224 64 64" enable-background="new 224 224 64 64" xml:space="preserve">
<path id="umbrella-icon" d="M258.146,234.662v-2.266c0-1.185-0.961-2.146-2.146-2.146c-1.185,0-2.146,0.961-2.146,2.146v2.257
	c-14.84,1.121-22.256,12.003-23.604,21.258c4-5.745,13.166-5.745,17.167,0c3.947-5.666,12.976-5.761,16.989,0
	c4-5.745,13.344-5.745,17.345,0C280.409,246.701,272.898,235.883,258.146,234.662z M258.146,256.336v18.976
	c0,3.554-2.882,6.438-6.437,6.438c-3.555,0-6.438-2.883-6.438-6.438v-2.146h4.292v2.146c0,1.182,0.963,2.146,2.146,2.146
	s2.146-0.964,2.146-2.146v-19.025C255.313,255.802,256.579,255.768,258.146,256.336z"/>
</svg>
