<?xml version="1.0" standalone="no"?> 
<!DOCTYPE svg PUBLIC "-//W3C//DTD SVG 1.1//EN" "http://www.w3.org/Graphics/SVG/1.1/DTD/svg11.dtd" >
<svg xmlns="http://www.w3.org/2000/svg">
<defs>
  <font id="nibdings" horiz-adv-x="100">
    <font-face font-family="nibdings"
      units-per-em="100" ascent="112"
      descent="-12" />
    <missing-glyph horiz-adv-x="0" />
    <glyph glyph-name="calendar"
      unicode="&#xE001;"
      horiz-adv-x="100" d=" M38.565625 54.196875H27.0609375V65.7015625H38.565625V54.196875zM55.946875 65.7015625H44.4421875V54.196875H55.946875V65.7015625zM73.3296875 65.7015625H61.825V54.196875H73.3296875V65.7015625zM38.565625 48.9046875H27.0609375V37.4000000000001H38.565625V48.9046875zM55.946875 48.9046875H44.4421875V37.4000000000001H55.946875V48.9046875zM73.3296875 48.9046875H61.825V37.4000000000001H73.3296875V48.9046875zM77.615625 88.928125C77.615625 86.96875 76.0265625 85.3796875 74.0671875 85.3796875C72.1078124999999 85.3796875 70.5187499999999 86.96875 70.5187499999999 88.928125V97.859375C70.5187499999999 99.81875 72.1078124999999 101.4078125 74.0671875 101.4078125C76.0265625 101.4078125 77.615625 99.81875 77.615625 97.859375V88.928125zM29.665625 97.875C29.665625 99.834375 28.0765625 101.4234375 26.1171875 101.4234375C24.15625 101.4234375 22.56875 99.834375 22.56875 97.875V88.94375C22.56875 86.984375 24.1578125 85.3953125 26.1171875 85.3953125C28.0765625 85.3953125 29.665625 86.984375 29.665625 88.94375V97.875zM81.9046875 92.69375V89.0578125C81.9046875 84.7359375 78.3890625 81.21875 74.065625 81.21875C69.74375 81.21875 66.2265625 84.734375 66.2265625 89.0578125V92.69375H33.9546875V89.0734375C33.9546875 84.7515625 30.4375 81.234375 26.115625 81.234375C21.79375 81.234375 18.2765625 84.75 18.2765625 89.0734375V92.69375H9.7640625V22.5765625H90.2328125V92.69375H81.9046875L81.9046875 92.69375zM82.421875 30.3890625H17.578125V73.840625H82.421875V30.3890625z" />
    <glyph glyph-name="close-circle-inverse"
      unicode="&#xE002;"
      horiz-adv-x="100" d=" M50 102.234375C27.7796875 102.234375 9.765625 84.2203125 9.765625 62S27.7796875 21.765625 50 21.765625C72.2203125 21.765625 90.234375 39.7796875 90.234375 62S72.2203125 102.234375 50 102.234375zM65.2578125 38.065625L50.1953125 53.128125L35.1328125 38.0640625L27.0421875 46.159375L42.1015625 61.2218749999999L27.040625 76.2828125L35.1359375 84.3734374999999L50.1953125 69.3156249999999L65.2515625 84.3749999999999L73.3484375000001 76.2828125L58.2890625000001 61.2218749999999L73.3500000000001 46.1625L65.2578125 38.065625z" />
    <glyph glyph-name="close-circle"
      unicode="&#xE003;"
      horiz-adv-x="100" d=" M90.234375 62C90.234375 39.7734375 72.2265625 21.765625 50 21.765625C27.7734375 21.765625 9.765625 39.7734375 9.765625 62S27.7734375 102.234375 50 102.234375C72.2265625 102.234375 90.234375 84.2265625 90.234375 62zM82.421875 62C82.421875 79.9296875 67.9109375 94.421875 50 94.421875C32.0703125 94.421875 17.578125 79.9109375 17.578125 62C17.578125 44.0703125 32.090625 29.578125 50 29.578125C67.9296875 29.578125 82.421875 44.0890624999999 82.421875 62zM63.5359375 41.1984375L50.390625 54.3421875000001L37.246875 41.1984375L30.1765625000001 48.26875L43.3218750000001 61.4125L30.1765625000001 74.5562500000001L37.246875 81.6265625000001L50.390625 68.4828125L63.5359375 81.6265625000001L70.60625 74.5562500000001L57.4625 61.4125L70.60625 48.26875L63.5359375 41.1984375z" />
    <glyph glyph-name="close"
      unicode="&#xE004;"
      horiz-adv-x="100" d=" M85.6234375 38.8375L62.453125 62.0046875L85.6203125 85.1734375L73.1625 97.6234375L49.9984375 74.45625L26.83125 97.6203125L14.3765625 85.1734375L37.5484375 62.003125L14.3796875 38.83125L26.8265625 26.3765625L50 49.5515625L73.1734375 26.3796875z" />
    <glyph glyph-name="document-inverse"
      unicode="&#xE005;"
      horiz-adv-x="100" d=" M63.0484375 102.175V82.546875H82.6765625L63.0484375 102.175zM82.75 75.7140625V21.765625H17.25V102.234375H56.215625V75.7140625H82.75z" />
    <glyph glyph-name="document"
      unicode="&#xE006;"
      horiz-adv-x="100" d=" M58.1671875 94.421875V77.6734375H74.9375V29.578125H25.0625V94.421875H58.1671875zM63.05 102.234375H17.25V21.765625H82.7515625V82.55625L63.05 102.234375z" />
    <glyph glyph-name="edit"
      unicode="&#xE007;"
      horiz-adv-x="100" d=" M74.09375 59.85625V21.765625H9.765625V86.0953125H47.825L40.0125 78.2875H17.5734375V29.575H66.284375V52.053125L74.09375 59.85625zM38.378125 65.175L53.1375000000001 50.4234375L33.6078125000001 46.003125L38.378125 65.175zM90.234375 87.0328125L57.759375 54.5765625L42.55 69.7781249999999L75.025 102.2343749999999L90.234375 87.0328125z" />
    <glyph glyph-name="envelope"
      unicode="&#xE008;"
      horiz-adv-x="100" d=" M9.8484375 91.803125V32.196875H90.1515625V91.803125H9.8484375zM80.65 83.990625L49.9203125 58.59375L19.275 83.990625H80.65zM82.3390625 40.009375H17.6609375V74.6796875L49.9140625 47.9578125L82.3390625 74.753125V40.009375z" />
    <glyph glyph-name="help-circle-inverse"
      unicode="&#xE009;"
      horiz-adv-x="100" d=" M50 102.234375C27.8015625 102.234375 9.765625 84.1984375 9.765625 62S27.8015625 21.765625 50 21.765625S90.234375 39.8015625 90.234375 62S72.1984375 102.234375 50 102.234375zM50.378125 35.2609374999999C47.2250000000001 35.2609374999999 44.703125 37.7828125 44.703125 40.9359374999998S47.225 46.6109374999998 50.378125 46.6109374999998C53.53125 46.6109374999998 56.053125 44.0890624999997 56.053125 40.9359374999998C56.1796875 37.7843749999999 53.6578125 35.2609374999999 50.378125 35.2609374999999zM54.91875 52.1624999999999V51.153125C54.91875 51.153125 46.3421875000001 51.153125 45.4593750000001 51.153125V52.1624999999999C45.4593750000001 55.0640624999999 45.8375000000001 58.846875 49.2437500000001 62C52.6500000000001 65.2796875000001 56.8109375000002 67.928125 56.8109375000002 71.9640624999999C56.8109375000002 76.5046874999999 53.6578125000002 78.775 49.7484375000002 78.775C43.1906250000002 78.775 42.8109375000002 71.9640624999999 42.6859375000002 70.45H33.6046875000002C33.8562500000002 77.5125 36.8843750000002 87.3515625 50.0015625000002 87.3515625C61.3531250000002 87.3515625 66.5234375000003 79.7843750000001 66.5234375000003 72.5953125000001C66.3968750000001 61.4953125 54.91875 59.478125 54.91875 52.1624999999999z" />
    <glyph glyph-name="help-circle"
      unicode="&#xE00A;"
      horiz-adv-x="100" d=" M50 94.421875C67.9171875 94.421875 82.421875 79.9203125 82.421875 62C82.421875 44.08125 67.9203125 29.578125 50 29.578125C32.08125 29.578125 17.578125 44.0796875 17.578125 62C17.578125 79.91875 32.078125 94.421875 50 94.421875M50 102.234375C27.7796875 102.234375 9.765625 84.2203125 9.765625 62S27.7796875 21.765625 50 21.765625C72.2203125 21.765625 90.234375 39.7796875 90.234375 62S72.2203125 102.234375 50 102.234375L50 102.234375zM50.3953125 37.8765625C47.5546875 37.8765625 45.25 40.18125 45.25 43.0234374999999C45.25 45.8640624999999 47.5546875 48.1671874999999 50.3953125 48.1671874999999C53.2375 48.1671874999999 55.540625 45.8640624999999 55.540625 43.0234374999999C55.540625 40.18125 53.2375 37.8765625 50.3953125 37.8765625zM54.440625 53.084375V52.159375C54.440625 52.159375 46.7265625 52.159375 45.959375 52.159375V53.084375C45.959375 55.703125 46.340625 59.0625 49.38125 61.984375C52.421875 64.90625 56.221875 67.31875 56.221875 70.96875C56.221875 75.003125 53.421875 77.1375 49.8921875 77.1375C44.0109375 77.1375 43.625 71.0375 43.48125 69.69375H35.2328125C35.453125 76.0546875 38.140625 84.953125 49.9421874999999 84.953125C60.16875 84.953125 64.7671875 78.103125 64.7671875 71.6796875C64.7671875 61.4546875 54.440625 59.678125 54.440625 53.084375z" />
    <glyph glyph-name="help"
      unicode="&#xE00B;"
      horiz-adv-x="100" d=" M50.6765625 21.765625C45.8203125 21.765625 41.88125 25.7046875 41.88125 30.5625C41.88125 35.4171875 45.8203125 39.35625 50.6765625 39.35625C55.534375 39.35625 59.471875 35.41875 59.471875 30.5625C59.4703125 25.7046875 55.5328125 21.765625 50.6765625 21.765625zM57.590625 47.7625V46.1796875C57.590625 46.1796875 44.4046875 46.1796875 43.0921875 46.1796875V47.7625C43.0921875 52.2390625 43.7453125 57.9828125 48.9421875 62.975C54.1406250000001 67.9687499999999 60.6359375 72.09375 60.6359375 78.33125C60.6359375 85.2281249999999 55.85 88.8749999999999 49.815625 88.8749999999999C39.7609375 88.8749999999999 39.103125 78.4468749999999 38.85625 76.1499999999999H24.7546875C25.1296875 87.0234374999999 29.7265625 102.2343749999999 49.9 102.2343749999999C67.3828125 102.2343749999999 75.2421875 90.5249999999999 75.2421875 79.5453124999999C75.24375 62.06875 57.590625 59.0328125 57.590625 47.7625z" />
    <glyph glyph-name="info-circle-inverse"
      unicode="&#xE00C;"
      horiz-adv-x="100" d=" M50 102.234375C27.7796875 102.234375 9.765625 84.2203125 9.765625 62C9.765625 39.7796875 27.7796875 21.765625 50 21.765625C72.2203125 21.765625 90.234375 39.7796875 90.234375 62C90.234375 84.2203125 72.2203125 102.234375 50 102.234375zM56.45 38.3203125H43.940625V67.6750000000001H56.45V38.3203125zM50.1953125 73.5453125C46.4671875 73.5453125 43.4453125 76.56875 43.4453125 80.2953125C43.4453125 84.0234375 46.4671875 87.0453125 50.1953125 87.0453125C53.9234375 87.0453125 56.9453125 84.021875 56.9453125 80.2953125C56.9453125 76.56875 53.9234375 73.5453125 50.1953125 73.5453125z" />
    <glyph glyph-name="info-circle"
      unicode="&#xE00D;"
      horiz-adv-x="100" d=" M50 94.421875C67.9171875 94.421875 82.421875 79.921875 82.421875 62C82.421875 44.08125 67.9203125 29.578125 50 29.578125C32.08125 29.578125 17.578125 44.078125 17.578125 62C17.578125 79.91875 32.078125 94.421875 50 94.421875M50 102.234375C27.7796875 102.234375 9.765625 84.2203125 9.765625 62C9.765625 39.7796875 27.7796875 21.765625 50 21.765625C72.2203125 21.765625 90.234375 39.7796875 90.234375 62C90.234375 84.2203125 72.2203125 102.234375 50 102.234375L50 102.234375zM55.825 40.209375H44.565625V66.9609375H55.825V40.209375zM50.1953125 72.49375C46.7734375 72.49375 43.9984375 75.26875 43.9984375 78.690625C43.9984375 82.1125 46.7734375 84.8875000000001 50.1953125 84.8875000000001C53.61875 84.8875000000001 56.3921875 82.1125 56.3921875 78.690625C56.3921875 75.26875 53.6171875 72.49375 50.1953125 72.49375z" />
    <glyph glyph-name="location"
      unicode="&#xE00E;"
      horiz-adv-x="100" d=" M50 102.234375C35.9234375 102.234375 24.5109375 90.8234375 24.5109375 76.7453125S35.665625 46.309375 50 21.7640625C64.334375 46.3078125000001 75.4875 62.6671875 75.4875 76.7453125S64.0765625 102.234375 50 102.234375zM50 68.2234375C44.9515625 68.2234375 40.859375 72.315625 40.859375 77.3640625C40.859375 82.4125 44.9515625 86.5046875 50 86.5046875S59.140625 82.4125 59.140625 77.3640625C59.140625 72.3171875 55.0484375 68.2234375 50 68.2234375z" />
    <glyph glyph-name="lock-circle-inverse"
      unicode="&#xE00F;"
      horiz-adv-x="100" d=" M50 102.234375C27.7796875 102.234375 9.765625 84.2203125 9.765625 62S27.7796875 21.765625 50 21.765625C72.2203125 21.765625 90.234375 39.778125 90.234375 62S72.2203125 102.234375 50 102.234375zM39.496875 73.3375C39.496875 79.34375 44.384375 84.23125 50.390625 84.23125C56.396875 84.23125 61.284375 79.34375 61.284375 73.3375V67.16875H56.3625V73.3375C56.3625 76.6296875 53.6828125 79.309375 50.390625 79.309375C47.0984375 79.309375 44.41875 76.6296875 44.41875 73.3375V67.16875H39.496875V73.3375L39.496875 73.3375zM64.959375 43.675H35.821875V64.215625H64.959375V43.675z" />
    <glyph glyph-name="lock"
      unicode="&#xE010;"
      horiz-adv-x="100" d=" M28.3859375 68.3796875V80.61875C28.3859375 92.5375 38.0828125 102.2328125 50 102.2328125C61.91875 102.2328125 71.6140625000001 92.5359375 71.6140625000001 80.61875V68.3796875H61.8484375000001V80.61875C61.8484375000001 87.153125 56.5328125000001 92.4671875 50 92.4671875S38.1515625 87.1515625 38.1515625 80.61875V68.3796875H28.3859375zM21.09375 62.5203125V21.765625H78.90625V62.5203125H21.09375z" />
    <glyph glyph-name="menu"
      unicode="&#xE011;"
      horiz-adv-x="100" d=" M90.234375 80.065625H9.765625V92.7609375H90.234375V80.065625zM90.234375 68.346875H9.765625V55.6515625H90.234375V68.346875zM90.234375 43.9328125H9.765625V31.2375H90.234375V43.9328125z" />
    <glyph glyph-name="pdf-inverse"
      unicode="&#xE012;"
      horiz-adv-x="100" d=" M53.684375 51.359375C53.94375 50.284375 53.9984375 48.63125 53.603125 47.546875C53.0890625 46.140625 52.0687499999999 45.4265625 50.571875 45.4265625H48.0171875V53.94375H50.0109375C51.9078125 53.94375 53.228125 53.246875 53.684375 51.359375zM36.1390625 54.14375H33.9453125V50.35625H36.1390625C37.08125 50.35625 38.015625 50.4671875 38.4546875 51.2671875000001C38.725 51.7625000000001 38.725 52.7359375 38.4546875 53.2312500000001C38.015625 54.0328125 37.0828125 54.14375 36.1390625 54.14375zM63.0484375 102.175V82.546875H82.6765625L63.0484375 102.175zM82.75 75.7140625V21.765625H17.25V102.234375H56.215625V75.7140625H82.75zM41.9171875 54.03125C41.2765625 55.975 39.484375 57.0890625 37 57.0890625H30.296875V42.2796874999999H33.94375V47.409375H37C39.490625 47.409375 41.2828125 48.528125 41.9171875 50.478125C42.2984375 51.646875 42.2984375 52.8765625 41.9171875 54.03125zM55.6078125 55.2515625C54.41875 56.4546875 52.753125 57.0890625 50.790625 57.0890625H44.3687499999999V42.2796874999999H50.790625C52.95 42.2796874999999 54.6562499999999 43.0046874999999 55.8624999999999 44.4328124999999C58.0921875 47.0765625 58.2203125 52.609375 55.6078125 55.2515625zM70.4828125 57.0890625H59.9218749999999V42.2796875H63.56875V48.1906250000001H69.559375V51.1359375H63.56875V53.9406250000001H70.4812499999999V57.0890625z" />
    <glyph glyph-name="pdf"
      unicode="&#xE013;"
      horiz-adv-x="100" d=" M58.1671875 94.421875V77.6734375H74.9375V29.578125H25.0625V94.421875H58.1671875zM63.05 102.234375H17.25V21.765625H82.7515625V82.55625L63.05 102.234375zM68.278125 59.66875H58.7734374999999V46.340625H62.0562499999999V51.6609375H67.4484375V54.3125H62.0562499999999V56.8375H68.278125V59.66875L68.278125 59.66875zM50.55625 59.66875H44.7765625V46.340625H50.55625C52.5 46.340625 54.0359375 46.9921875 55.1203125 48.278125C57.128125 50.6578125000001 57.2421875 55.6359375 54.8921875 58.0140625C53.821875 59.096875 52.3234375 59.66875 50.55625 59.66875zM48.0578125 56.8375H49.8515625C51.5609375 56.8375 52.7484375 56.2109375 53.1578125 54.5125C53.390625 53.5453125 53.440625 52.05625 53.084375 51.08125C52.621875 49.815625 51.703125 49.1734375 50.35625 49.1734375H48.0578125L48.0578125 56.8375L48.0578125 56.8375zM38.1453125 59.66875H32.1125V46.340625H35.3953125V50.9578125H38.1453125C40.3875 50.9578125 42 51.9640625 42.5703125 53.7203125C42.9125 54.771875 42.9125 55.8781249999999 42.5703125 56.9171874999999C41.99375 58.665625 40.38125 59.66875 38.1453125 59.66875zM35.39375 57.01875H37.36875C38.2171875 57.01875 39.0578125 56.91875 39.453125 56.1984375000001C39.696875 55.753125 39.696875 54.8765625000001 39.453125 54.4296875C39.0578125 53.709375 38.21875 53.6093750000001 37.36875 53.6093750000001H35.39375V57.01875L35.39375 57.01875z" />
    <glyph glyph-name="phone"
      unicode="&#xE014;"
      horiz-adv-x="100" d=" M52.0921875 80.54375L45.4140625 77.190625L34.521875 98.88125L41.1984375 102.234375L52.0921875 80.54375zM67.003125 50.8484375L60.3265625 47.4953125L71.21875 25.8046875L77.896875 29.1578125L67.003125 50.8484375zM41.540625 74.8515625L30.4828125 96.8734375C26.0015625 94.4796875 13.340625 88.9234375 31.959375 51.8453125C50.6625000000001 14.5984374999999 62.246875 21.4921875 67.1828125 23.7859375L56.1328125 45.7906250000001C49.0359375 42.2796875 34.5796875 71.08125 41.540625 74.8515625z" />
    <glyph glyph-name="plus-circle-inverse"
      unicode="&#xE015;"
      horiz-adv-x="100" d=" M50 102.234375C27.7796875 102.234375 9.765625 84.2203125 9.765625 62S27.7796875 21.765625 50 21.765625S90.234375 39.7796875 90.234375 62S72.2203125 102.234375 50 102.234375zM74.7265625 54.6890625H57.3109375V37.2734375H43.8609375V54.6890625H26.4453124999999V68.1390625000001H43.8609375V85.5546875000001H57.3109375V68.1390625000001H74.7265625V54.6890625z" />
    <glyph glyph-name="plus-circle"
      unicode="&#xE016;"
      horiz-adv-x="100" d=" M71.03125 55.6640625H56.140625V40.7734375H44.640625V55.6640625H29.75V67.1640625H44.640625V82.0546875H56.140625V67.1640625H71.03125V55.6640625zM90.234375 62C90.234375 39.7796875 72.2203125 21.765625 50 21.765625C27.7796875 21.765625 9.765625 39.7796875 9.765625 62S27.7796875 102.234375 50 102.234375C72.2203125 102.234375 90.234375 84.2203125 90.234375 62zM82.421875 62C82.421875 79.9203125 67.91875 94.421875 50 94.421875C32.0796875 94.421875 17.578125 79.91875 17.578125 62C17.578125 44.0796875 32.08125 29.578125 50 29.578125C67.9203125 29.578125 82.421875 44.08125 82.421875 62z" />
    <glyph glyph-name="plus"
      unicode="&#xE017;"
      horiz-adv-x="100" d=" M90.234375 73.2078125L61.2078125 73.2078125L61.2078125 102.234375L38.7921875 102.234375L38.7921875 73.2078125L9.765625 73.2078125L9.765625 50.7921875L38.7921875 50.7921875L38.7921875 21.765625L61.2078125 21.765625L61.2078125 50.7921875L90.234375 50.7921875z" />
    <glyph glyph-name="shopping-cart"
      unicode="&#xE018;"
      horiz-adv-x="100" d=" M86.9328125 27.3359374999999C82.7078125 27.3359374999999 79.2640625 23.89375 79.2640625 19.6671874999999S82.7062499999999 11.9984374999999 86.9328125 11.9984374999999S94.6015625 15.4406249999998 94.6015625 19.6671874999999S91.1578125 27.3359374999999 86.9328125 27.3359374999999zM26.2125 27.3359374999999C21.9875 27.3359374999999 18.54375 23.89375 18.54375 19.6671874999999S21.9859375 11.9984374999999 26.2125 11.9984374999999S33.88125 15.4406249999998 33.88125 19.6671874999999S30.4375 27.3359374999999 26.2125 27.3359374999999zM81.6125 58.3218749999999L99.296875 76.0062499999999V99.9499999999999H23.553125L19.1718750000001 111.9999999999998H6.3390625C3.209375 111.9999999999998 0.7046875 109.4968749999999 0.7046875 106.3656249999998C0.7046875 103.2359374999998 3.209375 100.7312499999999 6.3390625 100.7312499999999H11.034375L26.3703125 58.7906249999999L18.2328125 33.4390624999998H92.4109375C95.5406249999999 33.4390624999998 98.0453125 35.9421874999998 98.0453125 39.0734374999998C98.0453125 42.2031249999999 95.5406249999999 44.7078124999998 92.4109375 44.7078124999998H34.0390625L38.4203124999999 58.3234374999999H81.6125L81.6125 58.3218749999999z" />
    <glyph glyph-name="smartphone"
      unicode="&#xE019;"
      horiz-adv-x="100" d=" M65.396875 102.234375H34.603125C31.04375 102.234375 28.1578125 99.3484375 28.1578125 95.7890625V28.2109375C28.1578125 24.6515625 31.04375 21.765625 34.603125 21.765625H65.396875C68.95625 21.765625 71.8421875 24.6515625 71.8421875 28.2109375V95.7890625C71.8421875 99.3484375 68.95625 102.234375 65.396875 102.234375zM46.58125 96.33125H53.8078125C54.2390625 96.33125 54.5890625 95.98125 54.5890625 95.55S54.2390625 94.76875 53.8078125 94.76875H46.58125C46.15 94.76875 45.8 95.11875 45.8 95.55S46.15 96.33125 46.58125 96.33125zM50.1953125 25.465625C48.46875 25.465625 47.0703125 26.8640625 47.0703125 28.590625C47.0703125 30.3171875 48.46875 31.715625 50.1953125 31.715625C51.9203125 31.715625 53.3203125 30.3171875 53.3203125 28.590625C53.3203125 26.8640625 51.9203125 25.465625 50.1953125 25.465625zM66.94375 35.0953125H33.0578125V88.9046875H66.94375V35.0953125z" />
    <glyph glyph-name="tick-circle-inverse"
      unicode="&#xE01A;"
      horiz-adv-x="100" d=" M50 102.234375C27.7796875 102.234375 9.765625 84.2203125 9.765625 62S27.7796875 21.765625 50 21.765625S90.234375 39.7796875 90.234375 62S72.2203125 102.234375 50 102.234375zM43.1546875 40.328125L24.1453125 59.3421875L32.2390625 67.4375L43.153125 56.5203125L68.3515625 81.71875L76.4484375 73.6265625L43.1546875 40.328125z" />
    <glyph glyph-name="tick-circle"
      unicode="&#xE01B;"
      horiz-adv-x="100" d=" M90.234375 62C90.234375 39.7796875 72.2203125 21.765625 50 21.765625C27.7796875 21.765625 9.765625 39.7796875 9.765625 62S27.7796875 102.234375 50 102.234375C72.2203125 102.234375 90.234375 84.2203125 90.234375 62zM82.421875 62C82.421875 79.9203125 67.91875 94.421875 50 94.421875C32.0796875 94.421875 17.578125 79.91875 17.578125 62C17.578125 44.0796875 32.08125 29.578125 50 29.578125C67.9203125 29.578125 82.421875 44.08125 82.421875 62zM66.059375 79.2578125L43.38125 56.5796875L33.5578125 66.40625L26.2734375 59.1203125L43.38125 42.0078125L73.346875 71.9765625L66.059375 79.2578125z" />
    <glyph glyph-name="tick"
      unicode="&#xE01C;"
      horiz-adv-x="100" d=" M77.7765625 93.8390625L39.009375 55.071875L22.2171875 71.86875L9.765625 59.4140625L39.0109375 30.1609375L90.234375 81.3890625z" />
    <glyph glyph-name="warning-inverse"
      unicode="&#xE01D;"
      horiz-adv-x="100" d=" M50 96.84375L9.765625 27.15625H90.234375L50 96.84375zM46.1515625 70.890625H53.846875V47.5515625H46.1515625V70.890625L46.1515625 70.890625zM50 35.5140625C47.70625 35.5140625 45.846875 37.3734375 45.846875 39.6671875C45.846875 41.9609375 47.70625 43.8203125 50 43.8203125C52.29375 43.8203125 54.153125 41.9609375 54.153125 39.6671875C54.153125 37.3734375 52.29375 35.5140625 50 35.5140625z" />
    <glyph glyph-name="warning"
      unicode="&#xE01E;"
      horiz-adv-x="100" d=" M46.8625 66.90625H53.1359375V47.878125H46.8625V66.90625zM50 38.065625C48.1296875 38.065625 46.6140625 39.5812500000001 46.6140625 41.4515625C46.6140625 43.321875 48.1296875 44.8375 50 44.8375C51.8703125 44.8375 53.3859375 43.3218749999999 53.3859375 41.4515625C53.3859375 39.58125 51.8703125 38.065625 50 38.065625zM50 96.84375L9.765625 27.15625H90.234375L50 96.84375zM50 81.21875L76.703125 34.96875H23.296875L50 81.21875z" />
    <glyph glyph-name="ambulance"
      unicode="&#xE01F;"
      horiz-adv-x="100" d=" M52.675 88.7312499999999V90.7749999999999H55.3484375V92.0328124999998C55.3484375 94.3906249999999 57.3921875 96.1203124999998 59.7515625 96.1203124999998C62.2671875 96.1203124999998 64.1546875 94.2328124999999 64.1546875 92.0328124999998V90.7749999999999H66.828125V88.7312499999999H52.675z M76.1046875 46.7484375000001C70.915625 46.7484375000001 66.6703125 42.5031250000001 66.6703125 37.3140625C66.6703125 32.125 70.915625 27.8796875 76.1046875 27.8796875C81.29375 27.8796875 85.5390625 32.125 85.5390625 37.3140625S81.29375 46.7484375000001 76.1046875 46.7484375000001zM76.1046875 32.7531249999999C73.5890625 32.7531249999999 71.5453125 34.7968749999999 71.5453125 37.3124999999999C71.5453125 39.8281249999999 73.5890625 41.8718749999999 76.1046875 41.8718749999999S80.6640625 39.8281249999999 80.6640625 37.3124999999999C80.6640625 34.7968750000001 78.6203125 32.7531249999999 76.1046875 32.7531249999999z M21.6984375 46.7484375000001C16.509375 46.7484375000001 12.2640625 42.5031250000001 12.2640625 37.3140625C12.2640625 32.125 16.509375 27.8796875 21.6984375 27.8796875S31.1328125 32.125 31.1328125 37.3140625C31.290625 42.5015624999999 27.0453125 46.7484375000001 21.6984375 46.7484375000001zM21.6984375 32.7531249999999C19.1828125 32.7531249999999 17.1390625 34.7968749999999 17.1390625 37.3124999999999C17.1390625 39.8281249999999 19.1828125 41.8718749999999 21.6984375 41.8718749999999S26.2578125 39.8281249999999 26.2578125 37.3124999999999C26.259375 34.7968750000001 24.215625 32.7531249999999 21.6984375 32.7531249999999z M91.9859375 64.2015625C94.8156249999999 63.571875 96.5453125 62.471875 97.803125 55.396875L99.846875 42.8171874999999C100.6328125 38.7296875 98.275 37.1562499999999 95.2875 37.1562499999999H88.36875C88.36875 43.9171874999999 82.865625 49.5781249999999 76.1046875 49.5781249999999S63.840625 44.0749999999998 63.840625 37.1562499999999H33.965625C33.965625 43.9171874999999 28.4625 49.5781249999999 21.7015625 49.5781249999999S9.4375 44.0749999999998 9.4375 37.1562499999999H3.6203125C1.5765625 37.1562499999999 0.003125 38.7281249999998 0.003125 40.6156249999999V82.284375C0.003125 84.4859375 1.7328125000001 86.3734374999999 3.934375 86.3734374999999H68.0875H78.6218750000001C81.4515625 86.3734374999999 83.4968750000001 84.9578125 84.5968750000001 82.4421875L91.9859375 64.2015625zM67.140625 82.1265625V64.8296874999999H87.109375L80.190625 82.1265625C80.034375 82.1265625 67.140625 82.1265625 67.140625 82.1265625zM49.3734375 67.03125V77.565625H38.8390625V67.03125H28.1468749999999V56.4968750000001H38.68125V45.9625000000002H49.215625V56.4968750000001H59.75V67.03125H49.3734375z" />
    <glyph glyph-name="clock"
      unicode="&#xE020;"
      horiz-adv-x="100" d=" M76.9421875 52.4125H43.0828125V89.6703125H54.0046875V63.3359374999999H76.9421875V52.4125zM50 101.078125C28.4 101.078125 10.921875 83.596875 10.921875 62C10.921875 40.4 28.403125 22.921875 50 22.921875C71.6 22.921875 89.078125 40.403125 89.078125 62C89.078125 83.6 71.596875 101.078125 50 101.078125M50 112C77.6140625 112 100 89.6140625 100 62S77.6140625 12 50 12S0 34.3859375 0 62S22.3859375 112 50 112z" />
    <glyph glyph-name="dollar-circle-inverse"
      unicode="&#xE021;"
      horiz-adv-x="100" d=" M50 102.3125C27.7359375 102.3125 9.6875 84.2640625 9.6875 62S27.7359375 21.6875 50 21.6875S90.3125 39.7359375 90.3125 62S72.2640625 102.3125 50 102.3125zM53.6953125 43.1140625V38.4140625H46.9703125V42.6171875C43.7421875 42.8937500000001 39.48125 44.0640625 36.340625 45.7937500000001L38.565625 53.54375C42.121875 52.1562500000001 47.309375 50.4125 51.1468750000001 51.25C54.5031250000001 51.98125 55.3484375000001 54.9953125 51.3984375000001 56.696875C48.0625000000001 58.1953125 36.5812500000001 59.7609375 36.5812500000001 69.3625C36.5812500000001 73.340625 39.5625 78.80625 46.9703125000001 80.4234375V85.19375H53.6953125V80.8171875C56.5765625 80.61875 59.5171875 80.0875 62.9109375000001 79.025C62.5718750000001 77.5421875 61.1046875 71.1046875 61.1046875 71.1046875C58.7609375 71.9015625 54.9281250000001 73.296875 51.25 73.090625C46.7046875 72.834375 46.3796875 69.515625 49.44375 67.9828125C55.7296875000001 65.140625 64.8328125 62.7234375 64.8328125 54.2453125000001C64.8421875 47.6953125 59.7375 43.9640625 53.6953125 43.1140625z" />
    <glyph glyph-name="dollar-circle"
      unicode="&#xE022;"
      horiz-adv-x="100" d=" M50 102.3124999999999C72.34375 102.3124999999999 90.3125 84.3437499999999 90.3125 62S72.34375 21.6875000000001 50 21.6875000000001S9.6875 39.6562500000001 9.6875 62S27.65625 102.3124999999999 50 102.3124999999999M50 112C22.34375 112 0 89.6562500000001 0 62S22.34375 12 50 12S100 34.3437499999999 100 62S77.65625 112 50 112L50 112zM54.375 39.8124999999999V34.3437499999999H46.40625V39.34375C42.65625 39.6562500000001 37.6562499999999 41.0625 33.90625 43.09375L36.5625 52.1562499999999C40.7812499999999 50.5937499999999 46.875 48.4062499999999 51.40625 49.4999999999998C55.3125 50.4374999999999 56.4062499999999 53.8749999999998 51.7187499999999 55.9062499999999C47.8124999999999 57.6249999999999 34.21875 59.4999999999998 34.21875 70.9062499999999C34.21875 75.5937499999999 37.6562499999999 81.9999999999999 46.40625 83.8749999999998V89.4999999999999H54.375V84.3437499999999C57.8125 84.1874999999999 61.25 83.4062499999999 65.3125 82.15625C64.84375 80.4374999999999 63.1250000000001 72.78125 63.1250000000001 72.78125C60.3125 73.71875 55.7812500000001 75.4375 51.5625000000001 75.125C46.2500000000001 74.8124999999999 45.7812500000001 70.9062499999999 49.3750000000001 69.03125C56.7187500000001 65.75 67.5000000000002 62.78125 67.5000000000002 52.78125C67.5 45.1249999999999 61.5625000000001 40.75 54.375 39.8124999999999z" />
    <glyph glyph-name="dollar"
      unicode="&#xE023;"
      horiz-adv-x="100" d=" M48.4921875 69.325C44.871875 71.134375 45.303125 75.0125 50.6468750000001 75.3578125C54.95625 75.6156249999999 59.5234375 73.9781249999999 62.2812500000001 73.0312499999999C62.2812500000001 73.0312499999999 64.0046875000001 80.615625 64.4359375000001 82.3390624999999C60.4718750000002 83.6312499999999 56.9375000000002 84.2343749999999 53.5765625000002 84.4937499999999V89.578125H45.6484375000001V83.9765624999999C36.9437500000001 82.08125 33.4109375000001 75.6171874999999 33.4109375000001 70.9625C33.4109375000001 59.6734375 46.9421875000002 57.7765625 50.9062500000002 56.0531249999999C55.5593750000002 54.0703124999999 54.5265625000002 50.4515624999999 50.6484375000001 49.5890625C46.1671875000001 48.6406250000001 40.0484375000001 50.6234375000001 35.8250000000001 52.2609375000001L33.2390625000001 43.1250000000001C36.9453125000002 41.0562500000002 41.9437500000002 39.6781250000001 45.7359375000001 39.4187500000002V34.4203125000003H53.6640625000001V39.9359375000002C60.8171875000001 40.9703125000003 66.7640625000002 45.3656250000003 66.7640625000002 53.0359375000002C66.6765625 63.1203125 55.903125 65.9640624999999 48.4921875 69.325z" />
    <glyph glyph-name="flag"
      unicode="&#xE024;"
      horiz-adv-x="100" d=" M23.4765625 21.765625H14.46875V102.234375H23.4765625C23.4765625 102.234375 23.4765625 21.765625 23.4765625 21.765625zM85.5296875 96.2296875C85.5296875 96.2296875 79.85 91.221875 72.3812499999999 91.221875C60.6093749999999 91.221875 60.3453125 101.3625 46.6796874999999 101.3625C39.2906249999999 101.3625 32.4015624999999 97.9296875 29.4828124999999 95.428125C29.4828124999999 92.959375 29.4828124999999 53.0921875 29.4828124999999 53.0921875C33.6234374999999 55.9625 39.9171874999999 58.9796874999999 46.7265624999999 58.9796874999999C59.6328124999999 58.9796874999999 61.4421874999999 49.3343749999999 72.9453124999999 49.3343749999999C80.3749999999999 49.3343749999999 85.5312499999999 54.0937499999999 85.5312499999999 54.0937499999999L85.5296875 96.2296875L85.5296875 96.2296875z" />
    <glyph glyph-name="heartrate"
      unicode="&#xE025;"
      horiz-adv-x="100" d=" M40.6421875 20.5015625L50.56875 80.9984375L60.709375 37.45625C61.7171875 32.996875 67.9125 32.4890625 69.596875 36.7859375L78.784375 60.2671875C78.784375 60.2671875 83.225 49.9578125 84.0703125 48.1984375C84.909375 46.4390625 85.7921875 45.3046875 88.6546875 45.3046875H99.928125V54.6375H91.6875L82.8625 74.3796875C81.221875 78.20625 75.759375 78.125 74.2375 74.2421875L66.453125 54.334375L54.453125 107.490625C53.31875 112.5203125 46.1234375 112.2375 45.309375 107.215625L35.3578125 45.8046875L25.1796875 83.615625C24.0390625 88.13125 17.6703125 88.3875 16.2234375 83.909375L8.65 54.6234375H0V45.303125H12.3203125C14.0046875 45.303125 15.828125 46.6625 16.303125 48.278125L20.59375 63.6296875L31.5296875 20.11875C32.7625 15.1953125 39.834375 15.521875 40.6421875 20.5015625z" />
    <glyph glyph-name="hospital"
      unicode="&#xE026;"
      horiz-adv-x="100" d=" M90.234375 73.2078125L61.2078125 73.2078125L61.2078125 102.234375L38.7921875 102.234375L38.7921875 73.2078125L9.765625 73.2078125L9.765625 50.7921875L38.7921875 50.7921875L38.7921875 21.765625L61.2078125 21.765625L61.2078125 50.7921875L90.234375 50.7921875z" />
    <glyph glyph-name="megaphone"
      unicode="&#xE027;"
      horiz-adv-x="100" d=" M94.8296875 79.659375L83.3625 73.5859375L80.509375 78.9671875L91.9765625 85.040625L94.8296875 79.659375zM76.8875 84.9125L71.5 87.753125L77.69375 99.5L83.08125 96.659375L76.8875 84.9125zM98.78125 59.7671875L85.5796875 61.190625L86.234375 67.2453125L99.4625 65.821875L98.78125 59.7671875zM48.825 36.1L55.7953125 37.471875L53.0703125 28.5578125C52.575 26.9375 51.228125 25.7171875 49.5640625 25.3875L36.596875 22.7375C34.9890625 22.4203125 33.33125 22.9796875 32.2453125 24.2046875L25.815625 31.4921875L32.8234375 32.8703125L35.4859375 29.859375C36.203125 29.046875 37.303125 28.678125 38.3640625 28.8875L45.384375 30.3421875C46.490625 30.5578125 47.3796875 31.365625 47.709375 32.4453125L48.825 36.1zM11.378125 48.1328125C9.26875 46.0359375 6.4796875 44.753125 3.5125 44.5171875L0 44.2390625L9.3203125 26.703125L11.5125 29.4609375C13.3671875 31.7921875 15.9859375 33.3875 18.9078125 33.959375L86.5140625 47.2890625L60.2359375 96.7296875L11.378125 48.1328125z" />
    <glyph glyph-name="paper-clip"
      unicode="&#xE028;"
      horiz-adv-x="100" d=" M58.696875 20.2578125C55.86875 17.428125 51.9 15.6890625 47.5515625 15.6890625L47.5515625 15.6890625C43.2015625 15.6890625 39.23125 17.428125 36.403125 20.2578125L36.403125 20.2578125C33.7359375 22.9171875 32.05625 26.6046875 32.059375 30.6453125L32.059375 30.6453125V31.5734375L32.0578125 87.3484375C32.0546875 92.659375 34.259375 97.5015625 37.7765625 101.0078125L37.7765625 101.0078125C41.5078125 104.7421875 46.753125 107.04375 52.5140625 107.0453125L52.5140625 107.0453125C58.271875 107.04375 63.515625 104.74375 67.246875 101.009375L67.246875 101.009375C70.7640625 97.5 72.96875 92.659375 72.9671875 87.3484375L72.9671875 87.3484375V40.525V37.040625H65.9984375V87.35C65.9953125 90.7234375 64.6234375 93.7703125 62.31875 96.0828125L62.31875 96.0828125C59.871875 98.528125 56.4046875 100.0765625 52.5125 100.0765625L52.5125 100.0765625C48.6203125 100.0765625 45.1515625 98.528125 42.7015625 96.08125L42.7015625 96.08125C40.3984375 93.76875 39.028125 90.7234375 39.025 87.35L39.025 87.35V31.5734375V30.6453125C39.028125 28.540625 39.8765625 26.646875 41.328125 25.1859375L41.328125 25.1859375C42.8734375 23.6453125 45.065625 22.659375 47.55 22.6578125L47.55 22.6578125C50.0296875 22.659375 52.221875 23.64375 53.765625 25.1859375L53.765625 25.1859375C55.2171875 26.646875 56.065625 28.5390625 56.0703125 30.6453125L56.0703125 30.6453125L56.071875 70.1109375V73.415625C56.06875 74.2109375 55.759375 74.9140625 55.1828125 75.4984375L55.1828125 75.4984375C54.5703125 76.1109375 53.6890625 76.515625 52.6640625 76.515625L52.6640625 76.515625C51.6375 76.515625 50.75625 76.109375 50.1421875 75.5L50.1421875 75.5C49.5671875 74.9140625 49.2578125 74.2109375 49.2546875 73.415625L49.2546875 73.415625V37.040625H42.2859375V73.4125C42.28125 76.1484375 43.425 78.646875 45.215625 80.4265625L45.215625 80.4265625C47.1125 82.3265625 49.7703125 83.484375 52.665625 83.484375L52.665625 83.484375C55.55625 83.48125 58.2109375 82.325 60.1109375 80.4265625L60.1109375 80.4265625C61.8984375 78.646875 63.04375 76.1484375 63.040625 73.4140625L63.040625 73.4140625V70.1078125V30.6421875C63.0421875 26.609375 61.36875 22.928125 58.7109375 20.271875L58.7109375 20.271875C58.7078125 20.2671875 58.7015625 20.2625 58.696875 20.2578125L58.696875 20.2578125z" />
    <glyph glyph-name="settings"
      unicode="&#xE029;"
      horiz-adv-x="100" d=" M90.234375 56.58125V67.41875L84.378125 69.5015625C82.1453125000001 70.2953125 80.3500000000001 72 79.4421875 74.1890625C79.4421875 74.190625 79.4421875 74.190625 79.4406250000001 74.1921875C78.5312500000001 76.3859375 78.5937500000001 78.8640625 79.6140625000001 81.009375L82.28125 86.61875L74.6187500000001 94.28125L69.0093750000001 91.615625C66.8656250000001 90.596875 64.3843750000001 90.5328125 62.1921875000001 91.4421875C62.1906250000001 91.4421875 62.1906250000001 91.4421875 62.1890625000001 91.44375C59.9984375000001 92.3515625 58.2953125 94.1453125000001 57.5015625000001 96.3796875L55.41875 102.2359375H44.58125L42.4984375 96.3796875C41.7046875 94.146875 40 92.3515625 37.8109375 91.44375C37.809375 91.44375 37.809375 91.4421875 37.8078125 91.4421875C35.6140625 90.53125 33.1359375 90.5953125 30.990625 91.615625L25.38125 94.2828125L17.71875 86.6203125L20.3859375 81.0109375C21.4046875 78.8671875 21.46875 76.3859375 20.559375 74.1921875C20.559375 74.190625 20.5578125 74.190625 20.5578125 74.1890625C19.65 71.9984375 17.85625 70.296875 15.621875 69.5015625L9.765625 67.41875V56.58125L15.6203125 54.4984374999999C17.853125 53.7046875 19.6484375 51.9999999999999 20.55625 49.8109374999999C20.55625 49.809375 20.55625 49.809375 20.5578125 49.8078124999999C21.4671875 47.6125 21.4046875 45.1359374999999 20.384375 42.9906249999999L17.7171875 37.38125L25.3796875 29.71875L30.9890625 32.3859375C33.1328125000001 33.4046874999999 35.6140625000001 33.4687499999999 37.8078125000001 32.5593749999999C37.8093750000001 32.5593749999999 37.8093750000001 32.5593749999999 37.8109375000001 32.5578125C40.0015625 31.65 41.7031250000001 29.85625 42.4984375000001 27.621875L44.5812500000001 21.765625H55.41875L57.4875000000001 27.584375C58.2890625 29.8375 60.0078125 31.6515625 62.2171875 32.5703124999999C62.21875 32.5703124999999 62.21875 32.5718749999999 62.2203125 32.5718749999999C64.3937500000001 33.4749999999999 66.8484375 33.4140624999999 68.9734375000001 32.4031249999999L74.6187500000001 29.7203124999999L82.28125 37.3828124999999L79.6125 42.9953124999999C78.59375 45.1374999999999 78.53125 47.6156249999999 79.4390625 49.8078124999999C79.4390625 49.8093749999999 79.440625 49.8093749999999 79.440625 49.8109374999999C80.35 52.003125 82.1453125 53.7078125 84.3812499999999 54.5031249999999L90.234375 56.58125zM50 47.2453125C41.8515625 47.2453125 35.2453125 53.8515625 35.2453125 62C35.2453125 70.1484375000001 41.8515625 76.7546875000001 50 76.7546875000001C58.1484375 76.7546875000001 64.7546875 70.1484375000001 64.7546875 62C64.7546875 53.8515625 58.1484375 47.2453125 50 47.2453125z" />
    <glyph glyph-name="stopwatch"
      unicode="&#xE02A;"
      horiz-adv-x="100" d=" M68.2921875 88.903125L72.390625 94.86875L78.8203125 90.4296875L74.740625 84.4921875C72.753125 86.1703125 70.59375 87.6515625 68.2921875 88.903125zM44.0859375 102.40625V93.0890625C46.0140625 93.3890625000001 47.9890625 93.54375 50 93.54375C51.9734375 93.54375 53.9109375 93.39375 55.8046875 93.10625V102.40625H44.0859375zM83.534375 55.128125C83.534375 36.6078125 68.521875 21.59375 50 21.59375C31.4796875 21.59375 16.465625 36.6078125 16.465625 55.128125C16.465625 73.6484375 31.478125 88.6624999999999 50 88.6624999999999C68.5203125 88.6625 83.534375 73.6484375 83.534375 55.128125zM74.7453125 55.128125C74.7453125 68.80625 63.675 79.8734374999999 50 79.8734374999999C36.321875 79.8734374999999 25.2546875 68.8031249999999 25.2546875 55.128125C25.2546875 41.4499999999999 36.325 30.3828125 50 30.3828125C63.678125 30.3828125 74.7453125 41.4515625 74.7453125 55.128125zM56.496875 53.3625C56.496875 49.965625 53.7421875000001 47.209375 50.34375 47.209375C46.9453125 47.209375 44.1906250000001 49.9640625 44.1906250000001 53.3625C44.1906250000001 55.5703125 45.3531250000001 57.5046875 47.1000000000001 58.590625L49.3515625000001 75.50625C49.3984375000001 75.8875 49.7171875000001 76.175 50.1 76.184375C50.4828125 76.1921875 50.8140625 75.91875 50.8765625000001 75.5390624999999L53.4796875000001 58.6546875C55.2859375 57.58125 56.496875 55.6140625 56.496875 53.3625z" />
    <glyph glyph-name="switching"
      unicode="&#xE02B;"
      horiz-adv-x="100" d=" M72.8953125 84.153125L65.6203125 76.8765625C61.6703125 80.8265625 56.2140625000001 83.26875 50.1859375 83.26875C38.13125 83.26875 28.3593750000001 73.4921875 28.3593750000001 61.4375C28.3593750000001 61.434375 28.3593750000001 61.440625 28.3593750000001 61.4375H36.8375L23.29375 47.9L9.7640625 61.4375H18.0671875C18.0671875 61.4390624999999 18.0671875 61.4359375 18.0671875 61.4375C18.0671875 79.175 32.446875 93.559375 50.184375 93.559375C59.0546875 93.5609375 67.0828125 89.965625 72.8953125 84.153125zM90.234375 62.5609375L76.7046875 76.1L63.1609375 62.5609375H71.6390625C71.6390625 62.5578125 71.6390625 62.5640625 71.6390625 62.5609375C71.6390625 50.50625 61.8671875 40.7296875 49.8125 40.7296875C43.7859375 40.7296875 38.328125 43.1734375 34.378125 47.121875L27.103125 39.8453125C32.915625 34.0328125 40.94375 30.4390625000001 49.8125 30.4390625000001C67.55 30.4390625000001 81.9296875 44.8234375000001 81.9296875 62.5593750000001C81.9296875 62.5609375000001 81.9296875 62.5578125 81.9296875 62.5593750000001L90.234375 62.5609375L90.234375 62.5609375z" />
    <glyph glyph-name="thumbs-up"
      unicode="&#xE02C;"
      horiz-adv-x="100" d=" M83.309375 49.9578125C86.2421875 54.5359375 84.7546875 60.7984375 82.6828125 62.7921875C83.5140624999999 65.328125 84.2546874999999 70.1625 82.1437499999999 73.65C82.1437499999999 73.65 66.2984374999999 73.6609375 66.0921874999999 73.65C68.6515624999998 84.6484375 69.7765624999999 102.1453125 58.5874999999999 102.1453125C52.3953124999998 102.1453125 50.8781249999998 96.5640625 49.1656249999999 91.071875C42.0812499999999 68.3609375 25.2140624999999 68.134375 15.0453124999999 66.9984375C15.0453124999999 58.9406250000001 15.0453124999999 41.00625 15.0453124999999 31.96875C30.5937499999999 31.96875 38.4078124999999 30.684375 51.7718749999999 25.0000000000001C65.81875 19.0265625000001 83.2187499999999 20.8203125000001 81.2984374999999 36.9406250000001C85.0375 40.6296875 84.928125 46.4890625 83.309375 49.9578125zM78.05 68.309375C78.5 64.915625 76.8875 61.1171875 73.23125 61.1171875H66.5984375C64.0640625 61.1171875 63.1796875 63.1890625 63.1796875 64.8671875C63.1796875 66.296875 64.4234375 68.309375 66.715625 68.309375H78.05zM20.996875 37.659375C20.996875 45.821875 20.996875 51.9515625 20.996875 61.571875C40.628125 63.2515625 50.3546875 75.1765625 54.40625 87.784375C55.6609375 91.6921875 56.0359375 97.0703125 59.378125 96.059375C63.003125 94.9640625 62.89375 84.4609375 60.1203125000001 74.3484375C58.9359375000001 70.03125 55.79375 66.4046875 58.4640625000001 61.21875C53.7140625 59.5875 52.165625 51.465625 56.1562500000001 48.0828125C52.9890625000001 44.9859375 53.0859375000001 38.7968750000001 56.9359375000001 35.834375C55.4906250000001 34.121875 54.8875000000002 32.171875 55.0937500000002 30.06875C48.640625 32.3203125 37.3640625 37.659375 20.996875 37.659375zM69.3546875 27.6203125H64.3890625C61.9484375 27.6203125 60.85625 29.221875 60.85625 30.8578125C60.85625 32.775 62.0953125 34.4843750000001 64.3890625 34.4843750000001H75.4609375C75.25625 31.8609375 74.0875 27.6203125 69.3546875 27.6203125zM73.0375000000001 38.671875H63.0328125C60.5921875 38.671875 59.5 40.78125 59.5 42.296875C59.5 43.8140625 60.5921875 45.925 63.0328125 45.925H78.3609375C78.7921875 42.30625 77.0578125 38.671875 73.0375000000001 38.671875zM74.3453125 50.046875H63.0328125C60.603125 50.046875 59.4968750000001 52.2078125 59.4968750000001 53.675C59.4968750000001 55.1609375000001 60.590625 57.2390625000001 63.0328125 57.2390625000001H79.08125C79.534375 53.89375 77.9984375 50.046875 74.3453125 50.046875z" />
    <glyph glyph-name="tools"
      unicode="&#xE02D;"
      horiz-adv-x="100" d=" M83.2640625 37.796875L46.1421875 74.91875C44.3578125 76.703125 43.4375 79.1859375 43.6328125 81.7015625C44.0015625 86.46875 42.3625 91.3625 38.7171875 95.0078125C33.9703125 99.7546875 27.1125 101.0984375 21.16875 99.0421875L31.9609375 88.25C32.209375 84.0390625 25.6984375 77.5296875 21.4890625 77.778125L10.696875 88.5703125C8.640625 82.6265625 9.9859375 75.7671875 14.73125 71.021875C18.3765625 67.375 23.2703125 65.7375 28.0375 66.10625C30.55625 66.3015625 33.034375 65.3828125 34.8203125 63.596875L71.9421875 26.475C75.06875 23.3484375 80.1359375000001 23.3484375 83.2625 26.475C86.390625 29.603125 86.390625 34.6703125 83.2640625 37.796875zM77.2140625 29.3265625C75.3921875 29.3265625 73.9140624999999 30.803125 73.9140624999999 32.6265625C73.9140624999999 34.4484375 75.3906249999999 35.925 77.2140625 35.925C79.0359375 35.925 80.5140625 34.4484375 80.5140625 32.6265625C80.5140625 30.803125 79.0359375000001 29.3265625 77.2140625 29.3265625zM53.984375 75.278125L73.125 94.41875C77.0390625 98.3328125 83.384375 98.3328125 87.2984375000001 94.41875C91.2125000000001 90.5046875 91.2125000000001 84.159375 87.2984375000001 80.2453125L68.1578125000001 61.1046875L64.6875000000001 64.5750000000001L82.9593750000001 82.846875C83.5234375000001 83.4109375 83.5234375000001 84.325 82.9593750000001 84.8890625C82.3953125000001 85.453125 81.4812500000001 85.453125 80.9171875000001 84.8890625L62.6453125 66.6171875L59.675 69.5875L77.946875 87.859375C78.5109375 88.4234375 78.5109375 89.3375 77.946875 89.9015625C77.3828125000001 90.465625 76.46875 90.465625 75.9046875 89.9015625L57.6328125 71.6296875L53.984375 75.278125zM43.928125 46.290625L29.803125 32.1640625C29.0375 31.3984375 28.3921875 30.5203125 27.890625 29.5609375000001L26.875 27.6171875L19.8390625 24.0234375L17.0546875 26.8078125L20.496875 33.996875L22.440625 35.0124999999999C23.4 35.5140625 24.278125 36.1578124999999 25.04375 36.9249999999999L39.1703125 51.0515624999999L43.928125 46.290625z" />
    <glyph glyph-name="umbrella"
      unicode="&#xE02E;"
      horiz-adv-x="100" d=" M53.353125 95.340625V98.88125C53.353125 100.7328125 51.8515625 102.234375 50 102.234375C48.1484375 102.234375 46.646875 100.7328124999999 46.646875 98.88125V95.3546875C23.459375 93.603125 11.871875 76.6 9.765625 62.1390625C16.015625 71.115625 30.3375 71.115625 36.5890625 62.1390625C42.75625 70.9921874999999 56.8640625000001 71.1406249999999 63.134375 62.1390625C69.384375 71.115625 83.984375 71.115625 90.2359375 62.1390625C88.1390625 76.5296875 76.4031250000001 93.4328125 53.353125 95.340625zM53.353125 61.475V31.825C53.353125 26.271875 48.85 21.765625 43.2953125 21.765625C37.740625 21.765625 33.2359375 26.2703125 33.2359375 31.825V35.178125H39.9421875V31.825C39.9421875 29.978125 41.446875 28.471875 43.2953125 28.471875S46.6484375 29.978125 46.6484375 31.825V61.5515625C48.9265625 62.309375 50.9046875 62.3625 53.353125 61.475z" />
    <glyph glyph-name="arrow"
      unicode="&#xE02F;"
      horiz-adv-x="100" d=" M54.740625 97.6640625L45.1921875 88.1609375L64.13125 69.1328125L9.765625 69.1328125L9.765625 54.8671875L64.13125 54.8671875L45.1921875 35.8390625L54.740625 26.3359375L90.234375 62z" />
    <glyph glyph-name="chevron-circle-inverse"
      unicode="&#xE030;"
      horiz-adv-x="100" d=" M50 102.234375C27.7796875 102.234375 9.765625 84.2203125 9.765625 62S27.7796875 21.765625 50 21.765625C72.2203125 21.765625 90.234375 39.7796875 90.234375 62S72.2203125 102.234375 50 102.234375zM44.5875 35.8484375L37.5859375 42.8171874999999L56.6796875 62L37.5859375 81.184375L44.5875 88.153125L70.615625 62L44.5875 35.8484375z" />
    <glyph glyph-name="chevron-circle"
      unicode="&#xE031;"
      horiz-adv-x="100" d=" M17.578125 62C17.578125 44.0796875 32.08125 29.578125 50 29.578125C67.9203125 29.578125 82.421875 44.08125 82.421875 62C82.421875 79.9203125 67.91875 94.421875 50 94.421875C32.0796875 94.421875 17.578125 79.91875 17.578125 62zM90.234375 62C90.234375 39.7796875 72.2203125 21.765625 50 21.765625C27.7796875 21.765625 9.765625 39.7796875 9.765625 62S27.7796875 102.234375 50 102.234375C72.2203125 102.234375 90.234375 84.2203125 90.234375 62zM39.053125 79.0703125L45.3546875 85.340625L68.7796875 61.803125L45.3546875 38.265625L39.053125 44.5359375L56.2375 61.8015625L39.053125 79.0703125z" />
    <glyph glyph-name="chevron"
      unicode="&#xE032;"
      horiz-adv-x="100" d=" M27.4703125 88.1921875000001L37.015625 97.6249999999999L72.5296875 62L37.015625 26.3749999999999L27.4703125 35.8078125L53.5515625 62z" />
    <glyph glyph-name="beard"
      unicode="&#xE033;"
      horiz-adv-x="100" d=" M-192 112H-7V13H-192z M0 148H100V118H0z M8 126.5L9 125.5L19 125.5L18 126.5z M-179 95.5L-178 94.5L-161 94.5L-162 95.5z M-170.802 80.682H-162.081V72.04H-170.802z M-164.455 69.688H-159.708V74.391H-164.455V69.688zM-159.266 69.251H-164.896V74.83H-159.266V69.251L-159.266 69.251zM-166.221 67.938H-157.942V76.141H-166.221V67.938L-166.221 67.938zM-157.5 67.5H-166.663V76.579H-157.5V67.5L-157.5 67.5z M-166.149 67.867L-166.292 68.009L-158.013 76.213L-157.871 76.071z M-179 54H-144V21.5H-179z M-136.5 54H-101.5V21.5H-136.5z M-94 54H-59V21.5H-94z M-50 54H-15V21.5H-50z M-126.514 77.185H-116.253V67H-126.514z M-126.477 80.234H-125.955V77.897H-126.477z M-116.812 80.234H-116.289V77.897H-116.812z M-127 79.663H-115.767V79.091H-127z M-83.805 78.156H-73.5V68H-83.805z M-76.809 83.293H-73.501V80.032H-76.809z M-178.5 89.5H-148.5V59.5H-178.5z M-136.5 89.5H-106.5V59.5H-136.5z M-93.5 89.5H-63.5V59.5H-93.5z M-49.5 89.5H-19.5V59.5H-49.5z M29 74C29 74 27 88 47 84C47 84 49 82 45 81C45 81 36 84 33 79C33 79 32 73 29 74z M55 82C55 82 50 84 56 87C56 87 66 93 68 86C68 86 65 89 55 82z M54 67C54 67 57.5 62 53.5 62C53.5 62 50.75 59 43.75 56C43.75 56 39.875 53 47.875 46C47.875 46 54.937 48 55.937 50C55.937 50 57.968 54 54.968 55C54.968 55 49.984 56 54.984 59C54.984 59 63.992 62 61.992 57C61.992 57 64.246 48 69.246 51C69.246 51 70.5 52 67.5 60C67.5 60 67.5 61 67.5 62C67.5 62 66.5 60 58.5 63C58.5 63 55.75 67 56.75 67C56.75 67 61.875 69 70.875 65C70.875 65 71.937 62 71.937 56C71.937 56 73.968 65 74.968 67C74.968 67 75.984 74 71.984 78C71.984 78 68.992 86 68.992 87C68.992 87 69.996 87 67.996 91C67.996 91 58.998 103 51.998 103C51.998 103 32 92 25 78L28.25 60L36.5 54V53C36.5 53 36.5 64 54 67z M22.75 90.25C22.75 90.25 16.875 84.625 15.875 81.625L19.937 85.813C19.937 85.813 12.968 70.907 15.968 67.907C15.968 67.907 15.984 74.204 17.984 74.204C17.984 74.204 19 62.501 14 60.501H15.5V62C15.5 62 14.5 55 15.5 54C15.5 54 8.75 43 10.75 42C10.75 42 10.875 39 16.875 42C16.875 42 16.937 38 10.937 37C10.937 37 15.968 32 18.968 34C18.968 34 18.109 21 21.984 17C21.984 17 31.992 32 32.992 33C32.992 33 38.996 21 62.996 25C62.996 25 71.998 27 76.998 37C76.998 37 83 31 89 34L87 36C87 36 78 36 79 40C79 40 85 36.625 86 39.25C86 39.25 86 47.5 83 47.5S84 47.5 84 47.5S84 52.5 82 54.5S81 55.75 81 55.75L87 55.375L84 58.937C84 58.937 91 59.968 90 60.968S90 59.984 90 59.984S81 62.242 82 63.242C82 63.242 86 63.5 86 67.5S85 67.5 85 67.5S81 64.5 80 65.5S79 66.75 79 66.75S83 69.875 81 71.875S80 71.937 80 71.937S75 79.968 77 82.968C77 82.968 74 96.984 67 97.984C67 97.984 59 105.992 59 106.992C59 106.992 54 111.996 33 107.996C33 107.996 21.5 94.5 22.75 90.25z M87.945 34.732C87.829 34.762 87.716 34.769 87.602 34.787C87.574 34.973 87.462 35.14 87.257 35.17C87.234 35.174 87.212 35.182 87.19 35.185C87.405 35.475 87.282 36.003 86.812 36C84.014 35.984 81.101 36.971 78.83 38.598C78.852 38.743 78.848 38.9 78.776 39.078C78.628 39.375 78.552 39.692 78.522 40.022C78.621 40.058 78.72 40.09 78.816 40.131C78.851 40.126 78.886 40.123 78.921 40.117C79.644 40.004 80.286 39.808 80.932 39.473C82.239 38.793 84.63 37.555 85.774 39.157C86.856 40.671 85.712 42.99 85.382 44.598C85.126 45.843 84.324 46.618 83.317 47.04C83.991 48.184 83.646 50.09 83.06 51.326C83.218 51.545 83.298 51.824 83.213 52.138C82.993 52.952 82.543 53.531 81.963 54.007C81.682 54.555 81.445 55.14 81.21 55.705C81.397 55.724 81.578 55.78 81.731 55.872C83.005 55.755 84.278 55.602 85.561 55.622C86.027 55.629 86.183 56.148 85.915 56.476C85.195 57.355 84.212 57.967 83.483 58.828C83.572 58.839 83.66 58.848 83.749 58.858C84.931 58.999 86.013 59.476 87.187 59.623C87.339 59.643 87.454 59.717 87.534 59.815C88.139 59.816 88.128 60.771 87.5 60.81C85.489 60.935 83.572 61.84 81.845 62.864C81.991 63.097 82.066 63.363 82.067 63.635C82.142 63.614 82.224 63.608 82.321 63.641C82.543 63.717 82.748 63.825 82.951 63.931C83.266 63.801 83.597 63.785 83.946 63.891C84.245 63.982 84.334 64.255 84.278 64.493C84.381 64.493 84.479 64.492 84.563 64.499C84.933 64.528 85.084 64.874 85.025 65.152C85.145 65.211 85.258 65.281 85.383 65.329C85.816 65.496 85.794 66.047 85.521 66.25C85.528 66.258 85.536 66.263 85.542 66.271C85.685 66.444 85.686 66.643 85.615 66.808C85.665 66.833 85.707 66.87 85.759 66.892C86.344 67.139 86.087 68.107 85.493 67.857C84.841 67.582 84.37 67.133 83.845 66.67C83.138 66.047 82.099 65.841 81.189 65.749C80.931 65.724 80.783 65.543 80.733 65.343C80.129 65.726 79.511 66.108 78.871 66.411C79.056 66.528 79.225 66.695 79.359 66.93C79.722 67.56 80.05 68.239 80.5 68.814C80.886 69.307 81.216 69.727 81.405 70.335C81.868 71.827 80.453 72.976 79.089 72.912C79.101 73.009 79.086 73.113 79.027 73.221C78.815 73.612 78.558 73.971 78.299 74.328C78.433 74.473 78.499 74.684 78.402 74.908C78.121 75.55 77.671 76.103 77.204 76.621C77.199 76.717 77.196 76.812 77.189 76.906C77.161 77.271 76.974 77.525 76.73 77.681C76.883 77.91 76.956 78.206 76.903 78.515C76.77 79.3 76.528 80.06 76.467 80.857C76.405 81.698 76.667 82.575 76.702 83.417C76.733 84.161 76.497 84.626 76.131 84.984C76.259 85.246 76.271 85.564 76.083 85.88C75.683 86.556 75.333 87.145 75.1 87.898C75.009 88.19 74.884 88.444 74.741 88.682C74.758 88.777 74.791 88.86 74.791 88.965C74.791 89.741 74.227 90.606 73.925 91.294C73.512 92.239 73.036 93.145 72.416 93.972C72.082 94.417 71.653 94.779 71.172 95.053C71.248 95.342 71.196 95.658 70.897 95.926C69.82 96.889 68.401 97.26 67.134 97.913C66.639 98.169 66.164 98.478 65.683 98.77C65.777 99.077 65.742 99.428 65.491 99.738C64.268 101.248 62.695 102.484 61.429 103.988C60.243 105.396 59.108 106.901 57.383 107.644C57.23 107.709 57.084 107.73 56.94 107.732C56.513 107.932 56.071 108.084 55.616 108.17C55.51 108.439 55.304 108.666 54.984 108.744C54.023 108.98 53.062 109.426 52.062 109.468C50.5 109.533 48.962 109.406 47.421 109.744C47.034 109.829 46.728 109.694 46.509 109.473C46.484 109.472 46.457 109.47 46.431 109.469C46.271 109.634 46.048 109.748 45.749 109.748C41.857 109.746 37.335 109.365 33.679 107.977C32.17 107.405 31.434 105.585 30.288 104.588C28.825 103.317 28.158 101.998 27.61 100.203C27.501 100.126 27.393 100.047 27.292 99.955C27.274 99.939 27.271 99.92 27.254 99.904C24.864 98.252 23.402 95.699 23.004 92.818C22.906 92.11 22.837 91.119 22.881 90.116C22.877 90.114 22.873 90.113 22.869 90.111C21.49 89.228 19.074 87.406 19.41 85.576C19.453 85.341 19.674 85.107 19.955 84.882C19.595 84.049 19.111 83.314 18.809 82.473C18.065 82.539 17.285 81.801 17.824 81.025C17.871 80.958 17.979 80.839 18.08 80.716C17.835 80.444 17.559 80.201 17.471 79.785C17.295 78.962 17.201 78.118 17.061 77.287C17.049 77.219 17.042 77.161 17.032 77.096C16.864 77.119 16.694 77.054 16.6 76.844C16.223 76.005 15.927 75.149 15.938 74.217C15.939 74.152 15.956 74.084 15.984 74.021C15.436 73.348 15.243 72.33 15.188 71.499C15.146 70.854 16.146 70.859 16.188 71.499C16.228 72.105 16.352 73.002 16.792 73.458C16.917 73.588 16.945 73.735 16.922 73.872C17.16 73.992 17.375 74.165 17.553 74.376C17.636 74.268 17.723 74.158 17.825 74.042C18.024 73.816 18.253 73.731 18.476 73.729C18.47 73.658 18.483 73.579 18.481 73.505C18.113 73.183 17.87 72.702 17.876 72.062C17.891 70.497 17.968 68.976 17.605 67.44C17.247 65.922 16.657 64.458 16.197 62.968C16.056 62.513 16.075 62.106 16.2 61.76C15.808 61.528 15.499 61.135 15.438 60.562C15.375 59.961 15.481 58.936 15.58 57.86C14.933 57.381 14.599 56.531 14.822 55.718C14.891 55.466 15.01 55.24 15.162 55.044C15.15 54.987 15.134 54.935 15.126 54.874C14.634 50.843 8.581 46.132 10.91 41.893C11.501 40.818 12.962 40.716 14.017 40.819C14.66 40.881 15.289 41.063 15.914 41.217C16.721 41.415 14.59 38.421 13.854 37.375C13.797 37.381 13.747 37.398 13.686 37.395C13.45 37.381 13.238 37.287 13.026 37.19C12.856 37.113 12.787 37.053 12.689 37.119C12.25 37.418 11.789 36.85 12.005 36.435C12.161 36.135 12.521 35.925 12.785 35.736C13.14 35.48 13.517 35.236 13.929 35.08C14.034 35.04 14.124 35.046 14.206 35.069C14.279 35.03 14.356 34.998 14.435 34.97C14.775 34.176 15.498 33.562 16.624 33.562C17.267 33.562 17.686 33.76 18.071 34.078C18.145 34.046 18.24 34.017 18.341 33.992C18.468 33.847 18.582 33.725 18.668 33.649C18.673 33.576 18.741 33.345 18.767 32.872C18.873 30.853 19.122 28.912 19.062 26.875C19.047 26.378 19.164 25.967 19.355 25.623C19.131 23.324 19.869 20.982 20.303 18.727C20.572 17.331 22.366 17.412 23.044 18.369C26.439 23.161 29.205 29.047 33.132 33.536C33.956 31.703 35.42 30.241 37.395 28.898C39.184 27.681 40.857 26.955 42.56 26.438C43.367 25.5 44.576 24.876 46.187 24.876C46.249 24.876 46.306 24.883 46.367 24.885C46.903 24.685 47.506 24.564 48.187 24.564C48.517 24.564 48.826 24.596 49.122 24.646C49.476 24.566 49.847 24.508 50.25 24.501C51.756 24.476 53.172 24.512 54.613 24.622C55.126 24.434 55.673 24.317 56.25 24.313C57.997 24.302 59.567 24.601 61.106 25.023C61.409 24.971 61.724 24.938 62.062 24.938C63.604 24.938 64.774 25.514 65.579 26.384C65.641 26.403 65.702 26.407 65.767 26.429C66.344 26.621 66.926 26.861 67.434 27.205C71.5 29.555 75.441 32.809 76.973 37.404C76.98 37.401 76.986 37.395 76.993 37.392C77.172 37.323 77.348 37.255 77.522 37.184C77.47 37.024 77.493 36.845 77.647 36.708C77.853 36.525 78.064 36.356 78.277 36.194C78.276 35.998 78.377 35.797 78.618 35.704C78.841 35.619 79.063 35.571 79.287 35.521C79.919 35.147 80.581 34.851 81.269 34.609C81.182 34.362 81.255 34.043 81.576 33.932C82.378 33.657 83.212 33.573 84.051 33.498C84.136 33.488 84.221 33.471 84.308 33.472C84.314 33.472 84.321 33.474 84.327 33.474C84.422 33.465 84.517 33.457 84.612 33.449C85.391 33.376 86.079 33.27 86.801 33.527C87.197 33.56 87.557 33.608 87.947 33.766C88.372 33.941 88.468 34.597 87.945 34.732zM73.804 62.231C73.746 62.05 73.743 61.871 73.765 61.694C73.398 61.301 73.286 60.707 73.424 60.185C73.168 59.494 72.951 58.795 72.837 58.039C72.629 57.976 72.417 57.928 72.211 57.856C71.828 57.722 71.793 57.289 71.973 57.041C71.952 57.017 71.926 56.997 71.912 56.97C71.733 56.598 71.753 56.25 71.899 55.963C71.913 55.12 72.027 54.308 71.781 53.494C71.79 54.996 71.722 56.497 71.697 58.001C71.898 58.044 72.069 58.197 72.062 58.468C72.008 60.451 71.758 62.642 70.737 64.187C70.979 64.468 70.858 65.031 70.375 65.031C70.269 65.031 70.187 64.998 70.115 64.952C69.427 65.623 68.502 66.077 67.25 66.187C67.095 66.201 66.98 66.151 66.9 66.07C65.765 66.761 64.115 67.028 62.882 67.326C61.521 67.655 59.669 67.642 58.29 67.367C58.105 67.33 57.98 67.247 57.879 67.147C57.671 67.107 57.467 67.056 57.273 66.982C56.9 66.838 56.807 66.455 57.052 66.146C57.333 65.792 57.515 65.311 57.703 64.828C57.684 64.667 57.741 64.513 57.873 64.409C58.144 63.775 58.485 63.206 59.159 63.006C60.487 62.613 61.763 62.166 63.122 61.886C64.214 61.66 66.437 61.283 67.519 62.16C67.501 61.545 67.522 60.931 67.676 60.327C67.827 59.734 68.235 59.2 68.412 58.602C68.42 58.577 68.431 58.555 68.438 58.53C68.201 58.375 68.062 58.023 68.3 57.74C69.637 56.145 69.75 53.463 69.932 51.411C67.973 51.026 65.63 50.186 64.474 51.76C64.228 52.095 63.928 52.313 63.608 52.449C63.044 54.045 62.428 55.409 62.162 56.01C62.063 56.234 61.932 56.414 61.778 56.559C62.427 57.714 61.913 59.54 60.227 59.617C60.011 59.698 59.772 59.751 59.498 59.751C59.021 59.751 58.635 59.613 58.334 59.391C58.305 59.394 58.278 59.408 58.248 59.408C57.835 59.408 57.495 59.345 57.215 59.172C56.887 59.348 56.484 59.479 55.998 59.479C55.543 59.479 55.196 59.278 54.948 58.957C54.848 58.927 54.759 58.892 54.67 58.848C54.463 58.798 54.264 58.726 54.051 58.602C53.112 58.054 52.783 56.808 53.334 55.867C53.832 55.017 54.891 54.686 55.785 55.033C56.311 54.179 56.748 53.391 57.117 52.553C56.772 52.233 56.53 51.783 56.498 51.192C56.34 48.269 51.003 46.933 48.18 45.962C48.031 46.212 47.831 46.436 47.571 46.607C47.175 46.867 46.776 47.089 46.379 47.303C46.411 47.562 46.349 47.838 46.144 48.087C44.945 49.544 43.639 51.173 43.499 53.13C43.476 53.458 43.458 54.359 43.588 55.039C43.703 55.065 43.822 55.116 43.942 55.204C45.32 56.211 46.939 56.85 48.269 57.923C49.801 59.16 51.372 60.473 53.004 61.579C54.039 62.28 54.934 62.205 55.184 63.64C55.344 64.566 54.881 65.382 54.188 65.925C54.225 66.454 53.921 66.967 53.25 66.88C46.557 66.01 37.66 61.635 36.589 54.193C35.097 55.491 33.291 56.326 31.806 57.635C30.611 58.688 29.69 59.544 28.247 60.114C28.157 60.175 28.063 60.228 27.971 60.283C27.439 62.979 26.95 65.673 26.75 68.38C26.701 69.033 26.402 69.519 25.989 69.84C26.031 72.224 25.914 74.68 25.008 76.515C24.989 76.552 24.954 76.582 24.932 76.619C25.1 77.621 25.325 78.608 25.739 79.563C25.869 79.863 25.933 80.181 25.929 80.488C26.573 81.031 26.943 81.801 27.443 82.51C27.737 82.787 28.001 83.092 28.239 83.469C28.337 83.623 28.372 83.773 28.378 83.918C28.95 84.024 29.2 84.55 29.129 85.043C30.077 85.96 31.101 86.815 31.927 87.829C32.083 88.021 32.148 88.251 32.151 88.479C33.204 89.478 34.334 90.407 35.475 91.266C35.752 91.475 35.876 91.757 35.894 92.04C37.151 92.663 38.322 93.677 39.444 94.328C39.858 94.568 39.977 94.958 39.909 95.319C40.801 95.836 41.631 96.498 42.611 96.821C43.157 97.001 43.34 97.486 43.28 97.931C43.877 98.248 44.494 98.524 45.1 98.827C46.04 99.298 46.796 100.098 47.767 100.508C48.062 100.632 48.249 100.847 48.346 101.092L48.361 101.098C49.166 101.434 49.883 101.866 50.6 102.359C51.779 103.171 52.887 103.077 54.22 102.91C54.227 102.909 54.232 102.912 54.239 102.912C55.406 102.375 56.632 101.976 57.755 101.292C58.544 100.811 59.225 100.076 59.966 99.516C60.657 98.993 61.383 98.574 62.018 97.991C62.055 97.841 62.122 97.699 62.233 97.579C62.981 96.773 63.878 96.13 64.691 95.393C65.122 95.003 65.476 94.581 65.875 94.197C65.902 94.082 65.957 93.963 66.046 93.843C66.877 92.725 67.805 91.676 68.599 90.538C68.515 90.395 68.457 90.239 68.472 90.066C68.491 89.841 68.515 89.633 68.602 89.425C68.752 89.064 69.028 88.787 69.381 88.715C69.384 88.691 69.378 88.669 69.383 88.644C69.518 87.867 69.365 87.207 69.316 86.441C69.25 85.42 69.773 84.294 70.123 83.368C70.503 82.364 70.713 81.05 71.509 80.264C71.506 80.15 71.523 80.028 71.571 79.895C71.823 79.21 71.931 78.466 72.263 77.812C72.633 77.083 73.075 76.407 73.515 75.718C73.714 75.406 73.999 75.272 74.288 75.258C74.488 74.594 74.819 73.988 75.026 73.3C75.252 72.552 75.105 71.81 75.386 71.096C75.267 70.894 75.172 70.674 75.115 70.437C74.859 69.357 75.028 67.88 75.43 66.856C75.437 66.837 75.45 66.825 75.456 66.806C73.871 66.117 74.222 63.54 73.804 62.231z" />
    <glyph glyph-name="fire"
      unicode="&#xE034;"
      horiz-adv-x="100" d=" M30.545 83.178C29.38 75.961 30.875 68.328 37.045 64.137C30.758 92.19 45.756 103.336 59.646 111C43.466 87.954 76.542 87.356 78.423 60.87C80.028 38.29 64.507 20.683 46.639 13C46.845 35.825 24.089 38.933 21.801 57.603C20.905 64.906 25.062 78.234 30.545 83.178z" />
    <glyph glyph-name="giraffe"
      unicode="&#xE035;"
      horiz-adv-x="100" d=" M17.6671875 62.5234375C17.6265625 62.6171875 17.5890625 62.5140625 17.6671875 62.5234375L17.6671875 62.5234375z M24.575 59.2390625C22.3671875 60.2578125 19.1609375 58.2625 17.28125 60.715625C16.0640625 62.3015625 17.8375 65.4984375 17.6671875 62.525C18.109375 59.81875 26.1546875 58.6234375 23.0875 62.9203125C22.8109375 64.34375 21.7703125 64.3109375 20.5046875 64.5296875C19.328125 64.7328125 14.696875 65.8640625 14.8875 67.040625C14.925 67.275 15.3109375 67.475 15.403125 67.49375C17.478125 67.878125 21.2875 63.8265625 22.8921875 65.63125C23.425 66.23125 23.16875 67.615625 23.4703125 68.471875C23.8 69.40625 25.175 70.2984375 25.3390625 71.05625C25.7671875 73.0359375 21.3625 75.91875 20.4921875 76.9234375C17.9734375 79.7453125 11.88125 84.3046875 6.8015625 84.975C5.671875 85.1234375 4.978125 85.2640625 6.0921875 84.715625C10.2109375 82.6890625 15.35625 79.8328125 18.8796875 77.1796875C21.009375 75.5765625 23.46875 72.88125 22.24375 70.1484375C20.90625 67.165625 15.559375 68.25625 13.7890625 69.9453125C12.059375 71.50625 11.428125 73.8359375 10.8125 76.459375C10.4203125 78.1328125 12.01875 77.575 12.16875 76.71875C12.3296875 75.803125 15.125 73.940625 16.3671875 73.884375C21.4640625 73.653125 16.7828125 76.4765625 16.10625 77.1109375C12.690625 80.3078125 7.4046875 83.0015625 2.0921875 84.903125C1.16875 85.234375 2.303125 77.165625 2.425 76.5140625C3.0265625 73.303125 5.709375 72.3078125 7.53125 69.9375C9.0015625 68.025 11.0125 65.1390625 13.0234375 63.9421875C13.4203125 63.0859375 14.421875 62.35 14.9625 61.4265625C16.2765625 58.1828125 19.5390625 58.309375 22.7109375 57.3703125C24.5578125 56.815625 26.5046875 58.35 24.575 59.2390625zM21.8890625 74.79375C22.2140625 74.559375 21.65625 74.5515625 21.8890625 74.79375L21.8890625 74.79375zM17.259375 67.8046875C17.3296875 67.4625 17.0640625 67.7296875 17.259375 67.8046875L17.259375 67.8046875z M72.9703125 55.434375C73.203125 55.165625 73.3515625 55.0421875 73.446875 55.0015625C73.3140625 55.23125 73.209375 55.45625 73.1265625 55.675C72.8453125 55.7375 72.7546875 55.6828125 72.9703125 55.434375z M14.9578125 61.421875C14.8625 61.3796875 14.9640625 61.34375 14.9578125 61.421875L14.9578125 61.421875z M13.01875 63.9359375C12.9234375 63.896875 13.025 63.8578125 13.01875 63.9359375L13.01875 63.9359375z M85.740625 58.709375C85.746875 58.7875 85.646875 58.7515625 85.740625 58.709375L85.740625 58.709375z M72.9796875 56.1109375C73.00625 55.971875 73.0734375 55.821875 73.1265625 55.6734375C73.2171875 55.653125 73.3265625 55.621875 73.4515625 55.5765625C73.2421875 56.1328125 72.853125 56.7765625 72.9796875 56.1109375z M23.0875 62.9171875C23.2796875 62.93125 23.025 63.184375 23.0875 62.9171875L23.0875 62.9171875z M37.4015625 18.015625C37.3609375 18.109375 37.3234375 18.009375 37.4015625 18.015625L37.4015625 18.015625z M43.6671875 69.328125C43.6265625 69.4234375 43.5890625 69.3234375 43.6671875 69.328125L43.6671875 69.328125z M65.4078125 57.6671875C64.90625 58.321875 62.434375 60.1609375 62.2828125 60.0265625C61.125 59.01875 61.215625 56.7078125 61.69375 54.69375C62.2796875 56.4515625 63.6546875 57.684375 65.2609375 57.684375C65.3109375 57.684375 65.3578125 57.66875 65.4078125 57.6671875z M62.16875 18.015625C62.246875 18.009375 62.209375 18.109375 62.16875 18.015625L62.16875 18.015625z M55.9140625 69.328125C55.99375 69.3234375 55.953125 69.4234375 55.9140625 69.328125L55.9140625 69.328125z M65.1015625 98.7296875C65.1234375 98.7265625 65.121875 98.715625 65.125 98.7078125C67.7046875 103.21875 65.1015625 98.7078125 65.1015625 98.7296875z M34.1234375 57.6234375C35.9015625 57.3359375 37.2875 55.540625 37.4640625 53.278125C38.2359375 55.48125 38.7359375 58.76875 37.2875 60.0265625C37.1328125 60.1640625 34.546875 58.240625 34.1234375 57.6234375z M34.4640625 98.7296875C34.4640625 98.709375 31.85625 103.21875 34.440625 98.7078125C34.44375 98.715625 34.4421875 98.725 34.4640625 98.7296875z M0.334375 77.9140625C0.3390625 77.878125 0.346875 77.83125 0.353125 77.796875C0.484375 77.8609375 0.39375 77.9171875 0.334375 77.9140625z M32.4640625 104.7875C32.5 104.7359375 32.4578125 104.7578125 32.384375 104.8125C33.2765625 103.5265625 33.69375 103.009375 32.4640625 104.7875z M31.496875 102.853125C31.5796875 102.7640625 31.4109375 102.89375 31.0984375 103.146875C32.740625 101.4296875 33.55 100.665625 31.496875 102.853125z M51.5734375 28.9984375C51.5921875 28.99375 51.6078125 28.9890625 51.625 28.9859375C51.6265625 29.015625 51.5921875 29.034375 51.5734375 28.9984375z M68.065625 102.853125C66.0140625 100.6671875 66.8234375 101.4296875 68.4640625 103.1453125C68.1515625 102.89375 67.98125 102.7625 68.065625 102.853125z M67.1 104.7875C65.871875 103.0109375 66.2859375 103.528125 67.1765625 104.8109375C67.1046875 104.75625 67.0640625 104.734375 67.1 104.7875z M13.7984375 58.709375C13.8921875 58.7515625 13.7921875 58.7875 13.7984375 58.709375L13.7984375 58.709375z M26.571875 56.1109375C26.6984375 56.7765625 26.3078125 56.13125 26.0984375 55.578125C26.225 55.6234375 26.334375 55.6546875 26.4234375 55.675C26.4796875 55.8203125 26.546875 55.971875 26.571875 56.1109375z M68.2546875 55.859375C68.7921875 55.0203125 69.128125 53.9671875 69.128125 52.8015625C69.128125 50.459375 67.81875 48.503125 66.0734375 48.03125C67.040625 47.3171875 68.1546875 46.859375 69.3515625 47.1140625C70.6265625 47.7953125 70.98125 49.384375 71.0953125 51.046875C70.809375 51.6734375 70.996875 52.66875 71.096875 53.621875C71.015625 53.8375 70.9390625 54.05 70.8640625 54.2609375C70.0734375 55.1078125 69.0640625 55.4578125 68.2546875 55.859375z M28.4265625 53.9515625C28.015625 53.4109375 27.684375 52.703125 27.5140625 51.7203125C27.5140625 51.71875 27.5140625 51.71875 27.5140625 51.71875C27.51875 51.6609375 27.525 51.603125 27.53125 51.546875C27.6453125 51.615625 28.06875 52.5921875 28.4578125 53.621875C28.4453125 53.7328125 28.434375 53.8421875 28.4265625 53.9515625z M70.459375 56.0171875C70.2625 56.1296875 70.5109375 55.2609375 70.865625 54.259375C70.95625 54.1625 71.0453125 54.0640625 71.128125 53.9515625C71.1953125 54.8328125 71.128125 55.6328125 70.459375 56.0171875z M26.5796875 55.434375C26.796875 55.6828125 26.7046875 55.7375 26.4234375 55.675C26.3421875 55.45625 26.2375 55.23125 26.1046875 55.0015625C26.2 55.0421875 26.346875 55.165625 26.5796875 55.434375z M28.4578125 51.0453125C28.5734375 49.384375 28.9265625 47.7953125 30.2046875 47.1125C31.3609375 46.865625 32.4390625 47.2828125 33.38125 47.95C31.365625 48.115625 29.7671875 50.2125 29.7671875 52.8C29.7671875 53.7671875 29.996875 54.659375 30.3796875 55.41875C29.8015625 55.1390625 29.2015625 54.803125 28.690625 54.2578125C28.6171875 54.0484375 28.5390625 53.834375 28.4578125 53.61875C28.55625 52.66875 28.7453125 51.671875 28.4578125 51.0453125z M71.1265625 53.9515625C71.11875 53.8421875 71.1078125 53.7328125 71.096875 53.6203125C71.4859375 52.590625 71.9078125 51.6140625 72.021875 51.5453125C72.028125 51.603125 72.0328125 51.6625 72.040625 51.7171875C72.040625 51.7171875 72.040625 51.7171875 72.040625 51.71875C71.8703125 52.703125 71.5375 53.4140625 71.1265625 53.9515625z M29.096875 56.0171875C28.4265625 55.6328125 28.3609375 54.8328125 28.4265625 53.9515625C28.5109375 54.0625 28.6 54.1625 28.690625 54.259375C29.046875 55.2609375 29.2953125 56.13125 29.096875 56.0171875z M98.290625 77.7984375C98.2953125 77.8328125 98.303125 77.8796875 98.309375 77.915625C98.25 77.9171875 98.1578125 77.8609375 98.290625 77.7984375z M57.14375 75.071875C56.7515625 75.0171875 57.4671875 75.115625 57.14375 75.071875L57.14375 75.071875z M86.521875 63.9359375C86.515625 63.8578125 86.6140625 63.896875 86.521875 63.9359375L86.521875 63.9359375z M42.434375 75.071875C42.1125 75.115625 42.828125 75.0171875 42.434375 75.071875L42.434375 75.071875z M81.871875 62.5234375C81.95 62.5140625 81.9125 62.6171875 81.871875 62.5234375L81.871875 62.5234375z M40.9578125 20.0734375C41.0359375 20.06875 40.9984375 20.1671875 40.9578125 20.0734375L40.9578125 20.0734375z M59.8015625 30.66875L57.6078125 28.0890625C57.284375 27.4953125 57.2375 26.49375 56.834375 26.346875C55.60625 25.903125 55.425 28.4046875 56.45 28.4125C56.796875 29.1578125 57.459375 29.984375 58.0640625 30.671875C58.6375 31.98125 60.46875 32.990625 60.58125 34.6046875C60.7453125 36.9640625 56.140625 37.2375 56.4625 38.484375C56.7 39.40625 57.6765625 38.43125 58.009375 38.609375C58.1421875 38.68125 58.1515625 42.1 58.20625 42.6765625C58.6984375 47.6125 56.815625 52.221875 58.2875 57.778125C58.1875 62.26875 55.425 64.6 55.91875 69.3328125C54.796875 73.253125 57.9515625 81.625 53.8109375 84.178125C53.678125 84.2609375 51.253125 85.0203125 51.6234375 85.79375C51.8859375 86.3421875 52.609375 86.7765625 51.4984375 87.471875C51.3328125 87.5734375 50.3359375 88.3734375 51.6921875 88.56875C57.61875 89.425 59.790625 81.5625 62.4375 78.4234375C64.08125 76.4765625 58.0671875 87.0703125 58.5359375 88.3984375C60.8484375 94.9625 66.10625 92.853125 65.1078125 98.6671875C63.2765625 95.1875 60.675 93.6984375 56.528125 93.1453125C56.165625 93.096875 53.359375 91.7390625 52.290625 92.08125L52.2921875 92.078125H47.303125C46.2265625 91.74375 43.4265625 93.096875 43.065625 93.1453125C38.9109375 93.6984375 36.30625 95.1875 34.4703125 98.6671875C33.4703125 92.8546875 38.815625 93.978125 41.1328125 87.415625C41.6015625 86.0875 35.4984375 76.4765625 37.1453125 78.4234375C39.796875 81.5625 41.971875 89.425 47.9109375 88.56875C49.26875 88.371875 48.2703125 87.5734375 48.10625 87.471875C46.990625 86.7765625 47.7171875 86.3421875 47.9796875 85.79375C48.35 85.0203125 45.91875 84.259375 45.7875 84.178125C41.640625 81.625 44.8 73.253125 43.675 69.3328125C44.1703125 64.6 41.4015625 62.26875 41.3015625 57.778125C42.7765625 52.221875 40.890625 47.6125 41.384375 42.6765625C41.4421875 42.1015625 41.45 38.6828125 41.5828125 38.609375C41.9140625 38.43125 42.89375 39.40625 43.13125 38.484375C43.453125 37.2375 38.840625 36.965625 39.00625 34.6046875C39.11875 32.9921875 40.9515625 31.9828125 41.528125 30.671875C42.1328125 29.984375 42.7984375 29.159375 43.14375 28.4125C44.1703125 28.4046875 43.9890625 25.903125 42.759375 26.346875C42.35625 26.49375 42.30625 27.4953125 41.9828125 28.0890625L39.7859375 30.66875C37.25 32.0453125 33.6546875 25.990625 35.6640625 24.0796875C36.0296875 23.1828125 36.4921875 22.1921875 37.215625 21.5C36.915625 21.49375 37.2953125 21.115625 37.2796875 21.4359375C38.621875 20.8 37.3078125 19.83125 37.3484375 18.728125C37.1359375 18.7734375 37.25 18.5984375 37.3484375 18.5984375C37.334375 18.409375 37.6046875 18.171875 37.4140625 18.0171875C39.6390625 14.984375 43.4828125 13.79375 46.7890625 13.5515625H52.8125C56.1140625 13.79375 59.95 14.984375 62.1703125 18.0171875C61.98125 18.171875 62.25 18.409375 62.2359375 18.5984375C62.334375 18.5984375 62.446875 18.7734375 62.2359375 18.728125C62.2765625 19.8328125 60.9625 20.8 62.303125 21.4359375C62.2875 21.1171875 62.6671875 21.4953125 62.365625 21.5C63.0890625 22.1921875 63.5515625 23.1828125 63.9171875 24.0796875C65.9203125 25.990625 62.33125 32.04375 59.8015625 30.66875zM53.8859375 34.6625C53.665625 34.0296875 53.2109375 33.88125 52.853125 33.3078125C53.046875 33.29375 52.7921875 33.0390625 52.853125 33.3078125C52.634375 33.2359375 52.8734375 33.0578125 52.7265625 32.984375C52.178125 32.296875 52.2984375 31.1703125 52.0890625 30.1359375C52.0921875 30.13125 52.121875 30.103125 52.14375 30.08125C52.153125 30.06875 52.1625 30.0625 52.1640625 30.0609375C52.1625 30.0625 52.1546875 30.06875 52.14375 30.08125C52.1234375 30.1015625 52.0921875 30.1328125 52.0890625 30.1359375C52.00625 29.725 51.875 29.3296875 51.625 28.9859375C51.6046875 28.9859375 51.5828125 28.9859375 51.5625 28.9859375C51.5640625 28.9953125 51.5703125 28.9921875 51.575 28.9984375C48.4828125 29.4625 53.6265625 42.4421875 53.8859375 34.6625zM48.0171875 25.7125C48.0203125 25.70625 48.0265625 25.7109375 48.0296875 25.6984375C48.0078125 25.6984375 47.9859375 25.6984375 47.965625 25.6984375C47.7140625 26.0453125 47.584375 26.440625 47.503125 26.8484375C47.5015625 26.846875 47.4875 26.834375 47.4484375 26.7953125C47.3828125 26.7296875 47.496875 26.84375 47.503125 26.8484375C47.2953125 27.88125 47.415625 29.0109375 46.8640625 29.6984375C46.7140625 29.7703125 46.9546875 29.9484375 46.734375 30.021875C46.796875 29.753125 46.540625 30.0078125 46.734375 30.021875C46.375 30.5953125 45.9203125 30.74375 45.7 31.3765625C45.959375 39.1546875 51.10625 26.1796875 48.0171875 25.7125zM41.7171875 14.7859375C41.88125 14.95 41.6265625 14.6953125 41.7171875 14.7859375L41.7171875 14.7859375zM46.96875 16.5015625C46.9765625 16.4234375 46.8765625 16.4625 46.96875 16.5015625L46.96875 16.5015625zM52.9015625 16.503125C52.996875 16.4625 52.8953125 16.425 52.9015625 16.503125L52.9015625 16.503125zM57.8625 14.7859375C57.9515625 14.6953125 57.696875 14.95 57.8625 14.7859375L57.8625 14.7859375z M58.75 69.778125C59.125 69.93125 58.434375 69.6484375 58.75 69.778125L58.75 69.778125z M76.459375 62.9171875C76.5203125 63.184375 76.265625 62.9296875 76.459375 62.9171875L76.459375 62.9171875z M58.9140625 21.271875C58.8734375 21.365625 58.8359375 21.265625 58.9140625 21.271875L58.9140625 21.271875z M84.58125 61.421875C84.5734375 61.34375 84.6765625 61.3796875 84.58125 61.421875L84.58125 61.421875z M96.55625 84.8984375C91.2421875 82.996875 86.853125 80.3046875 83.4375 77.10625C82.7609375 76.471875 78.0828125 73.646875 83.1765625 73.8796875C84.4171875 73.9359375 87.2140625 75.8 87.375 76.7140625C87.525 77.5703125 89.121875 78.128125 88.73125 76.4546875C88.115625 73.83125 87.484375 71.5 85.7546875 69.940625C83.984375 68.2515625 78.640625 67.1625 77.3046875 70.14375C76.0828125 72.8765625 78.5375 75.571875 80.6640625 77.175C84.1890625 79.828125 88.4359375 82.6828125 92.5546875 84.7109375C93.66875 85.259375 92.9734375 85.11875 91.8453125 84.9703125C86.765625 84.3015625 81.56875 79.7421875 79.053125 76.91875C78.1828125 75.9140625 73.7859375 73.03125 74.2140625 71.0515625C74.3765625 70.29375 75.75 69.4015625 76.0796875 68.4671875C76.3796875 67.6109375 76.1234375 66.225 76.6546875 65.6265625C78.25625 63.8234375 82.0625 67.8734375 84.1375 67.4890625C84.2296875 67.4703125 84.6171875 67.2703125 84.653125 67.0359375C84.8421875 65.8609375 80.2125 64.728125 79.0390625 64.525C77.7734375 64.30625 76.7359375 64.3390625 76.459375 62.915625C73.3984375 58.6203125 81.43125 59.8140625 81.871875 62.521875C81.7015625 65.4953125 83.4734375 62.2984375 82.2578125 60.7125C80.378125 58.2609375 77.1765625 60.2546875 74.9734375 59.2359375C73.046875 58.346875 74.9921875 56.8125 76.8390625 57.3625C80.0109375 58.303125 83.26875 58.175 84.584375 61.41875C85.1234375 62.3421875 86.1265625 63.078125 86.525 63.934375C88.5359375 65.13125 89.65 68.0171875 91.1203125 69.9296875C92.9421875 72.3 95.625 73.2953125 96.228125 76.50625C96.3453125 77.1625 97.4796875 85.2296875 96.55625 84.8984375zM77.65625 74.79375C77.8875 74.5515625 77.33125 74.559375 77.65625 74.79375L77.65625 74.79375zM82.2796875 67.8046875C82.475 67.7296875 82.209375 67.4625 82.2796875 67.8046875L82.2796875 67.8046875z M47.9640625 25.6984375C47.9828125 25.703125 47.9984375 25.7109375 48.0171875 25.7125C47.996875 25.7484375 47.9640625 25.7296875 47.9640625 25.6984375z M27.5296875 51.546875C27.5234375 51.6046875 27.5171875 51.6625 27.5125 51.71875C27.4875 51.571875 27.4984375 51.5265625 27.5296875 51.546875z M0.3515625 77.7984375C0.346875 77.8328125 0.3390625 77.8796875 0.3328125 77.915625C0.290625 77.9125 0.2640625 77.8828125 0.3515625 77.7984375z M28.690625 54.259375C28.6 54.1625 28.5109375 54.0640625 28.4265625 53.9515625C28.4359375 53.8421875 28.4453125 53.7328125 28.45625 53.6203125C28.5375 53.8375 28.615625 54.05 28.690625 54.259375z M26.0984375 55.578125C25.9640625 55.2234375 25.909375 54.9171875 26.1046875 55.0015625C26.2375 55.23125 26.3421875 55.45625 26.4234375 55.675C26.334375 55.6546875 26.225 55.6234375 26.0984375 55.578125z M17.259375 67.8046875C17.0640625 67.7296875 17.3296875 67.4625 17.259375 67.8046875L17.259375 67.8046875z M28.48125 74.9171875C28.440625 75.0109375 28.403125 74.9109375 28.48125 74.9171875L28.48125 74.9171875z M28.5453125 74.853125C28.5578125 74.9078125 28.5203125 74.9140625 28.48125 74.9171875C28.48125 74.896875 28.48125 74.8734375 28.48125 74.853125C28.5015625 74.853125 28.525 74.853125 28.5453125 74.853125z M39.39375 14.3296875C39.4328125 14.2375 39.471875 14.3375 39.39375 14.3296875L39.39375 14.3296875z M41.7171875 14.7859375C41.6265625 14.6953125 41.88125 14.95 41.7171875 14.7859375L41.7171875 14.7859375z M48.028125 25.6984375C48.0265625 25.7109375 48.0203125 25.70625 48.015625 25.7125C47.996875 25.7109375 47.98125 25.703125 47.9625 25.6984375C47.9859375 25.6984375 48.00625 25.6984375 48.028125 25.6984375z M54.634375 32.9421875C54.5375 32.065625 53.6546875 31.3546875 53.0734375 30.4734375C52.8421875 30.125 52.653125 29.753125 52.5890625 29.3328125C52.609375 29.353125 52.646875 29.3421875 52.634375 29.303125C55.153125 27.45 60.6734375 40.2734375 54.99375 34.95C54.703125 34.346875 54.9203125 33.9203125 54.76875 33.2625C54.875 33.05625 54.5796875 33.0984375 54.634375 32.9421875z M46.7328125 30.021875C46.5390625 30.009375 46.7953125 29.7546875 46.7328125 30.021875L46.7328125 30.021875z M47.446875 26.796875C47.4859375 26.8359375 47.4984375 26.8484375 47.5015625 26.85C47.49375 26.8453125 47.38125 26.7296875 47.446875 26.796875z M46.96875 16.5015625C46.8765625 16.4625 46.9765625 16.4234375 46.96875 16.5015625L46.96875 16.5015625z M21.8890625 74.79375C21.65625 74.5515625 22.2140625 74.559375 21.8890625 74.79375L21.8890625 74.79375z M72.040625 51.71875C72.034375 51.6640625 72.028125 51.603125 72.021875 51.546875C72.0546875 51.5265625 72.065625 51.571875 72.040625 51.71875z M98.290625 77.7984375C98.378125 77.8828125 98.3515625 77.9140625 98.309375 77.915625C98.3015625 77.878125 98.296875 77.8328125 98.290625 77.7984375z M37.5609375 16.7859375C39.7453125 14.928125 43.5046875 12.471875 46.115625 12.928125L46.1078125 12.9203125L55 12.89375L54.99375 12.9C57.5921875 12.5828125 61.2265625 14.971875 63.35625 16.7875C63.259375 16.871875 64.3046875 17.034375 64.3234375 16.978125C65.3546875 17.5546875 65.7546875 18.3515625 66.4515625 19.4296875C67.3703125 21.4453125 69.128125 23.240625 69.8734375 25.3625C71.3625 29.609375 68.2171875 33.65 70.0171875 38.4640625C70.65625 40.1703125 69.8359375 42.55625 70.6046875 44.4C70.2578125 45.5078125 70.7015625 46.7015625 71.271875 47.015625C71.275 47 71.2953125 46.9953125 71.315625 47.0453125C72.3984375 47.9203125 72.51875 50.29375 72.6953125 52.0609375C72.5828125 52.13125 72.1609375 53.1078125 71.771875 54.1359375C71.6703125 53.184375 71.4828125 52.1890625 71.7703125 51.5625C71.6578125 49.8984375000001 71.303125 48.309375 70.028125 47.628125C68.828125 47.3734375000001 67.7140625 47.8328125 66.7484375 48.5453125000001C68.49375 49.0171875000001 69.803125 50.9718750000001 69.803125 53.3156250000001C69.803125 54.4796875 69.4671875 55.5328125 68.9296875 56.3734375000001C69.7390625 55.9718750000001 70.746875 55.621875 71.5390625 54.7734375C71.184375 55.775 70.934375 56.6437500000001 71.1328125 56.53125C71.803125 56.146875 71.8703125 55.346875 71.803125 54.465625C72.2125 53.928125 72.54375 53.2171875 72.715625 52.234375C72.715625 52.2328125000001 72.715625 52.2328125000001 72.715625 52.2328125000001C72.8015625 53.0312500000001 72.9046875 53.6843750000001 73.128125 53.9843750000001C73.4671875 54.434375 79.621875 50.2906250000001 77.903125 51.5250000000001C77.0828125 52.1125000000001 75.0578125 53.8953125000001 74.121875 55.5156250000001C74.0265625 55.5562500000001 73.88125 55.6796875000001 73.6484375 55.9484375000001C73.43125 56.1968750000001 73.521875 56.2515625000001 73.803125 56.1890625000001C73.7484375 56.3359375000001 73.684375 56.4859375000001 73.65625 56.6265625000001C73.5296875 57.2921875000001 73.91875 56.6468750000001 74.1296875 56.0968750000001C75.6234375 55.5875000000001 79.4453125 53.6265625000001 80.1328125 53.6375000000001C80.921875 53.6500000000001 80.584375 53.3578125000001 80.5015625 54.1640625000001C80.453125 54.6296875000001 77.1671875 55.4437500000001 77.5140625 56.3343750000001C77.64375 56.6656250000001 80.1734375 56.7734375000001 80.60625 56.8468750000001C82.9828125 57.2453125000001 85.071875 57.9046875000001 86.4171875 59.2265625000001C86.321875 59.2671875000001 86.4234375 59.3046875000001 86.4171875 59.2265625000001C89.6140625 63.4093750000001 92.484375 67.0484375000001 96.053125 71.1546875000001C96.1296875 71.2515625000001 96.1328125 71.4187500000001 96.246875 71.4781250000001C98.128125 73.0562500000001 98.75625 76.3015625000001 98.9671875 78.3156250000001C98.834375 78.3781250000001 98.9265625 78.4343750000001 98.9859375 78.4328125000001C99.3921875 81.1031250000001 100.325 85.9906250000001 99.8828125 89.0281250000001C99.6703125 90.4937500000001 98.790625 89.6265625000001 98.078125 89.4828125000001C89.6921875 87.7937500000001 80.7234375 82.7625000000001 75.21875 77.5062500000001C75.20625 77.4328125000001 75.15625 77.4718750000001 75.15625 77.5062500000001C75.465625 76.2671875000001 73.91875 76.1234375000001 73.2859375 75.6375000000001C73.01875 75.4312500000001 73.00625 74.1000000000001 72.3171875 73.9609375000001C70.684375 73.6296875000001 66.228125 77.2234375000001 66.328125 77.3234375000001C69.075 80.0453125000001 72.675 84.4703125000001 71.109375 90.4187500000001C69.7578125 95.5687500000001 69.6296875 95.7062500000001 71.446875 100.0812500000001C72.515625 102.6531250000001 77.8875 104.7890625000001 78.0921875 107.0437500000001C78.1703125 107.9218750000001 71.446875 103.2875000000001 71.390625 103.9000000000001C71.346875 104.3593750000001 76.9015625 108.5812500000001 76.871875 109.1093750000001C76.8171875 110.0218750000001 70.775 104.9812500000001 69.1390625 103.6656250000001C67.4984375 101.9484375000001 66.6921875 101.1859375000001 68.7421875 103.3734375000001C68.659375 103.2843750000001 68.828125 103.4140625000001 69.1390625 103.6656250000001C71.5828125 106.2203125000001 75.8703125 110.8921875000001 75.328125 111.1125000000001C74.55625 111.4265625000001 68.6 105.8750000000001 67.853125 105.3296875000001C66.9640625 104.0468750000001 66.5484375 103.5296875000001 67.7765625 105.3062500000001C67.7390625 105.2546875000001 67.78125 105.2765625000001 67.853125 105.3296875000001C69.3484375 107.4843750000001 72.1875 111.7984375000001 70.853125 111.0484375000001C66.6140625 108.6687500000001 63.7671875 104.9250000000001 62.5578125 99.3171875000001C62.046875 96.9500000000001 62.40625 97.7984375000001 60.8875 96.3453125000001C59.98125 95.4796875000001 56.253125 92.8296875000001 52.946875 93.9250000000001C52.784375 93.9796875000001 52.734375 94.0078125000001 52.7078125 93.9671875000001L52.703125 93.9875000000001L53.31875 92.0078125000001L52.9453125 93.2062500000001C52.9125 93.2187500000001 51.0765625 91.2609375000001 50.9453125 91.2156250000001C47.634375 90.1203125000001 41.6046875 96.4703125000001 40.696875 97.3375000000001C39.175 98.7906250000001 38.8796875 96.9500000000001 38.365625 99.3171875000001C37.153125 104.9250000000001 34.303125 108.6687500000001 30.05625 111.0484375000001C28.71875 111.7984375000001 31.5609375 107.4843750000001 33.0609375 105.3312500000001C33.134375 105.2765625000001 33.1765625 105.2546875000001 33.140625 105.3062500000001C34.371875 103.5296875000001 33.9546875 104.0468750000001 33.0609375 105.3312500000001C32.3078125 105.8812500000001 26.3453125 111.4265625000001 25.575 111.1125000000001C25.03125 110.8906250000001 29.3265625 106.2218750000001 31.7734375 103.6656250000001C32.0875 103.4125000000001 32.25625 103.2828125000001 32.171875 103.3718750000001C34.2265625 101.1843750000001 33.4171875 101.9484375000001 31.7734375 103.6656250000001C30.134375 104.9828125000001 24.0828125 110.0234375000001 24.028125 109.1093750000001C23.996875 108.5812500000001 29.5609375 104.3593750000001 29.51875 103.9000000000001C29.4609375 103.2875000000001 22.725 107.9218750000001 22.8046875 107.0437500000001C23.0078125 104.7890625000001 28.3890625 102.6531250000001 29.4609375 100.0812500000001C31.28125 95.7078125000001 31.1546875 95.5703125000001 29.8 90.4187500000001C28.234375 84.4687500000001 31.8390625 80.0453125000001 34.590625 77.3234375000001C34.6921875 77.2218750000001 30.228125 73.6281250000001 28.5921875 73.9609375000001C27.903125 74.1000000000001 27.8921875 75.4312500000001 27.621875 75.6375000000001C26.9890625 76.1234375000001 25.4390625 76.2671875000001 25.7484375 77.5062500000001C25.7484375 77.4718750000001 25.696875 77.4328125000001 25.684375 77.5062500000001C20.1734375 82.7625000000001 10.3046875 87.7937500000001 1.921875 89.4828125000001C1.2078125 89.6265625000001 0.328125 90.4937500000001 0.115625 89.0281250000001C-0.325 85.9921875000001 0.6078125 81.1031250000001 1.0140625 78.4328125000001C1.0734375 78.4343750000001 1.1640625 78.3781250000001 1.0328125 78.3156250000001C1.24375 76.3031250000001 1.871875 73.0562500000001 3.7515625 71.4781250000001C3.8640625 71.4187500000001 3.8703125 71.2515625000001 3.9453125 71.1546875000001C7.5140625 67.0468750000001 11.28125 63.4093750000001 14.4796875 59.2265625000001C14.4734375 59.3046875000001 14.5734375 59.2671875000001 14.4796875 59.2265625000001C15.825 57.9031250000001 17.9140625 57.2453125000001 20.290625 56.8468750000001C20.7234375 56.7734375000001 23.259375 56.6640625000001 23.3890625 56.3343750000001C23.7375 55.4437500000001 20.4453125 54.6296875000001 20.396875 54.1640625000001C20.3140625 53.3578125000001 19.9765625 53.6484375000001 20.765625 53.6375000000001C21.4546875 53.6281250000001 25.284375 55.5890625000001 26.7796875 56.0968750000001C26.990625 56.6484375000001 27.38125 57.2921875000001 27.253125 56.6265625000001C27.2265625 56.4875000000001 27.159375 56.3375000000001 27.1046875 56.1890625000001C27.3859375 56.2515625000001 27.478125 56.1968750000001 27.2609375 55.9484375000001C27.028125 55.6796875000001 26.8796875 55.5562500000001 26.7859375 55.5156250000001C25.8484375 53.8953125000001 23.8203125 52.1125000000001 22.9984375 51.5250000000001C21.2765625 50.2921875000001 27.4421875 54.4343750000001 27.78125 53.9843750000001C28.00625 53.6843750000001 28.109375 53.0312500000001 28.19375 52.2328125000001C28.19375 52.2328125000001 28.19375 52.2328125000001 28.19375 52.234375C28.365625 53.215625 28.6953125 53.9265625 29.10625 54.465625C29.040625 55.346875 29.10625 56.146875 29.7765625 56.53125C29.975 56.6437500000001 29.725 55.775 29.3703125 54.7734375C29.8796875 55.3171875 30.4796875 55.6546875 31.059375 55.934375C30.6765625 55.1765625 30.446875 54.2828125 30.446875 53.3156250000001C30.446875 50.7281250000001 32.0453125 48.634375 34.0609375 48.465625C33.11875 47.7984375000001 32.0390625 47.3828125 30.884375 47.628125C29.60625 48.309375 29.253125 49.8984375000001 29.1375 51.5625C29.425 52.1890625000001 29.2359375 53.1828125 29.1359375 54.1359375C28.746875 53.10625 28.325 52.13125 28.209375 52.0609375C28.3875 50.29375 28.5078125 47.91875 29.5921875 47.0453125C29.6140625 46.99375 29.634375 47 29.6359375 47.015625C30.20625 46.7015625 30.6515625 45.50625 30.3046875 44.4C31.075 42.55625 33.7 38.325 34.3390625 36.6171875C36.1421875 31.8046875 31.965625 28.4671875000001 33.4578125 24.2218750000001C34.2046875 22.0984375000001 34.8390625 21.8281250000001 35.759375 19.8140625M23.3796875 57.8796875C20.20625 58.8203125 16.9453125 58.6921875 15.63125 61.9375C15.6375 61.859375 15.5375 61.896875 15.63125 61.9375C15.090625 62.859375 14.0890625 63.596875 13.6921875 64.4515625C13.6984375 64.3734375 13.5984375 64.4109375 13.6921875 64.4515625C11.68125 65.6484375 9.6703125 68.534375 8.2 70.446875C6.3796875 72.8171875 3.6953125 73.8125 3.09375 77.0234375C2.971875 77.6765625 1.8375 85.74375 2.7609375 85.4125C8.0734375 83.5125 13.359375 80.81875 16.775 77.6203125C17.453125 76.9859375 22.134375 74.1609375 17.0359375 74.39375C15.79375 74.45 12.9984375 76.3140625 12.8375 77.228125C12.6875 78.084375 11.090625 78.6421875 11.48125 76.96875C12.096875 74.3453125 12.728125 72.0140625 14.4578125 70.4546875C16.228125 68.765625 21.575 67.6765625 22.9125 70.6578125C24.1375 73.3890625 21.6765625 76.084375 19.5484375 77.6890625C16.025 80.3421875 10.88125 83.1984375 6.7609375 85.225C5.646875 85.7734375 6.3421875 85.6328125 7.4703125 85.484375C12.5515625 84.815625 18.6421875 80.25625 21.1609375 77.4328125C22.03125 76.428125 26.4359375 73.5453125 26.0078125 71.565625C25.84375 70.809375 24.46875 69.915625 24.1390625 68.9828125C23.8375 68.1265625 24.09375 66.740625 23.5609375 66.1421875C21.95625 64.3375 18.1484375 68.3890625 16.071875 68.0046875C15.9796875 67.9859375 15.59375 67.7859375 15.55625 67.5515625C15.365625 66.3765625 19.996875 65.2453125 21.1734375 65.040625C22.440625 64.821875 23.4796875 64.8546875 23.75625 63.43125C23.69375 63.6984375 23.9484375 63.44375 23.75625 63.43125C26.8234375 59.1359375 18.778125 60.3296875 18.3359375 63.0375C18.2578125 63.03125 18.2953125 63.13125 18.3359375 63.0375C18.50625 66.0109375 16.734375 62.8171875 17.95 61.228125C19.8296875 58.7765625 23.0359375 60.7703125 25.24375 59.7515625C27.178125 58.8671875 25.23125 57.3296875 23.3796875 57.8796875zM62.3671875 55.2078125C61.8890625 57.221875 60.8734375 56.1625 62.0328125 57.1703125C62.184375 57.303125 65.5796875 58.8359375 66.0828125 58.1796875C66.03125 58.18125 65.984375 58.1984375 65.934375 58.1984375C64.3296875 58.2 62.9515625 56.965625 62.3671875 55.2078125zM65.8 99.221875C65.7953125 99.2296875 65.7984375 99.240625 65.7765625 99.24375C65.7765625 99.221875 68.378125 103.734375 65.8 99.221875zM35.1375 99.24375C35.115625 99.2390625 35.11875 99.2296875 35.1140625 99.221875C32.53125 103.734375 35.1375 99.221875 35.1375 99.24375zM38.8875 55.6828125C40.3359375 54.4234375 38.9109375 55.996875 38.1375 53.79375C37.9609375 56.0578125 36.5734375 57.853125 34.796875 58.1390625C35.221875 58.7546875 38.73125 55.8171875 38.8875 55.6828125zM64.590625 24.5921875C64.2265625 23.6953125 63.7625 22.7046875 63.0390625 22.0125C63.3390625 22.00625 62.9609375 21.628125 62.9765625 21.9484375C61.634375 21.3125 62.95 20.34375 62.9078125 19.240625C63.1203125 19.2859375 63.00625 19.1109375 62.9078125 19.1109375C62.9234375 18.921875 62.6515625 18.684375 62.8453125 18.5296875C62.884375 18.6234375 62.9234375 18.5234375 62.8453125 18.5296875C60.6234375 15.496875 56.7875 14.30625 53.4875 14.065625H47.4515625C41.675 14.4859375 42.7734375 12.128125 38.078125 18.5296875C38 18.5234375 38.0375 18.6234375 38.078125 18.5296875C38.26875 18.684375 37.9984375 18.921875 38.0125 19.1109375C37.9140625 19.1109375 37.8 19.2859375 38.0125 19.240625C37.971875 20.3453125 39.2875 21.3125 37.94375 21.9484375C37.9578125 21.6296875 37.5796875 22.0078125 37.8796875 22.0125C37.1546875 22.7046875 36.69375 23.6953125 36.328125 24.5921875C34.3203125 26.5046875 37.915625 32.5578125 40.45 31.18125L42.646875 28.6015625C42.9703125 28.0109375 43.0203125 27.00625 43.4234375 26.859375C44.653125 26.415625 44.834375 28.9171875 43.8078125 28.925C43.4609375 29.6703125 42.7984375 30.496875 42.1921875 31.184375C41.6171875 32.49375 39.784375 33.503125 39.6703125 35.11875C39.5046875 37.478125 44.1171875 37.7484375 43.7953125 38.9953125C43.55625 39.9171875 42.578125 38.94375 42.246875 39.1203125C42.1140625 39.1921875 42.10625 42.6109375 42.0484375 43.1875C41.55625 48.125 48.2171875 52.1609375 46.7421875 57.715625C46.8421875 62.2078125 44.8359375 65.1125 44.340625 69.8453125C44.2625 69.8390625 44.3 69.9390625 44.340625 69.8453125C45.465625 73.765625 42.3046875 82.1375 46.453125 84.690625C46.5859375 84.7734375 49.0171875 85.5328125 48.6453125 86.30625C48.3828125 86.8546875 47.6578125 87.2875 48.7734375 87.984375C48.9390625 88.0859375 49.9390625 88.8859375 48.5765625 89.08125C42.6375 89.9375 40.4625 82.075 37.8109375 78.9359375C36.165625 76.9890625 42.26875 86.5984375 41.7984375 87.928125C39.48125 94.4921875 34.1359375 93.3671875 35.1359375 99.1796875C36.971875 95.7 39.5765625 94.2109375 43.73125 93.6578125C44.09375 93.609375 49.865625 89.559375 50.9421875 89.8921875L52.9578125 92.5890625V92.59375C54.0265625 92.2515625 56.8328125 93.609375 57.1953125 93.6578125C61.3421875 94.209375 63.9421875 95.7 65.775 99.1796875C66.7734375 93.3671875 61.515625 95.475 59.2046875 88.9109375C58.734375 87.5828125 64.7484375 76.9890625 63.1046875 78.9359375C60.459375 82.075 58.2875 89.9375 52.3578125 89.08125C51.0046875 88.884375 52 88.0859375 52.1640625 87.984375C53.275 87.2890625 52.553125 86.8546875 52.290625 86.30625C51.921875 85.5328125 54.3453125 84.771875 54.4796875 84.690625C58.621875 82.1375 55.4640625 73.765625 56.5875 69.8453125C56.6265625 69.9390625 56.665625 69.8390625 56.5875 69.8453125C56.09375 65.1125 54.534375 61.1484375 54.634375 56.6578125C53.1625 51.103125 59.36875 48.1265625 58.8765625 43.1890625C58.8203125 42.6140625 58.8109375 39.1953125 58.6796875 39.121875C58.3484375 38.9453125 57.3703125 39.91875 57.13125 38.996875C56.8109375 37.75 61.415625 37.478125 61.25 35.1203125C61.1390625 33.50625 59.3078125 32.4953125 58.734375 31.1859375C58.1296875 30.4984375 57.4671875 29.6734375 57.121875 28.9265625C56.0953125 28.91875 56.2796875 26.4171875000001 57.50625 26.8609375C57.909375 27.0078125 57.9578125 28.0109375 58.2796875 28.603125L60.4734375 31.1828125C63.0046875 32.559375 66.5953125 26.5046875 64.590625 24.5921875zM43.1078125 75.5859375C43.5015625 75.5328125 42.7875 75.63125 43.1078125 75.5859375L43.1078125 75.5859375zM59.4234375 70.2921875C59.1078125 70.1640625 59.8015625 70.446875 59.4234375 70.2921875L59.4234375 70.2921875zM57.81875 75.5859375C58.1390625 75.63125 57.425 75.5328125 57.81875 75.5859375L57.81875 75.5859375zM96.896875 77.025C96.2953125 73.8140625 93.6125 72.81875 91.790625 70.4484375C90.3203125 68.5359375 89.2046875 65.65 87.19375 64.453125C87.2859375 64.4125 87.1875 64.375 87.19375 64.453125C86.7953125 63.596875 85.7953125 62.8609375 85.253125 61.9390625C85.346875 61.8984375 85.2453125 61.8609375 85.253125 61.9390625C83.9375 58.69375 80.678125 58.821875 77.5109375 57.88125C75.6625 57.33125 73.7203125 58.8671875 75.64375 59.7546875C77.8484375 60.7734375 81.0484375 58.778125 82.9296875 61.23125C84.146875 62.81875 82.3734375 66.015625 82.5453125 63.0421875C82.584375 63.1359375 82.6234375 63.034375 82.5453125 63.0421875C82.103125 60.334375 74.0703125 59.1390625 77.1296875 63.434375C76.9390625 63.446875 77.1921875 63.7015625 77.1296875 63.434375C77.40625 64.8578125 78.44375 64.825 79.709375 65.04375C80.884375 65.246875 85.5140625 66.3796875 85.325 67.5546875C85.2875 67.7890625 84.9015625 67.990625 84.809375 68.0078125C82.734375 68.3921875 78.9296875 64.340625 77.328125 66.1453125C76.7953125 66.74375 77.0515625 68.1296875 76.7515625 68.9859375C76.421875 69.9203125 75.05 70.8125 74.8875 71.56875C74.459375 73.5484375 78.85625 76.43125 79.725 77.4359375C82.240625 80.2578125 87.4375 84.8171875 92.51875 85.4875C93.6484375 85.6359375 94.3421875 85.7765625 93.228125 85.228125C89.109375 83.2015625 84.859375 80.3453125 81.3375 77.6921875C79.2109375 76.0890625 76.7578125 73.39375 77.978125 70.6609375C79.3125 67.678125 84.65625 68.76875 86.425 70.4578125C88.15625 72.01875 88.7859375 74.3484375 89.403125 76.971875C89.7953125 78.6453125 88.196875 78.0875 88.046875 77.23125C87.8859375 76.3171875 85.0906250000001 74.453125 83.85 74.396875C78.7578125 74.1640625 83.434375 76.9890625 84.1125 77.6234375C87.5265625 80.8203125 91.9140625 83.5140625 97.2281250000001 85.415625C98.1546875 85.7453125 97.0203125 77.6765625 96.896875 77.025z M70.865625 54.259375C70.9390625 54.05 71.0171875 53.8359375 71.0984375 53.6203125C71.1109375 53.73125 71.11875 53.8421875 71.128125 53.9515625C71.04375 54.0640625 70.9546875 54.1640625 70.865625 54.259375z M73.446875 55.0015625C73.640625 54.9171875 73.5875 55.225 73.453125 55.578125C73.3265625 55.6234375 73.2171875 55.6546875 73.128125 55.675C73.2078125 55.4546875 73.3140625 55.23125 73.446875 55.0015625z M82.2796875 67.8046875C82.209375 67.4625 82.475 67.7296875 82.2796875 67.8046875L82.2796875 67.8046875z M71.0734375 74.9171875C71.1515625 74.9109375 71.1140625 75.0109375 71.0734375 74.9171875L71.0734375 74.9171875z M71.009375 74.853125C71.0296875 74.853125 71.0515625 74.853125 71.071875 74.853125C71.071875 74.8734375 71.071875 74.896875 71.071875 74.9171875C71.034375 74.9125 70.9984375 74.9078125 71.009375 74.853125z M60.18125 14.3296875C60.1015625 14.3375 60.1390625 14.2375 60.18125 14.3296875L60.18125 14.3296875z M57.8625 14.7859375C57.696875 14.95 57.9515625 14.6953125 57.8625 14.7859375L57.8625 14.7859375z M48.409375 29.534375C48.39375 29.571875 48.4296875 29.5859375 48.453125 29.565625C48.3484375 29.98125 48.128125 30.3359375 47.8671875 30.659375C47.2078125 31.48125 46.265625 32.1140625 46.0890625 32.975C46.128125 33.1359375 45.8390625 33.065625 45.9234375 33.28125C45.7125 33.9234375 45.890625 34.3671875 45.546875 34.9421875C39.4078125 39.7296875 46.06875 27.4609375 48.409375 29.534375z M51.5625 28.9859375C51.5828125 28.9859375 51.60625 28.9859375 51.625 28.9859375C51.60625 28.9875 51.5921875 28.99375 51.5734375 28.9984375C51.5703125 28.9921875 51.5640625 28.996875 51.5625 28.9859375z M52.853125 33.3078125C52.7921875 33.040625 53.046875 33.29375 52.853125 33.3078125L52.853125 33.3078125z M52.1625 30.0625C52.1609375 30.0640625 52.153125 30.0703125 52.1421875 30.0828125C52.121875 30.103125 52.090625 30.134375 52.0875 30.1375 M77.65625 74.79375C77.33125 74.559375 77.8875 74.5515625 77.65625 74.79375L77.65625 74.79375z M52.9015625 16.503125C52.8953125 16.425 52.996875 16.4625 52.9015625 16.503125L52.9015625 16.503125z M59.4953125 63.896875C59.4953125 63.896875 50.8640625 57.90625 42.596875 61.8734375S52.78125 54.59375 59.4953125 63.896875z" />
    </font>
</defs>
</svg>
