<?xml version="1.0" encoding="utf-8"?>
<!-- Generator: Adobe Illustrator 18.0.0, SVG Export Plug-In . SVG Version: 6.00 Build 0)  -->
<!DOCTYPE svg PUBLIC "-//W3C//DTD SVG 1.1//EN" "http://www.w3.org/Graphics/SVG/1.1/DTD/svg11.dtd">
<svg version="1.1" id="Layer_1" xmlns="http://www.w3.org/2000/svg" xmlns:xlink="http://www.w3.org/1999/xlink" x="0px" y="0px"
	 width="64px" height="64px" viewBox="0 0 64 64" enable-background="new 0 0 64 64" xml:space="preserve">
<path id="danger-10-icon" d="M10.7,27.7c-0.9,0.7-1.4,1.7-1.4,2.8v8.1h-6V27.8c0-2.1,1-4,2.6-5.3l12.9-9.7c1.8-1.4,2.9-1.6,7.9-3.5
	c0.8-0.3,1.4-1.1,1.4-2V0H34v10.4c0,1.8-1.1,3.5-2.8,4.2l-6.6,2.8l6.8,9.2l3-2.2c1.4-1,3.1-1.4,4.8-1.1l16.4,3.2l-1.4,7.2l-13-2.3
	c-4-0.7-7.1,3.8-4.7,6.9l3.8,5.1c1,1.3,1.7,2.8,2.2,4.3l2.7,9l-6.7,3.9L35,49.8c-0.5-1.7-1.6-3.2-3-4.2l-7.4-5.5
	c-1.3-1-2.5-2.2-3.4-3.5l-7.6-11.3L10.7,27.7z M9.6,1.3c-3.8,0-6.9,3.1-6.9,6.9c0,3.8,3.1,6.9,6.9,6.9c3.8,0,6.9-3.1,6.9-6.9
	C16.5,4.4,13.4,1.3,9.6,1.3z M55.4,64c9.6,0,6.4-11.5-1.3-6.7c-2.7,1.5-7.5,4.5-11.1,6.7C47.1,64,50.1,64,55.4,64z"/>
</svg>
