<?xml version="1.0" encoding="utf-8"?>
<!-- Generator: Adobe Illustrator 18.0.0, SVG Export Plug-In . SVG Version: 6.00 Build 0)  -->
<!DOCTYPE svg PUBLIC "-//W3C//DTD SVG 1.1//EN" "http://www.w3.org/Graphics/SVG/1.1/DTD/svg11.dtd">
<svg version="1.1" id="Layer_1" xmlns="http://www.w3.org/2000/svg" xmlns:xlink="http://www.w3.org/1999/xlink" x="0px" y="0px"
	 width="64px" height="64px" viewBox="0 0 64 64" enable-background="new 0 0 64 64" xml:space="preserve">
<g>
	<path fill="#231F20" d="M58.1,61.4V38.1c0-12.8-3.1-16.9-13.2-16.9c-7.5,0-11,2.2-12.5,8.4c2.2,0.4,4,2.4,4,5.1
		c0,2.9-2.1,5.3-4.7,5.3s-4.7-2.3-4.7-5.3c0-2.8,2-5,4.4-5.1c-1.5-6-5-8.3-12.4-8.3C8.9,21,5.8,25.2,5.8,38.1v22.6
		c0,0.1,0,0.1,0,0.2V64h19.1c0-0.1,0-0.2,0-0.2c0-0.2,0-0.5,0-0.6l0,0V49.9c0-6.7,1.6-8.8,7-8.8s7,2.2,7,8.8V63l0,0v0.9h19.3
		L58.1,61.4C58.1,61.3,58.1,61.4,58.1,61.4z"/>
	<path fill="#231F20" d="M32,0c-4.3,0-7.7,3.8-7.7,8.7s3.4,8.7,7.7,8.7s7.7-3.9,7.7-8.7C39.7,3.8,36.3,0,32,0z"/>
	<path fill="#231F20" d="M32,0c-4.3,0-7.7,3.8-7.7,8.6s3.4,8.7,7.7,8.7s7.7-3.9,7.7-8.7S36.3,0,32,0z"/>
</g>
</svg>
