<?xml version="1.0" encoding="utf-8"?>
<!-- Generator: Adobe Illustrator 18.1.1, SVG Export Plug-In . SVG Version: 6.00 Build 0)  -->
<svg version="1.1" id="Layer_1" xmlns="http://www.w3.org/2000/svg" xmlns:xlink="http://www.w3.org/1999/xlink" x="0px" y="0px"
	 width="64px" height="64px" viewBox="0 0 64 64" enable-background="new 0 0 64 64" xml:space="preserve">
<path d="M60.1,17l-7.3,10.3l-10.6-7.1l1.9-2.7l5.7,3.8C48.4,14.4,44.1,8.7,38,5.8l1.5-3.3c7.2,3.4,12.3,10,13.9,18.1l3.9-5.5
	L60.1,17z M64,35L64,35v23.4v0c0,2.2-1.8,3.9-3.9,3.9H15.9c-2.2,0-3.9-1.8-3.9-3.9v0v-4.7h-8h0v0C1.8,53.7,0,52,0,49.8V5.6
	c0-2.1,1.8-3.9,3.9-3.9v0h0h23.4h0c2.2,0,3.9,1.8,3.9,3.9v25.5h28.8C62.2,31.1,64,32.8,64,35L64,35z M11.9,45.9V35v0h0
	c0-2.1,1.8-3.9,3.9-3.9H27V9.5H4.3v36.4H11.9z M56.2,35.4h-25H27h-7.2v10.6v7.8V58h36.4V35.4z"/>
</svg>
