<?xml version="1.0" encoding="utf-8"?>
<!-- Generator: Adobe Illustrator 18.1.0, SVG Export Plug-In . SVG Version: 6.00 Build 0)  -->
<svg version="1.1" id="Layer_1" xmlns="http://www.w3.org/2000/svg" xmlns:xlink="http://www.w3.org/1999/xlink" x="0px" y="0px"
	 viewBox="0 0 64 64" enable-background="new 0 0 64 64" xml:space="preserve">
<path id="calendar-5-icon" fill="#444444" d="M22.9,38.9h-9.2v-9.2h9.2C22.9,29.7,22.9,38.9,22.9,38.9z M36.7,29.7h-9.2v9.2h9.2
	V29.7z M50.6,29.7h-9.2v9.2h9.2V29.7z M22.9,43.1h-9.2v9.2h9.2C22.9,52.2,22.9,43.1,22.9,43.1z M36.7,43.1h-9.2v9.2h9.2V43.1z
	 M50.6,43.1h-9.2v9.2h9.2V43.1z M54,11.2c0,1.6-1.3,2.8-2.8,2.8c-1.6,0-2.8-1.3-2.8-2.8V4.1c0-1.6,1.3-2.8,2.8-2.8
	c1.6,0,2.8,1.3,2.8,2.8V11.2z M15.8,4.1c0-1.6-1.3-2.8-2.8-2.8c-1.6,0-2.8,1.3-2.8,2.8v7.1c0,1.6,1.3,2.8,2.8,2.8s2.8-1.3,2.8-2.8
	V4.1z M57.4,8.2v2.9c0,3.4-2.8,6.2-6.2,6.2c-3.4,0-6.2-2.8-6.2-6.2V8.2H19.2v2.9c0,3.4-2.8,6.2-6.2,6.2s-6.2-2.8-6.2-6.2V8.2H0V64
	h64V8.2H57.4L57.4,8.2z M57.8,57.8H6.2V23.2h51.6V57.8z"/>
</svg>
