<?xml version="1.0" encoding="utf-8"?>
<!-- Generator: Adobe Illustrator 18.1.0, SVG Export Plug-In . SVG Version: 6.00 Build 0)  -->
<svg version="1.1" id="Layer_1" xmlns="http://www.w3.org/2000/svg" xmlns:xlink="http://www.w3.org/1999/xlink" x="0px" y="0px"
	 width="64px" height="64px" viewBox="0 0 64 64" enable-background="new 0 0 64 64" xml:space="preserve">
<path id="calendar-5-icon" fill="#444444" d="M22.9,38.2h-9.2v-9.2h9.2V38.2z M36.7,29.1h-9.2v9.2h9.2V29.1z M50.6,29.1h-9.2v9.2
	h9.2V29.1z M22.9,42.4h-9.2v9.2h9.2C22.9,51.5,22.9,42.4,22.9,42.4z M36.7,42.4h-9.2v9.2h9.2V42.4z M50.6,42.4h-9.2v9.2h9.2V42.4z
	 M54,10.6c0,1.6-1.3,2.8-2.8,2.8c-1.6,0-2.8-1.3-2.8-2.8V3.4c0-1.6,1.3-2.8,2.8-2.8c1.6,0,2.8,1.3,2.8,2.8V10.6z M15.8,3.4
	c0-1.6-1.3-2.8-2.8-2.8c-1.6,0-2.8,1.3-2.8,2.8v7.1c0,1.6,1.3,2.8,2.8,2.8s2.8-1.3,2.8-2.8V3.4z M57.4,7.5v2.9
	c0,3.4-2.8,6.2-6.2,6.2S45,13.8,45,10.4V7.5H19.2v2.9c0,3.4-2.8,6.2-6.2,6.2s-6.2-2.8-6.2-6.2V7.5H0v55.8h64V7.5H57.4L57.4,7.5z
	 M57.8,57.1H6.2V22.6h51.6V57.1z"/>
</svg>
