<?xml version="1.0" encoding="utf-8"?>
<!-- Generator: Adobe Illustrator 17.0.0, SVG Export Plug-In . SVG Version: 6.00 Build 0)  -->
<!DOCTYPE svg PUBLIC "-//W3C//DTD SVG 1.1//EN" "http://www.w3.org/Graphics/SVG/1.1/DTD/svg11.dtd">
<svg version="1.1" id="Layer_1" xmlns="http://www.w3.org/2000/svg" xmlns:xlink="http://www.w3.org/1999/xlink" x="0px" y="0px"
	 width="64px" height="64px" viewBox="388.945 563.275 64 64" enable-background="new 388.945 563.275 64 64" xml:space="preserve">
<path id="x-mark-4-icon" d="M446.695,595.275c0,14.225-11.525,25.75-25.75,25.75c-14.225,0-25.75-11.525-25.75-25.75
	s11.525-25.75,25.75-25.75C435.17,569.525,446.695,581.05,446.695,595.275z M441.695,595.275c0-11.475-9.287-20.75-20.75-20.75
	c-11.475,0-20.75,9.287-20.75,20.75c0,11.475,9.288,20.75,20.75,20.75C432.42,616.025,441.695,606.738,441.695,595.275z
	 M429.608,608.588l-8.413-8.412l-8.412,8.412l-4.525-4.525l8.413-8.412l-8.413-8.412l4.525-4.525l8.412,8.412l8.413-8.412
	l4.525,4.525l-8.412,8.412l8.412,8.412L429.608,608.588z"/>
</svg>
