<?xml version="1.0" encoding="utf-8"?>
<!-- Generator: Adobe Illustrator 17.0.0, SVG Export Plug-In . SVG Version: 6.00 Build 0)  -->
<!DOCTYPE svg PUBLIC "-//W3C//DTD SVG 1.1//EN" "http://www.w3.org/Graphics/SVG/1.1/DTD/svg11.dtd">
<svg version="1.1" id="Layer_1" xmlns="http://www.w3.org/2000/svg" xmlns:xlink="http://www.w3.org/1999/xlink" x="0px" y="0px"
	 width="64px" height="64px" viewBox="224 224 64 64" enable-background="new 224 224 64 64" xml:space="preserve">
<path id="help-icon" d="M256.433,281.75c-3.108,0-5.629-2.521-5.629-5.63c0-3.107,2.521-5.628,5.629-5.628
	c3.109,0,5.629,2.52,5.629,5.628C262.061,279.229,259.541,281.75,256.433,281.75z M260.858,265.112v1.013c0,0-8.439,0-9.279,0
	v-1.013c0-2.865,0.418-6.541,3.744-9.736c3.327-3.196,7.484-5.836,7.484-9.828c0-4.414-3.063-6.748-6.925-6.748
	c-6.435,0-6.856,6.674-7.014,8.144h-9.025c0.24-6.959,3.182-16.694,16.093-16.694c11.189,0,16.219,7.494,16.219,14.521
	C272.156,255.956,260.858,257.899,260.858,265.112z"/>
</svg>
