<?xml version="1.0" encoding="utf-8"?>
<!-- Generator: Adobe Illustrator 17.0.0, SVG Export Plug-In . SVG Version: 6.00 Build 0)  -->
<!DOCTYPE svg PUBLIC "-//W3C//DTD SVG 1.1//EN" "http://www.w3.org/Graphics/SVG/1.1/DTD/svg11.dtd">
<svg version="1.1" id="Layer_1" xmlns="http://www.w3.org/2000/svg" xmlns:xlink="http://www.w3.org/1999/xlink" x="0px" y="0px"
	 width="64px" height="64px" viewBox="224 224 64 64" enable-background="new 224 224 64 64" xml:space="preserve">
<path id="help-3-icon" d="M256,235.25c11.467,0,20.75,9.281,20.75,20.75c0,11.468-9.281,20.75-20.75,20.75
	c-11.468,0-20.75-9.281-20.75-20.75C235.25,244.532,244.53,235.25,256,235.25 M256,230.25c-14.221,0-25.75,11.529-25.75,25.75
	s11.529,25.75,25.75,25.75c14.221,0,25.75-11.529,25.75-25.75S270.221,230.25,256,230.25L256,230.25z M256.253,271.439
	c-1.818,0-3.293-1.475-3.293-3.294c0-1.818,1.475-3.292,3.293-3.292c1.819,0,3.293,1.474,3.293,3.292
	C259.546,269.964,258.072,271.439,256.253,271.439z M258.842,261.706v0.592c0,0-4.937,0-5.428,0v-0.592
	c0-1.676,0.244-3.826,2.19-5.696c1.946-1.87,4.378-3.414,4.378-5.75c0-2.582-1.792-3.948-4.051-3.948
	c-3.764,0-4.011,3.904-4.103,4.764h-5.279c0.141-4.071,1.861-9.766,9.414-9.766c6.545,0,9.488,4.384,9.488,8.495
	C265.451,256.349,258.842,257.486,258.842,261.706z"/>
</svg>
