<?xml version="1.0" encoding="utf-8"?>
<!-- Generator: Adobe Illustrator 18.1.0, SVG Export Plug-In . SVG Version: 6.00 Build 0)  -->
<svg version="1.1" id="Layer_1" xmlns="http://www.w3.org/2000/svg" xmlns:xlink="http://www.w3.org/1999/xlink" x="0px" y="0px"
	 width="64px" height="64px" viewBox="0 0 64 64" enable-background="new 0 0 64 64" xml:space="preserve">
<path id="help-3-icon" d="M32,6.2c14.3,0,25.8,11.5,25.8,25.8S46.3,57.8,32,57.8S6.2,46.3,6.2,32S17.7,6.2,32,6.2 M32,0
	C14.3,0,0,14.3,0,32s14.3,32,32,32s32-14.3,32-32S49.7,0,32,0L32,0z M32.3,51.2c-2.3,0-4.1-1.8-4.1-4.1S30,43,32.3,43
	s4.1,1.8,4.1,4.1C36.4,49.4,34.6,51.2,32.3,51.2z M35.5,39.1v0.7c0,0-6.1,0-6.7,0v-0.7c0-2.1,0.3-4.8,2.7-7.1s5.4-4.2,5.4-7.1
	c0-3.2-2.2-4.9-5-4.9c-4.7,0-5,4.9-5.1,5.9h-6.6c0.2-5.1,2.3-12.1,11.7-12.1c8.1,0,11.8,5.4,11.8,10.6
	C43.7,32.4,35.5,33.8,35.5,39.1z"/>
</svg>
