<?xml version="1.0" encoding="utf-8"?>
<!-- Generator: Adobe Illustrator 18.1.0, SVG Export Plug-In . SVG Version: 6.00 Build 0)  -->
<svg version="1.1" id="Layer_1" xmlns="http://www.w3.org/2000/svg" xmlns:xlink="http://www.w3.org/1999/xlink" x="0px" y="0px"
	 viewBox="448 0 64 64" enable-background="new 448 0 64 64" xml:space="preserve">
<path id="help-2-icon" fill="#444444" d="M480,0.1c-17.6,0-31.9,14.3-31.9,31.9s14.3,31.9,31.9,31.9s31.9-14.3,31.9-31.9
	S497.6,0.1,480,0.1z M480.3,53.2c-2.5,0-4.5-2-4.5-4.5c0-2.5,2-4.5,4.5-4.5c2.5,0,4.5,2,4.5,4.5C484.9,51.2,482.9,53.2,480.3,53.2z
	 M483.9,39.8v0.8c0,0-6.8,0-7.5,0v-0.8c0-2.3,0.3-5.3,3-7.8c2.7-2.6,6-4.7,6-7.9c0-3.6-2.5-5.4-5.6-5.4c-5.2,0-5.5,5.4-5.6,6.6H467
	c0.2-5.6,2.6-13.4,13-13.4c9,0,13.1,6,13.1,11.7C493,32.4,483.9,34,483.9,39.8z"/>
</svg>
