<?xml version="1.0" encoding="utf-8"?>
<!-- Generator: Adobe Illustrator 18.1.0, SVG Export Plug-In . SVG Version: 6.00 Build 0)  -->
<svg version="1.1" id="Layer_1" xmlns="http://www.w3.org/2000/svg" xmlns:xlink="http://www.w3.org/1999/xlink" x="0px" y="0px"
	 viewBox="0 0 64 64" enable-background="new 0 0 64 64" xml:space="preserve">
<path id="help-2-icon" d="M32,0C14.3,0,0,14.3,0,32s14.3,32,32,32s32-14.3,32-32S49.7,0,32,0z M32.3,53.3c-2.5,0-4.5-2-4.5-4.5
	s2-4.5,4.5-4.5c2.5,0,4.5,2,4.5,4.5C36.9,51.3,34.9,53.3,32.3,53.3z M35.9,39.8v0.8c0,0-6.8,0-7.5,0v-0.8c0-2.3,0.3-5.3,3-7.8
	c2.7-2.6,6-4.7,6-7.9c0-3.6-2.5-5.4-5.6-5.4c-5.2,0-5.5,5.4-5.6,6.6H19c0.2-5.6,2.6-13.4,13-13.4c9,0,13.1,6,13.1,11.7
	C45,32.4,35.9,34,35.9,39.8z"/>
</svg>
