<?xml version="1.0" encoding="utf-8"?>
<!-- Generator: Adobe Illustrator 18.1.0, SVG Export Plug-In . SVG Version: 6.00 Build 0)  -->
<svg version="1.1" id="Layer_1" xmlns="http://www.w3.org/2000/svg" xmlns:xlink="http://www.w3.org/1999/xlink" x="0px" y="0px"
	 width="64px" height="64px" viewBox="0 0 64 64" enable-background="new 0 0 64 64" xml:space="preserve">
<path id="info-2-icon" d="M32,6.2c14.3,0,25.8,11.5,25.8,25.8S46.3,57.8,32,57.8S6.2,46.3,6.2,32S17.7,6.2,32,6.2 M32,0
	C14.3,0,0,14.3,0,32s14.3,32,32,32s32-14.3,32-32S49.7,0,32,0L32,0z M36.6,49.3h-9V28.1h9V49.3z M32.2,23.7c-2.7,0-4.9-2.2-4.9-4.9
	s2.2-4.9,4.9-4.9s4.9,2.2,4.9,4.9S34.9,23.7,32.2,23.7z"/>
</svg>
