<?xml version="1.0" encoding="utf-8"?>
<!-- Generator: Adobe Illustrator 17.0.0, SVG Export Plug-In . SVG Version: 6.00 Build 0)  -->
<!DOCTYPE svg PUBLIC "-//W3C//DTD SVG 1.1//EN" "http://www.w3.org/Graphics/SVG/1.1/DTD/svg11.dtd">
<svg version="1.1" id="Layer_1" xmlns="http://www.w3.org/2000/svg" xmlns:xlink="http://www.w3.org/1999/xlink" x="0px" y="0px"
	 width="64px" height="64px" viewBox="224 224 64 64" enable-background="new 224 224 64 64" xml:space="preserve">
<g>
	<path id="info-icon" d="M256,230.25c-14.221,0-25.75,11.529-25.75,25.75c0,14.221,11.529,25.75,25.75,25.75
		c14.221,0,25.75-11.529,25.75-25.75C281.75,241.779,270.221,230.25,256,230.25z M260.128,271.155h-8.006v-18.787h8.006V271.155z
		 M256.125,248.611c-2.386,0-4.32-1.935-4.32-4.32c0-2.386,1.934-4.32,4.32-4.32c2.386,0,4.32,1.935,4.32,4.32
		C260.445,246.676,258.511,248.611,256.125,248.611z"/>
</g>
</svg>
