<?xml version="1.0" encoding="utf-8"?>
<!-- Generator: Adobe Illustrator 18.1.0, SVG Export Plug-In . SVG Version: 6.00 Build 0)  -->
<svg version="1.1" id="Layer_1" xmlns="http://www.w3.org/2000/svg" xmlns:xlink="http://www.w3.org/1999/xlink" x="0px" y="0px"
	 viewBox="0 0 64 64" enable-background="new 0 0 64 64" xml:space="preserve">
<path id="lock-12-icon" d="M32,0C14.3,0,0,14.3,0,32c0,17.7,14.3,32,32,32c17.7,0,32-14.3,32-32S49.7,0,32,0z M23.6,23
	c0-4.8,3.9-8.7,8.7-8.7S41,18.2,41,23v4.9h-3.9V23c0-2.6-2.1-4.7-4.7-4.7s-4.7,2.1-4.7,4.7v4.9h-3.9V23L23.6,23z M43.9,46.6H20.7
	V30.2h23.2V46.6z"/>
</svg>
