<?xml version="1.0" encoding="utf-8"?>
<!-- Generator: Adobe Illustrator 17.0.0, SVG Export Plug-In . SVG Version: 6.00 Build 0)  -->
<!DOCTYPE svg PUBLIC "-//W3C//DTD SVG 1.1//EN" "http://www.w3.org/Graphics/SVG/1.1/DTD/svg11.dtd">
<svg version="1.1" id="Layer_1" xmlns="http://www.w3.org/2000/svg" xmlns:xlink="http://www.w3.org/1999/xlink" x="0px" y="0px"
	 width="64px" height="64px" viewBox="224 224 64 64" enable-background="new 224 224 64 64" xml:space="preserve">
<path id="pdf-file-icon" fill="#444444" d="M258.358,262.81c0.166,0.688,0.201,1.746-0.052,2.44c-0.329,0.9-0.982,1.357-1.94,1.357
	h-1.635v-5.451h1.276C257.221,261.156,258.066,261.602,258.358,262.81z M247.129,261.028h-1.404v2.424h1.404
	c0.603,0,1.201-0.071,1.482-0.583c0.173-0.317,0.173-0.94,0-1.257C248.33,261.099,247.733,261.028,247.129,261.028z
	 M264.351,230.288v12.562h12.562L264.351,230.288z M276.96,247.223v34.527H235.04v-51.5h24.938v16.973H276.96z M250.827,261.1
	c-0.41-1.244-1.557-1.957-3.147-1.957h-4.29v9.478h2.334v-3.283h1.956c1.594,0,2.741-0.716,3.147-1.964
	C251.071,262.626,251.071,261.839,250.827,261.1z M259.589,260.319c-0.761-0.77-1.827-1.176-3.083-1.176h-4.11v9.478h4.11
	c1.382,0,2.474-0.464,3.246-1.378C261.179,265.551,261.261,262.01,259.589,260.319z M269.109,259.143h-6.759v9.478h2.334v-3.783
	h3.834v-1.885h-3.834v-1.795h4.424V259.143z"/>
</svg>
