<?xml version="1.0" encoding="utf-8"?>
<!-- Generator: Adobe Illustrator 18.1.0, SVG Export Plug-In . SVG Version: 6.00 Build 0)  -->
<svg version="1.1" id="Layer_1" xmlns="http://www.w3.org/2000/svg" xmlns:xlink="http://www.w3.org/1999/xlink" x="0px" y="0px"
	 width="64px" height="64px" viewBox="0 0 64 64" enable-background="new 0 0 64 64" xml:space="preserve">
<path id="pdf-file-icon" fill="#444444" d="M34.9,40.5c0.2,0.9,0.2,2.2-0.1,3c-0.4,1.1-1.2,1.7-2.4,1.7h-2v-6.8H32
	C33.5,38.4,34.6,39,34.9,40.5z M21,38.2h-1.7v3H21c0.7,0,1.5-0.1,1.8-0.7c0.2-0.4,0.2-1.2,0-1.6C22.5,38.3,21.7,38.2,21,38.2z
	 M42.4,0v15.6H58L42.4,0z M58,21.1V64H6V0h31v21.1H58L58,21.1z M25.6,38.3c-0.5-1.5-1.9-2.4-3.9-2.4h-5.3v11.8h2.9v-4.1h2.4
	c2,0,3.4-0.9,3.9-2.4C25.9,40.2,25.9,39.3,25.6,38.3z M36.5,37.4c-0.9-1-2.3-1.5-3.8-1.5h-5.1v11.8h5.1c1.7,0,3.1-0.6,4-1.7
	C38.4,43.9,38.5,39.5,36.5,37.4z M48.3,35.9h-8.4v11.8h2.9V43h4.8v-2.3h-4.8v-2.2h5.5L48.3,35.9L48.3,35.9z"/>
</svg>
