<?xml version="1.0" encoding="utf-8"?>

<!-- License Agreement at http://iconmonstr.com/license/ -->

<!DOCTYPE svg PUBLIC "-//W3C//DTD SVG 1.1//EN" "http://www.w3.org/Graphics/SVG/1.1/DTD/svg11.dtd">
<svg version="1.1" xmlns="http://www.w3.org/2000/svg" xmlns:xlink="http://www.w3.org/1999/xlink" x="0px" y="0px"
	 width="512px" height="512px" viewBox="0 0 512 512" style="enable-background:new 0 0 512 512;" xml:space="preserve">
<path fill="#444444" id="pdf-file-icon" d="M274.861,310.479c1.328,5.5,1.611,13.97-0.418,19.523c-2.635,7.201-7.856,10.854-15.521,10.854h-13.081
	v-43.605h10.209C265.771,297.251,272.529,300.813,274.861,310.479z M185.033,296.225h-11.234v19.392h11.234
	c4.827,0,9.605-0.565,11.854-4.667c1.387-2.537,1.387-7.52,0.001-10.057C194.639,296.789,189.861,296.225,185.033,296.225z
	 M322.805,50.302v100.493h100.493L322.805,50.302z M423.683,185.781V462H88.317V50h199.501v135.781H423.683z M214.62,296.799
	c-3.276-9.949-12.452-15.656-25.175-15.656h-34.32v75.82h18.674v-26.265h15.646c12.752,0,21.929-5.727,25.176-15.711
	C216.566,309.006,216.566,302.715,214.62,296.799z M284.716,290.553c-6.086-6.156-14.614-9.41-24.665-9.41h-32.882v75.82h32.882
	c11.059,0,19.793-3.709,25.965-11.022C297.436,332.404,298.089,304.084,284.716,290.553z M360.875,281.143h-54.07v75.82h18.674
	v-30.266h30.676v-15.083h-30.676v-14.363h35.396V281.143z"/>
</svg>
