<?xml version="1.0" encoding="utf-8"?>

<!-- License Agreement at http://iconmonstr.com/license/ -->

<!DOCTYPE svg PUBLIC "-//W3C//DTD SVG 1.1//EN" "http://www.w3.org/Graphics/SVG/1.1/DTD/svg11.dtd">
<svg version="1.1" xmlns="http://www.w3.org/2000/svg" xmlns:xlink="http://www.w3.org/1999/xlink" x="0px" y="0px"
	 width="512px" height="512px" viewBox="0 0 512 512" style="enable-background:new 0 0 512 512;" xml:space="preserve">
<path fill="#444444" id="pdf-file-2-icon" d="M297.818,90v85.75h85.864V422H128.317V90H297.818z M322.818,50H88.317v412h335.365V150.75L322.818,50z
	 M349.587,267.934h-48.662v68.239h16.807v-27.24h27.608v-13.575h-27.608v-12.926h31.855V267.934z M258.846,267.934h-29.594v68.239
	h29.594c9.952,0,17.814-3.338,23.368-9.921c10.278-12.183,10.866-37.67-1.169-49.85
	C275.567,270.862,267.892,267.934,258.846,267.934z M246.059,282.432h9.187c8.75,0,14.831,3.205,16.931,11.904
	c1.195,4.95,1.45,12.572-0.377,17.571c-2.371,6.481-7.071,9.769-13.968,9.769h-11.772V282.432z M195.3,267.934h-30.887v68.239
	h16.806v-23.639H195.3c11.479,0,19.736-5.154,22.659-14.141c1.752-5.384,1.751-11.044,0-16.37
	C215.01,273.07,206.75,267.934,195.3,267.934z M181.219,281.507h10.11c4.346,0,8.646,0.509,10.67,4.202
	c1.247,2.283,1.246,6.767-0.001,9.052c-2.024,3.69-6.323,4.198-10.669,4.198h-10.11V281.507z"/>
</svg>
