<?xml version="1.0" encoding="utf-8"?>
<!-- Generator: Adobe Illustrator 17.0.0, SVG Export Plug-In . SVG Version: 6.00 Build 0)  -->
<!DOCTYPE svg PUBLIC "-//W3C//DTD SVG 1.1//EN" "http://www.w3.org/Graphics/SVG/1.1/DTD/svg11.dtd">
<svg version="1.1" id="Layer_1" xmlns="http://www.w3.org/2000/svg" xmlns:xlink="http://www.w3.org/1999/xlink" x="0px" y="0px"
	 width="64px" height="64px" viewBox="224 224 64 64" enable-background="new 224 224 64 64" xml:space="preserve">
<path id="pdf-file-2-icon" d="M261.227,235.25v10.719h10.733v30.781H240.04v-41.5H261.227z M264.352,230.25H235.04v51.5h41.921
	v-38.906L264.352,230.25z M267.698,257.492h-6.083v8.53h2.101v-3.405h3.451v-1.697h-3.451v-1.616h3.982V257.492L267.698,257.492z
	 M256.356,257.492h-3.699v8.53h3.699c1.244,0,2.227-0.417,2.921-1.24c1.285-1.523,1.358-4.709-0.146-6.231
	C258.446,257.858,257.487,257.492,256.356,257.492z M254.757,259.304h1.148c1.094,0,1.854,0.401,2.116,1.488
	c0.149,0.619,0.181,1.572-0.047,2.196c-0.296,0.81-0.884,1.221-1.746,1.221h-1.471L254.757,259.304L254.757,259.304z
	 M248.413,257.492h-3.861v8.53h2.101v-2.955h1.76c1.435,0,2.467-0.644,2.832-1.768c0.219-0.673,0.219-1.381,0-2.046
	C250.876,258.134,249.844,257.492,248.413,257.492z M246.652,259.188h1.264c0.543,0,1.081,0.064,1.334,0.525
	c0.156,0.285,0.156,0.846,0,1.132c-0.253,0.461-0.79,0.525-1.334,0.525h-1.264V259.188L246.652,259.188z"/>
</svg>
