<?xml version="1.0" encoding="utf-8"?>
<!-- Generator: Adobe Illustrator 18.1.0, SVG Export Plug-In . SVG Version: 6.00 Build 0)  -->
<svg version="1.1" id="Layer_1" xmlns="http://www.w3.org/2000/svg" xmlns:xlink="http://www.w3.org/1999/xlink" x="0px" y="0px"
	 width="64px" height="64px" viewBox="0 0 64 64" enable-background="new 0 0 64 64" xml:space="preserve">
<path id="pdf-file-2-icon" d="M38.5,6.2v13.3h13.3v38.3H12.2V6.2H38.5z M42.4,0H6v64h52V15.7L42.4,0z M46.5,33.9H39v10.6h2.6v-4.2
	h4.3v-2.1h-4.3v-2h4.9V33.9L46.5,33.9z M32.4,33.9h-4.6v10.6h4.6c1.5,0,2.8-0.5,3.6-1.5c1.6-1.9,1.7-5.9-0.2-7.7
	C35,34.3,33.8,33.9,32.4,33.9z M30.5,36.1h1.4c1.4,0,2.3,0.5,2.6,1.8c0.2,0.8,0.2,2-0.1,2.7c-0.4,1-1.1,1.5-2.2,1.5h-1.8L30.5,36.1
	L30.5,36.1z M22.6,33.9h-4.8v10.6h2.6v-3.7h2.2c1.8,0,3.1-0.8,3.5-2.2c0.3-0.8,0.3-1.7,0-2.5C25.6,34.7,24.3,33.9,22.6,33.9z
	 M20.4,36H22c0.7,0,1.3,0.1,1.7,0.7c0.2,0.4,0.2,1.1,0,1.4c-0.3,0.6-1,0.7-1.7,0.7h-1.6V36L20.4,36z"/>
</svg>
