<?xml version="1.0" encoding="utf-8"?>
<!-- Generator: Adobe Illustrator 18.1.0, SVG Export Plug-In . SVG Version: 6.00 Build 0)  -->
<svg version="1.1" id="Layer_1" xmlns="http://www.w3.org/2000/svg" xmlns:xlink="http://www.w3.org/1999/xlink" x="0px" y="0px"
	 width="64px" height="64px" viewBox="0 0 64 64" enable-background="new 0 0 64 64" xml:space="preserve">
<path id="plus-5-icon" fill="#444444" d="M48.7,37H36.9v11.8h-9.1V37H15.9v-9.1h11.8V16h9.1v11.8h11.8L48.7,37L48.7,37z M64,32
	c0,17.7-14.3,32-32,32S0,49.7,0,32S14.3,0,32,0S64,14.3,64,32z M57.8,32C57.8,17.7,46.3,6.2,32,6.2S6.2,17.7,6.2,32
	S17.7,57.8,32,57.8S57.8,46.3,57.8,32z"/>
</svg>
