<?xml version="1.0" encoding="utf-8"?>
<!-- Generator: Adobe Illustrator 17.0.0, SVG Export Plug-In . SVG Version: 6.00 Build 0)  -->
<!DOCTYPE svg PUBLIC "-//W3C//DTD SVG 1.1//EN" "http://www.w3.org/Graphics/SVG/1.1/DTD/svg11.dtd">
<svg version="1.1" id="Layer_1" xmlns="http://www.w3.org/2000/svg" xmlns:xlink="http://www.w3.org/1999/xlink" x="0px" y="0px"
	 width="64px" height="64px" viewBox="388.945 563.275 64 64" enable-background="new 388.945 563.275 64 64" xml:space="preserve">
<path d="M444.582,617.46c-2.704,0-4.908,2.203-4.908,4.908s2.203,4.908,4.908,4.908s4.908-2.203,4.908-4.908
	S447.286,617.46,444.582,617.46z M405.721,617.46c-2.704,0-4.908,2.203-4.908,4.908s2.203,4.908,4.908,4.908
	s4.908-2.203,4.908-4.908S408.425,617.46,405.721,617.46z M441.177,597.629l11.318-11.318v-15.324h-48.476l-2.804-7.712h-8.213
	c-2.003,0-3.606,1.602-3.606,3.606c0,2.003,1.603,3.606,3.606,3.606h3.005l9.815,26.842l-5.208,16.225h47.474
	c2.003,0,3.606-1.602,3.606-3.606c0-2.003-1.603-3.606-3.606-3.606h-37.358l2.804-8.714H441.177L441.177,597.629z"/>
</svg>
