<?xml version="1.0" encoding="utf-8"?>
<!-- Generator: Adobe Illustrator 18.1.0, SVG Export Plug-In . SVG Version: 6.00 Build 0)  -->
<svg version="1.1" id="Layer_1" xmlns="http://www.w3.org/2000/svg" xmlns:xlink="http://www.w3.org/1999/xlink" x="0px" y="0px"
	 viewBox="0 0 64 64" enable-background="new 0 0 64 64" xml:space="preserve">
<path d="M55.1,54.1c-2.7,0-4.9,2.2-4.9,4.9c0,2.7,2.2,4.9,4.9,4.9c2.7,0,4.9-2.2,4.9-4.9C60,56.3,57.8,54.1,55.1,54.1z M16.3,54.1
	c-2.7,0-4.9,2.2-4.9,4.9c0,2.7,2.2,4.9,4.9,4.9c2.7,0,4.9-2.2,4.9-4.9C21.2,56.3,19,54.1,16.3,54.1z M51.7,34.3l11.3-11.3V7.7H14.6
	L11.8,0H3.6C1.6,0,0,1.6,0,3.6c0,2,1.6,3.6,3.6,3.6h3l9.8,26.8l-5.2,16.2h47.4c2,0,3.6-1.6,3.6-3.6c0-2-1.6-3.6-3.6-3.6H21.3
	l2.8-8.7H51.7z"/>
</svg>
