<?xml version="1.0" encoding="utf-8"?>
<!-- Generator: Adobe Illustrator 18.1.0, SVG Export Plug-In . SVG Version: 6.00 Build 0)  -->
<svg version="1.1" id="Layer_1" xmlns="http://www.w3.org/2000/svg" xmlns:xlink="http://www.w3.org/1999/xlink" x="0px" y="0px"
	 width="64px" height="64px" viewBox="0 0 64 64" enable-background="new 0 0 64 64" xml:space="preserve">
<path d="M55.6,54.2c-2.7,0-4.9,2.2-4.9,4.9s2.2,4.9,4.9,4.9s4.9-2.2,4.9-4.9S58.3,54.2,55.6,54.2z M16.8,54.2
	c-2.7,0-4.9,2.2-4.9,4.9s2.2,4.9,4.9,4.9s4.9-2.2,4.9-4.9S19.5,54.2,16.8,54.2z M52.2,34.4L63.5,23V7.7H15.1L12.3,0H4.1
	c-2,0-3.6,1.6-3.6,3.6s1.6,3.6,3.6,3.6h3L16.9,34l-5.2,16.2h47.5c2,0,3.6-1.6,3.6-3.6S61.2,43,59.2,43H21.8l2.8-8.7L52.2,34.4
	L52.2,34.4z"/>
</svg>
