<?xml version="1.0" encoding="utf-8"?>
<!-- Generator: Adobe Illustrator 17.0.0, SVG Export Plug-In . SVG Version: 6.00 Build 0)  -->
<!DOCTYPE svg PUBLIC "-//W3C//DTD SVG 1.1//EN" "http://www.w3.org/Graphics/SVG/1.1/DTD/svg11.dtd">
<svg version="1.1" id="Layer_1" xmlns="http://www.w3.org/2000/svg" xmlns:xlink="http://www.w3.org/1999/xlink" x="0px" y="0px"
	 width="64px" height="64px" viewBox="0 0 64 64" enable-background="new 0 0 64 64" xml:space="preserve">
<path id="check-mark-4-icon" d="M57.75,32c0,14.221-11.529,25.75-25.75,25.75C17.779,57.75,6.25,46.221,6.25,32S17.779,6.25,32,6.25
	C46.221,6.25,57.75,17.779,57.75,32z M52.75,32c0-11.469-9.282-20.75-20.75-20.75c-11.469,0-20.75,9.282-20.75,20.75
	c0,11.469,9.282,20.75,20.75,20.75C43.469,52.75,52.75,43.468,52.75,32z M42.278,20.955L27.764,35.469l-6.287-6.289l-4.662,4.663
	l10.949,10.952l19.178-19.18L42.278,20.955z"/>
</svg>
