<?xml version="1.0" encoding="utf-8"?>
<!-- Generator: Adobe Illustrator 17.0.0, SVG Export Plug-In . SVG Version: 6.00 Build 0)  -->
<!DOCTYPE svg PUBLIC "-//W3C//DTD SVG 1.1//EN" "http://www.w3.org/Graphics/SVG/1.1/DTD/svg11.dtd">
<svg version="1.1" id="Layer_1" xmlns="http://www.w3.org/2000/svg" xmlns:xlink="http://www.w3.org/1999/xlink" x="0px" y="0px"
	 width="64px" height="64px" viewBox="224 224 64 64" enable-background="new 224 224 64 64" xml:space="preserve">
<path id="info-2-icon" d="M256,235.25c11.467,0,20.75,9.28,20.75,20.75c0,11.468-9.281,20.75-20.75,20.75
	c-11.468,0-20.75-9.28-20.75-20.75C235.25,244.532,244.53,235.25,256,235.25 M256,230.25c-14.221,0-25.75,11.529-25.75,25.75
	c0,14.221,11.529,25.75,25.75,25.75c14.221,0,25.75-11.529,25.75-25.75C281.75,241.779,270.221,230.25,256,230.25L256,230.25z
	 M259.728,269.946h-7.206v-17.121h7.206V269.946z M256.125,249.284c-2.19,0-3.966-1.776-3.966-3.966c0-2.19,1.776-3.966,3.966-3.966
	c2.191,0,3.966,1.776,3.966,3.966C260.091,247.508,258.315,249.284,256.125,249.284z"/>
</svg>
