<?xml version="1.0" encoding="utf-8"?>
<!-- Generator: Adobe Illustrator 18.1.0, SVG Export Plug-In . SVG Version: 6.00 Build 0)  -->
<svg version="1.1" id="Layer_1" xmlns="http://www.w3.org/2000/svg" xmlns:xlink="http://www.w3.org/1999/xlink" x="0px" y="0px"
	 width="64px" height="64px" viewBox="0 0 64 64" enable-background="new 0 0 64 64" xml:space="preserve">
<path id="help-icon" d="M32.5,64c-3.9,0-7-3.1-7-7s3.1-7,7-7s7,3.1,7,7S36.4,64,32.5,64z M38,43.3v1.3c0,0-10.5,0-11.5,0v-1.3
	c0-3.6,0.5-8.1,4.7-12.1c4.1-4,9.3-7.3,9.3-12.2c0-5.5-3.8-8.4-8.6-8.4c-8,0-8.5,8.3-8.7,10.1H11.9c0.3-8.6,4-20.7,20-20.7
	c13.9,0,20.2,9.3,20.2,18C52.1,31.9,38,34.4,38,43.3z"/>
</svg>
