<?xml version="1.0" encoding="utf-8"?>
<!-- Generator: Adobe Illustrator 17.0.0, SVG Export Plug-In . SVG Version: 6.00 Build 0)  -->
<!DOCTYPE svg PUBLIC "-//W3C//DTD SVG 1.1//EN" "http://www.w3.org/Graphics/SVG/1.1/DTD/svg11.dtd">
<svg version="1.1" id="Layer_1" xmlns="http://www.w3.org/2000/svg" xmlns:xlink="http://www.w3.org/1999/xlink" x="0px" y="0px"
	 width="64px" height="64px" viewBox="0 0 64 64" enable-background="new 0 0 64 64" xml:space="preserve">
<path id="calendar-5-icon" fill="#444444" d="M24.683,36.994H17.32v-7.363h7.363V36.994z M35.807,29.631h-7.363v7.363h7.363V29.631z
	 M46.932,29.631h-7.363v7.363h7.363V29.631z M24.683,40.381H17.32v7.363h7.363V40.381z M35.807,40.381h-7.363v7.363h7.363V40.381z
	 M46.932,40.381h-7.363v7.363h7.363V40.381z M49.675,14.766c0,1.254-1.017,2.271-2.271,2.271s-2.271-1.017-2.271-2.271V9.05
	c0-1.254,1.017-2.271,2.271-2.271s2.271,1.017,2.271,2.271V14.766z M18.987,9.04c0-1.254-1.017-2.271-2.271-2.271
	c-1.255,0-2.271,1.017-2.271,2.271v5.716c0,1.254,1.017,2.271,2.271,2.271s2.271-1.017,2.271-2.271V9.04z M52.42,12.356v2.327
	c0,2.766-2.25,5.017-5.017,5.017c-2.766,0-5.017-2.25-5.017-5.017v-2.327H21.732v2.317c0,2.766-2.251,5.017-5.017,5.017
	c-2.766,0-5.017-2.25-5.017-5.017v-2.317H6.25v44.875h51.5V12.356L52.42,12.356L52.42,12.356z M52.751,52.231h-41.5V24.422h41.5
	V52.231z"/>
</svg>
