<?xml version="1.0" encoding="utf-8"?>
<!-- Generator: Adobe Illustrator 17.0.0, SVG Export Plug-In . SVG Version: 6.00 Build 0)  -->
<!DOCTYPE svg PUBLIC "-//W3C//DTD SVG 1.1//EN" "http://www.w3.org/Graphics/SVG/1.1/DTD/svg11.dtd">
<svg version="1.1" id="Layer_1" xmlns="http://www.w3.org/2000/svg" xmlns:xlink="http://www.w3.org/1999/xlink" x="0px" y="0px"
	 width="64px" height="64px" viewBox="388.945 563.275 64 64" enable-background="new 388.945 563.275 64 64" xml:space="preserve">
<path id="help-2-icon" d="M420.945,569.525c-14.207,0-25.75,11.543-25.75,25.75s11.543,25.75,25.75,25.75s25.75-11.543,25.75-25.75
	S435.152,569.525,420.945,569.525z M421.187,612.388c-2.018,0-3.632-1.614-3.632-3.632s1.614-3.632,3.632-3.632
	c2.018,0,3.632,1.614,3.632,3.632C424.9,610.773,423.286,612.388,421.187,612.388z M424.093,601.571v0.646c0,0-5.489,0-6.054,0
	v-0.646c0-1.857,0.242-4.278,2.422-6.296c2.18-2.099,4.843-3.794,4.843-6.377c0-2.906-2.018-4.359-4.52-4.359
	c-4.197,0-4.44,4.359-4.52,5.328h-5.812c0.161-4.52,2.099-10.817,10.494-10.817c7.265,0,10.574,4.843,10.574,9.444
	C431.439,595.598,424.093,596.889,424.093,601.571z"/>
</svg>
