<?xml version="1.0" encoding="utf-8"?>
<!-- Generator: Adobe Illustrator 18.1.0, SVG Export Plug-In . SVG Version: 6.00 Build 0)  -->
<svg version="1.1" id="Layer_1" xmlns="http://www.w3.org/2000/svg" xmlns:xlink="http://www.w3.org/1999/xlink" x="0px" y="0px"
	 width="64px" height="64px" viewBox="0 0 64 64" enable-background="new 0 0 64 64" xml:space="preserve">
<path id="smartphone-4-icon" d="M41.9,0H22.1C19.9,0,18,2.3,18,5.1v53.7c0,2.8,1.8,5.1,4.1,5.1h19.7c2.3,0,4.1-2.3,4.1-5.1V5.1
	C46,2.3,44.1,0,41.9,0z M29.8,4.7h4.6c0.3,0,0.5,0.3,0.5,0.6c0,0.3-0.2,0.6-0.5,0.6h-4.6c-0.3,0-0.5-0.3-0.5-0.6
	C29.3,5,29.5,4.7,29.8,4.7z M32.1,61.1c-1.1,0-2-1.1-2-2.5s0.9-2.5,2-2.5c1.1,0,2,1.1,2,2.5C34.1,59.9,33.2,61.1,32.1,61.1z
	 M42.8,53.4H21.2V10.6h21.7v42.8H42.8z"/>
</svg>
