<?xml version="1.0" encoding="utf-8"?>
<!-- Generator: Adobe Illustrator 17.0.0, SVG Export Plug-In . SVG Version: 6.00 Build 0)  -->
<!DOCTYPE svg PUBLIC "-//W3C//DTD SVG 1.1//EN" "http://www.w3.org/Graphics/SVG/1.1/DTD/svg11.dtd">
<svg version="1.1" id="Layer_1" xmlns="http://www.w3.org/2000/svg" xmlns:xlink="http://www.w3.org/1999/xlink" x="0px" y="0px"
	 width="64px" height="64px" viewBox="224 224 64 64" enable-background="new 224 224 64 64" xml:space="preserve">
<path id="smartphone-4-icon" d="M265.854,230.25h-19.708c-2.278,0-4.125,1.847-4.125,4.125v43.25c0,2.278,1.847,4.125,4.125,4.125
	h19.708c2.278,0,4.125-1.847,4.125-4.125v-43.25C269.979,232.097,268.132,230.25,265.854,230.25z M253.812,234.028h4.625
	c0.276,0,0.5,0.224,0.5,0.5s-0.224,0.5-0.5,0.5h-4.625c-0.276,0-0.5-0.224-0.5-0.5S253.536,234.028,253.812,234.028z
	 M256.125,279.382c-1.105,0-2-0.895-2-2c0-1.105,0.895-2,2-2c1.104,0,2,0.895,2,2C258.125,278.487,257.229,279.382,256.125,279.382z
	 M266.844,273.219h-21.687v-34.438h21.687V273.219z"/>
</svg>
