<?xml version="1.0" encoding="utf-8"?>
<!-- Generator: Adobe Illustrator 18.1.1, SVG Export Plug-In . SVG Version: 6.00 Build 0)  -->
<svg version="1.1" id="Layer_1" xmlns="http://www.w3.org/2000/svg" xmlns:xlink="http://www.w3.org/1999/xlink" x="0px" y="0px"
	 viewBox="1 249 64 64" enable-background="new 1 249 64 64" xml:space="preserve">
<path id="fax-icon" d="M41,284.4c-0.5,0.3-2.4,1.3-2.5,1.3c-6.7,3.3-18.1-18.1-11.6-21.7c0,0,1.9-1,2.5-1.3l3.5,6.5l-2.5,1.3
	c-2,1.1,2.6,9.7,4.6,8.6c0.1,0,1.9-1,2.5-1.3L41,284.4z M65,278.3v32H1v-32h10.7v-26.7h27.5c4.1,0,15.1,12.9,15.1,16.1v10.6H65
	L65,278.3z M49,269.3c0-3.6-6.1-4-8.7-3.3c1.2-2.2,0.8-9-2.9-9H17v34.7h32V269.3z"/>
</svg>
