<?xml version="1.0" encoding="utf-8"?>
<!-- Generator: Adobe Illustrator 18.1.0, SVG Export Plug-In . SVG Version: 6.00 Build 0)  -->
<svg version="1.1" id="Layer_1" xmlns="http://www.w3.org/2000/svg" xmlns:xlink="http://www.w3.org/1999/xlink" x="0px" y="0px"
	 width="64px" height="64px" viewBox="0 0 64 64" enable-background="new 0 0 64 64" xml:space="preserve">
<g id="Layer_3">
	<path id="megaphone-3-icon" d="M61,20.1L53.6,24l-1.8-3.5l7.4-3.9L61,20.1z M49.5,16.7L46,14.9l4-7.6l3.5,1.8L49.5,16.7z
		 M63.6,32.9L55.1,32l0.4-3.9L64,29L63.6,32.9z M31.4,48.1l4.5-0.9l-1.8,5.7c-0.3,1-1.2,1.8-2.3,2l-8.3,1.7c-1,0.2-2.1-0.2-2.8-0.9
		L16.6,51l4.5-0.9l1.7,1.9c0.5,0.5,1.2,0.8,1.9,0.6l4.5-0.9c0.7-0.1,1.3-0.7,1.5-1.4L31.4,48.1z M7.3,40.4c-1.3,1.4-3.1,2.2-5,2.3
		L0,42.9l6,11.3l1.4-1.8c1.2-1.5,2.9-2.5,4.8-2.9l43.5-8.6L38.8,9.1L7.3,40.4z"/>
</g>
</svg>
