<?xml version="1.0" encoding="utf-8"?>
<!-- Generator: Adobe Illustrator 18.1.1, SVG Export Plug-In . SVG Version: 6.00 Build 0)  -->
<svg version="1.1" id="Layer_1" xmlns="http://www.w3.org/2000/svg" xmlns:xlink="http://www.w3.org/1999/xlink" x="0px" y="0px"
	 width="64px" height="64px" viewBox="0 0 64 64" enable-background="new 0 0 64 64" xml:space="preserve">
<path id="f" d="M34.5,48V33.4h4.9l0.8-5.7h-5.7V24c0-1.6,0.5-2.8,2.8-2.8h3v-5.1C39.8,16.1,38,16,35.9,16c-4.3,0-7.3,2.6-7.3,7.5
	v4.2h-4.9v5.7h4.9V48H34.5z"/>
<path id="coin-2-icon" d="M32,6.2c14.3,0,25.8,11.5,25.8,25.8S46.3,57.8,32,57.8S6.2,46.3,6.2,32S17.7,6.2,32,6.2 M32,0
	C14.3,0,0,14.3,0,32s14.3,32,32,32s32-14.3,32-32S49.7,0,32,0L32,0z"/>
</svg>
