<?xml version="1.0" encoding="utf-8"?>
<!-- Generator: Adobe Illustrator 18.1.1, SVG Export Plug-In . SVG Version: 6.00 Build 0)  -->
<svg version="1.1" id="Layer_1" xmlns="http://www.w3.org/2000/svg" xmlns:xlink="http://www.w3.org/1999/xlink" x="0px" y="0px"
	 width="64px" height="64px" viewBox="0 0 64 64" enable-background="new 0 0 64 64" xml:space="preserve">
<g>
	<path d="M32.2,26.3c0-3-1.7-7.7-5.2-7.7c-1.1,0-2.2,0.6-2.9,1.4c-0.7,0.9-0.9,2-0.9,3.1c0,2.8,1.6,7.4,5.2,7.4c1,0,2.2-0.5,2.8-1.2
		C32.1,28.4,32.2,27.1,32.2,26.3z"/>
	<path d="M30.1,37.2c-0.4,0-0.6,0-1,0c-0.4,0-2.7,0.1-4.4,0.7c-0.9,0.3-3.6,1.3-3.6,4.3s2.8,5.1,7.3,5.1c4,0,6.2-2,6.2-4.6
		C34.6,40.6,33.3,39.5,30.1,37.2z"/>
	<path d="M32,0C14.3,0,0,14.3,0,32s14.3,32,32,32s32-14.3,32-32S49.7,0,32,0z M26.3,49.1c-6.1,0-9-2.9-9-6c0-1.5,0.7-3.6,3.2-5.1
		c2.6-1.6,6.1-1.8,8-1.9c-0.5-0.7-1.2-1.5-1.2-2.8c0-0.7,0.2-1.1,0.4-1.6c-0.4,0.1-0.9,0.1-1.3,0.1c-4.4,0-6.9-3.3-6.9-6.6
		c0-1.9,0.9-4.1,2.7-5.6c2.4-2,5.6-2.5,7.9-2.5h8.2l-2.7,1.7H33c1,0.8,3,2.4,3,5.6c0,3.1-1.8,4.5-3.5,5.9c-0.6,0.5-1.2,1.1-1.2,2
		c0,0.9,0.6,1.4,1.1,1.8l1.5,1.2c1.8,1.5,3.5,2.9,3.4,5.9C37.3,45.1,33.5,49.1,26.3,49.1z M48.6,32.5h-4.2v4.2h-2.1v-4.2h-4.2v-2.1
		h4.2v-4.2h2.1v4.2h4.2V32.5z"/>
</g>
</svg>
