<?xml version="1.0" encoding="utf-8"?>
<!-- Generator: Adobe Illustrator 18.1.1, SVG Export Plug-In . SVG Version: 6.00 Build 0)  -->
<svg version="1.1" id="Layer_1" xmlns="http://www.w3.org/2000/svg" xmlns:xlink="http://www.w3.org/1999/xlink" x="0px" y="0px"
	 width="64px" height="64px" viewBox="0 0 64 64" enable-background="new 0 0 64 64" xml:space="preserve">
<g>
	<path d="M63.4,44.8c0,0-0.6,4.4-2.5,6.4c-2.4,2.5-5.2,2.6-6.4,2.7c-9,0.6-22.4,0.7-22.4,0.7S15.5,54.4,10.3,54
		c-1.4-0.3-4.6-0.2-7.1-2.7c-1.9-1.9-2.5-6.4-2.5-6.4S0,39.6,0,34.4v-4.9c0-5.2,0.6-10.4,0.6-10.4s0.6-4.4,2.5-6.4
		c2.4-2.5,5.2-2.6,6.4-2.7C18.6,9.5,32,9.5,32,9.5l0,0c0,0,13.4,0,22.4,0.6c1.3,0.1,4,0.2,6.4,2.7c1.9,1.9,2.5,6.4,2.5,6.4
		S64,24.4,64,29.6v4.9C64,39.6,63.4,44.8,63.4,44.8z M25.4,22.3v18l17.2-9L25.4,22.3z"/>
</g>
</svg>
