<?xml version="1.0" encoding="utf-8"?>
<!-- Generator: Adobe Illustrator 18.1.1, SVG Export Plug-In . SVG Version: 6.00 Build 0)  -->
<svg version="1.1" id="Layer_1" xmlns="http://www.w3.org/2000/svg" xmlns:xlink="http://www.w3.org/1999/xlink" x="0px" y="0px"
	 width="64px" height="64px" viewBox="0 0 64 64" enable-background="new 0 0 64 64" xml:space="preserve">
<g>
	<path d="M32,38.2c3.4,0,6.2-2.8,6.2-6.2s-2.8-6.2-6.2-6.2s-6.2,2.8-6.2,6.2S28.6,38.2,32,38.2z"/>
	<path d="M41.5,29.5c0.2,0.8,0.3,1.6,0.3,2.5c0,5.5-4.4,9.8-9.8,9.8s-9.9-4.4-9.9-9.8c0-0.8,0.1-1.7,0.3-2.5h-2.7v13.5
		c0,0.7,0.5,1.3,1.3,1.3h22.1c0.7,0,1.3-0.5,1.3-1.3V29.5h0H41.5z"/>
	<path d="M39.3,25.8H43c0.7,0,1.3-0.5,1.3-1.3v-3.7c0-0.7-0.5-1.3-1.3-1.3h-3.7c-0.7,0-1.3,0.5-1.3,1.3v3.7
		C38.1,25.3,38.7,25.8,39.3,25.8z"/>
	<path d="M32,0C14.3,0,0,14.3,0,32s14.3,32,32,32s32-14.3,32-32S49.7,0,32,0z M48,44.3c0,2-1.7,3.7-3.7,3.7H19.7
		c-2,0-3.7-1.7-3.7-3.7V19.7c0-2,1.7-3.7,3.7-3.7h24.6c2,0,3.7,1.7,3.7,3.7V44.3z"/>
</g>
</svg>
