<?xml version="1.0" encoding="utf-8"?>
<!-- Generator: Adobe Illustrator 18.1.1, SVG Export Plug-In . SVG Version: 6.00 Build 0)  -->
<svg version="1.1" id="Layer_1" xmlns="http://www.w3.org/2000/svg" xmlns:xlink="http://www.w3.org/1999/xlink" x="0px" y="0px"
	 width="64px" height="64px" viewBox="0 0 64 64" enable-background="new 0 0 64 64" xml:space="preserve">
<path d="M32,0C14.3,0,0,14.3,0,32s14.3,32,32,32s32-14.3,32-32S49.7,0,32,0z M45.8,27.4c0,0.3,0,0.6,0,0.9C45.8,37,39.2,47,27.1,47
	c-3.7,0-7.2-1.1-10.1-3c0.5,0.1,1,0.1,1.6,0.1c3.1,0,5.9-1.1,8.1-2.8c-2.9-0.1-5.3-2-6.2-4.6c0.4,0.1,0.9,0.1,1.3,0.1
	c0.6,0,1.2-0.1,1.8-0.3c-3-0.6-5.3-3.3-5.3-6.5c0-0.1,0-0.1,0-0.1c0.9,0.5,1.9,0.8,3,0.8c-1.8-1.2-2.9-3.2-2.9-5.5
	c0-1.2,0.4-2.4,0.9-3.3c3.3,4,8.1,6.6,13.5,6.9c-0.1-0.5-0.2-1-0.2-1.5c0-3.6,2.9-6.6,6.6-6.6c1.9,0,3.6,0.8,4.9,2.1
	c1.5-0.3,2.9-0.9,4.2-1.6c-0.5,1.6-1.6,2.9-2.9,3.7c1.3-0.2,2.6-0.6,3.8-1.1C48.1,25.4,47,26.5,45.8,27.4z"/>
</svg>
