<?xml version="1.0" encoding="utf-8"?>
<!-- Generator: Adobe Illustrator 18.1.1, SVG Export Plug-In . SVG Version: 6.00 Build 0)  -->
<svg version="1.1" id="Layer_1" xmlns="http://www.w3.org/2000/svg" xmlns:xlink="http://www.w3.org/1999/xlink" x="0px" y="0px"
	 width="64px" height="64px" viewBox="0 0 64 64" enable-background="new 0 0 64 64" xml:space="preserve">
<path d="M56.6,27.1H51c0.4,1.6,0.6,3.2,0.6,4.9c0,10.9-8.8,19.7-19.7,19.7S12.2,42.9,12.2,32c0-1.7,0.2-3.3,0.6-4.9H7.4v27.1
	c0,1.4,1.1,2.5,2.5,2.5h44.3c1.4,0,2.5-1.1,2.5-2.5L56.6,27.1L56.6,27.1z M56.6,9.8c0-1.4-1.1-2.5-2.5-2.5h-7.4
	c-1.4,0-2.5,1.1-2.5,2.5v7.4c0,1.4,1.1,2.5,2.5,2.5h7.4c1.4,0,2.5-1.1,2.5-2.5V9.8z M32,19.7c-6.8,0-12.3,5.5-12.3,12.3
	S25.2,44.3,32,44.3S44.3,38.8,44.3,32S38.8,19.7,32,19.7 M56.6,64H7.4C3.3,64,0,60.7,0,56.6V7.4C0,3.3,3.3,0,7.4,0h49.2
	C60.7,0,64,3.3,64,7.4v49.2C64,60.7,60.7,64,56.6,64"/>
</svg>
