<?xml version="1.0" encoding="utf-8"?>
<!-- Generator: Adobe Illustrator 18.1.1, SVG Export Plug-In . SVG Version: 6.00 Build 0)  -->
<svg version="1.1" id="Layer_1" xmlns="http://www.w3.org/2000/svg" xmlns:xlink="http://www.w3.org/1999/xlink" x="0px" y="0px"
	 width="64px" height="64px" viewBox="0 0 64 64" enable-background="new 0 0 64 64" xml:space="preserve">
<g>
	<polygon points="27.8,37.1 38.5,31.5 27.8,25.9 	"/>
	<path d="M32,0C14.3,0,0,14.3,0,32s14.3,32,32,32s32-14.3,32-32S49.7,0,32,0z M52,33.5c-0.1,3.2-0.5,6.5-0.5,6.5s-0.4,2.7-1.6,4
		c-1.5,1.6-3.2,1.6-4,1.6c-5.5,0.4-14,0.5-14,0.5S21.6,46,18.4,45.7c-0.9-0.2-2.9-0.1-4.4-1.7c-1.2-1.2-1.6-4-1.6-4S12,36.7,12,33.5
		v-3c0-3.2,0.4-6.5,0.4-6.5s0.4-2.7,1.6-4c1.5-1.6,3.2-1.6,4-1.7c5.6-0.4,14.1-0.4,14.1-0.4s8.3,0,14,0.4c0.7,0.1,2.5,0.1,4,1.7
		c1.2,1.1,1.6,4,1.6,4s0.4,3.2,0.4,6.5V33.5z"/>
</g>
</svg>
