<?xml version="1.0" encoding="utf-8"?>
<!-- Generator: Adobe Illustrator 18.1.1, SVG Export Plug-In . SVG Version: 6.00 Build 0)  -->
<svg version="1.1" id="Layer_1" xmlns="http://www.w3.org/2000/svg" xmlns:xlink="http://www.w3.org/1999/xlink" x="0px" y="0px"
	 width="64px" height="64px" viewBox="0 0 64 64" enable-background="new 0 0 64 64" xml:space="preserve">
<path d="M49,24.1c-1.2,0.5-2.5,0.9-3.8,1.1c1.4-0.8,2.4-2.1,2.9-3.7c-1.3,0.8-2.7,1.3-4.2,1.6c-1.3-1.3-3-2.1-4.9-2.1
	c-3.7,0-6.6,3-6.6,6.6c0,0.5,0.1,1,0.2,1.5c-5.5-0.3-10.3-2.9-13.5-6.9c-0.6,1-0.9,2.1-0.9,3.3c0,2.3,1.2,4.3,2.9,5.5
	c-1.1-0.1-2.1-0.4-3-0.8c0,0.1,0,0.1,0,0.1c0,3.2,2.3,5.9,5.3,6.5C23,36.9,22.4,37,21.8,37c-0.4,0-0.9-0.1-1.3-0.1
	c0.9,2.6,3.3,4.5,6.2,4.6c-2.2,1.7-5.1,2.8-8.1,2.8c-0.6,0-1.1-0.1-1.6-0.1c2.9,1.9,6.4,3,10.1,3c12.1,0,18.7-10,18.7-18.7
	c0-0.3,0-0.6,0-0.9C47,26.5,48.1,25.4,49,24.1z"/>
<path id="coin-2-icon" d="M32,6.2c14.3,0,25.8,11.5,25.8,25.8S46.3,57.8,32,57.8S6.2,46.3,6.2,32S17.7,6.2,32,6.2 M32,0
	C14.3,0,0,14.3,0,32s14.3,32,32,32s32-14.3,32-32S49.7,0,32,0L32,0z"/>
</svg>
