<?xml version="1.0" encoding="utf-8"?>
<!-- Generator: Adobe Illustrator 18.1.1, SVG Export Plug-In . SVG Version: 6.00 Build 0)  -->
<svg version="1.1" id="Layer_1" xmlns="http://www.w3.org/2000/svg" xmlns:xlink="http://www.w3.org/1999/xlink" x="0px" y="0px"
	 width="64px" height="64px" viewBox="0 0 64 64" enable-background="new 0 0 64 64" xml:space="preserve">
<path d="M44.3,29.5h-2.8c0.2,0.8,0.3,1.6,0.3,2.5c0,5.5-4.4,9.8-9.9,9.8s-9.9-4.4-9.9-9.8c0-0.9,0.1-1.6,0.3-2.5h-2.7v13.5
	c0,0.7,0.5,1.3,1.3,1.3h22.1c0.7,0,1.3-0.5,1.3-1.3L44.3,29.5L44.3,29.5z M44.3,20.9c0-0.7-0.5-1.3-1.3-1.3h-3.7
	c-0.7,0-1.3,0.6-1.3,1.3v3.7c0,0.7,0.5,1.3,1.3,1.3H43c0.7,0,1.3-0.6,1.3-1.3V20.9z M32,25.9c-3.4,0-6.1,2.8-6.1,6.1
	s2.8,6.2,6.1,6.2s6.2-2.8,6.2-6.2S35.4,25.9,32,25.9 M44.3,48H19.7c-2.1,0-3.7-1.7-3.7-3.7V19.7c0-2.1,1.6-3.7,3.7-3.7h24.6
	c2,0,3.7,1.6,3.7,3.7v24.6C48,46.3,46.3,48,44.3,48"/>
<path id="coin-2-icon" d="M32,6.2c14.3,0,25.8,11.5,25.8,25.8S46.3,57.8,32,57.8S6.2,46.3,6.2,32S17.7,6.2,32,6.2 M32,0
	C14.3,0,0,14.3,0,32s14.3,32,32,32s32-14.3,32-32S49.7,0,32,0L32,0z"/>
</svg>
