<?xml version="1.0" encoding="utf-8"?>
<!-- Generator: Adobe Illustrator 18.1.1, SVG Export Plug-In . SVG Version: 6.00 Build 0)  -->
<svg version="1.1" id="Layer_1" xmlns="http://www.w3.org/2000/svg" xmlns:xlink="http://www.w3.org/1999/xlink" x="0px" y="0px"
	 width="64px" height="64px" viewBox="0 0 64 64" enable-background="new 0 0 64 64" xml:space="preserve">
<g>
	<g>
		<path d="M33.7,36.5l-3-2.3c-0.9-0.8-2.2-1.8-2.2-3.6c0-1.8,1.3-3,2.3-4.1c3.5-2.8,7-5.7,7-11.9c0-6.3-4-9.7-5.9-11.3h5.2L42.5,0
			H26.1c-4.5,0-11,1.1-15.7,5c-3.6,3.1-5.3,7.3-5.3,11.2c0,6.5,5,13.1,13.8,13.1c0.8,0,1.7-0.1,2.7-0.2c-0.4,1-0.8,1.8-0.8,3.3
			c0,2.6,1.3,4.2,2.5,5.7c-3.8,0.3-10.8,0.7-15.9,3.8c-4.9,2.9-6.4,7.2-6.4,10.2C0.9,58.2,6.7,64,18.8,64c14.3,0,21.9-7.9,21.9-15.8
			C40.7,42.5,37.4,39.6,33.7,36.5z M22.8,26.9c-7.2,0-10.4-9.3-10.4-14.9c0-2.2,0.4-4.4,1.8-6.2c1.3-1.7,3.7-2.8,5.8-2.8
			c6.9,0,10.5,9.3,10.5,15.4c0,1.5-0.2,4.2-2.1,6.1C27.1,25.9,24.9,26.9,22.8,26.9z M22.9,60.5c-8.9,0-14.7-4.3-14.7-10.2
			c0-5.9,5.3-7.9,7.2-8.6c3.5-1.2,8-1.3,8.7-1.3c0.8,0,1.2,0,1.9,0.1c6.3,4.5,9.1,6.8,9.1,11C35.1,56.7,30.9,60.5,22.9,60.5z"/>
		<polygon points="54.7,26.8 54.7,18.5 50.6,18.5 50.6,26.8 42.3,26.8 42.3,31 50.6,31 50.6,39.4 54.7,39.4 54.7,31 63.1,31 
			63.1,26.8 		"/>
	</g>
</g>
</svg>
