<?xml version="1.0" encoding="utf-8"?>
<!-- Generator: Adobe Illustrator 18.1.1, SVG Export Plug-In . SVG Version: 6.00 Build 0)  -->
<svg version="1.1" id="Layer_1" xmlns="http://www.w3.org/2000/svg" xmlns:xlink="http://www.w3.org/1999/xlink" x="0px" y="0px"
	 width="64px" height="64px" viewBox="0 0 64 64" enable-background="new 0 0 64 64" xml:space="preserve">
<g>
	<g>
		<path d="M33.9,35.3l-1.5-1.2c-0.5-0.4-1.1-0.9-1.1-1.8c0-0.9,0.6-1.5,1.2-2c1.7-1.4,3.5-2.8,3.5-5.9c0-3.2-2-4.8-3-5.6h2.6
			l2.7-1.7h-8.2c-2.3,0-5.5,0.5-7.9,2.5c-1.8,1.5-2.7,3.7-2.7,5.6c0,3.3,2.5,6.6,6.9,6.6c0.4,0,0.9,0,1.3-0.1
			c-0.2,0.5-0.4,0.9-0.4,1.6c0,1.3,0.7,2.1,1.2,2.8c-1.9,0.1-5.4,0.3-8,1.9c-2.5,1.5-3.2,3.6-3.2,5.1c0,3.1,2.9,6,9,6
			c7.2,0,11-4,11-7.9C37.4,38.2,35.7,36.8,33.9,35.3z M28.4,30.5c-3.6,0-5.2-4.6-5.2-7.4c0-1.1,0.2-2.2,0.9-3.1
			c0.7-0.8,1.8-1.4,2.9-1.4c3.5,0,5.2,4.7,5.2,7.7c0,0.8-0.1,2.1-1,3C30.6,30,29.4,30.5,28.4,30.5z M28.4,47.3
			c-4.5,0-7.3-2.1-7.3-5.1s2.7-4,3.6-4.3c1.7-0.6,4-0.7,4.4-0.7s0.6,0,1,0c3.2,2.3,4.5,3.4,4.5,5.5C34.6,45.3,32.4,47.3,28.4,47.3z"
			/>
		<polygon points="44.4,30.4 44.4,26.2 42.3,26.2 42.3,30.4 38.1,30.4 38.1,32.5 42.3,32.5 42.3,36.7 44.4,36.7 44.4,32.5 
			48.6,32.5 48.6,30.4 		"/>
	</g>
</g>
<path id="coin-2-icon" d="M32,6.2c14.3,0,25.8,11.5,25.8,25.8S46.3,57.8,32,57.8S6.2,46.3,6.2,32S17.7,6.2,32,6.2 M32,0
	C14.3,0,0,14.3,0,32s14.3,32,32,32s32-14.3,32-32S49.7,0,32,0L32,0z"/>
</svg>
