<?xml version="1.0" encoding="utf-8"?>
<!-- Generator: Adobe Illustrator 18.1.1, SVG Export Plug-In . SVG Version: 6.00 Build 0)  -->
<svg version="1.1" id="Layer_1" xmlns="http://www.w3.org/2000/svg" xmlns:xlink="http://www.w3.org/1999/xlink" x="0px" y="0px"
	 width="64px" height="64px" viewBox="0 0 64 64" enable-background="new 0 0 64 64" xml:space="preserve">
<path display="none" fill-rule="evenodd" clip-rule="evenodd" d="M61.8,35.4c-2.9,2.3-3.7,5.1-2.3,8.5c1.4,3.4,0.2,5.4-3.4,5.9
	c-3.6,0.5-5.7,2.6-6.3,6.3c-0.5,3.6-2.5,4.8-5.9,3.4c-3.4-1.4-6.3-0.6-8.5,2.3c-2.3,2.9-4.6,2.9-6.8,0c-2.3-2.9-5.1-3.7-8.5-2.3
	c-3.4,1.4-5.4,0.2-5.9-3.4c-0.5-3.6-2.6-5.7-6.3-6.3c-3.6-0.5-4.8-2.5-3.4-5.9c1.4-3.4,0.6-6.3-2.3-8.5c-2.9-2.3-2.9-4.6,0-6.8
	c2.9-2.3,3.7-5.1,2.3-8.5c-1.4-3.4-0.2-5.4,3.4-5.9c3.6-0.5,5.7-2.6,6.3-6.3c0.5-3.6,2.5-4.8,5.9-3.4c3.4,1.4,6.3,0.6,8.5-2.3
	c2.3-2.9,4.6-2.9,6.8,0c2.3,2.9,5.1,3.7,8.5,2.3c3.4-1.4,5.4-0.2,5.9,3.4c0.5,3.6,2.6,5.7,6.3,6.3c3.6,0.5,4.8,2.5,3.4,5.9
	c-1.4,3.4-0.6,6.3,2.3,8.5C64.7,30.9,64.7,33.1,61.8,35.4z M43.3,19.9L27.9,35.4L21,28.6l-4.7,4.7l11.5,11.5L48,24.6L43.3,19.9z"/>
<g>
	<g>
		<path d="M3,64h25V33H3V64z M0,29h28V18H0V29z M36,64h25V33H36V64z M36,18v11h28V18H36z M44.8,14.1c10,0,10.1-14,0.1-14
			C38.2,0.1,34.3,6,32,10.6C29.7,6,25.8,0,19.4,0c-9.9,0-9.8,14.1,0.1,14.1h10.9c0,0,0,0,0,0C30.3,14.1,38.7,14.1,44.8,14.1z
			 M43.4,4.7c3.4,0,3.5,5.5-0.9,5.5h-5.9C38.8,7.1,40.8,4.7,43.4,4.7z M21.6,10.2c-4.3,0-4.1-5.5-0.8-5.5c2.5,0,4.5,2.4,6.6,5.5
			H21.6z"/>
	</g>
</g>
</svg>
