<?xml version="1.0" encoding="utf-8"?>
<!-- Generator: Adobe Illustrator 19.1.0, SVG Export Plug-In . SVG Version: 6.00 Build 0)  -->
<svg version="1.1" id="Layer_1" xmlns="http://www.w3.org/2000/svg" xmlns:xlink="http://www.w3.org/1999/xlink" x="0px" y="0px"
	 width="64px" height="64px" viewBox="0 0 64 64" enable-background="new 0 0 64 64" xml:space="preserve">
<path d="M32,0C14.3,0,0,14.4,0,32s14.3,32,32,32s32-14.3,32-32S49.7,0,32,0z M21.1,48.5h-3.7v-33h3.7V48.5z M46.6,35.3
	c0,0.1-0.5,0.4-1.4,1c-0.9,0.6-2.2,0.9-3.7,1c-2.2-0.2-3.9-0.8-5.2-2s-3.1-1.8-5.6-2c-1.4,0-2.7,0.3-3.9,0.8c-1.2,0.5-2.3,1-3.1,1.6
	V18.3c0.6-0.5,1.6-1.1,2.9-1.6c1.3-0.5,2.7-0.8,4.2-0.8c2.6,0.2,4.4,0.9,5.5,2.1c1.1,1.2,2.8,1.9,5,2.1c1.6-0.1,2.9-0.4,3.9-1
	c1-0.6,1.5-1,1.5-1V35.3z"/>
</svg>
