<?xml version="1.0" encoding="utf-8"?>
<!-- Generator: Adobe Illustrator 17.0.0, SVG Export Plug-In . SVG Version: 6.00 Build 0)  -->
<!DOCTYPE svg PUBLIC "-//W3C//DTD SVG 1.1//EN" "http://www.w3.org/Graphics/SVG/1.1/DTD/svg11.dtd">
<svg version="1.1" id="Layer_1" xmlns="http://www.w3.org/2000/svg" xmlns:xlink="http://www.w3.org/1999/xlink" x="0px" y="0px"
	 width="16px" height="16px" viewBox="0 0 16 16" enable-background="new 0 0 16 16" xml:space="preserve">
<path fill="#FFFFFF" d="M8,0C3.582,0,0,3.582,0,8s3.582,8,8,8s8-3.582,8-8S12.418,0,8,0z M6.406,13.832
	c-0.641,0-1.086-0.302-1.086-0.979c0-0.854,0.605-2.315,0.731-2.618l1.246-3.134c0.125-0.32-0.036-0.48-0.178-0.48
	c-0.659,0-1.514,1.549-1.834,1.549c-0.125,0-0.232-0.125-0.232-0.232c0-0.32,0.783-1.068,1.015-1.3
	C6.78,5.961,7.706,5.445,8.739,5.445c0.765,0,1.585,0.463,0.944,2.19l-1.282,3.472c-0.106,0.267-0.302,0.713-0.302,0.997
	c0,0.125,0.071,0.249,0.213,0.249c0.534,0,1.514-1.514,1.763-1.514c0.089,0,0.213,0.107,0.213,0.267
	C10.288,11.623,8.205,13.832,6.406,13.832z M9.469,4.804c-0.73,0-1.211-0.481-1.211-1.211c0-0.783,0.677-1.424,1.46-1.424
	c0.713,0,1.229,0.48,1.229,1.211C10.947,4.199,10.271,4.804,9.469,4.804z"/>
</svg>
